#N canvas 198 0 1053 626 16;
#X obj 572 352 output;
#X obj 572 196 mixer4 0 0.839558 0.62729 0.173983 1 0.373737 0.50505
0.535354 0.50505 1 0 0 1 0 0 0 0 0 0 0 1;
#X obj 168 129 seq16bin 0 39048 53836 0 0 55933 0 0 0 4;
#X obj 177 531 bus 1;
#X obj 730 86 seq16bin 0 43690 43008 8736 0 0 0 0 0 2;
#X obj 172 230 sampler3 0 46 539 79 C:/Users/Ada/Documents/Soundlibrary/tapesnaps2.wav
;
#X obj 780 195 sampler3 0 58 669 150 C:/Users/Ada/Documents/Soundlibrary/170325_0239S12.wav.wav
;
#X obj 150 332 simplevca 0 471 1255 44;
#X obj 371 386 delaypanel 0 1 138.913 0.470709 1264.41 0.850394 1.01339
1 1.01969;
#X obj 377 549 bus 2;
#X obj 183 405 filterpanel 0 573.39 3.68687 40 0;
#X obj 37 255 attenuvert 0 64 1;
#X obj 37 175 lfopanel 0 1.35753 0.568182 0;
#X obj 76 310 s~ fb;
#X obj 808 473 bus 3;
#X obj 761 346 simplevca 0 2 760 114;
#X obj 884 299 attenuvert 0 95 0;
#X obj 968 297 attenuvert 0 99 0;
#X obj 779 405 *~ 2;
#X obj 840 408 *~ 2;
#X obj 160 36 clock 0 77 1 14 0 0;
#X obj 365 122 tgl 15 0 empty empty empty 17 7 0 10 -262144 -1 -1 0
1;
#X obj 365 142 + 0.5;
#X msg 366 200 time \$1;
#X obj 365 164 * 200;
#X obj 403 210 lfopanel 0 1.70916 0.422727 2;
#X obj 402 291 max~;
#X obj 335 331 attenuvert 0 43 1;
#X obj 471 296 attenuvert 0 10.72 0;
#X obj 493 150 attenuvert 0 7 1;
#X obj 862 506 sampler3 0 237 292 54 C:/Users/Ada/Documents/Soundlibrary/170326_0245S12.wav
;
#X obj 925 448 trigpanel 0 9;
#X obj 863 576 bus 4;
#X obj 698 516 lfopanel 0 21.534 0.513636 1;
#X obj 699 597 attenuvert 0 110 1;
#X obj 818 609 min~;
#X obj 64 351 attenuvert 0 40 1;
#X obj 472 39 osc~ 440;
#X obj 472 61 *~ 0.4;
#X connect 1 0 0 0;
#X connect 1 1 0 1;
#X connect 2 0 5 0;
#X connect 2 0 7 0;
#X connect 4 0 6 0;
#X connect 4 0 15 0;
#X connect 5 0 7 1;
#X connect 5 1 7 2;
#X connect 6 0 15 1;
#X connect 6 1 15 2;
#X connect 7 0 10 0;
#X connect 7 1 10 1;
#X connect 8 0 9 0;
#X connect 8 1 9 1;
#X connect 10 0 8 0;
#X connect 10 0 3 0;
#X connect 10 1 8 1;
#X connect 10 1 3 1;
#X connect 11 0 13 0;
#X connect 11 0 5 2;
#X connect 11 0 26 1;
#X connect 12 0 11 0;
#X connect 12 1 36 0;
#X connect 15 0 18 0;
#X connect 15 0 8 0;
#X connect 15 1 19 0;
#X connect 15 1 8 1;
#X connect 16 0 15 4;
#X connect 17 0 15 5;
#X connect 18 0 14 0;
#X connect 19 0 14 1;
#X connect 20 0 2 0;
#X connect 20 0 4 0;
#X connect 20 1 21 0;
#X connect 21 0 22 0;
#X connect 22 0 24 0;
#X connect 23 0 20 0;
#X connect 24 0 23 0;
#X connect 25 0 26 0;
#X connect 25 0 31 0;
#X connect 25 1 28 0;
#X connect 25 1 30 2;
#X connect 25 1 33 1;
#X connect 26 0 27 0;
#X connect 26 0 29 0;
#X connect 27 0 10 2;
#X connect 28 0 8 2;
#X connect 28 0 35 1;
#X connect 29 0 5 1;
#X connect 30 0 32 0;
#X connect 30 1 32 1;
#X connect 31 0 30 0;
#X connect 31 1 30 0;
#X connect 33 0 34 0;
#X connect 34 0 35 0;
#X connect 35 0 30 1;
#X connect 37 0 38 0;
#X connect 38 0 8 0;
#X connect 38 0 8 1;
