#N canvas 254 0 1020 670 16;
#X obj 527 347 output;
#X obj 527 191 mixer4 0 0.839558 0.889953 0.146069 0.246834 0.464646
0.525253 0.535354 0.50505 1 1 1 1 0 0 0 0 0 0 0 1;
#X obj 168 68 clock 0 115 1 2 12 24;
#X obj 168 129 seq16bin 0 37512 0 0 0 0 0 0 0 0;
#X obj 172 295 bus 1;
#X obj 369 15 lfopanel 0 10.3652 0.195455 2;
#X obj 363 160 seq16bin 0 2176 2048 0 0 0 0 0 0 1;
#X obj 364 297 bus 2;
#X obj 172 230 sampler3 0 65 71 C:/Users/Ada/Documents/Soundlibrary/tapeloop1.wav
;
#X obj 47 321 seq16bin 0 37448 32768 0 0 0 0 0 0 0;
#X obj 173 496 bus 3;
#X obj 730 86 seq16bin 0 32800 43008 0 0 0 0 0 0 0;
#X obj 729 510 bus 4;
#X obj 591 123 adadelay 15;
#X obj 732 327 *~;
#X obj 781 331 *~;
#X obj 837 284 adsrpanel 0 234.664 1 0 C:/Users/Ada/Documents/Pd/ecl/eclobjects/wavetables/square3.txt
;
#X obj 364 232 sampler3 2 76 88 C:/Users/Ada/Documents/Soundlibrary/tapesnaps2.wav
;
#X obj 171 384 sampler3 0 44 169 C:/Users/Ada/Documents/Soundlibrary/crackles.wav
;
#X obj 734 207 sampler3 0 16.11 672 C:/Users/Ada/Documents/Soundlibrary/170325_0242S12.wav
;
#X obj 473 24 lfopanel 0 5.27638 0.259091 0;
#X obj 37 175 lfopanel 0 6.46113 0.477273 1;
#X obj 37 255 attenuvert 0 56 1;
#X obj 383 356 trigpanel 0 44;
#X obj 350 557 sampler3 0 90 228 C:/Users/Ada/Documents/Soundlibrary/170325_0242S12.wav
;
#X obj 350 622 bus 4;
#X obj 373 398 adsrpanel 0 527.638 1 0 C:/Users/Ada/Documents/Pd/ecl/eclobjects/wavetables/kickenv.txt
;
#X obj 581 18 lfopanel 0 0.289333 0.05 1;
#X obj 117 251 s~ fb;
#X obj 672 24 r~ fb;
#X obj 22 507 adsrpanel 0 1108.92 1 0 C:/Users/Ada/Documents/Pd/ecl/eclobjects/wavetables/crab.txt
;
#X obj 680 54 divider 2;
#X obj 279 530 divider 8;
#X obj 260 490 trigpanel 0 0;
#X obj 362 109 attenuvert 0 35.96 0;
#X obj 473 104 attenuvert 0 85 0;
#X obj 397 515 attenuvert 0 -45 1;
#X obj 214 551 divider 16;
#X connect 1 0 0 0;
#X connect 1 1 0 1;
#X connect 2 0 3 0;
#X connect 2 0 6 0;
#X connect 2 1 9 0;
#X connect 2 1 13 0;
#X connect 2 2 5 3;
#X connect 2 3 20 3;
#X connect 2 3 31 0;
#X connect 3 0 8 0;
#X connect 5 0 21 0;
#X connect 5 0 28 0;
#X connect 5 0 34 0;
#X connect 6 0 17 0;
#X connect 8 0 4 0;
#X connect 8 1 4 1;
#X connect 9 0 18 0;
#X connect 13 0 11 0;
#X connect 14 0 12 0;
#X connect 15 0 12 1;
#X connect 16 0 15 1;
#X connect 16 0 14 1;
#X connect 17 0 7 0;
#X connect 17 1 7 1;
#X connect 18 0 10 0;
#X connect 18 0 10 1;
#X connect 18 1 10 1;
#X connect 19 0 14 0;
#X connect 19 1 15 0;
#X connect 20 0 5 1;
#X connect 20 0 35 0;
#X connect 21 0 22 0;
#X connect 22 0 18 1;
#X connect 23 0 19 0;
#X connect 23 0 16 0;
#X connect 23 0 32 0;
#X connect 23 0 22 1;
#X connect 23 1 26 0;
#X connect 23 1 19 0;
#X connect 23 1 16 0;
#X connect 24 0 25 0;
#X connect 24 1 25 1;
#X connect 26 0 36 0;
#X connect 27 0 23 0;
#X connect 27 0 20 0;
#X connect 29 0 27 0;
#X connect 30 0 21 0;
#X connect 30 0 18 1;
#X connect 31 0 27 3;
#X connect 32 0 24 0;
#X connect 32 0 35 1;
#X connect 33 0 37 0;
#X connect 34 0 8 1;
#X connect 35 0 8 2;
#X connect 35 0 33 0;
#X connect 35 0 1 2;
#X connect 36 0 8 1;
#X connect 37 0 30 0;
