#N canvas 306 95 1052 670 16;
#X obj 572 352 output;
#X obj 572 196 mixer4 0 0.417112 0.246834 1 1 0.373737 0.50505 0.535354
0.50505 0 0 0 0 0 0 0 0 0 0 0 1;
#X obj 168 68 clock 0 104 1 2 8 24;
#X obj 168 129 seq16bin 0 49087 53836 0 0 0 0 0 0 0;
#X obj 177 531 bus 1;
#X obj 364 10 lfopanel 0 3.70584 0.359091 2;
#X obj 730 86 seq16bin 0 43690 43008 65535 0 0 0 0 0 2;
#X obj 172 230 sampler3 0 185 440 150 C:/Users/Ada/Documents/Soundlibrary/170326_0245S12.wav
;
#X obj 780 195 sampler3 0 576.11 425 150 C:/Users/Ada/Documents/Soundlibrary/170325_0236S12.wav
;
#X obj 344 259 cyclone/slide~ 5 44100;
#X obj 150 332 simplevca 0 1 1203 11;
#X obj 447 324 attenuvert 0 -10 0;
#X obj 373 386 delaypanel 0 1 225.997 0.879685 3698.73 0.787402 1.01339
1 0.972441;
#X obj 377 549 bus 2;
#X obj 183 405 filterpanel 0 287.452 0.50505 33.8889 0;
#X obj 37 255 attenuvert 0 96 1;
#X obj 365 121 attenuvert 0 1 1;
#X obj 473 104 attenuvert 0 -68 1;
#X obj 368 324 attenuvert 0 18 0;
#X obj 906 419 cyclone/scope~ 130 130 256 3 128 -1 1 0 0 0 0 205 229
232 74 79 77 96 98 102 0;
#X obj 403 193 min~;
#X obj 463 11 lfopanel 0 0.146481 0.168182 2;
#X obj 37 175 lfopanel 0 85.7655 0.95 2;
#X obj 582 5 lfopanel 0 2.51093 0.65 2;
#X obj 76 310 s~ fb;
#X obj 267 10 r~ fb;
#X obj 808 422 bus 3;
#X obj 761 346 simplevca 0 4 280 259;
#X obj 884 299 attenuvert 0 95 1;
#X obj 968 297 attenuvert 0 99 1;
#X connect 1 0 0 0;
#X connect 1 1 0 1;
#X connect 2 0 3 0;
#X connect 2 0 6 0;
#X connect 2 2 5 3;
#X connect 2 2 21 3;
#X connect 3 0 7 0;
#X connect 3 0 10 0;
#X connect 5 0 16 0;
#X connect 5 0 18 1;
#X connect 5 0 10 5;
#X connect 5 0 22 0;
#X connect 5 1 12 3;
#X connect 5 1 22 0;
#X connect 6 0 8 0;
#X connect 6 0 27 0;
#X connect 7 0 10 1;
#X connect 7 1 10 2;
#X connect 8 0 27 1;
#X connect 8 1 27 2;
#X connect 10 0 14 0;
#X connect 10 1 14 1;
#X connect 11 0 12 2;
#X connect 12 0 13 0;
#X connect 12 1 13 1;
#X connect 14 0 12 0;
#X connect 14 0 4 0;
#X connect 14 1 12 1;
#X connect 14 1 4 1;
#X connect 15 0 24 0;
#X connect 16 0 9 0;
#X connect 16 0 20 0;
#X connect 17 0 20 1;
#X connect 17 0 23 1;
#X connect 17 0 23 0;
#X connect 20 0 7 1;
#X connect 21 0 5 0;
#X connect 21 0 17 0;
#X connect 21 1 11 1;
#X connect 21 1 28 0;
#X connect 21 1 29 0;
#X connect 22 0 15 0;
#X connect 23 1 11 0;
#X connect 23 1 18 0;
#X connect 23 1 8 2;
#X connect 25 0 21 0;
#X connect 25 0 5 0;
#X connect 27 0 26 0;
#X connect 27 1 26 1;
#X connect 28 0 27 4;
#X connect 29 0 27 5;
