#N canvas 683 0 667 670 16;
#X obj 527 347 output;
#X obj 527 191 mixer4 0 0.747167 1 1 0.792016 0.464646 0.525253 0.535354
0.50505 1 1 1 1 0 0 0 0 0 0 0 1;
#X obj 168 68 clock 0 120 1 2 8 24;
#X obj 168 129 seq16bin 0 32768 0 0 0 0 0 0 0 0;
#X obj 172 295 bus 1;
#X obj 369 15 lfopanel 0 11.8638 0.577273 2;
#X obj 363 160 seq16bin 0 2176 128 0 0 0 0 0 0 0;
#X obj 364 297 bus 2;
#X obj 47 321 seq16bin 0 37468 21845 0 0 0 0 0 0 0;
#X obj 173 496 bus 3;
#X obj 730 86 seq16bin 0 43690 43008 18485 0 0 0 0 0 2;
#X obj 729 510 bus 4;
#X obj 591 123 adadelay 15;
#X obj 732 327 *~;
#X obj 781 331 *~;
#X obj 837 284 adsrpanel 0 1036.52 1.38853 0 C:/Users/Ada/Documents/Pd/ecl/eclobjects/wavetables/kickenv.txt
;
#X obj 37 255 attenuvert 0 96 0;
#X obj 383 356 trigpanel 0 44;
#X obj 350 622 bus 4;
#X obj 373 398 adsrpanel 0 30.9544 1 0 C:/Users/Ada/Documents/Pd/ecl/eclobjects/wavetables/kickenv.txt
;
#X obj 117 251 s~ fb;
#X obj 672 24 r~ fb;
#X obj 22 507 adsrpanel 0 1108.92 1 0 C:/Users/Ada/Documents/Pd/ecl/eclobjects/wavetables/crab.txt
;
#X obj 680 54 divider 2;
#X obj 260 490 trigpanel 0 0;
#X obj 362 109 attenuvert 0 26.6 1;
#X obj 473 104 attenuvert 0 85 1;
#X obj 397 515 attenuvert 0 -45 1;
#X obj 214 551 divider 16;
#X obj 172 230 sampler3 0 67 274 45 C:/Users/Ada/Documents/Soundlibrary/tapeloop1.wav
;
#X obj 473 24 lfopanel 0 0.975511 0.595455 2;
#X obj 37 175 lfopanel 0 5.27638 0.813636 2;
#X obj 581 18 lfopanel 0 0.289333 0.713636 1;
#X obj 734 207 sampler3 0 19.11 461 150 C:/Users/Ada/Documents/Soundlibrary/170325_0239S12.wav.wav
;
#X obj 363 226 sampler3 2 37 88 110 C:/Users/Ada/Documents/Soundlibrary/tapesnaps2.wav
;
#X obj 171 384 sampler3 0 84 233 70 C:/Users/Ada/Documents/Soundlibrary/crackles.wav
;
#X obj 350 557 sampler3 0 90 214 0 C:/Users/Ada/Documents/Soundlibrary/170325_0242S12.wav
;
#X obj 568 518 divider 10;
#X obj 858 416 attenuvert 0 72 0;
#X obj 279 526 divider 25;
#X obj 810 495 sampler3 0 361 258 150 C:/Users/Ada/Documents/Soundlibrary/170325_0237S12.wav
;
#X obj 813 570 *~;
#X obj 854 570 *~;
#X obj 969 400 adsrpanel 0 18.0355 2.18058 1 C:/Users/Ada/Documents/Pd/ecl/eclobjects/wavetables/kickenv.txt
;
#X obj 813 592 bus 2;
#X obj 890 89 seq16bin 0 61039 54895 0 0 0 0 0 0 0;
#X obj 696 439 max~;
#X connect 1 0 0 0;
#X connect 1 1 0 1;
#X connect 2 0 3 0;
#X connect 2 0 6 0;
#X connect 2 0 45 0;
#X connect 2 1 8 0;
#X connect 2 1 12 0;
#X connect 2 2 5 3;
#X connect 2 3 23 0;
#X connect 2 3 30 3;
#X connect 3 0 29 0;
#X connect 5 0 20 0;
#X connect 5 0 25 0;
#X connect 5 0 31 0;
#X connect 5 0 46 0;
#X connect 6 0 34 0;
#X connect 8 0 35 0;
#X connect 10 0 33 0;
#X connect 10 0 15 0;
#X connect 12 0 10 0;
#X connect 13 0 11 0;
#X connect 14 0 11 1;
#X connect 15 0 14 1;
#X connect 15 0 13 1;
#X connect 15 0 38 0;
#X connect 16 0 35 1;
#X connect 17 0 15 0;
#X connect 17 0 16 1;
#X connect 17 0 37 0;
#X connect 17 0 39 0;
#X connect 17 1 19 0;
#X connect 17 1 15 0;
#X connect 19 0 27 0;
#X connect 21 0 32 0;
#X connect 21 0 32 1;
#X connect 22 0 31 0;
#X connect 22 0 35 1;
#X connect 23 0 32 3;
#X connect 24 0 28 0;
#X connect 25 0 29 1;
#X connect 26 0 24 0;
#X connect 26 0 1 2;
#X connect 26 0 29 2;
#X connect 27 0 29 1;
#X connect 28 0 22 0;
#X connect 29 0 4 0;
#X connect 29 1 4 1;
#X connect 30 0 5 1;
#X connect 30 0 26 0;
#X connect 30 0 46 0;
#X connect 30 1 15 1;
#X connect 30 1 43 1;
#X connect 31 0 16 0;
#X connect 32 0 17 0;
#X connect 32 0 30 0;
#X connect 32 1 5 1;
#X connect 32 1 46 1;
#X connect 33 0 13 0;
#X connect 33 1 14 0;
#X connect 34 0 7 0;
#X connect 34 1 7 1;
#X connect 35 0 9 0;
#X connect 35 0 9 1;
#X connect 35 1 9 1;
#X connect 36 0 18 0;
#X connect 36 1 18 1;
#X connect 37 0 25 1;
#X connect 38 0 33 1;
#X connect 39 0 36 0;
#X connect 40 0 41 0;
#X connect 40 1 42 0;
#X connect 41 0 44 0;
#X connect 42 0 44 1;
#X connect 43 0 42 1;
#X connect 43 0 41 1;
#X connect 45 0 43 0;
#X connect 45 0 40 0;
#X connect 46 0 40 1;
