#N canvas 493 50 798 671 10;
#X obj 250 238 sampler 0 1.8 75.8687 77.2794 130 0 0 1 0.01 73.7924
0.0434783 2 0.302326 0 0 0 0 0 0 0 0 0 0 0 0 0 C:/Users/Ada/Documents/Soundlibrary/170325_0241S12.wav
;
#X obj 422 290 mixer4 0 0.704857 0.219671 0.62729 0.195497 0.50505
0.515152 0.494949 0.494949 0 0 0 0 0 0 0 0 0 0 0 1;
#X obj 424 476 output;
#X obj 97 59 keyb;
#X obj 250 403 bus 1;
#X obj 222 433 delaypanel 0 0 50.2566 0.771654 1264.41 1.00787 1.26457
1 1.03543;
#X obj 222 578 bus 2;
#X obj 400 168 velociraptor 0 48 27 11;
#X obj 558 52 lfopanel 0 8.46457 0.613636 1;
#X obj 393 217 scaler;
#X obj 645 82 lfopanel 0 1.46277 0.05 0;
#X obj 560 200 max~;
#X obj 312 12 clock 0 143 1 0 0 0;
#X obj 469 1 lfopanel 0 3.28902 0.340909 0;
#X obj 469 81 *~ 0.3;
#X obj 469 100 *~ -1;
#X obj 616 203 min~;
#X obj 615 257 min~;
#X obj 681 230 lfopanel 0 7.9119 0.868182 2;
#X obj 464 139 *~;
#X obj 312 67 seq16 0 1 1 0 1 1 1 1 1 0 1 1 1 1 1 1 1;
#X obj 591 341 303panel 0 86.5629 4.2 169.134 0 0.171717;
#X obj 739 128 seq16bin 0 43146 34952 39532 0 0 0 0 0 0;
#X obj 608 457 bus 3;
#X obj 765 370 303panel 0 1407.38 4.15758 100 0.744444 0.419192;
#X obj 768 230 seq16bin 0 43144 43144 39532 2312 60799 0 0 0 4;
#X obj 752 607 bus 4;
#X obj 74 537 bus 4;
#X obj 765 475 shaperpanel 0 0.919192 0.219192;
#X msg 255 117 note 32 \, pmod 12 \, min 11;
#X obj 58 231 sampler 0 1.8 91.2828 15000 1124 0 0 1 0.01 47.8031 0
4.45509 0.0387597 0 0 0 0 0 0 0 0 0 0 0 0 0 C:/Users/Ada/Documents/Soundlibrary/170325_0236S12.wav
;
#X connect 0 0 4 0;
#X connect 0 0 5 0;
#X connect 0 1 4 1;
#X connect 0 1 5 1;
#X connect 1 0 2 0;
#X connect 1 1 2 1;
#X connect 5 0 6 0;
#X connect 5 1 6 1;
#X connect 7 0 9 0;
#X connect 7 0 30 2;
#X connect 8 0 11 0;
#X connect 8 0 16 0;
#X connect 8 0 18 1;
#X connect 8 0 19 0;
#X connect 8 0 21 1;
#X connect 9 0 0 2;
#X connect 10 0 11 1;
#X connect 10 0 16 1;
#X connect 11 0 19 1;
#X connect 12 0 20 0;
#X connect 12 0 22 0;
#X connect 12 0 25 0;
#X connect 13 0 14 0;
#X connect 14 0 15 0;
#X connect 14 0 10 0;
#X connect 14 0 18 0;
#X connect 15 0 8 0;
#X connect 15 0 17 0;
#X connect 16 0 17 0;
#X connect 16 0 24 1;
#X connect 17 0 7 2;
#X connect 18 0 17 1;
#X connect 19 0 7 1;
#X connect 20 0 7 0;
#X connect 21 0 23 0;
#X connect 21 1 23 1;
#X connect 22 0 21 0;
#X connect 24 0 28 0;
#X connect 24 1 28 1;
#X connect 25 0 24 0;
#X connect 28 0 26 0;
#X connect 28 1 26 1;
#X connect 29 0 7 3;
#X connect 30 0 27 0;
#X connect 30 1 27 1;
