#N canvas 0 53 1360 687 10;
#X obj 837 502 output;
#X obj 484 219 303panel 0 120.966 1.01818 1095.77 0.122222 0.419192
;
#X obj 208 46 clock 0 136 1 4 0 0;
#X obj 358 132 seq16bin 0 64479 63487 23663 0 0 0 0 0 1;
#X obj 209 245 oeiseq 0 40 24 294 14 358;
#X obj 632 51 lfopanel 0 0.500359 0.768182 2;
#X obj 641 165 max~;
#X obj 723 109 lfopanel 0 0.292332 0.295455 2;
#X obj 672 190 min~;
#X obj 533 56 lfopanel 0 0.232191 0.313636 3;
#X obj 540 157 max~;
#X msg 298 175 10;
#X obj 66 163 sampler3 0 95 0 145 0 1 /home/ada/Documents/soundlibrary/Drums/kicks/minimalsub.wav
;
#X obj 69 97 seq16bin 0 34952 0 0 0 0 0 0 0 0;
#X obj 67 388 bus 2;
#X obj 837 322 mixer4 0 0.37121 0.792016 0 0 0.484848 0.535354 0 0
1 1 0 0 0 0 0 0 0 0 0 1;
#X obj 484 324 bus 1;
#X connect 1 0 16 0;
#X connect 1 1 16 1;
#X connect 2 0 3 0;
#X connect 2 0 13 0;
#X connect 2 1 11 0;
#X connect 3 0 4 0;
#X connect 4 0 1 0;
#X connect 5 0 6 0;
#X connect 5 0 9 0;
#X connect 5 1 8 0;
#X connect 5 1 10 1;
#X connect 6 0 1 4;
#X connect 6 0 1 2;
#X connect 7 0 8 1;
#X connect 7 1 6 1;
#X connect 8 0 1 3;
#X connect 9 0 10 0;
#X connect 10 0 1 1;
#X connect 12 0 14 0;
#X connect 12 1 14 1;
#X connect 13 0 12 0;
#X connect 15 0 0 0;
#X connect 15 1 0 1;
