#N canvas 116 53 1039 631 10;
#X obj 102 102 cnv 15 146 96 empty empty 303_\$1 100 12 0 11 -111417
-228856 0;
#X obj 393 265 osc~;
#X obj 438 265 osc~;
#X obj 98 38 inlet;
#X obj 426 74 mtof;
#X obj 391 331 bob~;
#X obj 436 331 bob~;
#X obj 393 287 fold~;
#X obj 438 287 fold~;
#X obj 329 457 outlet~;
#X obj 449 457 outlet~;
#X obj 405 50 loadbang;
#X obj 354 381 ad, f 6;
#X obj 329 435 *~;
#X obj 380 191 bang;
#X obj 449 435 *~;
#X msg 359 66 30;
#X obj 468 124 osc~;
#X obj 468 148 +~ 1;
#X msg 497 69 40;
#X obj 611 312 *~;
#X obj 611 334 smoother 50;
#X obj 143 119 moonlib/mknob 25 100 0 4.2 0 1 \$0-qsnd \$0-qrcv Q -2
-6 0 8 -259622 -228856 -261488 1700 1;
#X obj 232 38 inlet~;
#X obj 611 290 cyclone/scale~ -1 1 0.5 1.5;
#X text 633 80 fold env;
#X text 512 358 amp env;
#X text 677 212 cutoff env;
#X obj 192 156 bng 30 250 50 0 empty empty trig 2 35 0 10 -261234 -203904
-228856;
#X obj 179 119 moonlib/mknob 25 100 100 1800 1 1 \$0-decsnd \$0-decrcv
dec -2 -6 0 8 -2368 -228856 -208064 4600 1;
#X text 232 18 q inlet;
#X obj 282 38 inlet~;
#X text 282 18 dec inlet;
#X obj 70 239 snapshot~;
#X obj 156 160 moonlib/mknob 25 100 0 0.5 0 1 \$0-decmodsnd \$0-decmodrcv
decMod -2 -6 0 8 -244487 -228856 -261800 1500 1;
#X obj 65 294 *;
#X obj 468 381 ad, f 6;
#X obj 626 211 ad, f 7;
#X obj 566 103 ad, f 9;
#X obj 121 160 moonlib/mknob 25 100 0 1.1 0 1 \$0-timbresnd \$0-timbrercv
timbre -2 -6 0 8 -224119 -228856 -261426 1900 1;
#X obj 329 38 inlet~;
#X text 348 18 timbre inlet;
#X msg 319 290 1 \$1;
#X obj 70 217 scalearound1;
#X obj 124 316 snapshot~;
#X obj 124 294 cyclone/scale~ -1 1 0.2 1.8;
#X obj 124 338 *;
#X obj 124 360 *;
#X obj 126 382 s \$0-tofoldenv;
#X obj 707 59 r \$0-tofoldenv;
#X msg 633 59 1 \$1;
#X obj 256 160 t f b;
#X obj 108 119 moonlib/mknob 25 100 30 7500 1 1 \$0-cutoffsnd \$0-cutoffrcv
cutoff -2 -6 0 8 -259835 -228856 -232576 3500 1;
#X obj 581 287 *~;
#X obj 581 265 smoother 50;
#X obj 683 254 +~ 0.5;
#X obj 148 38 inlet~;
#X text 148 18 cutoff inlet;
#X obj 566 169 +~ 1.2;
#X obj 566 147 *~ 1;
#X obj 15 382 s \$0-tocutoffenv;
#X obj 744 191 r \$0-tocutoffenv;
#X msg 683 191 1 \$1;
#X obj 354 403 pow~ 1.5;
#X obj 468 403 pow~ 1.5;
#X obj 761 289 snapshot~;
#X obj 683 276 *~ 1;
#X obj 347 290 *~ 0.3;
#X obj 479 290 *~ 0.3;
#X obj 683 232 *~ 3;
#X obj 468 170 +~ 0;
#X obj 468 148 *~ 0.2;
#X obj 497 91 + 7;
#X obj 566 125 *~ 7;
#X obj 504 126 osc~;
#X obj 504 170 +~ 1;
#X obj 504 192 +~ 0;
#X obj 504 148 *~ 0.2;
#X obj 744 265 cyclone/scale~ -1 1 0.2 1.8;
#X msg 266 128 30;
#X obj 531 91 + 7;
#X msg 305 216 0.1;
#X msg 334 155 0.104;
#X obj 744 191 / 2;
#X obj 692 137 / 400;
#X obj 640 550 pack \$1 f f f f f;
#X obj 640 572 canvasargs;
#X obj 617 460 r \$0-cutoffsnd;
#X obj 711 460 r \$0-qsnd;
#X obj 777 460 r \$0-decsnd;
#X obj 635 482 r \$0-timbresnd;
#X obj 730 481 r \$0-decmodsnd;
#X obj 629 514 t b f;
#X obj 669 515 t b f;
#X obj 708 515 t b f;
#X obj 748 515 t b f;
#X obj 788 515 t b f;
#X text 648 433 state saving;
#X obj 110 542 s \$0-decrcv;
#X obj 72 501 s \$0-cutoffrcv;
#X obj 95 522 s \$0-qrcv;
#X obj 128 561 s \$0-timbrercv;
#X obj 147 581 s \$0-decmodrcv;
#X obj 83 450 pack \$1 \$2 \$3 \$4 \$5 \$6;
#X obj 83 472 unpack f f f f f f;
#X text 195 516 state loading;
#X obj 541 514 r savemessage;
#X text 809 51 inlets \; 1 midi note number (triggers envelope) \;
2 cutoff cv (-1 to 1) \; 3 q cv (-1 to 1) \; 4 decay cv (-1 to 1) \;
5 timbre cv (-1 to 1) \;, f 29;
#X obj 97 61 stripnote;
#X obj 97 83 pack f f;
#X obj 81 424 initbang;
#X connect 1 0 7 0;
#X connect 1 0 67 0;
#X connect 2 0 8 0;
#X connect 2 0 68 0;
#X connect 3 0 108 0;
#X connect 4 0 14 0;
#X connect 4 0 70 1;
#X connect 4 0 72 0;
#X connect 4 0 76 1;
#X connect 4 0 80 0;
#X connect 5 0 13 0;
#X connect 6 0 15 0;
#X connect 7 0 5 0;
#X connect 8 0 6 0;
#X connect 11 0 16 0;
#X connect 12 0 63 0;
#X connect 13 0 9 0;
#X connect 14 0 12 0;
#X connect 14 0 36 0;
#X connect 14 0 37 0;
#X connect 14 0 38 0;
#X connect 15 0 10 0;
#X connect 16 0 4 0;
#X connect 17 0 71 0;
#X connect 18 0 70 0;
#X connect 19 0 4 0;
#X connect 20 0 6 2;
#X connect 20 0 5 2;
#X connect 21 0 20 1;
#X connect 22 0 21 0;
#X connect 23 0 24 0;
#X connect 24 0 20 0;
#X connect 28 0 79 0;
#X connect 29 0 35 1;
#X connect 31 0 43 0;
#X connect 33 0 35 0;
#X connect 34 0 43 1;
#X connect 35 0 42 0;
#X connect 35 0 47 1;
#X connect 35 0 60 0;
#X connect 36 0 64 0;
#X connect 37 0 69 0;
#X connect 38 0 73 0;
#X connect 39 0 46 1;
#X connect 40 0 45 0;
#X connect 42 0 12 2;
#X connect 42 0 36 2;
#X connect 43 0 33 0;
#X connect 44 0 46 0;
#X connect 45 0 44 0;
#X connect 46 0 47 0;
#X connect 47 0 48 0;
#X connect 49 0 50 0;
#X connect 49 0 84 0;
#X connect 50 0 38 2;
#X connect 51 0 4 0;
#X connect 51 1 33 0;
#X connect 51 1 44 0;
#X connect 51 1 65 0;
#X connect 51 1 82 0;
#X connect 52 0 54 0;
#X connect 53 0 5 1;
#X connect 53 0 6 1;
#X connect 54 0 53 0;
#X connect 55 0 66 0;
#X connect 56 0 78 0;
#X connect 58 0 8 1;
#X connect 58 0 7 1;
#X connect 59 0 58 0;
#X connect 61 0 83 0;
#X connect 62 0 37 2;
#X connect 63 0 13 1;
#X connect 64 0 15 1;
#X connect 65 0 66 1;
#X connect 66 0 53 1;
#X connect 67 0 5 0;
#X connect 68 0 6 0;
#X connect 69 0 55 0;
#X connect 70 0 1 0;
#X connect 71 0 18 0;
#X connect 72 0 17 0;
#X connect 73 0 59 0;
#X connect 74 0 77 0;
#X connect 75 0 76 0;
#X connect 76 0 2 0;
#X connect 77 0 75 0;
#X connect 78 0 65 0;
#X connect 79 0 51 0;
#X connect 80 0 74 0;
#X connect 81 0 2 1;
#X connect 82 0 17 1;
#X connect 82 0 74 1;
#X connect 82 0 1 1;
#X connect 82 0 81 0;
#X connect 83 0 62 0;
#X connect 84 0 59 1;
#X connect 85 0 86 0;
#X connect 87 0 92 0;
#X connect 88 0 93 0;
#X connect 89 0 94 0;
#X connect 90 0 95 0;
#X connect 91 0 96 0;
#X connect 92 0 85 0;
#X connect 92 1 85 1;
#X connect 93 0 85 0;
#X connect 93 1 85 2;
#X connect 94 0 85 0;
#X connect 94 1 85 3;
#X connect 95 0 85 0;
#X connect 95 1 85 4;
#X connect 96 0 85 0;
#X connect 96 1 85 5;
#X connect 103 0 104 0;
#X connect 104 1 99 0;
#X connect 104 2 100 0;
#X connect 104 3 98 0;
#X connect 104 4 101 0;
#X connect 104 5 102 0;
#X connect 106 0 85 0;
#X connect 108 0 109 0;
#X connect 109 0 51 0;
#X connect 110 0 103 0;
#X coords 0 -1 1 1 150 100 2 100 100;
