#N canvas 511 335 641 380 10;
#X obj 15 11 cnv 15 146 116 empty empty empty 20 12 0 14 -154873 -66577
0;
#X obj 21 16 vsl 25 100 -1 1 0 0 \$0-band1gainsnd \$0-band1gainrcv
empty 0 -9 0 10 -51300 -225085 -1 6650 1;
#X obj 48 16 vsl 25 100 -1 1 0 0 \$0-band2gainsnd \$0-band2gainrcv
empty 0 -9 0 10 -51300 -225085 -1 3950 1;
#X obj 75 16 vsl 25 100 -1 1 0 0 \$0-band3gainsnd \$0-band3gainrcv
empty 0 -9 0 10 -51300 -225085 -1 0 1;
#X obj 102 16 vsl 25 100 -1 1 0 0 \$0-band4gainsnd \$0-band4gainrcv
empty 0 -9 0 10 -51300 -225085 -1 6350 1;
#X obj 129 16 vsl 25 100 -1 1 0 0 \$0-band5gainsnd \$0-band5gainrcv
empty 0 -9 0 10 -51300 -225085 -1 8550 1;
#X obj 189 21 inlet~ L;
#X obj 362 20 inlet~ R;
#N canvas 454 311 584 353 leftchannel 0;
#X obj 46 152 biquad~;
#X obj 97 151 biquad~;
#X obj 147 151 biquad~;
#X obj 198 150 biquad~;
#X obj 248 150 biquad~;
#X obj 97 181 *~ 0.2;
#X obj 148 181 *~ 0.2;
#X obj 200 181 *~ 0.2;
#X obj 250 181 *~ 0.2;
#X obj 100 18 inlet~;
#X obj 146 276 outlet~;
#N canvas 130 422 998 293 equalizers 0;
#X obj 48 142 equalizer;
#X obj 110 142 equalizer;
#X obj 171 142 equalizer;
#X obj 233 142 equalizer;
#X obj 295 141 equalizer;
#X obj 84 65 initbang;
#X msg 299 105 8000 1 50;
#X obj 82 213 outlet;
#X obj 132 213 outlet;
#X obj 182 213 outlet;
#X obj 232 213 outlet;
#X obj 282 213 outlet;
#X obj 311 14 r \$0-band1gainsnd;
#X obj 431 11 r \$0-band2gainsnd;
#X obj 545 12 r \$0-band3gainsnd;
#X obj 672 12 r \$0-band4gainsnd;
#X obj 794 11 r \$0-band5gainsnd;
#X obj 794 38 * 50;
#X msg 60 104 50 0 50;
#X msg 115 104 250 0 50;
#X msg 175 104 500 0 50;
#X msg 234 104 1500 0 50;
#X obj 432 39 * 50;
#X obj 311 36 * 100;
#X obj 791 94 line;
#X msg 793 70 \$1 40;
#X msg 257 31 \$1 200;
#X obj 254 55 line 50 5;
#X obj 671 39 * 40;
#X obj 551 40 * 65;
#X msg 550 64 500 \$1 140;
#X msg 432 63 250 \$1 110;
#X msg 671 63 1500 \$1 110;
#X msg 307 79 50 \$1 80;
#X msg 786 120 8000 \$1 100;
#X connect 0 0 7 0;
#X connect 1 0 8 0;
#X connect 2 0 9 0;
#X connect 3 0 10 0;
#X connect 4 0 11 0;
#X connect 5 0 18 0;
#X connect 5 0 6 0;
#X connect 5 0 21 0;
#X connect 5 0 19 0;
#X connect 5 0 20 0;
#X connect 6 0 4 0;
#X connect 12 0 23 0;
#X connect 13 0 22 0;
#X connect 14 0 29 0;
#X connect 15 0 28 0;
#X connect 16 0 17 0;
#X connect 17 0 25 0;
#X connect 18 0 0 0;
#X connect 19 0 1 0;
#X connect 20 0 2 0;
#X connect 21 0 3 0;
#X connect 22 0 31 0;
#X connect 23 0 26 0;
#X connect 24 0 34 0;
#X connect 25 0 24 0;
#X connect 26 0 27 0;
#X connect 27 0 33 0;
#X connect 28 0 32 0;
#X connect 29 0 30 0;
#X connect 30 0 2 0;
#X connect 31 0 1 0;
#X connect 32 0 3 0;
#X connect 33 0 0 0;
#X connect 34 0 4 0;
#X restore 277 97 pd equalizers;
#X obj 71 215 tanh~;
#X obj 46 181 *~ 0.2;
#X connect 0 0 13 0;
#X connect 1 0 5 0;
#X connect 2 0 6 0;
#X connect 3 0 7 0;
#X connect 4 0 8 0;
#X connect 5 0 10 0;
#X connect 6 0 10 0;
#X connect 7 0 10 0;
#X connect 8 0 10 0;
#X connect 9 0 0 0;
#X connect 9 0 4 0;
#X connect 9 0 3 0;
#X connect 9 0 2 0;
#X connect 9 0 1 0;
#X connect 11 0 0 0;
#X connect 11 1 1 0;
#X connect 11 2 2 0;
#X connect 11 3 3 0;
#X connect 11 4 4 0;
#X connect 12 0 10 0;
#X connect 13 0 12 0;
#X restore 210 134 pd leftchannel;
#X obj 203 199 outlet~ L;
#X obj 296 206 outlet~ R;
#N canvas 458 280 696 382 state_saving 0;
#X obj 28 72 pdlua;
#X msg 28 50 load savestate.pd_lua;
#X obj 142 226 outlet;
#X obj 263 75 t b b;
#X obj 28 24 inlet;
#X obj 254 120 pack \$1 \$2 \$3 \$4 \$5 \$6;
#X obj 143 177 savestate \$0-index \$0-band1gain \$0-band2gain \$0-band3gain
\$0-band4gain \$0-band5gain;
#X connect 1 0 0 0;
#X connect 3 0 5 0;
#X connect 4 0 1 0;
#X connect 4 0 3 0;
#X connect 5 0 6 0;
#X connect 6 0 2 0;
#X restore 478 196 pd state_saving;
#X obj 478 218 canvasargs;
#X obj 478 174 initbang;
#X floatatom 470 84 5 0 0 0 index #0-indexrcv #0-indexsnd, f 5;
#N canvas 454 311 584 353 leftchannel 1;
#X obj 46 152 biquad~;
#X obj 97 151 biquad~;
#X obj 147 151 biquad~;
#X obj 198 150 biquad~;
#X obj 248 150 biquad~;
#X obj 97 181 *~ 0.2;
#X obj 148 181 *~ 0.2;
#X obj 200 181 *~ 0.2;
#X obj 250 181 *~ 0.2;
#X obj 100 18 inlet~;
#X obj 146 276 outlet~;
#N canvas 130 422 998 293 equalizers 0;
#X obj 48 142 equalizer;
#X obj 110 142 equalizer;
#X obj 171 142 equalizer;
#X obj 233 142 equalizer;
#X obj 295 141 equalizer;
#X obj 84 65 initbang;
#X msg 299 105 8000 1 50;
#X obj 82 213 outlet;
#X obj 132 213 outlet;
#X obj 182 213 outlet;
#X obj 232 213 outlet;
#X obj 282 213 outlet;
#X obj 311 14 r \$0-band1gainsnd;
#X obj 431 11 r \$0-band2gainsnd;
#X obj 545 12 r \$0-band3gainsnd;
#X obj 672 12 r \$0-band4gainsnd;
#X obj 794 11 r \$0-band5gainsnd;
#X obj 794 38 * 50;
#X msg 60 104 50 0 50;
#X msg 115 104 250 0 50;
#X msg 175 104 500 0 50;
#X msg 234 104 1500 0 50;
#X obj 432 39 * 50;
#X obj 311 36 * 100;
#X obj 791 94 line;
#X msg 793 70 \$1 40;
#X msg 257 31 \$1 200;
#X obj 254 55 line 50 5;
#X obj 671 39 * 40;
#X obj 551 40 * 65;
#X msg 550 64 500 \$1 140;
#X msg 432 63 250 \$1 110;
#X msg 671 63 1500 \$1 110;
#X msg 307 79 50 \$1 80;
#X msg 786 120 8000 \$1 100;
#X connect 0 0 7 0;
#X connect 1 0 8 0;
#X connect 2 0 9 0;
#X connect 3 0 10 0;
#X connect 4 0 11 0;
#X connect 5 0 18 0;
#X connect 5 0 6 0;
#X connect 5 0 21 0;
#X connect 5 0 19 0;
#X connect 5 0 20 0;
#X connect 6 0 4 0;
#X connect 12 0 23 0;
#X connect 13 0 22 0;
#X connect 14 0 29 0;
#X connect 15 0 28 0;
#X connect 16 0 17 0;
#X connect 17 0 25 0;
#X connect 18 0 0 0;
#X connect 19 0 1 0;
#X connect 20 0 2 0;
#X connect 21 0 3 0;
#X connect 22 0 31 0;
#X connect 23 0 26 0;
#X connect 24 0 34 0;
#X connect 25 0 24 0;
#X connect 26 0 27 0;
#X connect 27 0 33 0;
#X connect 28 0 32 0;
#X connect 29 0 30 0;
#X connect 30 0 2 0;
#X connect 31 0 1 0;
#X connect 32 0 3 0;
#X connect 33 0 0 0;
#X connect 34 0 4 0;
#X restore 277 97 pd equalizers;
#X obj 71 215 tanh~;
#X obj 46 188 *~ 0.2;
#X connect 0 0 13 0;
#X connect 1 0 5 0;
#X connect 2 0 6 0;
#X connect 3 0 7 0;
#X connect 4 0 8 0;
#X connect 5 0 10 0;
#X connect 6 0 10 0;
#X connect 7 0 10 0;
#X connect 8 0 10 0;
#X connect 9 0 0 0;
#X connect 9 0 4 0;
#X connect 9 0 3 0;
#X connect 9 0 2 0;
#X connect 9 0 1 0;
#X connect 11 0 0 0;
#X connect 11 1 1 0;
#X connect 11 2 2 0;
#X connect 11 3 3 0;
#X connect 11 4 4 0;
#X connect 12 0 10 0;
#X connect 13 0 12 0;
#X restore 340 138 pd leftchannel;
#X connect 6 0 8 0;
#X connect 7 0 15 0;
#X connect 8 0 9 0;
#X connect 11 0 12 0;
#X connect 13 0 11 0;
#X connect 15 0 10 0;
#X coords 0 -1 1 1 150 120 2 13 9;
