#N canvas 299 153 861 346 10;
#X obj 102 102 cnv 15 71 28 empty empty empty 20 12 0 14 -58125 -66577
0;
#X obj 258 74 inlet~;
#X obj 259 176 *~;
#X obj 338 72 r \$0-attenuvertsnd;
#X obj 323 127 smoother 9;
#X obj 256 277 outlet~;
#N canvas 125 78 603 310 state_saving 0;
#X obj 95 221 outlet;
#X obj 363 44 pdlua;
#X msg 363 23 load savestate.pd_lua;
#X obj 238 19 initbang;
#X obj 105 147 savestate \$0-index \$0-attenuvert \$0-mute \$0-offset
;
#X obj 238 41 pack \$1 \$2 \$3 \$4;
#X connect 2 0 1 0;
#X connect 3 0 2 0;
#X connect 3 0 5 0;
#X connect 4 0 0 0;
#X connect 5 0 4 0;
#X restore 67 174 pd state_saving;
#X floatatom 93 231 5 0 0 0 index #0-indexrcv #0-indexsnd, f 5;
#X obj 66 196 canvasargs;
#X obj 338 94 / 100;
#X obj 158 103 tgl 15 0 \$0-mutesnd \$0-mutercv empty 17 7 0 10 -262144
-1 -1 1 1;
#X obj 641 84 inlet control;
#X obj 257 255 *~;
#X obj 339 221 r \$0-mutesnd;
#X obj 339 243 smoother 10;
#X obj 698 169 s \$0-mutercv;
#X obj 530 96 +~ 1;
#X obj 323 149 *~;
#X obj 530 74 inlet~ gain;
#X obj 122 103 nbx 3 12 -127 127 0 0 \$0-attenuvertsnd \$0-attenuvertrcv
att -18 6 0 9 -262144 -1 -249661 -127 256 0;
#X obj 122 117 nbx 3 12 -127 127 0 0 \$0-offsetsnd \$0-offsetrcv off
-18 6 0 9 -262144 -1 -262144 28 256 0;
#X obj 259 198 +~;
#X obj 398 146 r \$0-offsetsnd;
#X obj 397 190 smoother 25;
#X obj 398 168 / 100;
#X obj 641 106 route att off mute;
#X obj 585 167 s \$0-attenuvertrcv;
#X obj 585 189 s \$0-offsetrcv;
#X connect 1 0 2 0;
#X connect 2 0 21 0;
#X connect 3 0 9 0;
#X connect 4 0 17 0;
#X connect 6 0 8 0;
#X connect 9 0 4 0;
#X connect 11 0 25 0;
#X connect 12 0 5 0;
#X connect 13 0 14 0;
#X connect 14 0 12 1;
#X connect 16 0 17 1;
#X connect 17 0 2 1;
#X connect 18 0 16 0;
#X connect 21 0 12 0;
#X connect 22 0 24 0;
#X connect 23 0 21 1;
#X connect 24 0 23 0;
#X connect 25 0 26 0;
#X connect 25 1 27 0;
#X connect 25 2 15 0;
#X coords 0 -1 1 1 75 32 2 100 100;
