#N canvas 238 112 697 513 10;
#X obj 102 102 cnv 15 71 46 empty empty empty 20 12 0 14 -211870 -66577
0;
#X floatatom 130 105 5 0 0 0 bpm - -, f 5;
#X obj 242 174 metro;
#X obj 301 50 inlet;
#X obj 204 142 f;
#X obj 155 252 outlet;
#X obj 282 137 *;
#X obj 232 253 outlet;
#X obj 312 255 outlet;
#X obj 372 255 outlet;
#X obj 214 101 expr 60000/$f1/4;
#X obj 113 185 sel 0;
#X msg 158 191 0;
#X obj 200 48 loadbang;
#X obj 109 120 tgl20 5 21;
#X obj 119 66 f \$2;
#X obj 40 57 f \$1;
#X obj 50 287 canvasargs;
#X obj 80 222 t b f;
#X obj 29 228 t b f;
#X obj 157 69 f \$3;
#X obj 23 188 r savemessage;
#X text 347 38 creation arguments \; 1 object index number \; 2 initial
tempo in bpm \; 3 initial on-off state \; 4 \, 5 \, 6 - clock divider
ratios \;;
#X obj 238 224 divider \$4;
#X obj 315 225 divider \$5;
#X obj 398 225 divider \$6;
#X obj 50 265 pack \$1 f f \$4 \$5 \$6;
#X connect 1 0 10 0;
#X connect 1 0 19 0;
#X connect 2 0 5 0;
#X connect 2 0 23 0;
#X connect 2 0 24 0;
#X connect 2 0 25 0;
#X connect 3 0 6 0;
#X connect 4 0 2 1;
#X connect 6 0 2 1;
#X connect 10 0 6 1;
#X connect 10 0 4 0;
#X connect 11 0 12 0;
#X connect 12 0 23 2;
#X connect 12 0 24 2;
#X connect 12 0 25 2;
#X connect 13 0 12 0;
#X connect 13 0 15 0;
#X connect 13 0 20 0;
#X connect 14 0 11 0;
#X connect 14 0 2 0;
#X connect 14 0 18 0;
#X connect 15 0 1 0;
#X connect 18 0 26 0;
#X connect 18 1 26 2;
#X connect 19 0 26 0;
#X connect 19 1 26 1;
#X connect 20 0 14 0;
#X connect 21 0 26 0;
#X connect 23 0 7 0;
#X connect 24 0 8 0;
#X connect 25 0 9 0;
#X connect 26 0 17 0;
#X coords 0 -1 1 1 75 50 2 100 100;
