#N canvas 228 100 911 516 10;
#X obj 102 102 cnv 15 146 46 empty empty empty 20 12 0 14 -248596 -66577
0;
#X obj 102 127 cnv 10 146 20 empty empty empty 20 12 0 14 -262118 -66577
0;
#X floatatom 149 107 5 1 1500 0 bpm #0-bpmrcv #0-bpmsnd, f 5;
#X obj 239 164 expr 60000/$f1/4;
#X obj 151 219 sel 0;
#X msg 192 245 0;
#X obj 200 48 loadbang;
#X obj 105 103 tgl20 5 21;
#X text 361 43 creation arguments \; 1 object index number \; 2 initial
tempo in bpm \; 3 initial on-off state \; 4 \, 5 \, 6 - clock divider
ratios \;;
#X obj 297 308 divider \$4;
#X obj 389 309 divider \$5;
#X obj 481 310 divider \$6;
#X text 104 129 16th;
#X floatatom 147 130 3 2 100 0 - #0-div1rcv #0-div1snd, f 3;
#X floatatom 187 130 3 2 100 0 - #0-div2rcv #0-div2snd, f 3;
#X floatatom 225 130 3 2 100 0 - #0-div3rcv #0-div3snd, f 3;
#X obj 396 206 r \$0-div1snd;
#X obj 406 226 r \$0-div2snd;
#X obj 416 246 r \$0-div3snd;
#N canvas 0 50 450 300 state 0;
#X obj 80 104 t b f;
#X obj 29 110 t b f;
#X obj 23 70 r savemessage;
#X obj 50 147 pack \$1 f f \$4 \$5 \$6;
#X obj 26 35 r \$0-bpmsnd;
#X obj 102 36 r \$0-tglsnd;
#X obj 193 38 r \$0-div1snd;
#X obj 203 58 r \$0-div2snd;
#X obj 213 78 r \$0-div3snd;
#X obj 150 73 t b f;
#X obj 160 93 t b f;
#X obj 170 113 t b f;
#X obj 70 192 outlet;
#X connect 0 0 3 0;
#X connect 0 1 3 2;
#X connect 1 0 3 0;
#X connect 1 1 3 1;
#X connect 2 0 3 0;
#X connect 3 0 12 0;
#X connect 4 0 1 0;
#X connect 5 0 0 0;
#X connect 6 0 9 0;
#X connect 7 0 10 0;
#X connect 8 0 11 0;
#X connect 9 0 3 0;
#X connect 9 1 3 3;
#X connect 10 0 3 0;
#X connect 10 1 3 4;
#X connect 11 0 3 0;
#X connect 11 1 3 5;
#X restore 50 312 pd state saving;
#X obj 148 193 r \$0-tglsnd;
#X obj 38 172 s \$0-tglsnd;
#X obj 33 58 r \$0-tglrcv;
#X obj 50 339 canvasargs;
#N canvas 316 110 450 300 state 0;
#X obj 165 154 s \$0-tglrcv;
#X obj 154 121 s \$0-bpmrcv;
#X obj 177 179 s \$0-div1rcv;
#X obj 187 199 s \$0-div2rcv;
#X obj 198 219 s \$0-div3rcv;
#X obj 189 31 loadbang;
#X obj 189 53 pack \$1 \$2 \$3 \$4 \$5 \$6;
#X obj 189 75 unpack f f f f f f;
#X connect 5 0 6 0;
#X connect 6 0 7 0;
#X connect 7 1 1 0;
#X connect 7 2 0 0;
#X connect 7 3 2 0;
#X connect 7 4 3 0;
#X connect 7 5 4 0;
#X restore 300 389 pd state loading;
#X obj 193 334 outlet 16ths;
#X obj 291 337 outlet div1;
#X obj 386 339 outlet div2;
#X obj 482 341 outlet div3;
#X obj 275 20 inlet modifier;
#X obj 270 133 r \$0-bpmsnd;
#X obj 505 249 r allsequencers;
#X msg 262 73 0;
#X obj 262 95 s allsequencers;
#X obj 276 228 adametro;
#X msg 241 186 time \$1;
#X floatatom 198 107 3 0 0 0 sw #0-swingrcv #0-swingsnd, f 3;
#X obj 496 154 r \$0-swingsnd;
#X obj 496 176 / 100;
#X msg 496 198 swing \$1;
#X obj 226 106 bng 15 250 50 0 \$0-resetsnd \$0-resetrcv rs 4 6 0 6
-260068 -261575 -1;
#X obj 257 42 r \$0-resetsnd;
#X obj 717 117 key;
#X obj 717 139 sel 32;
#X obj 716 192 spigot;
#X obj 786 158 r keycontrol;
#X obj 717 271 s \$0-tglrcv;
#X obj 716 214 tgl 15 0 empty empty empty 17 7 0 10 -262144 -1 -1 1
1;
#X msg 581 282 reset;
#X connect 3 0 35 0;
#X connect 4 1 5 0;
#X connect 5 0 9 2;
#X connect 5 0 10 2;
#X connect 5 0 11 2;
#X connect 6 0 5 0;
#X connect 6 0 32 0;
#X connect 7 0 21 0;
#X connect 9 0 26 0;
#X connect 10 0 27 0;
#X connect 11 0 28 0;
#X connect 16 0 9 1;
#X connect 17 0 10 1;
#X connect 18 0 11 1;
#X connect 19 0 23 0;
#X connect 20 0 4 0;
#X connect 20 0 34 0;
#X connect 22 0 7 0;
#X connect 29 0 34 1;
#X connect 30 0 3 0;
#X connect 31 0 11 2;
#X connect 31 0 10 2;
#X connect 31 0 9 2;
#X connect 31 0 48 0;
#X connect 32 0 33 0;
#X connect 34 0 9 0;
#X connect 34 0 10 0;
#X connect 34 0 11 0;
#X connect 34 0 25 0;
#X connect 35 0 34 1;
#X connect 37 0 38 0;
#X connect 38 0 39 0;
#X connect 39 0 34 1;
#X connect 41 0 32 0;
#X connect 42 0 43 0;
#X connect 43 0 44 0;
#X connect 44 0 47 0;
#X connect 45 0 44 1;
#X connect 47 0 46 0;
#X connect 48 0 34 0;
#X coords 0 -1 1 1 150 50 2 100 100;
