#N canvas 237 141 450 300 10;
#X obj 200 83 inlet~;
#X obj 200 242 outlet~;
#X obj 256 111 lop~ 400;
#X obj 256 133 lop~ 300;
#X obj 268 162 hip~ 40;
#X obj 240 199 *~ 3;
#X connect 0 0 1 0;
#X connect 0 0 2 0;
#X connect 2 0 3 0;
#X connect 3 0 4 0;
#X connect 4 0 5 0;
#X connect 5 0 1 0;
