#N canvas 237 141 450 300 10;
#X obj 200 83 inlet~;
#X obj 195 280 outlet~;
#X obj 256 111 lop~ 400;
#X obj 256 133 lop~ 300;
#X obj 256 174 *~ 3;
#X obj 191 196 hip~ 80;
#X obj 199 217 hip~ 80;
#X obj 80 141 hip~ 5000;
#X obj 80 166 hip~ 7000;
#X obj 93 199 *~ 7;
#X obj 199 258 *~ 2;
#X connect 0 0 2 0;
#X connect 0 0 5 0;
#X connect 0 0 7 0;
#X connect 2 0 3 0;
#X connect 3 0 4 0;
#X connect 4 0 5 0;
#X connect 5 0 6 0;
#X connect 6 0 10 0;
#X connect 7 0 8 0;
#X connect 8 0 9 0;
#X connect 9 0 5 0;
#X connect 10 0 1 0;
