#N canvas 170 304 783 338 10;
#X obj 228 92 r ctrlbus;
#X obj 228 114 route \$1;
#X obj 228 136 outlet;
#X obj 98 82 cnv 10 46 11 \$0-cnvsnd \$0-cnvrcv ctrlbus1 0 3 0 9 -258699
-262144 0;
#X obj 329 82 initbang;
#X obj 326 232 s \$0-cnvrcv;
#X msg 329 104 color 2;
#X obj 396 112 f \$1;
#X obj 384 161 list prepend label;
#X obj 384 183 list trim;
#X obj 383 139 makefilename ctrlbus%d;
#X obj 576 38 r ctrlbusselector;
#X obj 575 101 sel \$1;
#X msg 678 129 color 2;
#X msg 575 127 color 13;
#X connect 0 0 1 0;
#X connect 1 0 2 0;
#X connect 4 0 6 0;
#X connect 4 0 7 0;
#X connect 6 0 5 0;
#X connect 7 0 10 0;
#X connect 8 0 9 0;
#X connect 9 0 5 0;
#X connect 10 0 8 0;
#X connect 11 0 12 0;
#X connect 12 0 14 0;
#X connect 12 1 13 0;
#X connect 13 0 5 0;
#X connect 14 0 5 0;
#X coords 0 -1 1 1 50 15 2 96 80;
