#N canvas 370 78 741 624 10;
#X obj 102 102 cnv 15 146 76 empty empty empty 20 12 0 14 -231071 -66577
0;
#X obj 87 30 inlet;
#X obj 343 107 f 1;
#X obj 373 107 + 1;
#X obj 114 247 f 0;
#X obj 136 247 f 0;
#X obj 158 247 f 0;
#X obj 180 247 f 0;
#X obj 238 104 bng 10 250 50 0 empty empty empty 17 7 0 10 -261682
-260097 -1;
#X obj 138 28 inlet;
#X obj 172 28 inlet;
#X obj 206 28 inlet;
#X obj 240 28 inlet;
#X obj 333 81 bang;
#X obj 225 209 route 0 1 2 3 4 5 6 7;
#X obj 202 247 f 0;
#X obj 224 247 f 0;
#X obj 246 247 f 0;
#X obj 268 247 f 0;
#X obj 430 33 inlet;
#X obj 274 28 inlet;
#X obj 308 28 inlet;
#X obj 342 28 inlet;
#X obj 376 28 inlet;
#X msg 393 74 0;
#X obj 342 128 mod 8;
#X obj 339 306 outlet;
#X obj 103 105 vsl 15 70 -1 1 0 0 \$0-step1snd \$0-step1rcv empty 0
-9 0 10 -260319 -261518 -1 3712 1;
#X obj 120 105 vsl 15 70 -1 1 0 0 \$0-step2snd \$0-step2rcv empty 0
-9 0 10 -260319 -261518 -1 1572 1;
#X obj 137 105 vsl 15 70 -1 1 0 0 \$0-step3snd \$0-step3rcv empty 0
-9 0 10 -260319 -261518 -1 4935 1;
#X obj 154 105 vsl 15 70 -1 1 0 0 \$0-step4snd \$0-step4rcv empty 0
-9 0 10 -260319 -261518 -1 2446 1;
#X obj 171 105 vsl 15 70 -1 1 0 0 \$0-step5snd \$0-step5rcv empty 0
-9 0 10 -260319 -261518 -1 6158 1;
#X obj 188 105 vsl 15 70 -1 1 0 0 \$0-step6snd \$0-step6rcv empty 0
-9 0 10 -260319 -261518 -1 3101 1;
#X obj 205 105 vsl 15 70 -1 1 0 0 \$0-step7snd \$0-step7rcv empty 0
-9 0 10 -260319 -261518 -1 5109 1;
#X obj 222 105 vsl 15 70 -1 1 0 0 \$0-step8snd \$0-step8rcv empty 0
-9 0 10 -260319 -261518 -1 568 1;
#X obj 177 313 outlet;
#X obj 402 375 loadbang;
#X obj 402 402 pack \$1 \$2 \$3 \$4 \$5 \$6 \$7 \$8 \$9;
#X obj 402 424 unpack f f f f f f f f f;
#X obj 415 465 s \$0-step1rcv;
#X obj 415 483 s \$0-step2rcv;
#X obj 416 502 s \$0-step3rcv;
#X obj 416 521 s \$0-step4rcv;
#X obj 416 539 s \$0-step5rcv;
#X obj 416 558 s \$0-step6rcv;
#X obj 417 577 s \$0-step7rcv;
#X obj 417 596 s \$0-step8rcv;
#X text 477 373 state saving;
#X obj 86 378 r \$0-step1snd;
#X obj 97 398 r \$0-step2snd;
#X obj 106 418 r \$0-step3snd;
#X obj 116 438 r \$0-step4snd;
#X obj 251 373 r \$0-step5snd;
#X obj 261 393 r \$0-step6snd;
#X obj 271 413 r \$0-step7snd;
#X obj 281 433 r \$0-step8snd;
#X obj 95 466 t b f;
#X obj 105 486 t b f;
#X obj 115 506 t b f;
#X obj 125 526 t b f;
#X obj 262 458 t b f;
#X obj 272 478 t b f;
#X obj 282 498 t b f;
#X obj 292 518 t b f;
#X obj 211 577 canvasargs;
#X obj 216 555 pack \$1 f f f f f f f f;
#X obj 176 473 r savemessage;
#X text 174 456 state loading;
#X text 462 146 inlets \; 1: bang for next step \; 2-9: change steps
1 to 8 (-1 to 1) \;;
#X connect 1 0 8 0;
#X connect 1 0 13 0;
#X connect 2 0 3 0;
#X connect 2 0 25 0;
#X connect 3 0 2 1;
#X connect 4 0 35 0;
#X connect 5 0 35 0;
#X connect 6 0 35 0;
#X connect 7 0 35 0;
#X connect 9 0 27 0;
#X connect 10 0 28 0;
#X connect 11 0 29 0;
#X connect 12 0 30 0;
#X connect 13 0 2 0;
#X connect 14 0 4 0;
#X connect 14 1 5 0;
#X connect 14 2 6 0;
#X connect 14 3 7 0;
#X connect 14 4 15 0;
#X connect 14 5 16 0;
#X connect 14 6 17 0;
#X connect 14 7 18 0;
#X connect 15 0 35 0;
#X connect 16 0 35 0;
#X connect 17 0 35 0;
#X connect 18 0 35 0;
#X connect 19 0 24 0;
#X connect 20 0 31 0;
#X connect 21 0 32 0;
#X connect 22 0 33 0;
#X connect 23 0 34 0;
#X connect 24 0 2 1;
#X connect 25 0 26 0;
#X connect 25 0 14 0;
#X connect 27 0 4 1;
#X connect 28 0 5 1;
#X connect 29 0 6 1;
#X connect 30 0 7 1;
#X connect 31 0 15 1;
#X connect 32 0 16 1;
#X connect 33 0 17 1;
#X connect 34 0 18 1;
#X connect 36 0 37 0;
#X connect 37 0 38 0;
#X connect 38 1 39 0;
#X connect 38 2 40 0;
#X connect 38 3 41 0;
#X connect 38 4 42 0;
#X connect 38 5 43 0;
#X connect 38 6 44 0;
#X connect 38 7 45 0;
#X connect 38 8 46 0;
#X connect 48 0 56 0;
#X connect 49 0 57 0;
#X connect 50 0 58 0;
#X connect 51 0 59 0;
#X connect 52 0 60 0;
#X connect 53 0 61 0;
#X connect 54 0 62 0;
#X connect 55 0 63 0;
#X connect 56 0 65 0;
#X connect 56 1 65 1;
#X connect 57 0 65 0;
#X connect 57 1 65 2;
#X connect 58 0 65 0;
#X connect 58 1 65 3;
#X connect 59 0 65 0;
#X connect 59 1 65 4;
#X connect 60 0 65 0;
#X connect 60 1 65 5;
#X connect 61 0 65 0;
#X connect 61 1 65 6;
#X connect 62 0 65 0;
#X connect 62 1 65 7;
#X connect 63 0 65 0;
#X connect 63 1 65 8;
#X connect 65 0 64 0;
#X connect 66 0 65 0;
#X coords 0 -1 1 1 150 80 2 100 100;
