#N canvas 370 78 801 647 10;
#X obj 102 102 cnv 15 146 116 empty empty empty 20 12 0 14 -231071
-66577 0;
#X obj 87 30 inlet;
#X obj 343 107 f 1;
#X obj 373 107 + 1;
#X obj 114 247 f 0;
#X obj 136 247 f 0;
#X obj 158 247 f 0;
#X obj 180 247 f 0;
#X obj 138 28 inlet;
#X obj 172 28 inlet;
#X obj 206 28 inlet;
#X obj 240 28 inlet;
#X obj 333 81 bang;
#X obj 303 153 route 0 1 2 3 4 5 6 7;
#X obj 202 247 f 0;
#X obj 224 247 f 0;
#X obj 246 247 f 0;
#X obj 268 247 f 0;
#X obj 430 33 inlet;
#X obj 274 28 inlet;
#X obj 308 28 inlet;
#X obj 342 28 inlet;
#X obj 376 28 inlet;
#X msg 393 74 0;
#X obj 342 128 mod 8;
#X obj 485 334 outlet;
#X obj 107 105 vsl 15 70 -1 1 0 0 \$0-step1snd \$0-step1rcv empty 0
-9 0 10 -260319 -261518 -1 3950 1;
#X obj 124 105 vsl 15 70 -1 1 0 0 \$0-step2snd \$0-step2rcv empty 0
-9 0 10 -260319 -261518 -1 5850 1;
#X obj 141 105 vsl 15 70 -1 1 0 0 \$0-step3snd \$0-step3rcv empty 0
-9 0 10 -260319 -261518 -1 2550 1;
#X obj 158 105 vsl 15 70 -1 1 0 0 \$0-step4snd \$0-step4rcv empty 0
-9 0 10 -260319 -261518 -1 5650 1;
#X obj 175 105 vsl 15 70 -1 1 0 0 \$0-step5snd \$0-step5rcv empty 0
-9 0 10 -260319 -261518 -1 1650 1;
#X obj 192 105 vsl 15 70 -1 1 0 0 \$0-step6snd \$0-step6rcv empty 0
-9 0 10 -260319 -261518 -1 3650 1;
#X obj 209 105 vsl 15 70 -1 1 0 0 \$0-step7snd \$0-step7rcv empty 0
-9 0 10 -260319 -261518 -1 5150 1;
#X obj 226 105 vsl 15 70 -1 1 0 0 \$0-step8snd \$0-step8rcv empty 0
-9 0 10 -260319 -261518 -1 2350 1;
#X obj 424 362 loadbang;
#X text 499 360 state saving;
#X obj 59 428 canvasargs;
#X text 477 71 inlets \; 1: bang for next step \; 2-9: change steps
1 to 8 (-1 to 1) \;;
#X obj 242 300 smoother 20;
#X obj 110 205 hsl 129 12 0.01 2500 1 0 \$0-glideamtsnd \$0-glideamtrcv
glide 45 5 0 9 -261355 -247320 -168707 8900 1;
#X obj 305 275 - 0.01;
#X obj 107 188 tgl 15 0 \$0-glide1snd \$0-glide1rcv empty 17 7 0 10
-259863 -261830 -1 0 1;
#X obj 124 188 tgl 15 0 \$0-glide2snd \$0-glide2rcv empty 17 7 0 10
-259863 -261830 -1 1 1;
#X obj 141 188 tgl 15 0 \$0-glide3snd \$0-glide3rcv empty 17 7 0 10
-259863 -261830 -1 0 1;
#X obj 158 188 tgl 15 0 \$0-glide4snd \$0-glide4rcv empty 17 7 0 10
-259863 -261830 -1 1 1;
#X obj 175 188 tgl 15 0 \$0-glide5snd \$0-glide5rcv empty 17 7 0 10
-259863 -261830 -1 1 1;
#X obj 192 188 tgl 15 0 \$0-glide6snd \$0-glide6rcv empty 17 7 0 10
-259863 -261830 -1 1 1;
#X obj 209 188 tgl 15 0 \$0-glide7snd \$0-glide7rcv empty 17 7 0 10
-259863 -261830 -1 0 1;
#X obj 226 188 tgl 15 0 \$0-glide8snd \$0-glide8rcv empty 17 7 0 10
-259863 -261830 -1 1 1;
#X obj 359 249 f 0;
#X obj 383 249 f 0;
#X obj 407 249 f 0;
#X obj 431 249 f 0;
#X obj 455 249 f 0;
#X obj 479 249 f 0;
#X obj 503 249 f 0;
#X obj 527 249 f 0;
#X obj 400 283 sel 1 0;
#X obj 303 251 f 0;
#X obj 302 179 t b b;
#X obj 312 199 t b b;
#X obj 341 178 t b b;
#X obj 352 199 t b b;
#X obj 382 179 t b b;
#X obj 392 199 t b b;
#X obj 422 179 t b b;
#X obj 432 199 t b b;
#X obj 463 316 print;
#X floatatom 338 316 5 0 0 0 - - -, f 5;
#X msg 409 308 0.01;
#N canvas 0 22 545 302 state_loading 0;
#X obj 22 24 r \$0-step1snd;
#X obj 33 44 r \$0-step2snd;
#X obj 42 64 r \$0-step3snd;
#X obj 52 84 r \$0-step4snd;
#X obj 127 22 r \$0-step5snd;
#X obj 137 42 r \$0-step6snd;
#X obj 147 62 r \$0-step7snd;
#X obj 157 82 r \$0-step8snd;
#X obj 31 112 t b f;
#X obj 41 132 t b f;
#X obj 51 152 t b f;
#X obj 61 172 t b f;
#X obj 138 107 t b f;
#X obj 148 127 t b f;
#X obj 158 147 t b f;
#X obj 168 167 t b f;
#X obj 34 217 r savemessage;
#X text 32 200 state loading;
#X obj 212 24 r \$0-glide1snd;
#X obj 221 44 r \$0-glide2snd;
#X obj 231 64 r \$0-glide3snd;
#X obj 242 84 r \$0-glide4snd;
#X obj 300 23 r \$0-glide5snd;
#X obj 310 43 r \$0-glide6snd;
#X obj 321 63 r \$0-glide7snd;
#X obj 330 83 r \$0-glide8snd;
#X obj 231 112 t b f;
#X obj 241 132 t b f;
#X obj 251 152 t b f;
#X obj 261 172 t b f;
#X obj 315 111 t b f;
#X obj 325 131 t b f;
#X obj 335 151 t b f;
#X obj 345 171 t b f;
#X obj 155 248 outlet;
#X obj 398 118 r \$0-glideamtsnd;
#X obj 398 140 t b f;
#X obj 152 202 pack \$1 f f f f f f f f f f f f f f f f f;
#X connect 0 0 8 0;
#X connect 1 0 9 0;
#X connect 2 0 10 0;
#X connect 3 0 11 0;
#X connect 4 0 12 0;
#X connect 5 0 13 0;
#X connect 6 0 14 0;
#X connect 7 0 15 0;
#X connect 8 0 37 0;
#X connect 8 1 37 1;
#X connect 9 0 37 0;
#X connect 9 1 37 2;
#X connect 10 0 37 0;
#X connect 10 1 37 3;
#X connect 11 0 37 0;
#X connect 11 1 37 4;
#X connect 12 0 37 0;
#X connect 12 1 37 5;
#X connect 13 0 37 0;
#X connect 13 1 37 6;
#X connect 14 0 37 0;
#X connect 14 1 37 7;
#X connect 15 0 37 0;
#X connect 15 1 37 8;
#X connect 16 0 37 0;
#X connect 18 0 26 0;
#X connect 19 0 27 0;
#X connect 20 0 28 0;
#X connect 21 0 29 0;
#X connect 22 0 30 0;
#X connect 23 0 31 0;
#X connect 24 0 32 0;
#X connect 25 0 33 0;
#X connect 26 0 37 0;
#X connect 26 1 37 9;
#X connect 27 0 37 0;
#X connect 27 1 37 10;
#X connect 28 0 37 0;
#X connect 28 1 37 11;
#X connect 29 0 37 0;
#X connect 29 1 37 12;
#X connect 30 0 37 0;
#X connect 30 1 37 13;
#X connect 31 0 37 0;
#X connect 31 1 37 14;
#X connect 32 0 37 0;
#X connect 32 1 37 15;
#X connect 33 0 37 0;
#X connect 33 1 37 16;
#X connect 35 0 36 0;
#X connect 36 0 37 0;
#X connect 36 1 37 17;
#X connect 37 0 34 0;
#X restore 59 404 pd state_loading;
#N canvas 0 22 450 300 state_saving 0;
#X obj 48 96 s \$0-step1rcv;
#X obj 48 114 s \$0-step2rcv;
#X obj 49 133 s \$0-step3rcv;
#X obj 49 152 s \$0-step4rcv;
#X obj 49 170 s \$0-step5rcv;
#X obj 49 189 s \$0-step6rcv;
#X obj 50 208 s \$0-step7rcv;
#X obj 50 227 s \$0-step8rcv;
#X obj 158 96 s \$0-glide1rcv;
#X obj 158 114 s \$0-glide2rcv;
#X obj 159 133 s \$0-glide3rcv;
#X obj 159 152 s \$0-glide4rcv;
#X obj 159 170 s \$0-glide5rcv;
#X obj 159 189 s \$0-glide6rcv;
#X obj 160 208 s \$0-glide7rcv;
#X obj 160 227 s \$0-glide8rcv;
#X obj 46 20 inlet;
#X obj 264 96 s \$0-glideamtrcv;
#X obj 35 55 unpack f f f f f f f f f f f f f f f f f f;
#X connect 16 0 18 0;
#X connect 18 1 0 0;
#X connect 18 2 1 0;
#X connect 18 3 2 0;
#X connect 18 4 3 0;
#X connect 18 5 4 0;
#X connect 18 6 5 0;
#X connect 18 7 6 0;
#X connect 18 8 7 0;
#X connect 18 9 8 0;
#X connect 18 10 9 0;
#X connect 18 11 10 0;
#X connect 18 12 11 0;
#X connect 18 13 12 0;
#X connect 18 14 13 0;
#X connect 18 15 14 0;
#X connect 18 16 15 0;
#X connect 18 17 17 0;
#X restore 428 436 pd state_saving;
#X obj 424 389 pack \$1 \$2 \$3 \$4 \$5 \$6 \$7 \$8 \$9 \$10 \$11 \$12
\$13 \$14 \$15 \$16 \$17 \$18;
#X obj 331 341 *~ -1;
#X obj 92 329 outlet numbers -1 to 1;
#X obj 259 329 outlet~ signal;
#X obj 313 386 outlet~ signal inv;
#X obj 227 180 cnv 6 12 6 empty \$0-cnv empty 20 12 0 14 -253000 -66577
0;
#X obj 604 209 pack f \$0;
#X floatatom 602 146 5 0 7 0 - - -, f 5;
#X msg 604 231 \; \$2-cnv pos \$1 180;
#X obj 604 187 expr $f1*17+108;
#X connect 1 0 12 0;
#X connect 2 0 3 0;
#X connect 2 0 24 0;
#X connect 3 0 2 1;
#X connect 4 0 38 0;
#X connect 4 0 74 0;
#X connect 5 0 38 0;
#X connect 5 0 74 0;
#X connect 6 0 38 0;
#X connect 6 0 74 0;
#X connect 7 0 38 0;
#X connect 7 0 74 0;
#X connect 8 0 26 0;
#X connect 9 0 27 0;
#X connect 10 0 28 0;
#X connect 11 0 29 0;
#X connect 12 0 2 0;
#X connect 13 0 59 0;
#X connect 13 1 60 0;
#X connect 13 2 61 0;
#X connect 13 3 62 0;
#X connect 13 4 63 0;
#X connect 13 5 64 0;
#X connect 13 6 65 0;
#X connect 13 7 66 0;
#X connect 14 0 38 0;
#X connect 14 0 74 0;
#X connect 15 0 38 0;
#X connect 15 0 74 0;
#X connect 16 0 38 0;
#X connect 16 0 74 0;
#X connect 17 0 38 0;
#X connect 17 0 74 0;
#X connect 18 0 23 0;
#X connect 19 0 30 0;
#X connect 20 0 31 0;
#X connect 21 0 32 0;
#X connect 22 0 33 0;
#X connect 23 0 2 1;
#X connect 24 0 25 0;
#X connect 24 0 13 0;
#X connect 24 0 81 0;
#X connect 26 0 4 1;
#X connect 27 0 5 1;
#X connect 28 0 6 1;
#X connect 29 0 7 1;
#X connect 30 0 14 1;
#X connect 31 0 15 1;
#X connect 32 0 16 1;
#X connect 33 0 17 1;
#X connect 34 0 72 0;
#X connect 38 0 73 0;
#X connect 38 0 75 0;
#X connect 39 0 58 1;
#X connect 40 0 38 1;
#X connect 40 0 68 0;
#X connect 41 0 49 1;
#X connect 42 0 50 1;
#X connect 43 0 51 1;
#X connect 44 0 52 1;
#X connect 45 0 53 1;
#X connect 46 0 54 1;
#X connect 47 0 55 1;
#X connect 48 0 56 1;
#X connect 49 0 57 0;
#X connect 50 0 57 0;
#X connect 51 0 57 0;
#X connect 52 0 57 0;
#X connect 53 0 57 0;
#X connect 54 0 57 0;
#X connect 55 0 57 0;
#X connect 56 0 57 0;
#X connect 57 0 58 0;
#X connect 57 1 69 0;
#X connect 58 0 40 0;
#X connect 59 0 4 0;
#X connect 59 1 49 0;
#X connect 60 0 5 0;
#X connect 60 1 50 0;
#X connect 61 0 6 0;
#X connect 61 1 51 0;
#X connect 62 0 7 0;
#X connect 62 1 52 0;
#X connect 63 0 14 0;
#X connect 63 1 53 0;
#X connect 64 0 15 0;
#X connect 64 1 54 0;
#X connect 65 0 16 0;
#X connect 65 1 55 0;
#X connect 66 0 17 0;
#X connect 66 1 56 0;
#X connect 69 0 40 0;
#X connect 70 0 36 0;
#X connect 72 0 71 0;
#X connect 73 0 76 0;
#X connect 78 0 80 0;
#X connect 79 0 81 0;
#X connect 81 0 78 0;
#X coords 0 -1 1 1 150 120 2 100 100;
