#N canvas 402 190 891 495 10;
#X obj 12 12 cnv 15 146 146 empty \$0-cnv empty 20 12 0 14 -248043
-262144 0;
#X obj 268 97 inlet~ L;
#X obj 342 97 inlet~ R;
#N canvas 1 53 649 300 delwrites 0;
#X obj 107 24 inlet~;
#X obj 226 25 inlet~;
#X obj 114 214 outlet~;
#X obj 239 215 outlet~;
#X obj 164 89 r~ \$0-fbL;
#X obj 274 90 r~ \$0-fbR;
#X obj 146 172 delwrite~ \$0-delL 4000;
#X obj 265 192 delwrite~ \$0-delR 4000;
#X obj 297 136 *~;
#X obj 169 131 *~;
#X obj 367 90 smoother 15;
#X obj 367 112 +~;
#X obj 367 134 clip~ 0 1;
#X obj 367 68 r \$0-wetpresnd;
#X obj 493 166 s~ \$0-wetpre;
#X obj 505 81 r~ \$0-wetinput;
#X connect 0 0 2 0;
#X connect 0 0 9 0;
#X connect 1 0 3 0;
#X connect 1 0 8 0;
#X connect 4 0 6 0;
#X connect 5 0 7 0;
#X connect 8 0 7 0;
#X connect 9 0 6 0;
#X connect 10 0 11 0;
#X connect 11 0 12 0;
#X connect 12 0 8 1;
#X connect 12 0 9 1;
#X connect 12 0 14 0;
#X connect 13 0 10 0;
#X connect 15 0 11 1;
#X restore 309 215 pd delwrites;
#N canvas 0 24 1360 715 delreads 1;
#X obj 139 177 vd~ \$0-delL;
#X obj 231 176 vd~ \$0-delR;
#X obj 75 355 outlet~;
#X obj 178 354 outlet~;
#X obj 79 39 inlet~ L;
#X obj 151 42 inlet~ R;
#X obj 359 49 r \$0-deltimesnd;
#X obj 312 113 smoother 40;
#N canvas 690 132 560 486 filters 1;
#X obj 274 201 r \$0-filterswitchsnd;
#X obj 24 71 inlet~;
#X obj 95 70 inlet~;
#X obj 58 324 bob~;
#X obj 125 323 bob~;
#X obj 45 401 outlet~;
#X obj 123 401 outlet~;
#X msg 407 96 oversample 2;
#X obj 208 86 smoother 40;
#X obj 407 72 loadbang;
#X obj 408 28 r \$0-saturationsnd;
#X msg 408 49 saturation \$1;
#X obj 274 222 switch~;
#X obj 300 66 r \$0-qsnd;
#X obj 208 65 r \$0-cutoffsnd;
#X obj 300 87 smoother 40;
#X obj 147 162 *~;
#X obj 151 28 inlet~ cutoff;
#X obj 66 369 *~ 1.3;
#X obj 132 374 *~ 1.3;
#X obj 147 181 clip~ 38 16000;
#X connect 0 0 12 0;
#X connect 1 0 3 0;
#X connect 2 0 4 0;
#X connect 3 0 18 0;
#X connect 4 0 19 0;
#X connect 7 0 4 0;
#X connect 7 0 3 0;
#X connect 8 0 16 0;
#X connect 9 0 7 0;
#X connect 10 0 11 0;
#X connect 11 0 3 0;
#X connect 11 0 4 0;
#X connect 13 0 15 0;
#X connect 14 0 8 0;
#X connect 15 0 4 2;
#X connect 15 0 3 2;
#X connect 16 0 20 0;
#X connect 17 0 16 1;
#X connect 18 0 5 0;
#X connect 19 0 6 0;
#X connect 20 0 4 1;
#X connect 20 0 3 1;
#X restore 210 301 pd filters;
#X obj 78 312 *~;
#X obj 113 315 *~;
#X obj 312 197 r \$0-filterswitchsnd;
#X obj 312 218 == 0;
#X obj 312 239 smoother 25;
#X obj 245 43 inlet~ deltime;
#X obj 473 51 r \$0-decouplesnd;
#X obj 426 115 smoother 40;
#X obj 410 96 * 1;
#X obj 213 131 *~;
#X obj 284 135 *~;
#X obj 359 70 f;
#X obj 473 72 t b f;
#X obj 351 280 inlet~ cutoff;
#X obj 245 85 midiratio~;
#X obj 260 154 max~ 1;
#X obj 188 150 max~ 1;
#X obj 244 64 *~ 60;
#X connect 0 0 9 0;
#X connect 0 0 8 0;
#X connect 1 0 10 0;
#X connect 1 0 8 1;
#X connect 6 0 20 0;
#X connect 7 0 18 0;
#X connect 8 0 2 0;
#X connect 8 1 3 0;
#X connect 9 0 2 0;
#X connect 10 0 3 0;
#X connect 11 0 12 0;
#X connect 12 0 13 0;
#X connect 13 0 10 1;
#X connect 13 0 9 1;
#X connect 14 0 26 0;
#X connect 15 0 21 0;
#X connect 16 0 19 0;
#X connect 17 0 16 0;
#X connect 18 0 25 0;
#X connect 19 0 24 0;
#X connect 20 0 17 0;
#X connect 20 0 7 0;
#X connect 21 0 20 0;
#X connect 21 1 17 1;
#X connect 22 0 8 2;
#X connect 23 0 18 1;
#X connect 23 0 19 1;
#X connect 24 0 1 0;
#X connect 25 0 0 0;
#X connect 26 0 23 0;
#X restore 312 258 pd delreads;
#X obj 240 354 outlet~ L;
#X obj 340 357 outlet~ R;
#X text 257 237 dummy connection to ensure execution order;
#N canvas 1 53 634 308 feedback 0;
#X obj 91 107 *~;
#X obj 166 108 *~;
#X obj 91 221 s~ \$0-fbL;
#X obj 166 221 s~ \$0-fbR;
#X obj 91 30 inlet~ L;
#X obj 166 30 inlet~ R;
#X obj 247 52 smoother 50;
#X obj 247 31 r \$0-feedbacksnd;
#X obj 368 33 inlet~ feedback;
#X obj 247 73 *~;
#X obj 247 94 min~ 0.98;
#X connect 0 0 2 0;
#X connect 1 0 3 0;
#X connect 4 0 0 0;
#X connect 5 0 1 0;
#X connect 6 0 9 0;
#X connect 7 0 6 0;
#X connect 8 0 9 1;
#X connect 9 0 10 0;
#X connect 10 0 1 1;
#X connect 10 0 0 1;
#X restore 394 334 pd feedback;
#X obj 17 57 hsl 135 15 0 0.98 0 0 \$0-feedbacksnd \$0-feedbackrcv
feedback -2 6 0 9 -260975 -258511 -1 7000 1;
#X obj 17 40 hsl 135 15 5 4000 1 0 \$0-deltimesnd \$0-deltimercv time
-2 6 0 9 -260125 -258511 -1 11600 1;
#X obj 17 74 hsl 135 15 40 15000 1 0 \$0-cutoffsnd \$0-cutoffrcv cutoff
-2 6 0 9 -227366 -258511 -262144 8700 1;
#X obj 17 91 hsl 135 15 0.01 3 1 0 \$0-qsnd \$0-qrcv q -2 6 0 9 -226911
-261557 -262144 0 1;
#X obj 14 23 tgl 15 0 \$0-filterswitchsnd \$0-filterswitchrcv filter
17 7 0 9 -260266 -261331 -1 1 1;
#X obj 17 108 hsl 135 15 3 0.08 0 0 \$0-saturationsnd \$0-saturationrcv
saturation -2 6 0 9 -247066 -261630 -262144 1900 1;
#X obj 142 25 tgl 12 0 \$0-switchsnd \$0-switchrcv empty 17 7 0 10
-260271 -262144 -1 1 1;
#N canvas 0 50 716 346 colours 0;
#X obj 76 82 r \$0-filterswitchsnd;
#X obj 76 103 sel 0 1;
#X obj 100 167 rgb, f 8;
#X msg 100 188 color \$1;
#X obj 100 209 s \$0-cutoffrcv;
#X obj 143 233 s \$0-qrcv;
#X obj 146 264 s \$0-saturationrcv;
#X msg 101 139 150 150 150;
#X obj 219 160 rgb, f 7;
#X obj 279 160 rgb, f 7;
#X obj 339 160 rgb, f 7;
#X msg 219 181 color \$1;
#X msg 279 181 color \$1;
#X msg 339 181 color \$1;
#X msg 211 134 220 130 150;
#X msg 282 110 220 100 120;
#X msg 341 138 240 80 100;
#X obj 452 84 r \$0-switchsnd;
#X obj 452 105 sel 0 1;
#X msg 468 144 180 180 180;
#X obj 468 165 rgb;
#X msg 482 207 color \$1;
#X obj 482 228 s \$0-cnv;
#X msg 557 145 240 140 170;
#X connect 0 0 1 0;
#X connect 1 0 7 0;
#X connect 1 1 14 0;
#X connect 1 1 15 0;
#X connect 1 1 16 0;
#X connect 2 0 3 0;
#X connect 3 0 4 0;
#X connect 3 0 5 0;
#X connect 3 0 6 0;
#X connect 7 0 2 0;
#X connect 8 0 11 0;
#X connect 9 0 12 0;
#X connect 10 0 13 0;
#X connect 11 0 4 0;
#X connect 12 0 5 0;
#X connect 13 0 6 0;
#X connect 14 0 8 0;
#X connect 15 0 9 0;
#X connect 16 0 10 0;
#X connect 17 0 18 0;
#X connect 18 0 19 0;
#X connect 18 1 23 0;
#X connect 19 0 20 0;
#X connect 20 0 21 0;
#X connect 21 0 22 0;
#X connect 23 0 20 0;
#X restore 43 247 pd colours;
#N canvas 1 53 855 320 state_saving 0;
#X obj 63 236 outlet;
#X msg 66 55 load savestate.pd_lua;
#X obj 66 77 pdlua;
#X obj 91 131 pack \$1 \$2 \$3 \$4 \$5 \$6 \$7 \$8 \$9 \$10;
#X obj 63 189 savestate \$0-index \$0-filterswitch \$0-deltime \$0-feedback
\$0-cutoff \$0-q \$0-saturation \$0-switch \$0-decouple \$0-wetpre
;
#X obj 66 33 initbang;
#X connect 1 0 2 0;
#X connect 3 0 4 0;
#X connect 4 0 0 0;
#X connect 5 0 1 0;
#X connect 5 0 3 0;
#X restore 36 289 pd state_saving;
#X obj 36 310 canvasargs;
#X obj 12 12 cnv 8 40 10 empty empty L 2 5 0 9 -261502 -258642 0;
#X obj 30 12 cnv 8 40 10 empty empty R 4 5 0 9 -261502 -258642 0;
#X obj 404 96 inlet~ deltime;
#X obj 498 96 inlet~ fb;
#X obj 562 94 inlet~ cutoff;
#X obj 50 12 cnv 8 40 10 empty empty time 2 5 0 9 -261502 -258642 0
;
#X obj 77 12 cnv 8 40 10 empty empty fb 2 5 0 9 -261502 -258642 0;
#X obj 100 12 cnv 8 27 10 empty empty cut 2 5 0 9 -261502 -258642 0
;
#X obj 140 12 cnv 8 18 10 empty empty ctrl -1 5 0 9 -261502 -33289
0;
#X obj 17 125 hsl 135 15 0.5 1.5 0 0 \$0-decouplesnd \$0-decouplercv
decouple -2 6 0 9 -218467 -261630 -1 6500 1;
#X obj 498 138 +~ 1;
#X obj 498 117 *~ 0.8;
#X obj 572 308 r \$0-switchsnd;
#X obj 572 329 switch~;
#X obj 64 23 bng 15 250 50 0 \$0-tapsnd \$0-taprcv tap 17 7 0 10 -260131
-1 -1;
#X obj 597 194 r \$0-tapsnd;
#X obj 597 240 timer;
#X obj 597 216 t b b;
#X obj 597 262 s \$0-deltimercv;
#X obj 778 96 inlet ctrl;
#N canvas 555 156 552 302 ctrl 0;
#X obj 111 14 inlet;
#X obj 112 103 s \$0-deltimercv;
#X obj 112 125 s \$0-feedbackrcv;
#X obj 112 147 s \$0-cutoffrcv;
#X obj 112 169 s \$0-qrcv;
#X obj 112 191 s \$0-saturationrcv;
#X obj 112 213 s \$0-decouplercv;
#X obj 112 235 s \$0-taprcv;
#X obj 108 38 route time feedback cutoff q saturation decouple tap
wetpre;
#X obj 249 272 s \$0-wetprercv;
#X connect 0 0 8 0;
#X connect 8 0 1 0;
#X connect 8 1 2 0;
#X connect 8 2 3 0;
#X connect 8 3 4 0;
#X connect 8 4 5 0;
#X connect 8 5 6 0;
#X connect 8 6 7 0;
#X connect 8 7 9 0;
#X restore 783 142 pd ctrl;
#X floatatom 151 413 5 0 0 0 index #0-indexrcv #0-indexsnd, f 5;
#X obj 17 142 hsl 135 15 0 1 0 0 \$0-wetpresnd \$0-wetprercv wet_pre
-2 6 0 9 -177187 -228856 -228856 7600 1;
#N canvas 1 53 450 300 bypass 0;
#X obj 177 61 inlet~;
#X obj 247 61 inlet~;
#X obj 173 163 outlet~;
#X obj 243 163 outlet~;
#X connect 0 0 2 0;
#X connect 1 0 3 0;
#X restore 180 219 pd bypass;
#X obj 122 12 cnv 8 17 10 empty empty wet 1 5 0 9 -261502 -258642 0
;
#X obj 671 98 inlet~ wet;
#X obj 671 120 s~ \$0-wetinput;
#X obj 562 115 *~ 49;
#X obj 562 136 midiratio~;
#X connect 1 0 3 0;
#X connect 1 0 42 0;
#X connect 2 0 3 1;
#X connect 2 0 42 1;
#X connect 3 0 4 0;
#X connect 3 1 4 1;
#X connect 4 0 5 0;
#X connect 4 0 8 0;
#X connect 4 1 6 0;
#X connect 4 1 8 1;
#X connect 17 0 18 0;
#X connect 21 0 4 2;
#X connect 22 0 30 0;
#X connect 23 0 46 0;
#X connect 29 0 8 2;
#X connect 30 0 29 0;
#X connect 31 0 32 0;
#X connect 34 0 36 0;
#X connect 35 0 37 0;
#X connect 36 0 35 0;
#X connect 36 1 35 1;
#X connect 38 0 39 0;
#X connect 42 0 5 0;
#X connect 42 1 6 0;
#X connect 44 0 45 0;
#X connect 46 0 47 0;
#X connect 47 0 4 3;
#X coords 0 -1 1 1 150 150 2 10 10;
