#N canvas 1 53 922 455 10;
#X obj 353 70 inlet~;
#X obj 727 47 inlet~;
#X obj 363 412 outlet~;
#X obj 449 411 outlet~;
#X obj 359 126 *~;
#X obj 439 129 *~;
#X floatatom 52 17 5 1 500 0 dist #0-distortionrcv #0-distortionsnd
, f 5;
#X obj 362 239 tanh~;
#X obj 453 241 tanh~;
#X obj 362 293 lop~;
#X obj 466 289 lop~, f 5;
#X obj 563 77 r \$0-distortionsnd;
#X obj 563 99 smoother 20;
#X obj 589 175 r \$0-cutoffsnd;
#X obj 359 180 *~;
#X obj 443 189 *~;
#X obj 624 45 inlet~ dist;
#X obj 723 110 *~ 60;
#X obj 723 132 midiratio~;
#X obj 22 35 hsl 128 15 40 14000 1 0 \$0-cutoffsnd \$0-cutoffrcv cutoff
3 7 0 10 -262144 -1 -1 5200 1;
#N canvas 202 86 450 300 statesaving 0;
#X obj 173 222 outlet;
#X obj 48 24 loadbang;
#X msg 48 46 load savestate.pd_lua;
#X obj 48 68 pdlua;
#X obj 220 91 pack \$1 \$2 \$3;
#X obj 121 147 savestate \$0-index \$0-distortion \$0-cutoff;
#X connect 1 0 2 0;
#X connect 1 0 4 0;
#X connect 2 0 3 0;
#X connect 4 0 5 0;
#X connect 5 0 0 0;
#X restore 118 163 pd statesaving;
#X floatatom 68 112 5 0 0 0 index #0-indexrcv #0-indexsnd, f 5;
#X obj 118 185 canvasargs;
#X connect 0 0 4 0;
#X connect 1 0 5 0;
#X connect 4 0 14 0;
#X connect 5 0 15 0;
#X connect 7 0 9 0;
#X connect 8 0 10 0;
#X connect 9 0 2 0;
#X connect 10 0 3 0;
#X connect 11 0 12 0;
#X connect 12 0 5 1;
#X connect 12 0 4 1;
#X connect 13 0 10 1;
#X connect 13 0 9 1;
#X connect 14 0 7 0;
#X connect 15 0 8 0;
#X connect 16 0 17 0;
#X connect 17 0 18 0;
#X connect 18 0 15 1;
#X connect 18 0 14 1;
#X connect 20 0 22 0;
#X coords 0 -1 1 1 150 49 2 10 10;
