#N canvas 0 24 1360 692 10;
#X obj 8 15 cnv 15 146 96 empty empty double\ lfo 49 81 0 8 -150905
-5118 0;
#X obj 219 31 inlet~;
#X obj 420 164 *~ 2;
#X obj 420 186 -~ 1;
#X obj 381 133 phasor~ 1;
#X obj 523 220 abs~;
#X obj 318 330 multiplex~ . . . .;
#X obj 384 255 expr~ $v1 < $v2;
#X text 572 222 triangle;
#X obj 476 190 sig~ 0.5;
#X obj 384 277 -~ 0.5;
#X obj 384 299 *~ 2;
#X obj 523 242 *~ 4;
#X obj 523 264 -~ 1;
#X obj 521 152 -~ 0.5;
#X text 398 237 square with pwm;
#X obj 9 58 hradio 17 0 0 4 \$0-typesnd \$0-typercv empty 0 -8 0 10
-188160 -260893 -1 0;
#X obj 340 203 cos~;
#X obj 293 28 inlet~;
#X obj 300 129 *~;
#X obj 467 80 scalearound1;
#X obj 476 216 *~;
#X msg 552 54 0.5;
#X obj 1303 12 inlet;
#X text 10 58 sn;
#X text 26 58 sw;
#X text 44 58 pl;
#X text 61 58 tr;
#X msg 605 64 0;
#X obj 8 15 cnv 8 30 8 empty empty rate1 1 3 0 8 -136825 -261234 0
;
#X obj 39 15 cnv 8 30 8 empty empty pw1 1 3 0 8 -136825 -261234 0;
#X obj 129 15 cnv 8 25 8 empty empty ctrl 6 4 0 8 -136825 -262144 0
;
#X obj 672 63 s \$0-typercv;
#X obj 710 95 s \$0-freqrcv;
#X obj 751 131 s \$0-pwmrcv;
#X obj 525 26 initbang;
#X obj 178 91 smoother 50;
#X obj 290 96 midiratio~;
#X obj 290 74 *~ 48;
#X obj 32 28 nbx 4 12 0.05 100 1 0 \$0-freqsnd \$0-freqrcv freq -24
4 0 9 -71981 -229196 -24966 0.790992 256 0;
#X obj 32 43 nbx 4 12 0 100 0 0 \$0-pwmsnd \$0-pwmrcv pwm -22 4 0 9
-71981 -229127 -24966 40 256 0;
#X obj 178 61 r \$0-freqsnd;
#X obj 177 144 r \$0-pwmsnd;
#X obj 177 166 / 100;
#X obj 83 58 hradio 17 0 0 4 \$0-type2snd \$0-type2rcv empty 0 -8 0
10 -188160 -260893 -1 2;
#X text 84 58 sn;
#X text 100 58 sw;
#X text 118 58 pl;
#X text 135 58 tr;
#X obj 106 28 nbx 4 12 0.05 100 1 0 \$0-freq2snd \$0-freq2rcv freq
-24 4 0 9 -71981 -229196 -24966 1.272 256 0;
#X obj 106 43 nbx 4 12 0 100 0 0 \$0-pwm2snd \$0-pwm2rcv pwm -22 4
0 9 -71981 -229127 -24966 40 256 0;
#X obj 608 30 route bang float type freq pwm type2 freq2 pwm2;
#X obj 900 55 inlet~;
#X obj 1101 188 *~ 2;
#X obj 1101 210 -~ 1;
#X obj 1062 157 phasor~ 1;
#X obj 1204 244 abs~;
#X obj 999 353 multiplex~ . . . .;
#X obj 1065 279 expr~ $v1 < $v2;
#X text 1253 246 triangle;
#X obj 1157 214 sig~ 0.5;
#X obj 1065 301 -~ 0.5;
#X obj 1065 323 *~ 2;
#X obj 1204 266 *~ 4;
#X obj 1204 288 -~ 1;
#X obj 1202 176 -~ 0.5;
#X text 1079 261 square with pwm;
#X obj 1021 227 cos~;
#X obj 974 52 inlet~;
#X obj 981 153 *~;
#X obj 1148 104 scalearound1;
#X obj 1157 240 *~;
#X msg 1233 78 0.5;
#X obj 1206 50 initbang;
#X obj 859 115 smoother 50;
#X obj 971 120 midiratio~;
#X obj 971 98 *~ 48;
#X obj 858 190 / 100;
#X obj 859 85 r \$0-freq2snd;
#X obj 858 168 r \$0-pwm2snd;
#X obj 255 245 r \$0-typesnd;
#X obj 914 308 r \$0-type2snd;
#X obj 655 414 adapan;
#X obj 637 474 <~;
#X obj 684 474 max~;
#X obj 733 473 min~;
#X obj 649 303 r \$0-balsnd;
#X obj 649 351 smoother 25;
#X obj 591 533 outlet~ <;
#X obj 673 535 outlet~ max;
#X obj 769 541 outlet~ min;
#X obj 335 410 outlet~ one;
#X obj 411 418 outlet~ two;
#X obj 14 78 hsl 130 12 0 100 0 0 \$0-balsnd \$0-balrcv <-bal-> 45
5 0 10 -87115 -260737 -262144 2300 1;
#X obj 864 523 outlet~ mix;
#X obj 68 15 cnv 8 30 8 empty empty rate2 1 3 0 8 -136825 -261234 0
;
#X obj 98 15 cnv 8 30 8 empty empty pw2 9 3 0 8 -136825 -261234 0;
#X obj 8 103 cnv 8 30 8 empty empty 1 1 3 0 8 -136825 -261234 0;
#X obj 32 103 cnv 8 30 8 empty empty 2 1 3 0 8 -136825 -261234 0;
#X obj 58 103 cnv 8 30 8 empty empty < 1 3 0 8 -136825 -261234 0;
#X obj 75 103 cnv 8 30 8 empty empty max 9 3 0 8 -136825 -261234 0
;
#X obj 124 103 cnv 8 30 8 empty empty mix 14 3 0 8 -136825 -261234
0;
#X obj 102 103 cnv 8 28 8 empty empty min 11 3 0 8 -136825 -261234
0;
#N canvas 457 256 450 300 state_saving 0;
#X obj 109 -4 initbang;
#X msg 169 39 load savestate.pd_lua;
#X obj 170 61 pdlua;
#X obj 106 139 savestate \$0-index \$0-freq \$0-pwm \$0-type \$0-freq2
\$0-pwm2 \$0-type2 \$0-bal;
#X obj 106 174 outlet;
#X obj 109 18 t b b;
#X obj 67 60 bng 15 250 50 0 empty empty empty 17 7 0 10 -262144 -1
-1;
#X obj 106 110 pack \$1 \$2 \$3 \$4 \$5 \$6 \$7 \$8;
#X connect 0 0 5 0;
#X connect 1 0 2 0;
#X connect 3 0 4 0;
#X connect 5 0 7 0;
#X connect 5 1 1 0;
#X connect 6 0 7 0;
#X connect 7 0 3 0;
#X restore 192 460 pd state_saving;
#X obj 192 482 canvasargs;
#X floatatom 132 362 5 0 0 0 index #0-indexrcv #0-indexsnd, f 5;
#X obj 649 325 / 100;
#X obj 766 331 initbang;
#X msg 766 353 1;
#X connect 1 0 38 0;
#X connect 2 0 3 0;
#X connect 3 0 6 1;
#X connect 4 0 2 0;
#X connect 4 0 7 0;
#X connect 4 0 14 0;
#X connect 4 0 17 0;
#X connect 5 0 12 0;
#X connect 6 0 82 0;
#X connect 6 0 91 0;
#X connect 7 0 10 0;
#X connect 9 0 21 0;
#X connect 10 0 11 0;
#X connect 11 0 6 2;
#X connect 12 0 13 0;
#X connect 13 0 6 3;
#X connect 14 0 5 0;
#X connect 17 0 6 0;
#X connect 18 0 20 0;
#X connect 19 0 4 0;
#X connect 20 0 21 1;
#X connect 21 0 7 1;
#X connect 22 0 20 1;
#X connect 23 0 51 0;
#X connect 28 0 4 1;
#X connect 35 0 22 0;
#X connect 36 0 19 1;
#X connect 37 0 19 0;
#X connect 38 0 37 0;
#X connect 41 0 36 0;
#X connect 42 0 43 0;
#X connect 43 0 9 0;
#X connect 51 0 28 0;
#X connect 51 1 4 1;
#X connect 51 2 32 0;
#X connect 51 3 33 0;
#X connect 51 4 34 0;
#X connect 52 0 76 0;
#X connect 53 0 54 0;
#X connect 54 0 57 1;
#X connect 55 0 53 0;
#X connect 55 0 58 0;
#X connect 55 0 65 0;
#X connect 55 0 67 0;
#X connect 56 0 63 0;
#X connect 57 0 82 2;
#X connect 57 0 92 0;
#X connect 58 0 61 0;
#X connect 60 0 71 0;
#X connect 61 0 62 0;
#X connect 62 0 57 2;
#X connect 63 0 64 0;
#X connect 64 0 57 3;
#X connect 65 0 56 0;
#X connect 67 0 57 0;
#X connect 68 0 70 0;
#X connect 69 0 55 0;
#X connect 70 0 71 1;
#X connect 71 0 58 1;
#X connect 72 0 70 1;
#X connect 73 0 72 0;
#X connect 74 0 69 1;
#X connect 75 0 69 0;
#X connect 76 0 75 0;
#X connect 77 0 60 0;
#X connect 78 0 74 0;
#X connect 79 0 77 0;
#X connect 80 0 6 0;
#X connect 81 0 57 0;
#X connect 82 0 83 0;
#X connect 82 0 84 0;
#X connect 82 0 85 0;
#X connect 82 0 94 0;
#X connect 82 1 83 1;
#X connect 82 1 84 1;
#X connect 82 1 85 1;
#X connect 82 1 94 0;
#X connect 83 0 88 0;
#X connect 84 0 89 0;
#X connect 85 0 90 0;
#X connect 86 0 106 0;
#X connect 87 0 82 1;
#X connect 103 0 104 0;
#X connect 106 0 87 0;
#X connect 107 0 108 0;
#X connect 108 0 82 3;
#X coords 0 -1 1 1 150 100 2 6 13;
