#N canvas 0 24 1360 692 10;
#X obj 476 145 eclbrowser;
#X obj 1100 313 mixer4 0.856218 0.092532 0.510347 0.01 0 0 0 0 0 0
0 1 1 0;
#X obj 1100 469 output;
#X obj 44 78 sampler3 0 42 0 87 1 1 /home/ada/Documents/soundlibrary/drones/just1.wav
;
#X obj 249 93 sampler3 0 72 0 96 1 1 /home/ada/Documents/soundlibrary/drones/drone12.wav
;
#X obj 114 471 bus 1;
#X obj 483 24 lfopanel 0 0.697844 56.5 2;
#X obj 131 249 xfade 0 0.528169 2.23239;
#X obj 631 31 wavetablepanel 0 37.3333 1809.86 2293.78 1 0.272727 1
0 0.343434 0.655657 1.58586 /home/ada/Documents/Pd/ecl/eclobjects/spectra/squeak.txt
/home/ada/Documents/Pd/ecl/eclobjects/spectra/sine.txt /home/ada/Documents/Pd/ecl/eclobjects/wavetables/ducker3.txt
/home/ada/Documents/Pd/ecl/eclobjects/wavetables/ducker2.txt;
#X obj 569 327 rev3gui 0 97.3241 1644.16 16.2963 8500 1;
#X obj 573 607 bus 2;
#X obj 1107 55 keyb;
#X obj 633 3 ctrlbus 1;
#X obj 572 494 xfade 0 0.433099 2.33099;
#X obj 572 441 simplehip 0 3960.49 3.8209;
#X obj 404 275 lfopanel 0 0.767852 25.5 0;
#X obj 412 383 attenuvert 0 54 1 0;
#X obj 392 449 attenuvert 0 104 1 53;
#X obj 440 214 clock 0 64 1 13 9 5;
#X obj 777 314 lfopanel 0 0.681866 59 0;
#X obj 311 198 lfopanel 0 0.0621197 58.5 1;
#X obj 783 460 5bandeq 0 0.656566 -1 -1 0.565657 0.424242;
#X obj 783 615 bus 3;
#X obj 126 303 5bandeq 0 0.222222 0.484848 0.040404 0.50505 -0.20202
;
#X obj 776 399 attenuvert 0 60 1 0;
#X obj 953 372 s~ fb1;
#X obj 525 284 r~ fb1;
#X connect 1 0 2 0;
#X connect 1 1 2 1;
#X connect 3 0 7 0;
#X connect 3 1 7 1;
#X connect 4 0 7 2;
#X connect 4 1 7 3;
#X connect 6 0 15 0;
#X connect 6 0 20 0;
#X connect 7 0 23 0;
#X connect 7 1 23 1;
#X connect 8 0 9 0;
#X connect 8 1 9 1;
#X connect 9 0 13 0;
#X connect 9 0 14 0;
#X connect 9 1 13 1;
#X connect 9 1 14 1;
#X connect 12 0 8 0;
#X connect 13 0 10 0;
#X connect 13 0 21 0;
#X connect 13 1 10 1;
#X connect 13 1 21 1;
#X connect 14 0 13 2;
#X connect 14 1 13 3;
#X connect 15 0 17 0;
#X connect 15 0 19 0;
#X connect 15 1 16 0;
#X connect 16 0 13 4;
#X connect 17 0 8 3;
#X connect 18 1 15 2;
#X connect 18 2 6 2;
#X connect 18 3 19 2;
#X connect 19 0 24 0;
#X connect 20 0 15 0;
#X connect 21 0 22 0;
#X connect 21 1 22 1;
#X connect 23 0 5 0;
#X connect 23 1 5 1;
#X connect 24 0 25 0;
#X connect 24 0 9 2;
#X connect 26 0 15 1;
#X connect 26 0 6 0;
