#N canvas 567 238 661 477 10;
#X obj 476 145 eclbrowser;
#X obj 475 184 mixer4 0.102621 0.119854 0.01 0.01 0 0 0 0 1 0 1 1 1
0;
#X obj 475 340 output;
#X obj 44 78 sampler3 0 100 0 100 1 1 /home/ada/Documents/soundlibrary/drones/elementchord.wav
;
#X obj 249 93 sampler3 0 104 0 100 1 1 /home/ada/Documents/soundlibrary/drones/beepplusrumble.wav
;
#X obj 153 391 bus 1;
#X obj 483 24 lfopanel 0 0.05 50.5 0;
#X obj 131 249 xfade 0 0.485915 2.5;
#X connect 1 0 2 0;
#X connect 1 1 2 1;
#X connect 3 0 7 0;
#X connect 3 1 7 1;
#X connect 4 0 7 2;
#X connect 4 1 7 3;
#X connect 6 0 7 4;
#X connect 7 0 5 0;
#X connect 7 1 5 1;
