#N canvas 582 165 549 345 10;
#X obj 268 110 +;
#X obj 268 132 *;
#X obj 268 154 %;
#X obj 268 176 <;
#X obj 268 198 select 1;
#X obj 268 220 outlet;
#X obj 269 38 inlet;
#X obj 14 23 nbx 3 14 -1e+37 1e+37 0 0 \$0-numhitssnd \$0-numhitsrcv
hits 36 7 0 10 -262144 -1 -1 4 256 0;
#X obj 14 42 nbx 3 14 -1e+37 1e+37 0 0 \$0-numstepssnd \$0-numstepsrcv
steps 36 7 0 10 -262144 -1 -1 16 256 0;
#X obj 14 61 nbx 3 14 -1e+37 1e+37 0 0 \$0-offsetsnd \$0-offsetrcv
offset 36 6 0 10 -262144 -1 -1 1 256 0;
#X obj 349 95 r \$0-numhitssnd;
#X obj 427 115 r \$0-offsetsnd;
#X obj 378 146 r \$0-numstepssnd;
#X floatatom 193 186 5 0 0 0 - - -, f 5;
#X obj 315 257 bng 15 250 50 0 empty empty empty 17 7 0 10 -262144
-1 -1;
#X obj 183 72 f 0;
#X obj 217 72 + 1;
#X obj 377 219 outlet num;
#X obj 394 29 inlet reset;
#X obj 394 51 route float bang;
#X msg 436 71 0;
#N canvas 0 0 450 300 state_saving 0;
#X obj 133 41 initbang;
#X obj 133 63 t b b;
#X obj 136 173 pack \$1 \$2 \$3 \$4;
#X msg 248 57 load savestate.pd_lua;
#X obj 244 77 pdlua;
#X obj 136 195 savestate \$0-index \$0-numhits \$0-numsteps \$0-offset
;
#X obj 136 217 outlet;
#X connect 0 0 1 0;
#X connect 1 0 2 0;
#X connect 1 1 3 0;
#X connect 2 0 5 0;
#X connect 3 0 4 0;
#X connect 5 0 6 0;
#X restore 45 180 pd state_saving;
#X obj 45 202 canvasargs;
#X obj 166 14 r allsequencers;
#X connect 0 0 1 0;
#X connect 1 0 2 0;
#X connect 2 0 3 0;
#X connect 2 0 13 0;
#X connect 3 0 4 0;
#X connect 3 0 17 0;
#X connect 4 0 5 0;
#X connect 4 0 14 0;
#X connect 6 0 15 0;
#X connect 10 0 1 1;
#X connect 10 0 3 1;
#X connect 11 0 0 1;
#X connect 12 0 2 1;
#X connect 15 0 16 0;
#X connect 15 0 0 0;
#X connect 16 0 15 1;
#X connect 18 0 19 0;
#X connect 19 0 15 1;
#X connect 19 1 20 0;
#X connect 20 0 15 1;
#X connect 21 0 22 0;
#X connect 23 0 15 1;
#X coords 0 -1 1 1 95 75 2 10 12;
