#N canvas 370 108 1020 511 10;
#X obj 465 437 bob~;
#X obj 495 467 outlet~;
#X obj 494 126 cyclone/scale~ -1 1 1 1;
#X obj 501 239 cyclone/scale~ -1 1 1 1;
#X obj 602 80 expr 1 + $f1;
#X obj 575 101 expr 1 - $f1;
#X obj 462 291 *~;
#X obj 462 271 smoother 50;
#X obj 564 330 *~;
#X obj 564 309 smoother 50;
#X obj 609 196 expr 1 + $f1;
#X obj 582 217 expr 1 - $f1;
#X obj 539 438 bob~;
#X obj 546 469 outlet~;
#X obj 281 46 inlet~ L;
#X obj 350 41 inlet~ R;
#X obj 443 44 inlet~ cutoff;
#X obj 534 48 inlet~ Q;
#X obj 389 228 r \$0-freqsnd;
#X obj 635 267 r \$0-qsnd;
#X obj 639 36 r \$0-freqmodsnd;
#X obj 716 135 r \$0-qmodsnd;
#X obj 102 102 cnv 15 71 76 empty empty empty 76 7 0 10 -206627 -66577
0;
#X obj 102 102 cnv 5 25 9 empty empty L 0 5 0 8 -233017 -66577 0;
#X obj 121 102 cnv 5 25 9 empty empty R 0 5 0 8 -233017 -66577 0;
#X obj 139 102 cnv 5 25 9 empty empty freq 0 5 0 8 -233017 -66577 0
;
#X obj 165 102 cnv 5 8 9 empty empty Q 4 5 0 8 -233017 -66577 0;
#X obj 139 121 moonlib/mknob 25 100 0 5 0 1 \$0-qsnd \$0-qrcv Q -2
-6 0 8 -261682 -159808 -228992 7600 1;
#X obj 105 121 moonlib/mknob 25 100 30 15000 1 1 \$0-freqsnd \$0-freqrcv
freq -2 -6 0 8 -261682 -159808 -228992 6700 1;
#X obj 141 157 moonlib/mknob 20 100 0 0.7 0 0 \$0-qmodsnd \$0-qmodrcv
QMod -2 -6 0 8 -261682 -159808 -228992 3300 1;
#X obj 106 157 moonlib/mknob 20 100 0 55 0 0 \$0-freqmodsnd \$0-freqmodrcv
freqMod -2 -6 0 8 -261682 -159808 -228992 7400 1;
#N canvas 0 50 450 300 state_saving 0;
#X obj 136 47 r \$0-freqsnd;
#X obj 157 83 r \$0-qsnd;
#X obj 176 122 r \$0-freqmodsnd;
#X obj 205 152 r \$0-qmodsnd;
#X obj 127 219 cyclone/bondo 5;
#X obj 127 241 pack \$1 f f f f;
#X obj 127 263 outlet;
#X connect 0 0 4 1;
#X connect 1 0 4 2;
#X connect 2 0 4 3;
#X connect 3 0 4 4;
#X connect 4 0 5 0;
#X connect 4 1 5 1;
#X connect 4 2 5 2;
#X connect 4 3 5 3;
#X connect 4 4 5 4;
#X connect 5 0 6 0;
#X restore 147 244 pd state_saving;
#X obj 147 266 canvasargs;
#N canvas 0 50 450 300 state_loading 0;
#X obj 103 40 pack \$1 \$2 \$3 \$4 \$5;
#X obj 103 62 unpack f f f f f;
#X obj 96 8 loadbang;
#X obj 105 104 s \$0-freqrcv;
#X obj 105 126 s \$0-qrcv;
#X obj 105 148 s \$0-freqmodrcv;
#X obj 105 170 s \$0-qmodrcv;
#X connect 0 0 1 0;
#X connect 1 1 3 0;
#X connect 1 2 4 0;
#X connect 1 3 5 0;
#X connect 1 4 6 0;
#X connect 2 0 0 0;
#X restore 148 298 pd state_loading;
#X obj 826 158 loadbang;
#X obj 457 163 midiratio~;
#X obj 429 110 *~ 36;
#X obj 463 335 max~ 40;
#X obj 463 314 min~ 15000;
#X msg 781 225 oversample 1 \, saturation 0.8;
#X connect 0 0 1 0;
#X connect 3 0 8 1;
#X connect 4 0 2 4;
#X connect 5 0 2 3;
#X connect 6 0 38 0;
#X connect 7 0 6 0;
#X connect 8 0 0 2;
#X connect 8 0 12 2;
#X connect 9 0 8 0;
#X connect 10 0 3 4;
#X connect 11 0 3 3;
#X connect 12 0 13 0;
#X connect 14 0 0 0;
#X connect 15 0 12 0;
#X connect 16 0 2 0;
#X connect 16 0 36 0;
#X connect 17 0 3 0;
#X connect 18 0 7 0;
#X connect 19 0 9 0;
#X connect 20 0 4 0;
#X connect 20 0 5 0;
#X connect 20 0 36 1;
#X connect 21 0 10 0;
#X connect 21 0 11 0;
#X connect 31 0 32 0;
#X connect 34 0 39 0;
#X connect 35 0 6 1;
#X connect 36 0 35 0;
#X connect 37 0 0 1;
#X connect 37 0 12 1;
#X connect 38 0 37 0;
#X connect 39 0 12 0;
#X connect 39 0 0 0;
#X coords 0 -1 1 1 75 80 2 100 100;
