#N canvas 117 66 421 498 10;
#X obj 102 102 cnv 15 116 96 empty empty vcf_\$1 76 7 0 10 -233017
-66577 0;
#X obj 218 308 bob~;
#X obj 147 127 moonlib/mknob 30 100 0 5 0 1 empty \$0-qknob Q -2 -6
0 8 -262144 -1 -1 5400 1;
#X obj 119 71 inlet~;
#X obj 167 71 inlet~;
#X obj 248 338 outlet~;
#X obj 244 116 cyclone/scale~ -1 1 1 1;
#X obj 110 127 moonlib/mknob 30 100 30 15000 1 1 empty \$0-freqknob
freq -2 -6 0 8 -262144 -1 -1 2900 1;
#X obj 149 170 moonlib/mknob 20 100 0 0.7 0 0 empty \$0-qmodknob QMod
-2 -6 0 8 -262144 -1 -1 7900 1;
#X obj 111 170 moonlib/mknob 20 100 0 0.7 0 0 empty \$0-freqmodknob
freqMod -2 -6 0 8 -262144 -1 -1 9900 1;
#X obj 256 179 cyclone/scale~ -1 1 1 1;
#X obj 31 36 inlet~;
#X obj 352 70 expr 1 + $f1;
#X obj 325 91 expr 1 - $f1;
#X obj 217 231 *~;
#X obj 217 211 smoother 50;
#X obj 269 280 *~;
#X obj 269 259 smoother 50;
#X obj 364 136 expr 1 + $f1;
#X obj 337 157 expr 1 - $f1;
#X obj 99 31 inlet~;
#X obj 292 309 bob~;
#X obj 299 340 outlet~;
#X connect 1 0 5 0;
#X connect 2 0 17 0;
#X connect 3 0 6 0;
#X connect 4 0 10 0;
#X connect 6 0 14 1;
#X connect 7 0 15 0;
#X connect 8 0 18 0;
#X connect 8 0 19 0;
#X connect 9 0 12 0;
#X connect 9 0 13 0;
#X connect 10 0 16 1;
#X connect 11 0 1 0;
#X connect 12 0 6 4;
#X connect 13 0 6 3;
#X connect 14 0 1 1;
#X connect 14 0 21 1;
#X connect 15 0 14 0;
#X connect 16 0 1 2;
#X connect 16 0 21 2;
#X connect 17 0 16 0;
#X connect 18 0 10 4;
#X connect 19 0 10 3;
#X connect 20 0 21 0;
#X connect 21 0 22 0;
#X coords 0 -1 1 1 120 100 2 100 100;
