#N canvas 0 24 1360 692 10;
#X obj 102 102 cnv 15 146 116 empty empty empty 20 12 0 14 -223966
-66577 0;
#N canvas 0 0 450 300 (subpatch) 0;
#X array \$0-grainsample 90112 float 0 black black;
#X coords 0 1 90111 -1 200 140 1;
#X restore 1033 275 graph;
#X obj 39 285 soundfiler;
#N canvas 386 145 847 300 loadsample 0;
#X obj 46 23 r \$0-loadsnd;
#X obj 45 66 t a b b;
#X obj 67 202 outlet;
#X obj 477 224 s \$0-filenamedisplay;
#X msg 349 28 load adabasedir.pd_lua;
#X obj 349 51 pdlua;
#X obj 349 3 loadbang;
#X obj 380 197 adabasedir;
#X obj 212 218 s \$0-filepathsnd;
#X obj 176 36 r \$0-filepathrcv;
#X obj 46 46 adaopenpanel;
#X msg 66 154 read -maxsize 4e+07 -resize \$1 \$2;
#X obj 53 128 pack s s;
#X obj 98 101 symbol \$0-grainsample;
#X connect 0 0 10 0;
#X connect 1 0 7 0;
#X connect 1 0 8 0;
#X connect 1 0 12 0;
#X connect 1 1 13 0;
#X connect 4 0 5 0;
#X connect 6 0 4 0;
#X connect 7 1 3 0;
#X connect 9 0 1 0;
#X connect 10 0 1 0;
#X connect 11 0 2 0;
#X connect 12 0 11 0;
#X connect 13 0 12 1;
#X restore 39 259 pd loadsample;
#N canvas 549 332 709 324 numberofsamples 0;
#X obj 119 60 inlet;
#X obj -1 101 s \$0-numsamples;
#X obj 119 242 s \$0-unityspeed;
#X obj 340 62 inlet;
#X obj 331 132 s \$0-filesamplerate;
#X obj 531 130 s \$0-filenumchannels;
#X obj 119 186 /;
#X obj 119 214 expr 1/$f1;
#X obj 149 117 t b f;
#X obj 117 151 f;
#X obj 340 84 unpack f f f f s;
#X obj 305 242 s \$0-unityspeedonce;
#X text 169 180 calculate phasor~ and line~ speed for playback speed
of 1;
#X obj 267 206 * 1000;
#X floatatom 64 257 5 0 0 0 - - -, f 5;
#X obj 233 90 initbang;
#X obj 233 115 samplerate~;
#X connect 0 0 1 0;
#X connect 0 0 9 0;
#X connect 3 0 8 0;
#X connect 3 0 10 0;
#X connect 6 0 7 0;
#X connect 6 0 13 0;
#X connect 7 0 2 0;
#X connect 7 0 14 0;
#X connect 8 0 9 0;
#X connect 8 1 6 1;
#X connect 9 0 6 0;
#X connect 10 0 4 0;
#X connect 10 2 5 0;
#X connect 13 0 11 0;
#X connect 15 0 16 0;
#X connect 16 0 6 1;
#X restore 39 312 pd numberofsamples;
#X obj 119 179 bng 15 250 50 0 \$0-loadsnd \$0-loadrcv LOAD 18 6 0
10 -262144 -1 -1;
#X obj 591 536 +~;
#X obj 181 428 f;
#X obj 181 450 + 1;
#X obj 181 472 mod 4;
#X obj 536 404 grainvoice \$0-grainsample \$0-numsamples \$0-grain1
;
#X obj 559 426 grainvoice \$0-grainsample \$0-numsamples \$0-grain2
;
#X obj 592 449 grainvoice \$0-grainsample \$0-numsamples \$0-grain3
;
#X obj 616 472 grainvoice \$0-grainsample \$0-numsamples \$0-grain4
;
#X obj 181 494 sel 0 1 2 3;
#X obj 169 536 s \$0-grain1;
#X obj 169 558 s \$0-grain2;
#X obj 169 580 s \$0-grain3;
#X obj 169 602 s \$0-grain4;
#X obj 173 369 metro 55;
#X obj 269 378 *;
#X obj 316 426 random 48;
#X obj 316 447 - 24, f 7;
#X obj 316 519 midiratio;
#X obj 316 469 *;
#X obj 422 381 / 100;
#N canvas 432 247 606 342 pitchlogic 0;
#X obj 134 240 +;
#X obj 184 240 +;
#X obj 231 240 +;
#X obj 284 240 +;
#X obj 316 3 inlet midinotes;
#X obj 312 47 f;
#X obj 312 69 + 1;
#X obj 312 91 mod 4;
#X obj 315 125 pack f f;
#X obj 315 150 route 0 1 2 3;
#X obj 312 20 t b f;
#X obj 150 279 outlet;
#X obj 201 279 outlet;
#X obj 251 279 outlet;
#X obj 302 279 outlet;
#X obj 277 182 t b f;
#X obj 320 183 t b f;
#X obj 362 184 t b f;
#X obj 405 185 t b f;
#X obj 153 63 r \$0-pitchsnd;
#X obj 56 63 r \$0-pitchmod;
#X obj 56 85 * 24;
#X floatatom 193 169 5 0 0 0 - - -, f 5;
#X obj 148 149 +;
#X connect 0 0 11 0;
#X connect 1 0 12 0;
#X connect 2 0 13 0;
#X connect 3 0 14 0;
#X connect 4 0 10 0;
#X connect 5 0 6 0;
#X connect 6 0 5 1;
#X connect 6 0 7 0;
#X connect 7 0 8 0;
#X connect 8 0 9 0;
#X connect 9 0 15 0;
#X connect 9 1 16 0;
#X connect 9 2 17 0;
#X connect 9 3 18 0;
#X connect 10 0 5 0;
#X connect 10 1 8 1;
#X connect 15 0 0 0;
#X connect 15 1 0 1;
#X connect 16 0 1 0;
#X connect 16 1 1 1;
#X connect 17 0 2 0;
#X connect 17 1 2 1;
#X connect 18 0 3 0;
#X connect 18 1 3 1;
#X connect 19 0 23 1;
#X connect 20 0 21 0;
#X connect 21 0 23 0;
#X connect 23 0 0 0;
#X connect 23 0 1 0;
#X connect 23 0 2 0;
#X connect 23 0 3 0;
#X connect 23 0 22 0;
#X restore 599 327 pd pitchlogic;
#X obj 105 124 nbx 3 14 -48 200 0 0 \$0-pitchsnd \$0-pitchrcv pitch
41 5 0 10 -262144 -1 -1 -1 256 0;
#X obj 106 142 nbx 3 14 0 500 0 0 \$0-startsnd \$0-startrcv start 41
5 0 10 -262144 -1 -1 161 256 0;
#X obj 106 160 nbx 3 14 2 1500 0 0 \$0-dursnd \$0-durrcv dur 41 5 0
10 -262144 -1 -1 84 256 0;
#X obj 181 125 nbx 3 14 0 1000 0 0 \$0-randsnd \$0-randrcv rand 38
5 0 10 -262144 -1 -1 12 256 0;
#X obj 181 142 nbx 3 14 5 1500 0 0 \$0-denssnd \$0-densrcv dens 38
5 0 10 -262144 -1 -1 28 256 0;
#X obj 470 325 r \$0-chaossnd;
#X obj 181 160 nbx 3 14 0 1500 0 0 \$0-chaossnd \$0-chaosrcv chaos
36 6 0 10 -262144 -1 -1 1 256 0;
#X obj 884 347 r \$0-randsnd;
#X symbolatom 168 177 12 0 0 0 - #0-filenamedisplay -, f 12;
#X obj 339 20 inlet~ pitch;
#X obj 435 20 inlet~ start;
#X obj 526 21 inlet~ dur;
#X obj 602 19 inlet~ rand;
#X obj 689 21 inlet~ dens;
#X obj 778 25 inlet~ chaos;
#X obj 260 20 inlet trig;
#X obj 216 290 initbang;
#X msg 216 312 1;
#X obj 896 26 inlet midinote;
#X obj 233 351 max 4;
#X obj 309 47 r \$0-trig;
#X obj 98 423 s \$0-trig;
#X obj 339 84 snapshot~;
#X obj 339 106 s \$0-pitchmod;
#X obj 587 605 outlet~;
#X obj 666 612 outlet~;
#X obj 440 83 snapshot~;
#X obj 440 104 s \$0-startmod;
#N canvas 173 175 450 300 startlogic 0;
#X obj 163 46 r \$0-startsnd;
#X obj 163 68 / 500;
#X obj 187 227 outlet;
#X obj 64 98 r \$0-startmod;
#X obj 64 142 / 2;
#X obj 203 181 +;
#X obj 203 203 clip 0 1;
#X connect 0 0 1 0;
#X connect 1 0 5 1;
#X connect 3 0 4 0;
#X connect 4 0 5 0;
#X connect 5 0 6 0;
#X connect 6 0 2 0;
#X restore 710 312 pd startlogic;
#X obj 534 87 snapshot~;
#X obj 534 108 s \$0-durmod;
#N canvas 267 241 450 300 durlogic 0;
#X obj 254 58 r \$0-dursnd;
#X obj 81 47 r \$0-durmod;
#X obj 81 91 midiratio;
#X obj 140 160 *;
#X obj 141 241 outlet;
#X obj 140 182 max 2;
#X obj 81 69 * 64;
#X connect 0 0 3 1;
#X connect 1 0 6 0;
#X connect 2 0 3 0;
#X connect 3 0 5 0;
#X connect 5 0 4 0;
#X connect 6 0 2 0;
#X restore 770 344 pd durlogic;
#N canvas 475 303 737 331 state_saving 0;
#X obj 14 56 pdlua;
#X msg 14 34 load savestate.pd_lua;
#X msg 128 137 symbol dumpvalues;
#X obj 128 210 outlet;
#X obj 249 59 t b b;
#X obj 14 8 inlet;
#X obj 129 161 savestate \$0-pitch \$0-start \$0-dur \$0-rand \$0-dens
\$0-chaos \$0-internal \$0-filepath;
#X obj 240 104 pack \$1 \$2 \$3 \$4 \$5 \$6 \$7 s;
#X obj 401 78 symbol \$8;
#X connect 1 0 0 0;
#X connect 2 0 6 0;
#X connect 4 0 7 0;
#X connect 4 1 8 0;
#X connect 5 0 1 0;
#X connect 5 0 4 0;
#X connect 6 0 3 0;
#X connect 7 0 6 0;
#X connect 8 0 7 7;
#X restore 1086 517 pd state_saving;
#X obj 1089 546 canvasargs;
#X floatatom 1007 492 5 0 0 0 index #0-indexrcv #0-indexsnd, f 5;
#X obj 1086 491 initbang;
#X obj 179 52 s \$0-externaltrig;
#X obj 49 374 r \$0-externaltrig;
#X obj 108 199 tgl 15 0 \$0-internalsnd \$0-internalrcv internal 17
7 0 10 -262144 -1 -1 1 1;
#X obj 188 258 r \$0-internalsnd;
#X obj 320 302 r \$0-denssnd;
#X obj 102 102 cnv 8 40 8 empty empty ! 1 3 0 8 -232556 -66577 0;
#X obj 102 110 cnv 8 55 8 empty empty pitch 15 3 0 8 -232556 -258049
0;
#X obj 132 102 cnv 8 45 8 empty empty start 1 3 0 8 -232556 -258049
0;
#X obj 155 110 cnv 8 45 8 empty empty dur 1 3 0 8 -232556 -258049 0
;
#X obj 172 102 cnv 8 45 8 empty empty rand 1 3 0 8 -232556 -258049
0;
#X obj 191 110 cnv 8 25 8 empty empty dens 2 3 0 8 -232556 -258049
0;
#X obj 208 102 cnv 8 40 8 empty empty chaos 4 3 0 8 -232556 -258049
0;
#X obj 213 110 cnv 8 35 8 empty empty ctrl 16 3 0 8 -232556 -1 0;
#X obj 687 88 snapshot~;
#X obj 687 110 s \$0-densmod;
#X obj 269 400 * 1;
#X obj 337 326 r \$0-densmod;
#X obj 337 348 * 48;
#X obj 337 370 midiratio;
#X connect 2 0 4 0;
#X connect 3 0 2 0;
#X connect 6 0 51 0;
#X connect 6 0 52 0;
#X connect 7 0 8 0;
#X connect 8 0 9 0;
#X connect 8 0 7 1;
#X connect 9 0 14 0;
#X connect 10 0 6 0;
#X connect 11 0 6 0;
#X connect 12 0 6 0;
#X connect 13 0 6 0;
#X connect 14 0 15 0;
#X connect 14 1 16 0;
#X connect 14 2 17 0;
#X connect 14 3 18 0;
#X connect 19 0 7 0;
#X connect 19 0 21 0;
#X connect 19 0 48 0;
#X connect 20 0 78 0;
#X connect 21 0 22 0;
#X connect 22 0 24 0;
#X connect 23 0 20 0;
#X connect 24 0 23 0;
#X connect 25 0 24 1;
#X connect 26 0 10 1;
#X connect 26 1 11 1;
#X connect 26 2 12 1;
#X connect 26 3 13 1;
#X connect 32 0 25 0;
#X connect 34 0 10 4;
#X connect 34 0 11 4;
#X connect 34 0 12 4;
#X connect 34 0 13 4;
#X connect 36 0 49 0;
#X connect 37 0 53 0;
#X connect 38 0 56 0;
#X connect 40 0 76 0;
#X connect 42 0 63 0;
#X connect 43 0 44 0;
#X connect 44 0 19 0;
#X connect 46 0 19 1;
#X connect 47 0 49 0;
#X connect 47 0 53 0;
#X connect 47 0 56 0;
#X connect 47 0 76 0;
#X connect 49 0 50 0;
#X connect 53 0 54 0;
#X connect 55 0 10 2;
#X connect 55 0 11 2;
#X connect 55 0 12 2;
#X connect 55 0 13 2;
#X connect 56 0 57 0;
#X connect 58 0 10 3;
#X connect 58 0 11 3;
#X connect 58 0 12 3;
#X connect 58 0 13 3;
#X connect 59 0 60 0;
#X connect 62 0 59 0;
#X connect 64 0 48 0;
#X connect 64 0 7 0;
#X connect 66 0 19 0;
#X connect 67 0 20 1;
#X connect 76 0 77 0;
#X connect 78 0 46 0;
#X connect 79 0 80 0;
#X connect 80 0 81 0;
#X connect 81 0 78 1;
#X coords 0 -1 1 1 150 120 2 100 100;
