#N canvas 303 273 778 442 10;
#X obj 102 102 cnv 15 146 76 \$0-cnvsnd \$0-cnvrcv keyb 9 45 0 19 -222875
-262144 0;
#X floatatom 150 104 3 0 0 0 keydown #0-keydown -, f 3;
#X floatatom 150 121 3 -48 48 0 transp #0-transp -, f 3;
#X obj 160 359 outlet main;
#X obj 240 358 outlet just keydowns;
#X obj 179 117 hradio 15 0 0 2 \$0-dvqwsnd \$0-dvqwrcv dv/qw 3 -7 0
8 -182500 -1 -1 0;
#X msg 14 45 0;
#N canvas 569 256 790 282 ctrlbussends 1;
#X obj 143 21 inlet kvs;
#X obj 446 99 sel 33 64 35 36 37 94 38 42;
#X obj 153 67 list prepend;
#X msg 305 81 label \$1;
#X obj 305 103 s \$0-busdisplayrcv;
#X obj 455 36 key;
#X obj 304 59 makefilename ctrlbus:%d;
#X obj 153 89 s ctrlbus;
#X obj 447 204 s ctrlbusselector;
#X obj 276 15 r ctrlbusselector;
#X msg 439 144 1;
#X msg 470 144 2;
#X msg 502 142 3;
#X msg 537 142 4;
#X msg 576 148 5;
#X msg 610 149 6;
#X msg 641 149 7;
#X msg 674 148 8;
#X connect 0 0 2 0;
#X connect 1 0 10 0;
#X connect 1 1 11 0;
#X connect 1 2 12 0;
#X connect 1 3 13 0;
#X connect 1 4 14 0;
#X connect 1 5 15 0;
#X connect 1 6 16 0;
#X connect 1 7 17 0;
#X connect 2 0 7 0;
#X connect 3 0 4 0;
#X connect 5 0 1 0;
#X connect 6 0 3 0;
#X connect 9 0 2 1;
#X connect 9 0 6 0;
#X connect 10 0 8 0;
#X connect 11 0 8 0;
#X connect 12 0 8 0;
#X connect 13 0 8 0;
#X connect 14 0 8 0;
#X connect 15 0 8 0;
#X connect 16 0 8 0;
#X connect 17 0 8 0;
#X restore 47 360 pd ctrlbussends;
#X obj 14 23 initbang;
#X obj 14 67 s \$0-dvqwrcv;
#N canvas 306 263 450 300 colors 0;
#X obj 33 242 s \$0-cnvrcv;
#X msg 34 115 200 200 200;
#X obj 168 43 r \$0-modesnd;
#X obj 168 65 route keyb mix ctl;
#X msg 124 115 250 240 40;
#X msg 204 114 250 80 100;
#X connect 2 0 3 0;
#X connect 3 0 1 0;
#X connect 3 1 4 0;
#X connect 3 2 5 0;
#X restore 635 358 pd colors;
#N canvas 461 305 854 372 mode 0;
#X obj 99 30 key;
#X obj 17 223 s \$0-modesnd;
#X obj 597 24 r \$0-modesnd;
#X msg 65 109 mix;
#X msg 83 133 keyb;
#X obj 735 238 outlet;
#X obj 65 64 sel 109 119 118 122 77 87 86 90;
#X msg 168 104 mix;
#X msg 186 128 keyb;
#X obj 239 217 s \$0-pinmodesnd;
#X obj 715 25 r \$0-pinmodesnd;
#X obj 715 69 list trim;
#X obj 715 91 s \$0-pindisprcv;
#X obj 715 47 list prepend set;
#X obj 344 26 keyup;
#X obj 343 62 sel 109 119 118 122;
#X obj 470 118 r \$0-pinmodesnd;
#X obj 437 203 symbol;
#X obj 451 233 s \$0-modesnd;
#X msg 716 192 0;
#X msg 743 194 1;
#X msg 771 197 2;
#X obj 470 140 list prepend symbol;
#X obj 597 68 list trim;
#X obj 470 162 list trim;
#X text 344 7 on keyup - revert to pinned mode;
#X obj 597 46 list prepend label;
#X obj 597 97 s \$0-cnvrcv;
#X obj 716 143 route label;
#X msg 105 152 ctrl;
#X msg 208 147 ctrl;
#X obj 716 163 route mix keyb ctrl;
#X connect 0 0 6 0;
#X connect 2 0 26 0;
#X connect 3 0 1 0;
#X connect 4 0 1 0;
#X connect 6 0 3 0;
#X connect 6 1 4 0;
#X connect 6 2 29 0;
#X connect 6 4 7 0;
#X connect 6 5 8 0;
#X connect 6 6 30 0;
#X connect 7 0 9 0;
#X connect 8 0 9 0;
#X connect 10 0 13 0;
#X connect 11 0 12 0;
#X connect 13 0 11 0;
#X connect 15 0 17 0;
#X connect 15 1 17 0;
#X connect 15 2 17 0;
#X connect 15 3 17 0;
#X connect 16 0 22 0;
#X connect 17 0 18 0;
#X connect 19 0 5 0;
#X connect 20 0 5 0;
#X connect 21 0 5 0;
#X connect 22 0 24 0;
#X connect 23 0 27 0;
#X connect 23 0 28 0;
#X connect 24 0 17 1;
#X connect 26 0 23 0;
#X connect 28 0 31 0;
#X connect 29 0 1 0;
#X connect 30 0 9 0;
#X connect 31 0 19 0;
#X connect 31 1 20 0;
#X connect 31 2 21 0;
#X restore 561 105 pd mode;
#N canvas 0 24 1360 692 keybmode 0;
#X obj 118 525 outlet main;
#X obj 241 525 outlet justkeydowns;
#X obj 433 366 s \$0-transp;
#X obj 433 317 * 12;
#X obj 433 339 + 64;
#X obj 412 181 sel 59 113;
#X obj 433 282 expr $f1+$f2;
#X msg 522 251 -1;
#X msg 456 254 0;
#X msg 538 292 set \$1;
#X obj 439 210 t b b;
#X obj 482 212 t b b;
#X msg 557 255 1;
#N canvas 211 206 934 410 keydown_dvorak 0;
#X msg 25 156 0;
#X msg 56 156 1;
#X msg 87 156 2;
#X msg 121 156 3;
#X msg 156 156 4;
#X msg 188 156 5;
#X msg 220 156 6;
#X msg 255 156 7;
#X msg 289 156 8;
#X msg 320 156 9;
#X msg 350 156 10;
#X msg 384 156 11;
#X msg 415 156 12;
#X msg 445 156 13;
#X msg 478 156 14;
#X obj 59 214 + 64;
#X obj 44 355 outlet;
#X obj 131 221 r \$0-transp;
#X obj 46 317 pack f 100;
#X obj 290 307 pack f 0;
#X msg 295 200 0;
#X msg 326 200 1;
#X msg 357 200 2;
#X msg 391 200 3;
#X msg 426 200 4;
#X msg 458 200 5;
#X msg 490 200 6;
#X msg 525 200 7;
#X msg 559 200 8;
#X msg 590 200 9;
#X msg 620 200 10;
#X msg 654 200 11;
#X msg 685 200 12;
#X msg 715 200 13;
#X msg 748 200 14;
#X obj 329 285 + 64;
#X obj 401 292 r \$0-transp;
#X obj 142 358 outlet;
#X obj 134 250 s \$0-keydown;
#X obj 315 328 s \$0-keyup;
#X obj 55 52 keysupress 97;
#X obj 74 72 keysupress 44;
#X obj 155 51 keysupress 46;
#X obj 192 94 keysupress 117;
#X obj 255 51 keysupress 121;
#X obj 274 72 keysupress 105;
#X obj 292 94 keysupress 102;
#X obj 355 51 keysupress 100;
#X obj 374 72 keysupress 103;
#X obj 392 94 keysupress 104;
#X obj 455 51 keysupress 116;
#X obj 474 72 keysupress 114;
#X obj 492 94 keysupress 110;
#X obj 92 94 keysupress 111;
#X obj 174 72 keysupress 101;
#X obj 161 10 inlet;
#X obj 278 9 inlet;
#X msg 512 159 15;
#X msg 781 205 15;
#X msg 546 162 16;
#X msg 815 203 16;
#X obj 583 49 keysupress 108;
#X obj 593 69 keysupress 115;
#X obj 603 89 keysupress 47;
#X obj 697 81 keysupress 45;
#X msg 582 156 17;
#X msg 617 158 18;
#X msg 848 202 17;
#X msg 883 204 18;
#X connect 0 0 15 0;
#X connect 1 0 15 0;
#X connect 2 0 15 0;
#X connect 3 0 15 0;
#X connect 4 0 15 0;
#X connect 5 0 15 0;
#X connect 6 0 15 0;
#X connect 7 0 15 0;
#X connect 8 0 15 0;
#X connect 9 0 15 0;
#X connect 10 0 15 0;
#X connect 11 0 15 0;
#X connect 12 0 15 0;
#X connect 13 0 15 0;
#X connect 14 0 15 0;
#X connect 15 0 18 0;
#X connect 15 0 38 0;
#X connect 17 0 15 1;
#X connect 18 0 16 0;
#X connect 19 0 37 0;
#X connect 19 0 39 0;
#X connect 20 0 35 0;
#X connect 21 0 35 0;
#X connect 22 0 35 0;
#X connect 23 0 35 0;
#X connect 24 0 35 0;
#X connect 25 0 35 0;
#X connect 26 0 35 0;
#X connect 27 0 35 0;
#X connect 28 0 35 0;
#X connect 29 0 35 0;
#X connect 30 0 35 0;
#X connect 31 0 35 0;
#X connect 32 0 35 0;
#X connect 33 0 35 0;
#X connect 34 0 35 0;
#X connect 35 0 19 0;
#X connect 36 0 35 1;
#X connect 40 0 0 0;
#X connect 40 1 20 0;
#X connect 41 0 1 0;
#X connect 41 1 21 0;
#X connect 42 0 3 0;
#X connect 42 1 23 0;
#X connect 43 0 5 0;
#X connect 43 1 25 0;
#X connect 44 0 6 0;
#X connect 44 1 26 0;
#X connect 45 0 7 0;
#X connect 45 1 27 0;
#X connect 46 0 8 0;
#X connect 46 1 28 0;
#X connect 47 0 9 0;
#X connect 47 1 29 0;
#X connect 48 0 10 0;
#X connect 48 1 30 0;
#X connect 49 0 11 0;
#X connect 49 1 31 0;
#X connect 50 0 12 0;
#X connect 50 1 32 0;
#X connect 51 0 13 0;
#X connect 51 1 33 0;
#X connect 52 0 14 0;
#X connect 52 1 34 0;
#X connect 53 0 2 0;
#X connect 53 1 22 0;
#X connect 54 0 4 0;
#X connect 54 1 24 0;
#X connect 55 0 40 0;
#X connect 55 0 41 0;
#X connect 55 0 53 0;
#X connect 55 0 42 0;
#X connect 55 0 54 0;
#X connect 55 0 43 0;
#X connect 55 0 44 0;
#X connect 55 0 45 0;
#X connect 55 0 46 0;
#X connect 55 0 47 0;
#X connect 55 0 48 0;
#X connect 55 0 49 0;
#X connect 55 0 50 0;
#X connect 55 0 51 0;
#X connect 55 0 52 0;
#X connect 55 0 61 0;
#X connect 55 0 62 0;
#X connect 55 0 63 0;
#X connect 55 0 64 0;
#X connect 56 0 40 1;
#X connect 56 0 41 1;
#X connect 56 0 53 1;
#X connect 56 0 42 1;
#X connect 56 0 54 1;
#X connect 56 0 43 1;
#X connect 56 0 44 1;
#X connect 56 0 45 1;
#X connect 56 0 46 1;
#X connect 56 0 47 1;
#X connect 56 0 48 1;
#X connect 56 0 49 1;
#X connect 56 0 50 1;
#X connect 56 0 51 1;
#X connect 56 0 52 1;
#X connect 56 0 61 1;
#X connect 56 0 62 1;
#X connect 56 0 63 1;
#X connect 56 0 64 1;
#X connect 57 0 15 0;
#X connect 58 0 35 0;
#X connect 59 0 15 0;
#X connect 60 0 35 0;
#X connect 61 0 57 0;
#X connect 61 1 58 0;
#X connect 62 0 59 0;
#X connect 62 1 60 0;
#X connect 63 0 65 0;
#X connect 63 1 67 0;
#X connect 64 0 66 0;
#X connect 64 1 68 0;
#X connect 65 0 15 0;
#X connect 66 0 15 0;
#X connect 67 0 35 0;
#X connect 68 0 35 0;
#X restore 76 399 pd keydown_dvorak;
#N canvas 325 152 814 405 keydown_qwerty 0;
#X msg 25 156 0;
#X msg 56 156 1;
#X msg 87 156 2;
#X msg 121 156 3;
#X msg 156 156 4;
#X msg 188 156 5;
#X msg 220 156 6;
#X msg 255 156 7;
#X msg 289 156 8;
#X msg 320 156 9;
#X msg 350 156 10;
#X msg 384 156 11;
#X msg 415 156 12;
#X msg 445 156 13;
#X msg 478 156 14;
#X obj 59 214 + 64;
#X obj 44 355 outlet;
#X obj 131 221 r \$0-transp;
#X obj 46 317 pack f 100;
#X obj 290 307 pack f 0;
#X msg 295 200 0;
#X msg 326 200 1;
#X msg 357 200 2;
#X msg 391 200 3;
#X msg 426 200 4;
#X msg 458 200 5;
#X msg 490 200 6;
#X msg 525 200 7;
#X msg 559 200 8;
#X msg 590 200 9;
#X msg 620 200 10;
#X msg 654 200 11;
#X msg 685 200 12;
#X msg 715 200 13;
#X msg 748 200 14;
#X obj 329 285 + 64;
#X obj 401 292 r \$0-transp;
#X obj 142 358 outlet;
#X obj 134 250 s \$0-keydown;
#X obj 315 328 s \$0-keyup;
#X obj 55 52 keysupress 97;
#X obj 161 10 inlet;
#X obj 278 9 inlet;
#X obj 75 71 keysupress 119;
#X obj 92 94 keysupress 115;
#X obj 155 51 keysupress 101;
#X obj 174 72 keysupress 100;
#X obj 192 94 keysupress 102;
#X obj 274 72 keysupress 103;
#X obj 255 51 keysupress 116;
#X obj 292 94 keysupress 121;
#X obj 355 51 keysupress 104;
#X obj 374 72 keysupress 117;
#X obj 392 94 keysupress 106;
#X obj 455 51 keysupress 107;
#X obj 474 72 keysupress 111;
#X obj 492 94 keysupress 108;
#X connect 0 0 15 0;
#X connect 1 0 15 0;
#X connect 2 0 15 0;
#X connect 3 0 15 0;
#X connect 4 0 15 0;
#X connect 5 0 15 0;
#X connect 6 0 15 0;
#X connect 7 0 15 0;
#X connect 8 0 15 0;
#X connect 9 0 15 0;
#X connect 10 0 15 0;
#X connect 11 0 15 0;
#X connect 12 0 15 0;
#X connect 13 0 15 0;
#X connect 14 0 15 0;
#X connect 15 0 18 0;
#X connect 15 0 38 0;
#X connect 17 0 15 1;
#X connect 18 0 16 0;
#X connect 19 0 37 0;
#X connect 19 0 39 0;
#X connect 20 0 35 0;
#X connect 21 0 35 0;
#X connect 22 0 35 0;
#X connect 23 0 35 0;
#X connect 24 0 35 0;
#X connect 25 0 35 0;
#X connect 26 0 35 0;
#X connect 27 0 35 0;
#X connect 28 0 35 0;
#X connect 29 0 35 0;
#X connect 30 0 35 0;
#X connect 31 0 35 0;
#X connect 32 0 35 0;
#X connect 33 0 35 0;
#X connect 34 0 35 0;
#X connect 35 0 19 0;
#X connect 36 0 35 1;
#X connect 40 0 0 0;
#X connect 40 1 20 0;
#X connect 41 0 40 0;
#X connect 41 0 43 0;
#X connect 41 0 44 0;
#X connect 41 0 45 0;
#X connect 41 0 46 0;
#X connect 41 0 47 0;
#X connect 41 0 48 0;
#X connect 41 0 49 0;
#X connect 41 0 50 0;
#X connect 41 0 51 0;
#X connect 41 0 52 0;
#X connect 41 0 53 0;
#X connect 41 0 54 0;
#X connect 41 0 55 0;
#X connect 41 0 56 0;
#X connect 42 0 40 1;
#X connect 42 0 43 1;
#X connect 42 0 44 1;
#X connect 42 0 45 1;
#X connect 42 0 46 1;
#X connect 42 0 47 1;
#X connect 42 0 48 1;
#X connect 42 0 49 1;
#X connect 42 0 50 1;
#X connect 42 0 51 1;
#X connect 42 0 52 1;
#X connect 42 0 53 1;
#X connect 42 0 54 1;
#X connect 42 0 55 1;
#X connect 42 0 56 1;
#X connect 43 0 1 0;
#X connect 43 1 21 0;
#X connect 44 0 2 0;
#X connect 44 1 22 0;
#X connect 45 0 3 0;
#X connect 45 1 23 0;
#X connect 46 0 4 0;
#X connect 46 1 24 0;
#X connect 47 0 5 0;
#X connect 47 1 25 0;
#X connect 48 0 7 0;
#X connect 48 1 27 0;
#X connect 49 0 6 0;
#X connect 49 1 26 0;
#X connect 50 0 8 0;
#X connect 50 1 28 0;
#X connect 51 0 9 0;
#X connect 51 1 29 0;
#X connect 52 0 10 0;
#X connect 52 1 30 0;
#X connect 53 0 11 0;
#X connect 53 1 31 0;
#X connect 54 0 12 0;
#X connect 54 1 32 0;
#X connect 55 0 13 0;
#X connect 55 1 33 0;
#X connect 56 0 14 0;
#X connect 56 1 34 0;
#X restore 215 403 pd keydown_qwerty;
#X obj 192 239 spigot;
#X obj 282 237 spigot;
#X obj 206 261 spigot;
#X obj 292 260 spigot;
#X obj 322 145 sel 0 1;
#X obj 322 208 unpack f f;
#X msg 323 179 1 0;
#X msg 353 180 0 1;
#X msg 575 222 set 1;
#X obj 582 189 t b b b;
#X obj 480 179 sel 122 120;
#X obj 412 158 spigot;
#X obj 480 159 spigot;
#X obj 582 167 initbang;
#X obj 274 111 r \$0-dvqwsnd;
#X obj 309 36 inlet key;
#X obj 409 34 inlet keyup;
#X obj 852 213 s node;
#X msg 827 160 1;
#X msg 856 161 2;
#X msg 885 160 3;
#X msg 917 159 4;
#X msg 945 157 5;
#X msg 975 161 6;
#X obj 839 134 sel 53 54 55 56 57 48;
#X connect 3 0 4 0;
#X connect 4 0 2 0;
#X connect 5 0 10 0;
#X connect 5 1 11 0;
#X connect 6 0 9 0;
#X connect 6 0 3 0;
#X connect 7 0 6 1;
#X connect 8 0 6 0;
#X connect 9 0 8 0;
#X connect 10 0 8 0;
#X connect 10 1 7 0;
#X connect 11 0 8 0;
#X connect 11 1 12 0;
#X connect 12 0 6 1;
#X connect 13 0 0 0;
#X connect 13 0 1 0;
#X connect 13 1 0 0;
#X connect 14 0 0 0;
#X connect 14 0 1 0;
#X connect 14 1 0 0;
#X connect 15 0 13 0;
#X connect 16 0 14 0;
#X connect 17 0 13 1;
#X connect 18 0 14 1;
#X connect 19 0 21 0;
#X connect 19 1 22 0;
#X connect 20 0 15 1;
#X connect 20 0 17 1;
#X connect 20 0 26 1;
#X connect 20 1 16 1;
#X connect 20 1 18 1;
#X connect 20 1 27 1;
#X connect 21 0 20 0;
#X connect 22 0 20 0;
#X connect 23 0 8 0;
#X connect 24 0 8 0;
#X connect 24 1 7 0;
#X connect 24 2 23 0;
#X connect 25 0 10 0;
#X connect 25 1 11 0;
#X connect 26 0 5 0;
#X connect 27 0 25 0;
#X connect 28 0 24 0;
#X connect 29 0 19 0;
#X connect 30 0 15 0;
#X connect 30 0 16 0;
#X connect 30 0 26 0;
#X connect 30 0 27 0;
#X connect 30 0 39 0;
#X connect 31 0 18 0;
#X connect 31 0 17 0;
#X connect 33 0 32 0;
#X connect 34 0 32 0;
#X connect 35 0 32 0;
#X connect 36 0 32 0;
#X connect 37 0 32 0;
#X connect 38 0 32 0;
#X connect 39 0 33 0;
#X connect 39 1 34 0;
#X connect 39 2 35 0;
#X connect 39 3 36 0;
#X connect 39 4 37 0;
#X connect 39 5 38 0;
#X restore 170 272 pd keybmode;
#X obj 380 80 key;
#X obj 423 79 keyup;
#X obj 320 179 demux . . .;
#X obj 420 179 demux . . .;
#X obj 160 142 cnv 10 81 16 \$0-busdisplaysnd \$0-busdisplayrcv ctrlbus:5
1 4 0 14 -181070 -244980 0;
#N canvas 191 232 996 356 ctrlmode 0;
#X obj 83 258 outlet;
#X obj 98 62 inlet key;
#X obj 677 66 inlet keyup;
#X floatatom 144 97 5 0 0 0 - - -, f 5;
#X obj 101 136 sel 39 44 46 112 97 111 101 117;
#X obj 114 215 s node;
#X msg 89 162 1;
#X msg 118 163 2;
#X msg 147 162 3;
#X msg 179 161 4;
#X msg 207 159 5;
#X msg 237 163 6;
#X msg 265 160 7;
#X msg 294 163 8;
#X text 174 60 node control;
#X text 348 33 aux control;
#X obj 403 137 sel 121 105 102 100 103 104 99 116;
#X msg 394 168 1;
#X msg 423 169 2;
#X msg 448 170 3;
#X msg 476 169 4;
#X msg 500 169 5;
#X msg 526 167 6;
#X msg 553 171 7;
#X msg 581 170 8;
#X msg 606 169 9;
#X obj 392 288 s auxdown;
#X obj 663 277 s auxup;
#X obj 653 137 sel 121 105 102 100 103 104 99 116;
#X msg 644 168 1;
#X msg 673 169 2;
#X msg 698 170 3;
#X msg 726 169 4;
#X msg 750 169 5;
#X msg 776 167 6;
#X msg 803 171 7;
#X msg 831 170 8;
#X msg 856 169 9;
#X connect 1 0 3 0;
#X connect 1 0 4 0;
#X connect 1 0 16 0;
#X connect 2 0 28 0;
#X connect 4 0 6 0;
#X connect 4 1 7 0;
#X connect 4 2 8 0;
#X connect 4 3 9 0;
#X connect 4 4 10 0;
#X connect 4 5 11 0;
#X connect 4 6 12 0;
#X connect 4 7 13 0;
#X connect 6 0 5 0;
#X connect 7 0 5 0;
#X connect 8 0 5 0;
#X connect 9 0 5 0;
#X connect 10 0 5 0;
#X connect 11 0 5 0;
#X connect 12 0 5 0;
#X connect 13 0 5 0;
#X connect 16 0 17 0;
#X connect 16 1 18 0;
#X connect 16 2 19 0;
#X connect 16 3 20 0;
#X connect 16 4 21 0;
#X connect 16 5 22 0;
#X connect 16 6 23 0;
#X connect 16 7 24 0;
#X connect 16 8 25 0;
#X connect 17 0 26 0;
#X connect 18 0 26 0;
#X connect 19 0 26 0;
#X connect 20 0 26 0;
#X connect 21 0 26 0;
#X connect 22 0 26 0;
#X connect 23 0 26 0;
#X connect 24 0 26 0;
#X connect 25 0 26 0;
#X connect 28 0 29 0;
#X connect 28 1 30 0;
#X connect 28 2 31 0;
#X connect 28 3 32 0;
#X connect 28 4 33 0;
#X connect 28 5 34 0;
#X connect 28 6 35 0;
#X connect 28 7 36 0;
#X connect 28 8 37 0;
#X connect 29 0 27 0;
#X connect 30 0 27 0;
#X connect 31 0 27 0;
#X connect 32 0 27 0;
#X connect 33 0 27 0;
#X connect 34 0 27 0;
#X connect 35 0 27 0;
#X connect 36 0 27 0;
#X connect 37 0 27 0;
#X restore 295 275 pd ctrlmode;
#X obj 160 157 cnv 10 81 16 \$0-nodedisplaysnd \$0-nodedisplayrcv node:8
1 4 0 14 -181070 -244980 0;
#N canvas 458 280 450 300 nodedisplay 0;
#X obj 143 121 makefilename node:%d;
#X obj 146 183 s \$0-nodedisplayrcv;
#X msg 143 143 label \$1;
#X obj 114 36 r node;
#X connect 0 0 2 0;
#X connect 2 0 1 0;
#X connect 3 0 0 0;
#X restore 633 313 pd nodedisplay;
#X connect 6 0 9 0;
#X connect 8 0 6 0;
#X connect 11 0 16 1;
#X connect 11 0 15 1;
#X connect 12 0 3 0;
#X connect 12 0 7 0;
#X connect 12 1 4 0;
#X connect 13 0 15 0;
#X connect 14 0 16 0;
#X connect 15 1 12 0;
#X connect 15 2 18 0;
#X connect 16 1 12 1;
#X connect 16 2 18 1;
#X connect 18 0 7 0;
#X coords 0 -1 1 1 150 80 2 100 100;
