#N canvas 0 22 778 442 10;
#X obj 453 96 key;
#X floatatom 146 104 5 0 0 0 keydown #0-keydown -, f 5;
#N canvas 284 164 814 405 keydown 0;
#X msg 25 129 0;
#X msg 56 129 1;
#X msg 87 129 2;
#X msg 121 129 3;
#X msg 156 129 4;
#X msg 188 129 5;
#X msg 220 129 6;
#X msg 255 129 7;
#X msg 289 129 8;
#X msg 320 129 9;
#X msg 350 129 10;
#X msg 384 129 11;
#X msg 415 129 12;
#X msg 445 129 13;
#X msg 478 129 14;
#X obj 59 214 + 64;
#X obj 44 355 outlet;
#X obj 131 221 r \$0-transp;
#X obj 57 19 keysupress 97;
#X obj 76 40 keysupress 44;
#X obj 157 19 keysupress 46;
#X obj 194 62 keysupress 117;
#X obj 257 19 keysupress 121;
#X obj 276 40 keysupress 105;
#X obj 294 62 keysupress 102;
#X obj 357 19 keysupress 100;
#X obj 376 40 keysupress 103;
#X obj 394 62 keysupress 104;
#X obj 457 19 keysupress 116;
#X obj 476 40 keysupress 114;
#X obj 494 62 keysupress 110;
#X obj 46 317 pack f 100;
#X obj 290 307 pack f 0;
#X msg 295 200 0;
#X msg 326 200 1;
#X msg 357 200 2;
#X msg 391 200 3;
#X msg 426 200 4;
#X msg 458 200 5;
#X msg 490 200 6;
#X msg 525 200 7;
#X msg 559 200 8;
#X msg 590 200 9;
#X msg 620 200 10;
#X msg 654 200 11;
#X msg 685 200 12;
#X msg 715 200 13;
#X msg 748 200 14;
#X obj 329 285 + 64;
#X obj 401 292 r \$0-transp;
#X obj 142 358 outlet;
#X obj 94 62 keysupress 111;
#X obj 176 40 keysupress 101;
#X obj 134 250 s \$0-keydown;
#X obj 315 328 s \$0-keyup;
#X obj 589 273 r \$0-transp2;
#X obj 595 307 +;
#X obj 653 310 +;
#X obj 605 362 outlet;
#X obj 671 364 outlet;
#X obj 593 339 pack f 100;
#X obj 664 340 pack f 0;
#X text 684 256 secondary outlet;
#X connect 0 0 15 0;
#X connect 1 0 15 0;
#X connect 2 0 15 0;
#X connect 3 0 15 0;
#X connect 4 0 15 0;
#X connect 5 0 15 0;
#X connect 6 0 15 0;
#X connect 7 0 15 0;
#X connect 8 0 15 0;
#X connect 9 0 15 0;
#X connect 10 0 15 0;
#X connect 11 0 15 0;
#X connect 12 0 15 0;
#X connect 13 0 15 0;
#X connect 14 0 15 0;
#X connect 15 0 31 0;
#X connect 15 0 53 0;
#X connect 15 0 56 0;
#X connect 17 0 15 1;
#X connect 18 0 0 0;
#X connect 18 1 33 0;
#X connect 19 0 1 0;
#X connect 19 1 34 0;
#X connect 20 0 3 0;
#X connect 20 1 36 0;
#X connect 21 0 5 0;
#X connect 21 1 38 0;
#X connect 22 0 6 0;
#X connect 22 1 39 0;
#X connect 23 0 7 0;
#X connect 23 1 40 0;
#X connect 24 0 8 0;
#X connect 24 1 41 0;
#X connect 25 0 9 0;
#X connect 25 1 42 0;
#X connect 26 0 10 0;
#X connect 26 1 43 0;
#X connect 27 0 11 0;
#X connect 27 1 44 0;
#X connect 28 0 12 0;
#X connect 28 1 45 0;
#X connect 29 0 13 0;
#X connect 29 1 46 0;
#X connect 30 0 14 0;
#X connect 30 1 47 0;
#X connect 31 0 16 0;
#X connect 32 0 50 0;
#X connect 32 0 54 0;
#X connect 33 0 48 0;
#X connect 34 0 48 0;
#X connect 35 0 48 0;
#X connect 36 0 48 0;
#X connect 37 0 48 0;
#X connect 38 0 48 0;
#X connect 39 0 48 0;
#X connect 40 0 48 0;
#X connect 41 0 48 0;
#X connect 42 0 48 0;
#X connect 43 0 48 0;
#X connect 44 0 48 0;
#X connect 45 0 48 0;
#X connect 46 0 48 0;
#X connect 47 0 48 0;
#X connect 48 0 32 0;
#X connect 48 0 57 0;
#X connect 49 0 48 1;
#X connect 51 0 2 0;
#X connect 51 1 35 0;
#X connect 52 0 4 0;
#X connect 52 1 37 0;
#X connect 55 0 56 1;
#X connect 55 0 57 1;
#X connect 56 0 60 0;
#X connect 57 0 61 0;
#X connect 60 0 58 0;
#X connect 61 0 59 0;
#X restore 231 200 pd keydown;
#X floatatom 146 123 5 0 0 0 keyup #0-keyup -, f 5;
#X obj 453 128 sel 59 113;
#X obj 459 265 s \$0-transp;
#X obj 451 175 f 0;
#X obj 459 216 * 12;
#X obj 518 175 f 0;
#X obj 484 176 + 1;
#X obj 546 175 - 1;
#X floatatom 146 141 5 -48 48 0 transp #0-transp -, f 5;
#X obj 557 91 loadbang;
#X obj 459 238 + 64;
#X msg 557 114 0;
#X text 295 343 keydowns only;
#X floatatom 146 158 5 0 0 0 transp2 - #0-transp2, f 5;
#X obj 385 318 outlet transp2;
#X obj 179 319 outlet main;
#X obj 259 318 outlet just keydowns;
#X obj 478 320 outlet transp2 just keydowns;
#X connect 0 0 4 0;
#X connect 2 0 18 0;
#X connect 2 0 19 0;
#X connect 2 1 18 0;
#X connect 2 2 17 0;
#X connect 2 2 20 0;
#X connect 2 3 17 0;
#X connect 4 0 8 0;
#X connect 4 1 6 0;
#X connect 6 0 7 0;
#X connect 6 0 9 0;
#X connect 7 0 13 0;
#X connect 8 0 10 0;
#X connect 8 0 7 0;
#X connect 9 0 6 1;
#X connect 9 0 8 1;
#X connect 10 0 6 1;
#X connect 10 0 8 1;
#X connect 12 0 14 0;
#X connect 13 0 5 0;
#X connect 14 0 8 0;
#X connect 14 0 6 0;
#X coords 0 -1 1 1 85 74 2 100 100;
