#N canvas 96 86 925 541 10;
#X obj 102 102 cnv 15 71 71 empty empty empty 20 12 0 14 -150905 -66577
0;
#X obj 136 36 inlet~;
#X obj 318 358 outlet~;
#X obj 420 164 *~ 2;
#X obj 420 186 -~ 1;
#X obj 385 142 phasor~ 1;
#X obj 544 219 abs~;
#X obj 318 329 multiplex~ . . . .;
#X obj 384 255 expr~ $v1 < $v2;
#X text 593 221 triangle;
#X obj 482 183 sig~ 0.5;
#X obj 384 277 -~ 0.5;
#X obj 384 299 *~ 2;
#X obj 544 241 *~ 4;
#X obj 544 263 -~ 1;
#X obj 527 152 -~ 0.5;
#X text 398 237 square with pwm;
#X obj 103 146 hradio 17 1 0 4 \$0-typesnd \$0-typercv empty 0 -8 0
10 -188160 -45952 -1 0;
#X obj 340 203 cos~;
#X obj 108 121 moonlib/mknob 22 100 0.05 100 1 1 \$0-freqsnd \$0-freqrcv
freq -2 -5 0 8 -109312 -200448 -1 8112 1;
#X obj 215 41 inlet~;
#X obj 323 132 *~;
#X obj 467 80 scalearound1;
#X obj 476 216 *~;
#X obj 143 121 moonlib/mknob 22 100 0.05 0.95 0 0 \$0-pwmsnd \$0-pwmrcv
pwm -2 -5 0 8 -104576 -191616 -1 2500 1;
#X msg 552 54 0.5;
#X obj 607 46 inlet;
#X obj 65 286 r \$0-freqsnd;
#X obj 76 307 r \$0-pwmsnd;
#X obj 86 327 r \$0-typesnd;
#X obj 65 356 t b f;
#X obj 76 376 t b f;
#X obj 86 396 t b f;
#X obj 70 432 pack \$1 f f f;
#X obj 70 454 canvasargs;
#X obj 204 472 s \$0-freqrcv;
#X obj 204 494 s \$0-pwmrcv;
#X obj 204 516 s \$0-typercv;
#X obj 206 399 pack \$1 \$2 \$3 \$4;
#X obj 206 421 unpack f f f f;
#X text 461 372 inlets \; 1: freq cv \; 2: pwm cv \; 3: type selector
(0-3) \; 4: phase reset (0-1) \;;
#X text 103 160 sn;
#X text 120 160 sw;
#X text 137 160 pl;
#X text 155 160 tr;
#X msg 604 99 0;
#X obj 506 359 outlet~ pulse;
#X obj 102 102 cnv 8 30 8 empty empty rate 0 5 0 8 -136825 -261234
0;
#X obj 133 102 cnv 8 30 8 empty empty pw 0 5 0 8 -136825 -261234 0
;
#X obj 148 102 cnv 8 25 8 empty empty ctrl 7 5 0 8 -136825 -262144
0;
#X obj 671 98 s \$0-typercv;
#X obj 607 65 route bang float type freq pwm;
#X obj 730 146 s \$0-freqrcv;
#X obj 771 182 s \$0-pwmrcv;
#X obj 206 377 initbang;
#X obj 525 26 initbang;
#X obj 185 104 smoother 50;
#X obj 290 96 midiratio~;
#X obj 290 74 *~ 48;
#X connect 1 0 58 0;
#X connect 3 0 4 0;
#X connect 4 0 7 1;
#X connect 5 0 3 0;
#X connect 5 0 8 0;
#X connect 5 0 15 0;
#X connect 5 0 18 0;
#X connect 6 0 13 0;
#X connect 7 0 2 0;
#X connect 8 0 11 0;
#X connect 10 0 23 0;
#X connect 11 0 12 0;
#X connect 12 0 7 2;
#X connect 12 0 46 0;
#X connect 13 0 14 0;
#X connect 14 0 7 3;
#X connect 15 0 6 0;
#X connect 17 0 7 0;
#X connect 18 0 7 0;
#X connect 19 0 56 0;
#X connect 20 0 22 0;
#X connect 21 0 5 0;
#X connect 22 0 23 1;
#X connect 23 0 8 1;
#X connect 24 0 10 0;
#X connect 25 0 22 1;
#X connect 26 0 51 0;
#X connect 27 0 30 0;
#X connect 28 0 31 0;
#X connect 29 0 32 0;
#X connect 30 0 33 0;
#X connect 30 1 33 1;
#X connect 31 0 33 0;
#X connect 31 1 33 2;
#X connect 32 0 33 0;
#X connect 32 1 33 3;
#X connect 33 0 34 0;
#X connect 38 0 39 0;
#X connect 39 1 35 0;
#X connect 39 2 36 0;
#X connect 39 3 37 0;
#X connect 45 0 5 1;
#X connect 51 0 45 0;
#X connect 51 1 5 1;
#X connect 51 2 50 0;
#X connect 51 3 52 0;
#X connect 51 4 53 0;
#X connect 54 0 38 0;
#X connect 55 0 25 0;
#X connect 56 0 21 1;
#X connect 57 0 21 0;
#X connect 58 0 57 0;
#X coords 0 -1 1 1 75 75 2 100 100;
