#N canvas 132 246 662 451 10;
#X obj 138 45 inlet;
#X obj 234 43 inlet;
#X obj 121 252 outlet;
#N canvas 459 304 450 300 AND 0;
#X obj 137 125 spigot;
#X obj 118 84 f;
#X obj 170 78 t b f;
#X obj 95 33 inlet;
#X obj 185 24 inlet;
#X obj 136 256 outlet;
#X obj 129 163 select 1;
#X connect 0 0 6 0;
#X connect 1 0 0 0;
#X connect 2 0 1 0;
#X connect 2 1 0 1;
#X connect 3 0 1 1;
#X connect 4 0 2 0;
#X connect 6 0 5 0;
#X restore 193 149 pd AND;
#X obj 193 253 outlet;
#X obj 47 64 vradio 15 0 0 3 \$0-leftchannelsnd \$0-leftchannelrcv
empty 0 -8 0 10 -262144 -1 -1 1;
#X obj 94 65 vradio 15 0 0 3 \$0-rightchannelsnd \$0-rightchannelrcv
empty 0 -8 0 10 -262144 -1 -1 0;
#X obj 99 205 spigot;
#X obj 213 206 spigot;
#X obj 144 207 spigot;
#X obj 258 208 spigot;
#X obj 382 74 r \$0-leftchannelsnd;
#X obj 382 96 sel 0 1 2;
#X text 67 63 AND;
#X text 69 78 ==;
#X text 69 95 OR;
#X obj 366 155 unpack f f;
#X obj 526 94 sel 0 1 2;
#X obj 510 153 unpack f f;
#X obj 526 72 r \$0-rightchannelsnd;
#X msg 372 126 1 0;
#X msg 407 131 0 1;
#X msg 516 124 1 0;
#X msg 551 129 0 1;
#N canvas 0 0 450 300 EQUALS 0;
#X obj 133 49 inlet;
#X obj 244 45 inlet;
#X obj 190 122 ==;
#X obj 190 144 select 1;
#X obj 190 166 outlet;
#X connect 0 0 2 0;
#X connect 1 0 2 1;
#X connect 2 0 3 0;
#X connect 3 0 4 0;
#X restore 261 149 pd EQUALS;
#X connect 0 0 3 0;
#X connect 0 0 24 0;
#X connect 1 0 3 1;
#X connect 1 0 24 1;
#X connect 3 0 7 0;
#X connect 3 0 8 0;
#X connect 7 0 2 0;
#X connect 8 0 4 0;
#X connect 9 0 2 0;
#X connect 10 0 4 0;
#X connect 11 0 12 0;
#X connect 12 0 20 0;
#X connect 12 1 21 0;
#X connect 16 0 7 1;
#X connect 16 1 9 1;
#X connect 17 0 22 0;
#X connect 17 1 23 0;
#X connect 18 0 8 1;
#X connect 18 1 10 1;
#X connect 19 0 17 0;
#X connect 20 0 16 0;
#X connect 21 0 16 0;
#X connect 22 0 18 0;
#X connect 23 0 18 0;
#X connect 24 0 9 0;
#X connect 24 0 10 0;
#X coords 0 -1 1 1 75 75 2 41 44;
