#N canvas 177 85 1037 674 10;
#X obj 172 12 cnv 15 146 146 empty empty empty 20 12 0 14 -261578 -66577
0;
#X obj 12 12 cnv 15 146 146 empty empty empty 20 12 0 14 -261578 -66577
0;
#X obj 13 18 vsl 25 80 0.01 1 1 0 \$0-fader1snd \$0-fader1rcv empty
0 -9 0 10 -261682 -260097 -1 6800 1;
#X obj 40 18 vsl 25 80 0.01 1 1 0 \$0-fader2snd \$0-fader2rcv empty
0 -9 0 10 -261682 -260097 -1 4300 1;
#X obj 67 18 vsl 25 80 0.01 1 1 0 \$0-fader3snd \$0-fader3rcv empty
0 -9 0 10 -261682 -260097 -1 4500 1;
#X obj 94 18 vsl 25 80 0.01 1 1 0 \$0-fader4snd \$0-fader4rcv empty
0 -9 0 10 -261682 -260097 -1 7400 1;
#X obj 420 367 *~;
#X obj 453 367 *~;
#X obj 535 531 outlet~;
#X obj 634 532 outlet~;
#X obj 509 367 *~;
#X obj 535 367 *~;
#X obj 599 367 *~;
#X obj 625 367 *~;
#X obj 689 367 *~;
#X obj 715 367 *~;
#X obj 13 128 moonlib/mknob 23 100 0 1 0 1 \$0-pan1snd \$0-pan1rcv
empty -2 -6 0 8 -261541 -239489 -1 7100 1;
#X obj 41 128 moonlib/mknob 23 100 0 1 0 1 \$0-pan2snd \$0-pan2rcv
empty -2 -6 0 8 -261541 -239489 -1 6600 1;
#X obj 69 128 moonlib/mknob 23 100 0 1 0 1 \$0-pan3snd \$0-pan3rcv
empty -2 -6 0 8 -261541 -239489 -1 5000 1;
#X obj 97 128 moonlib/mknob 23 100 0 1 0 1 \$0-pan4snd \$0-pan4rcv
empty -2 -6 0 8 -261541 -239489 -1 4700 1;
#X obj 420 321 adapan;
#X obj 510 321 adapan;
#X obj 396 221 inlet~;
#X obj 445 221 inlet~;
#X obj 497 221 inlet~;
#X obj 539 220 inlet~;
#X obj 607 317 adapan;
#X obj 587 221 inlet~;
#X obj 625 221 inlet~;
#X obj 678 221 inlet~;
#X obj 716 221 inlet~;
#X obj 687 317 adapan;
#X obj 123 36 vu 15 80 \$0-vuLrcv empty -1 -8 0 10 -261682 -1 0 0;
#X obj 141 36 vu 15 80 \$0-vuRrcv empty -1 -8 0 10 -261228 -1 0 0;
#X obj 296 487 s~ \$0-tovuL;
#X obj 372 486 s~ \$0-tovuR;
#X obj 295 437 mux~ . . . .;
#X obj 373 439 mux~ . . . .;
#X obj 122 17 hradio 9 1 0 4 \$0-vuselectorsnd \$0-vuselectorrcv empty
0 -8 0 10 -228856 -260097 -1 3;
#X obj 177 292 r~ \$0-tovuL;
#X obj 248 293 r~ \$0-tovuR;
#X obj 193 328 env~;
#X obj 263 328 env~;
#X obj 193 350 - 90;
#X obj 263 351 - 90;
#X obj 158 226 canvasargs;
#X obj 14 105 tgl 20 1 \$0-mute1snd \$0-mute1rcv empty 17 7 0 10 -261653
-1 -1 0 1;
#X obj 42 105 tgl 20 1 \$0-mute2snd \$0-mute2rcv empty 17 7 0 10 -261653
-1 -1 0 1;
#X obj 69 105 tgl 20 1 \$0-mute3snd \$0-mute3rcv empty 17 7 0 10 -261653
-1 -1 1 1;
#X obj 96 105 tgl 20 1 \$0-mute4snd \$0-mute4rcv empty 17 7 0 10 -261653
-1 -1 0 1;
#X obj 462 438 *~;
#X obj 493 437 *~;
#X obj 534 438 *~;
#X obj 565 437 *~;
#X obj 609 438 *~;
#X obj 640 437 *~;
#X obj 679 438 *~;
#X obj 710 437 *~;
#X obj 792 378 smoother 10;
#X obj 869 377 smoother 10;
#X obj 882 398 smoother 10;
#X obj 802 398 smoother 10;
#X obj 430 342 smoother 100;
#X obj 609 343 smoother 100;
#X obj 697 340 smoother 100;
#X obj 515 342 smoother 100;
#X obj 697 262 - 0.01;
#X obj 627 262 - 0.01;
#X obj 527 262 - 0.01;
#X obj 437 262 - 0.01;
#X obj 12 301 key;
#X obj 12 373 sel 97 111 101 117;
#X obj 10 422 s \$0-mute1rcv;
#X obj 20 442 s \$0-mute2rcv;
#X obj 30 462 s \$0-mute3rcv;
#X obj 40 482 s \$0-mute4rcv;
#X text 18 510 ^ key control \; for qwerty change to 97 \, 115 \, 100
\, 102 \; for ASDF keys.;
#X obj 12 346 spigot;
#X obj 24 319 r keycontrol;
#X text 894 204 macros;
#X obj 795 204 s \$0-fader1rcv;
#X obj 795 182 cyclone/scale 0 127 0.01 1 2;
#X obj 918 136 inlet;
#X obj 795 158 route fader1 fader2 fader3 fader4 mute1 mute2 mute3
mute4;
#N canvas 0 22 450 300 state_saving 0;
#X obj 63 35 r \$0-fader1snd;
#X obj 73 55 r \$0-fader2snd;
#X obj 83 75 r \$0-fader3snd;
#X obj 93 95 r \$0-fader4snd;
#X obj 63 125 t b f;
#X obj 73 145 t b f;
#X obj 83 165 t b f;
#X obj 93 185 t b f;
#X obj 162 34 r \$0-pan1snd;
#X obj 162 125 t b f;
#X obj 172 145 t b f;
#X obj 182 165 t b f;
#X obj 192 185 t b f;
#X text 102 10 state saving;
#X obj 172 54 r \$0-pan2snd;
#X obj 182 74 r \$0-pan3snd;
#X obj 192 94 r \$0-pan4snd;
#X obj 82 244 pack \$1 f f f f f f f f f f f f;
#X obj 264 129 t b f;
#X obj 274 149 t b f;
#X obj 284 169 t b f;
#X obj 294 189 t b f;
#X obj 261 34 r \$0-mute1snd;
#X obj 271 54 r \$0-mute2snd;
#X obj 281 74 r \$0-mute3snd;
#X obj 291 95 r \$0-mute4snd;
#X obj 82 266 outlet;
#X connect 0 0 4 0;
#X connect 1 0 5 0;
#X connect 2 0 6 0;
#X connect 3 0 7 0;
#X connect 4 0 17 0;
#X connect 4 1 17 1;
#X connect 5 0 17 0;
#X connect 5 1 17 2;
#X connect 6 0 17 0;
#X connect 6 1 17 3;
#X connect 7 0 17 0;
#X connect 7 1 17 4;
#X connect 8 0 9 0;
#X connect 9 0 17 0;
#X connect 9 1 17 5;
#X connect 10 0 17 0;
#X connect 10 1 17 6;
#X connect 11 0 17 0;
#X connect 11 1 17 7;
#X connect 12 0 17 0;
#X connect 12 1 17 8;
#X connect 14 0 10 0;
#X connect 15 0 11 0;
#X connect 16 0 12 0;
#X connect 17 0 26 0;
#X connect 18 0 17 0;
#X connect 18 1 17 9;
#X connect 19 0 17 0;
#X connect 19 1 17 10;
#X connect 20 0 17 0;
#X connect 20 1 17 11;
#X connect 21 0 17 0;
#X connect 21 1 17 12;
#X connect 22 0 18 0;
#X connect 23 0 19 0;
#X connect 24 0 20 0;
#X connect 25 0 21 0;
#X restore 158 202 pd state_saving;
#N canvas 0 22 450 300 state_loading 0;
#X obj 48 146 s \$0-fader1rcv;
#X obj 152 145 s \$0-pan1rcv;
#X obj 58 166 s \$0-fader2rcv;
#X obj 68 186 s \$0-fader3rcv;
#X obj 78 206 s \$0-fader4rcv;
#X obj 162 165 s \$0-pan2rcv;
#X obj 172 185 s \$0-pan3rcv;
#X obj 182 205 s \$0-pan4rcv;
#X obj 245 145 s \$0-mute1rcv;
#X obj 60 69 pack \$1 \$2 \$3 \$4 \$5 \$6 \$7 \$8 \$9 \$10 \$11 \$12
\$13;
#X obj 60 91 unpack f f f f f f f f f f f f f;
#X obj 43 30 loadbang;
#X obj 255 165 s \$0-mute2rcv;
#X obj 265 185 s \$0-mute3rcv;
#X obj 275 205 s \$0-mute4rcv;
#X connect 9 0 10 0;
#X connect 10 1 0 0;
#X connect 10 2 2 0;
#X connect 10 3 3 0;
#X connect 10 4 4 0;
#X connect 10 5 1 0;
#X connect 10 6 5 0;
#X connect 10 7 6 0;
#X connect 10 8 7 0;
#X connect 10 9 8 0;
#X connect 10 10 12 0;
#X connect 10 11 13 0;
#X connect 10 12 14 0;
#X connect 11 0 9 0;
#X restore 157 181 pd state_loading;
#X obj 696 241 r \$0-fader4snd;
#X obj 605 239 r \$0-fader3snd;
#X obj 516 241 r \$0-fader2snd;
#X obj 419 240 r \$0-fader1snd;
#X obj 716 290 r \$0-pan4snd;
#X obj 606 290 r \$0-pan3snd;
#X obj 516 290 r \$0-pan2snd;
#X obj 426 293 r \$0-pan1snd;
#X obj 776 318 r \$0-mute1snd;
#X obj 786 338 r \$0-mute2snd;
#X obj 866 319 r \$0-mute3snd;
#X obj 876 338 r \$0-mute4snd;
#X obj 279 403 r \$0-vuselectorsnd;
#X obj 190 372 s \$0-vuLrcv;
#X obj 266 373 s \$0-vuRrcv;
#X obj 125 129 hradio 15 1 0 2 \$0-tabsnd \$0-tabrcv empty 0 -8 0 10
-261674 -259727 -1 1;
#X obj 27 212 namecanvas \$0-mixer4;
#N canvas 0 22 450 300 tabs 0;
#X msg 65 97 0;
#X obj 64 148 pack f f;
#X obj 44 70 t f f b;
#X msg 98 123 10;
#X msg 126 123 170;
#X msg 153 123 330;
#X msg 173 72 set \$1;
#X obj 182 27 loadbang;
#X msg 182 49 0;
#X msg 64 172 donecanvasdialog 1 -1 \$1 0 -1 1 1 150 150 \$2 10 \,
dirty 0;
#X obj 44 47 r \$0-tabsnd;
#X obj 98 98 sel 0 1;
#X obj 64 198 s \$0-mixer4;
#X obj 173 94 s \$0-tabrcv;
#X msg 36 101 2;
#X connect 0 0 1 0;
#X connect 1 0 9 0;
#X connect 2 0 14 0;
#X connect 2 1 11 0;
#X connect 2 2 0 0;
#X connect 3 0 1 1;
#X connect 4 0 1 1;
#X connect 5 0 1 1;
#X connect 6 0 13 0;
#X connect 7 0 8 0;
#X connect 8 0 2 0;
#X connect 8 0 6 0;
#X connect 9 0 12 0;
#X connect 10 0 2 0;
#X connect 10 0 6 0;
#X connect 11 0 3 0;
#X connect 11 1 4 0;
#X connect 11 2 5 0;
#X connect 14 0 1 0;
#X restore 25 188 pd tabs;
#X obj 285 129 hradio 15 1 0 2 \$0-tabsnd \$0-tabrcv empty 0 -8 0 10
-261674 -259727 -1 1;
#X obj 400 163 catch~ bus1L;
#X obj 410 181 catch~ bus1R;
#X obj 490 163 catch~ bus2L;
#X obj 499 182 catch~ bus2R;
#X obj 580 163 catch~ bus3L;
#X obj 590 181 catch~ bus3R;
#X obj 670 163 catch~ bus4L;
#X obj 680 181 catch~ bus4R;
#N canvas 0 22 450 300 comp 0;
#X obj 106 46 inlet~;
#X obj 242 45 inlet~;
#X obj 107 227 outlet~;
#X obj 272 228 outlet~;
#X obj 315 70 r \$0-compswitchsnd;
#X obj 98 145 *~ 1;
#X obj 219 147 *~ 1;
#N canvas 410 242 810 411 compressor 0;
#X obj 111 63 inlet~;
#X obj 117 243 outlet~;
#X obj 375 58 inlet;
#X obj 375 80 switch~;
#X obj 127 192 tb_compressor~;
#X obj 224 193 tb_compressor~;
#X obj 216 62 inlet~;
#X obj 224 244 outlet~;
#X obj 20 43 loadbang;
#X obj 441 93 r \$0-thresholdsnd;
#X obj 435 147 r \$0-ratiosnd;
#X msg 435 172 ratio \$1;
#X obj 207 138 r \$0-compsettings;
#X obj 438 227 s \$0-compsettings;
#X msg 441 115 threshold \$1;
#X obj 553 91 r \$0-responsesnd;
#X msg 553 113 response \$1;
#X obj 548 145 r \$0-makeupsnd;
#X msg 548 167 gain \$1;
#X msg 4 87 threshold -5 \, ratio 3 \, response 30 \, gain 0.2 \, rmspeak
0 \, lookahead 1;
#X connect 0 0 4 0;
#X connect 2 0 3 0;
#X connect 4 0 1 0;
#X connect 5 0 7 0;
#X connect 6 0 5 0;
#X connect 8 0 19 0;
#X connect 9 0 14 0;
#X connect 10 0 11 0;
#X connect 11 0 13 0;
#X connect 12 0 4 1;
#X connect 12 0 5 1;
#X connect 14 0 13 0;
#X connect 15 0 16 0;
#X connect 16 0 13 0;
#X connect 17 0 18 0;
#X connect 18 0 13 0;
#X connect 19 0 4 1;
#X connect 19 0 5 1;
#X restore 161 110 pd compressor;
#X obj 307 106 == 0;
#X connect 0 0 7 0;
#X connect 0 0 5 0;
#X connect 1 0 7 1;
#X connect 1 0 6 0;
#X connect 4 0 7 2;
#X connect 4 0 8 0;
#X connect 5 0 2 0;
#X connect 6 0 3 0;
#X connect 7 0 2 0;
#X connect 7 1 3 0;
#X connect 8 0 5 1;
#X connect 8 0 6 1;
#X restore 570 484 pd comp;
#X obj 177 17 tgl 15 1 \$0-compswitchsnd \$0-compswitchrcv Comp 17
7 0 10 -261234 -262144 -1 1 1;
#X obj 177 38 vsl 20 100 -50 0 0 1 \$0-thresholdsnd \$0-thresholdrcv
thr 2 20 0 10 -261676 -258892 -1 5900 1;
#X obj 200 38 vsl 20 100 1 20 0 1 \$0-ratiosnd \$0-ratiorcv ?:1 2 20
0 10 -260963 -258892 -1 2100 1;
#X obj 224 38 vsl 20 100 10 600 1 1 \$0-responsesnd \$0-responsercv
rsp 2 20 0 10 -260651 -258892 -1 900 1;
#X obj 248 38 vsl 20 100 0 15 0 1 \$0-makeupsnd \$0-makeuprcv mkp 2
20 0 10 -261344 -258892 -1 2200 1;
#X connect 6 0 36 0;
#X connect 6 0 50 0;
#X connect 7 0 37 0;
#X connect 7 0 51 0;
#X connect 10 0 36 1;
#X connect 10 0 52 0;
#X connect 11 0 37 1;
#X connect 11 0 53 0;
#X connect 12 0 36 2;
#X connect 12 0 54 0;
#X connect 13 0 37 2;
#X connect 13 0 55 0;
#X connect 14 0 36 3;
#X connect 14 0 56 0;
#X connect 15 0 37 3;
#X connect 15 0 57 0;
#X connect 20 0 6 0;
#X connect 20 1 7 0;
#X connect 21 0 10 0;
#X connect 21 1 11 0;
#X connect 22 0 20 0;
#X connect 23 0 20 2;
#X connect 24 0 21 0;
#X connect 25 0 21 2;
#X connect 26 0 12 0;
#X connect 26 1 13 0;
#X connect 27 0 26 0;
#X connect 28 0 26 2;
#X connect 29 0 31 0;
#X connect 30 0 31 2;
#X connect 31 0 14 0;
#X connect 31 1 15 0;
#X connect 36 0 34 0;
#X connect 37 0 35 0;
#X connect 39 0 41 0;
#X connect 40 0 42 0;
#X connect 41 0 43 0;
#X connect 42 0 44 0;
#X connect 43 0 99 0;
#X connect 44 0 100 0;
#X connect 50 0 113 0;
#X connect 51 0 113 1;
#X connect 52 0 113 0;
#X connect 53 0 113 1;
#X connect 54 0 113 0;
#X connect 55 0 113 1;
#X connect 56 0 113 0;
#X connect 57 0 113 1;
#X connect 58 0 50 1;
#X connect 58 0 51 1;
#X connect 59 0 54 1;
#X connect 59 0 55 1;
#X connect 60 0 56 1;
#X connect 60 0 57 1;
#X connect 61 0 52 1;
#X connect 61 0 53 1;
#X connect 62 0 6 1;
#X connect 62 0 7 1;
#X connect 63 0 12 1;
#X connect 63 0 13 1;
#X connect 64 0 14 1;
#X connect 64 0 15 1;
#X connect 65 0 10 1;
#X connect 65 0 11 1;
#X connect 66 0 64 0;
#X connect 67 0 63 0;
#X connect 68 0 65 0;
#X connect 69 0 62 0;
#X connect 70 0 77 0;
#X connect 71 0 72 0;
#X connect 71 1 73 0;
#X connect 71 2 74 0;
#X connect 71 3 75 0;
#X connect 77 0 71 0;
#X connect 78 0 77 1;
#X connect 81 0 80 0;
#X connect 82 0 83 0;
#X connect 83 0 81 0;
#X connect 84 0 45 0;
#X connect 86 0 66 0;
#X connect 87 0 67 0;
#X connect 88 0 68 0;
#X connect 89 0 69 0;
#X connect 90 0 31 1;
#X connect 91 0 26 1;
#X connect 92 0 21 1;
#X connect 93 0 20 1;
#X connect 94 0 58 0;
#X connect 95 0 61 0;
#X connect 96 0 59 0;
#X connect 97 0 60 0;
#X connect 98 0 36 0;
#X connect 98 0 37 0;
#X connect 105 0 20 0;
#X connect 106 0 20 2;
#X connect 107 0 21 0;
#X connect 108 0 21 2;
#X connect 109 0 26 0;
#X connect 110 0 26 2;
#X connect 111 0 31 0;
#X connect 112 0 31 2;
#X connect 113 0 8 0;
#X connect 113 1 9 0;
#X coords 0 -1 1 1 150 150 2 170 10;
