#N canvas 94 53 1025 566 10;
#X obj 102 102 cnv 15 146 146 empty empty empty 20 12 0 14 -261578
-66577 0;
#X obj 103 108 vsl 25 80 0.01 1 1 0 \$0-fader1snd \$0-fader1rcv empty
0 -9 0 10 -261682 -260097 -1 5400 1;
#X obj 130 108 vsl 25 80 0.01 1 1 0 \$0-fader2snd \$0-fader2rcv empty
0 -9 0 10 -261682 -260097 -1 4700 1;
#X obj 157 108 vsl 25 80 0.01 1 1 0 \$0-fader3snd \$0-fader3rcv empty
0 -9 0 10 -261682 -260097 -1 7400 1;
#X obj 184 108 vsl 25 80 0.01 1 1 0 \$0-fader4snd \$0-fader4rcv empty
0 -9 0 10 -261682 -260097 -1 7900 1;
#X obj 325 367 *~;
#X obj 358 367 *~;
#X obj 400 529 outlet~;
#X obj 543 530 outlet~;
#X obj 414 367 *~;
#X obj 440 367 *~;
#X obj 504 367 *~;
#X obj 530 367 *~;
#X obj 594 367 *~;
#X obj 620 367 *~;
#X obj 103 218 moonlib/mknob 23 100 0 1 0 1 \$0-pan1snd \$0-pan1rcv
empty -2 -6 0 8 -261541 -239489 -1 5100 1;
#X obj 131 218 moonlib/mknob 23 100 0 1 0 1 \$0-pan2snd \$0-pan2rcv
empty -2 -6 0 8 -261541 -239489 -1 5100 1;
#X obj 159 218 moonlib/mknob 23 100 0 1 0 1 \$0-pan3snd \$0-pan3rcv
empty -2 -6 0 8 -261541 -239489 -1 5000 1;
#X obj 187 218 moonlib/mknob 23 100 0 1 0 1 \$0-pan4snd \$0-pan4rcv
empty -2 -6 0 8 -261541 -239489 -1 5100 1;
#X obj 325 321 adapan;
#X obj 415 321 adapan;
#X obj 303 252 inlet~;
#X obj 352 252 inlet~;
#X obj 404 252 inlet~;
#X obj 446 251 inlet~;
#X obj 512 317 adapan;
#X obj 494 252 inlet~;
#X obj 532 252 inlet~;
#X obj 585 252 inlet~;
#X obj 623 252 inlet~;
#X obj 592 317 adapan;
#X msg 99 53 0;
#X obj 213 122 vu 15 120 empty empty -1 -8 0 10 -261682 -1 0 0;
#X obj 231 122 vu 15 120 empty empty -1 -8 0 10 -261228 -1 0 0;
#X obj 201 487 s~ \$0-tovuL;
#X obj 277 486 s~ \$0-tovuR;
#X obj 200 437 mux~ . . . .;
#X obj 278 439 mux~ . . . .;
#X obj 212 107 hradio 9 1 0 4 empty empty empty 0 -8 0 10 -228856 -260097
-1 1;
#X obj 153 6 r~ \$0-tovuL;
#X obj 224 7 r~ \$0-tovuR;
#X obj 169 42 env~;
#X obj 239 42 env~;
#X obj 169 64 - 90;
#X obj 239 65 - 90;
#X obj 284 149 canvasargs;
#X obj 104 195 tgl 20 1 \$0-mute1snd \$0-mute1rcv empty 17 7 0 10 -261653
-1 -1 0 1;
#X obj 132 195 tgl 20 1 \$0-mute2snd \$0-mute2rcv empty 17 7 0 10 -261653
-1 -1 0 1;
#X obj 159 195 tgl 20 1 \$0-mute3snd \$0-mute3rcv empty 17 7 0 10 -261653
-1 -1 0 1;
#X obj 186 195 tgl 20 1 \$0-mute4snd \$0-mute4rcv empty 17 7 0 10 -261653
-1 -1 0 1;
#X obj 367 438 *~;
#X obj 398 437 *~;
#X obj 439 438 *~;
#X obj 470 437 *~;
#X obj 514 438 *~;
#X obj 545 437 *~;
#X obj 584 438 *~;
#X obj 615 437 *~;
#X obj 110 327 smoother 10;
#X obj 187 326 smoother 10;
#X obj 200 347 smoother 10;
#X obj 120 347 smoother 10;
#X obj 335 342 smoother 100;
#X obj 514 343 smoother 100;
#X obj 602 340 smoother 100;
#X obj 420 342 smoother 100;
#X obj 604 293 - 0.01;
#X obj 534 293 - 0.01;
#X obj 434 293 - 0.01;
#X obj 344 293 - 0.01;
#X obj 12 301 key;
#X obj 12 373 sel 97 111 101 117;
#X obj 10 422 s \$0-mute1rcv;
#X obj 20 442 s \$0-mute2rcv;
#X obj 30 462 s \$0-mute3rcv;
#X obj 40 482 s \$0-mute4rcv;
#X text 18 510 ^ key control \; for qwerty change to 97 \, 115 \, 100
\, 102 \; for ASDF keys.;
#X obj 12 346 spigot;
#X obj 24 319 r keycontrol;
#X text 379 49 macros;
#X obj 486 104 s \$0-fader1rcv;
#X obj 486 82 cyclone/scale 0 127 0.01 1 2;
#X obj 652 8 inlet;
#X obj 529 30 route fader1 fader2 fader3 fader4 mute1 mute2 mute3 mute4
;
#N canvas 0 22 450 300 state_saving 0;
#X obj 63 35 r \$0-fader1snd;
#X obj 73 55 r \$0-fader2snd;
#X obj 83 75 r \$0-fader3snd;
#X obj 93 95 r \$0-fader4snd;
#X obj 63 125 t b f;
#X obj 73 145 t b f;
#X obj 83 165 t b f;
#X obj 93 185 t b f;
#X obj 162 34 r \$0-pan1snd;
#X obj 162 125 t b f;
#X obj 172 145 t b f;
#X obj 182 165 t b f;
#X obj 192 185 t b f;
#X text 102 10 state saving;
#X obj 172 54 r \$0-pan2snd;
#X obj 182 74 r \$0-pan3snd;
#X obj 192 94 r \$0-pan4snd;
#X obj 82 244 pack \$1 f f f f f f f f f f f f;
#X obj 264 129 t b f;
#X obj 274 149 t b f;
#X obj 284 169 t b f;
#X obj 294 189 t b f;
#X obj 261 34 r \$0-mute1snd;
#X obj 271 54 r \$0-mute2snd;
#X obj 281 74 r \$0-mute3snd;
#X obj 291 95 r \$0-mute4snd;
#X obj 82 266 outlet;
#X connect 0 0 4 0;
#X connect 1 0 5 0;
#X connect 2 0 6 0;
#X connect 3 0 7 0;
#X connect 4 0 17 0;
#X connect 4 1 17 1;
#X connect 5 0 17 0;
#X connect 5 1 17 2;
#X connect 6 0 17 0;
#X connect 6 1 17 3;
#X connect 7 0 17 0;
#X connect 7 1 17 4;
#X connect 8 0 9 0;
#X connect 9 0 17 0;
#X connect 9 1 17 5;
#X connect 10 0 17 0;
#X connect 10 1 17 6;
#X connect 11 0 17 0;
#X connect 11 1 17 7;
#X connect 12 0 17 0;
#X connect 12 1 17 8;
#X connect 14 0 10 0;
#X connect 15 0 11 0;
#X connect 16 0 12 0;
#X connect 17 0 26 0;
#X connect 18 0 17 0;
#X connect 18 1 17 9;
#X connect 19 0 17 0;
#X connect 19 1 17 10;
#X connect 20 0 17 0;
#X connect 20 1 17 11;
#X connect 21 0 17 0;
#X connect 21 1 17 12;
#X connect 22 0 18 0;
#X connect 23 0 19 0;
#X connect 24 0 20 0;
#X connect 25 0 21 0;
#X restore 284 125 pd state_saving;
#N canvas 0 22 450 300 state_loading 0;
#X obj 48 146 s \$0-fader1rcv;
#X obj 152 145 s \$0-pan1rcv;
#X obj 58 166 s \$0-fader2rcv;
#X obj 68 186 s \$0-fader3rcv;
#X obj 78 206 s \$0-fader4rcv;
#X obj 162 165 s \$0-pan2rcv;
#X obj 172 185 s \$0-pan3rcv;
#X obj 182 205 s \$0-pan4rcv;
#X obj 245 145 s \$0-mute1rcv;
#X obj 60 69 pack \$1 \$2 \$3 \$4 \$5 \$6 \$7 \$8 \$9 \$10 \$11 \$12
\$13;
#X obj 60 91 unpack f f f f f f f f f f f f f;
#X obj 43 30 loadbang;
#X obj 255 165 s \$0-mute2rcv;
#X obj 265 185 s \$0-mute3rcv;
#X obj 275 205 s \$0-mute4rcv;
#X connect 9 0 10 0;
#X connect 10 1 0 0;
#X connect 10 2 2 0;
#X connect 10 3 3 0;
#X connect 10 4 4 0;
#X connect 10 5 1 0;
#X connect 10 6 5 0;
#X connect 10 7 6 0;
#X connect 10 8 7 0;
#X connect 10 9 8 0;
#X connect 10 10 12 0;
#X connect 10 11 13 0;
#X connect 10 12 14 0;
#X connect 11 0 9 0;
#X restore 283 104 pd state_loading;
#X connect 1 0 69 0;
#X connect 2 0 68 0;
#X connect 3 0 67 0;
#X connect 4 0 66 0;
#X connect 5 0 36 0;
#X connect 5 0 50 0;
#X connect 6 0 37 0;
#X connect 6 0 51 0;
#X connect 9 0 36 1;
#X connect 9 0 52 0;
#X connect 10 0 37 1;
#X connect 10 0 53 0;
#X connect 11 0 36 2;
#X connect 11 0 54 0;
#X connect 12 0 37 2;
#X connect 12 0 55 0;
#X connect 13 0 36 3;
#X connect 13 0 56 0;
#X connect 14 0 37 3;
#X connect 14 0 57 0;
#X connect 15 0 19 1;
#X connect 16 0 20 1;
#X connect 17 0 25 1;
#X connect 18 0 30 1;
#X connect 19 0 5 0;
#X connect 19 1 6 0;
#X connect 20 0 9 0;
#X connect 20 1 10 0;
#X connect 21 0 19 0;
#X connect 22 0 19 2;
#X connect 23 0 20 0;
#X connect 24 0 20 2;
#X connect 25 0 11 0;
#X connect 25 1 12 0;
#X connect 26 0 25 0;
#X connect 27 0 25 2;
#X connect 28 0 30 0;
#X connect 29 0 30 2;
#X connect 30 0 13 0;
#X connect 30 1 14 0;
#X connect 31 0 1 0;
#X connect 31 0 2 0;
#X connect 31 0 3 0;
#X connect 31 0 4 0;
#X connect 36 0 34 0;
#X connect 37 0 35 0;
#X connect 38 0 36 0;
#X connect 38 0 37 0;
#X connect 39 0 41 0;
#X connect 40 0 42 0;
#X connect 41 0 43 0;
#X connect 42 0 44 0;
#X connect 43 0 32 0;
#X connect 44 0 33 0;
#X connect 46 0 58 0;
#X connect 47 0 61 0;
#X connect 48 0 59 0;
#X connect 49 0 60 0;
#X connect 50 0 7 0;
#X connect 51 0 8 0;
#X connect 52 0 7 0;
#X connect 53 0 8 0;
#X connect 54 0 7 0;
#X connect 55 0 8 0;
#X connect 56 0 7 0;
#X connect 57 0 8 0;
#X connect 58 0 50 1;
#X connect 58 0 51 1;
#X connect 59 0 54 1;
#X connect 59 0 55 1;
#X connect 60 0 56 1;
#X connect 60 0 57 1;
#X connect 61 0 52 1;
#X connect 61 0 53 1;
#X connect 62 0 5 1;
#X connect 62 0 6 1;
#X connect 63 0 11 1;
#X connect 63 0 12 1;
#X connect 64 0 13 1;
#X connect 64 0 14 1;
#X connect 65 0 9 1;
#X connect 65 0 10 1;
#X connect 66 0 64 0;
#X connect 67 0 63 0;
#X connect 68 0 65 0;
#X connect 69 0 62 0;
#X connect 70 0 77 0;
#X connect 71 0 72 0;
#X connect 71 1 73 0;
#X connect 71 2 74 0;
#X connect 71 3 75 0;
#X connect 77 0 71 0;
#X connect 78 0 77 1;
#X connect 81 0 80 0;
#X connect 82 0 83 0;
#X connect 83 0 81 0;
#X connect 84 0 45 0;
#X coords 0 -1 1 1 150 150 2 100 100;
