#N canvas 177 85 1037 674 10;
#X obj 172 12 cnv 15 146 146 empty empty empty 20 12 0 14 -261578 -66577
0;
#X obj 12 12 cnv 15 146 146 empty empty empty 20 12 0 14 -261578 -66577
0;
#X obj 13 18 vsl 25 80 0.01 1 1 0 \$0-fader1snd \$0-fader1rcv empty
0 -9 0 10 -261682 -260097 -1 7300 1;
#X obj 40 18 vsl 25 80 0.01 1 1 0 \$0-fader2snd \$0-fader2rcv empty
0 -9 0 10 -261682 -260097 -1 5300 1;
#X obj 67 18 vsl 25 80 0.01 1 1 0 \$0-fader3snd \$0-fader3rcv empty
0 -9 0 10 -261682 -260097 -1 7100 1;
#X obj 94 18 vsl 25 80 0.01 1 1 0 \$0-fader4snd \$0-fader4rcv empty
0 -9 0 10 -261682 -260097 -1 5100 1;
#X obj 420 367 *~;
#X obj 453 367 *~;
#X obj 535 571 outlet~;
#X obj 634 572 outlet~;
#X obj 509 367 *~;
#X obj 535 367 *~;
#X obj 599 367 *~;
#X obj 625 367 *~;
#X obj 689 367 *~;
#X obj 715 367 *~;
#X obj 13 128 moonlib/mknob 23 100 0 1 0 1 \$0-pan1snd \$0-pan1rcv
empty -2 -6 0 8 -261541 -239489 -1 5000 1;
#X obj 41 128 moonlib/mknob 23 100 0 1 0 1 \$0-pan2snd \$0-pan2rcv
empty -2 -6 0 8 -261541 -239489 -1 5100 1;
#X obj 69 128 moonlib/mknob 23 100 0 1 0 1 \$0-pan3snd \$0-pan3rcv
empty -2 -6 0 8 -261541 -239489 -1 4900 1;
#X obj 97 128 moonlib/mknob 23 100 0 1 0 1 \$0-pan4snd \$0-pan4rcv
empty -2 -6 0 8 -261541 -239489 -1 4900 1;
#X obj 420 321 adapan;
#X obj 123 47 vu 15 80 \$0-vuLrcv empty -1 -8 0 10 -261682 -1 0 0;
#X obj 141 47 vu 15 80 \$0-vuRrcv empty -1 -8 0 10 -261228 -1 0 0;
#X obj 296 487 s~ \$0-tovuL;
#X obj 372 486 s~ \$0-tovuR;
#X obj 295 437 mux~ . . . .;
#X obj 373 439 mux~ . . . .;
#X obj 122 32 hradio 9 1 0 4 \$0-vuselectorsnd \$0-vuselectorrcv empty
0 -8 0 10 -228856 -260097 -1 3;
#X obj 177 262 r~ \$0-tovuL;
#X obj 248 263 r~ \$0-tovuR;
#X obj 178 284 env~;
#X obj 248 284 env~;
#X obj 178 306 - 90;
#X obj 248 307 - 90;
#X obj 14 105 tgl 20 1 \$0-mute1snd \$0-mute1rcv empty 17 7 0 10 -261653
-1 -1 1 1;
#X obj 42 105 tgl 20 1 \$0-mute2snd \$0-mute2rcv empty 17 7 0 10 -261653
-1 -1 1 1;
#X obj 69 105 tgl 20 1 \$0-mute3snd \$0-mute3rcv empty 17 7 0 10 -261653
-1 -1 1 1;
#X obj 96 105 tgl 20 1 \$0-mute4snd \$0-mute4rcv empty 17 7 0 10 -261653
-1 -1 1 1;
#X obj 462 438 *~;
#X obj 493 437 *~;
#X obj 534 438 *~;
#X obj 565 437 *~;
#X obj 609 438 *~;
#X obj 640 437 *~;
#X obj 679 438 *~;
#X obj 710 437 *~;
#X obj 792 378 smoother 10;
#X obj 869 377 smoother 10;
#X obj 882 398 smoother 10;
#X obj 802 398 smoother 10;
#X obj 430 342 smoother 100;
#X obj 609 343 smoother 100;
#X obj 697 340 smoother 100;
#X obj 515 342 smoother 100;
#X obj 697 246 - 0.01;
#X obj 627 246 - 0.01;
#X obj 527 246 - 0.01;
#X obj 437 246 - 0.01;
#X obj 12 301 key;
#X obj 10 422 s \$0-mute1rcv;
#X obj 20 442 s \$0-mute2rcv;
#X obj 30 462 s \$0-mute3rcv;
#X obj 40 482 s \$0-mute4rcv;
#X obj 12 346 spigot;
#X obj 24 319 r keycontrol;
#X text 894 204 macros;
#X obj 795 204 s \$0-fader1rcv;
#X obj 795 182 cyclone/scale 0 127 0.01 1 2;
#X obj 918 136 inlet;
#X obj 795 158 route fader1 fader2 fader3 fader4 mute1 mute2 mute3
mute4;
#N canvas 257 316 729 298 state_saving 0;
#X obj 63 35 r \$0-fader1snd;
#X obj 73 55 r \$0-fader2snd;
#X obj 83 76 r \$0-fader3snd;
#X obj 93 95 r \$0-fader4snd;
#X obj 162 34 r \$0-pan1snd;
#X text 102 10 state saving;
#X obj 172 54 r \$0-pan2snd;
#X obj 182 74 r \$0-pan3snd;
#X obj 192 94 r \$0-pan4snd;
#X obj 261 34 r \$0-mute1snd;
#X obj 271 54 r \$0-mute2snd;
#X obj 281 74 r \$0-mute3snd;
#X obj 291 95 r \$0-mute4snd;
#X obj 82 266 outlet;
#X obj 391 32 r \$0-compswitchsnd;
#X obj 400 52 r \$0-thresholdsnd;
#X obj 413 73 r \$0-ratiosnd;
#X obj 423 95 r \$0-attacksnd;
#X obj 434 117 r \$0-releasesnd;
#X obj 541 34 r \$0-makeupsnd;
#X obj 555 56 r \$0-hipsnd;
#X obj 55 151 cyclone/bondo 21, f 52;
#X obj 55 191 pack \$1 f f f f f f f f f f f f f f f f f f f f, f
52;
#X obj 571 80 r \$0-switchsnd;
#X connect 0 0 21 1;
#X connect 1 0 21 2;
#X connect 2 0 21 3;
#X connect 3 0 21 4;
#X connect 4 0 21 5;
#X connect 6 0 21 6;
#X connect 7 0 21 7;
#X connect 8 0 21 8;
#X connect 9 0 21 9;
#X connect 10 0 21 10;
#X connect 11 0 21 11;
#X connect 12 0 21 12;
#X connect 14 0 21 13;
#X connect 15 0 21 14;
#X connect 16 0 21 15;
#X connect 17 0 21 16;
#X connect 18 0 21 17;
#X connect 19 0 21 18;
#X connect 20 0 21 19;
#X connect 21 0 22 0;
#X connect 21 1 22 1;
#X connect 21 2 22 2;
#X connect 21 3 22 3;
#X connect 21 4 22 4;
#X connect 21 5 22 5;
#X connect 21 6 22 6;
#X connect 21 7 22 7;
#X connect 21 8 22 8;
#X connect 21 9 22 9;
#X connect 21 10 22 10;
#X connect 21 11 22 11;
#X connect 21 12 22 12;
#X connect 21 13 22 13;
#X connect 21 14 22 14;
#X connect 21 15 22 15;
#X connect 21 16 22 16;
#X connect 21 17 22 17;
#X connect 21 18 22 18;
#X connect 21 19 22 19;
#X connect 21 20 22 20;
#X connect 22 0 13 0;
#X connect 23 0 21 20;
#X restore 158 202 pd state_saving;
#N canvas 182 291 666 342 state_loading 0;
#X obj 48 146 s \$0-fader1rcv;
#X obj 152 145 s \$0-pan1rcv;
#X obj 58 166 s \$0-fader2rcv;
#X obj 68 186 s \$0-fader3rcv;
#X obj 78 206 s \$0-fader4rcv;
#X obj 162 165 s \$0-pan2rcv;
#X obj 172 185 s \$0-pan3rcv;
#X obj 182 205 s \$0-pan4rcv;
#X obj 245 145 s \$0-mute1rcv;
#X obj 43 30 loadbang;
#X obj 255 165 s \$0-mute2rcv;
#X obj 265 185 s \$0-mute3rcv;
#X obj 275 205 s \$0-mute4rcv;
#X obj 355 147 s \$0-compswitchrcv;
#X obj 355 169 s \$0-thresholdrcv;
#X obj 355 191 s \$0-ratiorcv;
#X obj 355 213 s \$0-attackrcv;
#X obj 485 146 s \$0-releasercv;
#X obj 485 168 s \$0-makeuprcv;
#X obj 485 190 s \$0-hiprcv;
#X obj 60 69 pack \$1 \$2 \$3 \$4 \$5 \$6 \$7 \$8 \$9 \$10 \$11 \$12
\$13 \$14 \$15 \$16 \$17 \$18 \$19 \$20 \$21, f 80;
#X obj 59 91 unpack f f f f f f f f f f f f f f f f f f f f f;
#X obj 492 210 s \$0-switchrcv;
#X connect 9 0 20 0;
#X connect 20 0 21 0;
#X connect 21 1 0 0;
#X connect 21 2 2 0;
#X connect 21 3 3 0;
#X connect 21 4 4 0;
#X connect 21 5 1 0;
#X connect 21 6 5 0;
#X connect 21 7 6 0;
#X connect 21 8 7 0;
#X connect 21 9 8 0;
#X connect 21 10 10 0;
#X connect 21 11 11 0;
#X connect 21 12 12 0;
#X connect 21 13 13 0;
#X connect 21 14 14 0;
#X connect 21 15 15 0;
#X connect 21 16 16 0;
#X connect 21 17 17 0;
#X connect 21 18 18 0;
#X connect 21 19 19 0;
#X connect 21 20 22 0;
#X restore 157 181 pd state_loading;
#X obj 696 225 r \$0-fader4snd;
#X obj 605 223 r \$0-fader3snd;
#X obj 516 225 r \$0-fader2snd;
#X obj 419 224 r \$0-fader1snd;
#X obj 741 270 r \$0-pan4snd;
#X obj 631 270 r \$0-pan3snd;
#X obj 541 270 r \$0-pan2snd;
#X obj 451 273 r \$0-pan1snd;
#X obj 776 318 r \$0-mute1snd;
#X obj 786 338 r \$0-mute2snd;
#X obj 866 319 r \$0-mute3snd;
#X obj 876 338 r \$0-mute4snd;
#X obj 279 403 r \$0-vuselectorsnd;
#X obj 187 382 s \$0-vuLrcv;
#X obj 263 383 s \$0-vuRrcv;
#X obj 125 138 hradio 15 1 0 2 \$0-tabsnd \$0-tabrcv empty 0 -8 0 10
-261674 -259727 -1 0;
#X obj 25 208 namecanvas \$0-mixer4;
#N canvas 0 50 450 300 tabs 0;
#X msg 65 97 0;
#X obj 64 148 pack f f;
#X obj 44 70 t f f b;
#X msg 98 123 10;
#X msg 126 123 170;
#X msg 153 123 330;
#X msg 173 72 set \$1;
#X obj 182 27 loadbang;
#X msg 182 49 0;
#X msg 64 172 donecanvasdialog 1 -1 \$1 0 -1 1 1 150 150 \$2 10 \,
dirty 0;
#X obj 44 47 r \$0-tabsnd;
#X obj 98 98 sel 0 1;
#X obj 64 198 s \$0-mixer4;
#X obj 173 94 s \$0-tabrcv;
#X msg 36 101 -1;
#X connect 0 0 1 0;
#X connect 1 0 9 0;
#X connect 2 0 14 0;
#X connect 2 1 11 0;
#X connect 2 2 0 0;
#X connect 3 0 1 1;
#X connect 4 0 1 1;
#X connect 5 0 1 1;
#X connect 6 0 13 0;
#X connect 7 0 8 0;
#X connect 8 0 2 0;
#X connect 8 0 6 0;
#X connect 9 0 12 0;
#X connect 10 0 2 0;
#X connect 10 0 6 0;
#X connect 11 0 3 0;
#X connect 11 1 4 0;
#X connect 11 2 5 0;
#X connect 14 0 1 0;
#X restore 25 188 pd tabs;
#X obj 285 138 hradio 15 1 0 2 \$0-tabsnd \$0-tabrcv empty 0 -8 0 10
-261674 -259727 -1 0;
#N canvas 0 50 450 300 comp 0;
#X obj 106 46 inlet~;
#X obj 242 45 inlet~;
#X obj 107 227 outlet~;
#X obj 272 228 outlet~;
#X obj 315 70 r \$0-compswitchsnd;
#X obj 98 145 *~ 1;
#X obj 219 147 *~ 1;
#N canvas 289 204 810 411 compressor 0;
#X obj 111 63 inlet~;
#X obj 127 335 outlet~;
#X obj 375 58 inlet;
#X obj 375 80 switch~;
#X obj 216 62 inlet~;
#X obj 234 336 outlet~;
#X obj 20 43 loadbang;
#X obj 441 93 r \$0-thresholdsnd;
#X obj 435 147 r \$0-ratiosnd;
#X msg 435 172 ratio \$1;
#X obj 306 134 r \$0-compsettings;
#X obj 438 227 s \$0-compsettings;
#X msg 441 115 threshold \$1;
#X obj 548 145 r \$0-makeupsnd;
#X obj 188 176 tb_peakcomp~;
#X msg 4 87 threshold -5 \, ratio 3 \, attack 10 \, release 80 \, knee
0.2 \, makeup 10;
#X msg 548 167 makeup \$1;
#X obj 553 91 r \$0-attacksnd;
#X msg 553 113 attack \$1;
#X obj 658 93 r \$0-releasesnd;
#X msg 658 115 release \$1;
#X obj 294 212 s~ \$0-compvu;
#X obj 149 253 *~;
#X obj 220 255 *~;
#X obj 161 133 hip~;
#X obj 233 136 hip~;
#X obj 224 285 *~;
#X obj 149 287 *~;
#X obj 590 209 + 100;
#X obj 590 231 dbtorms;
#X obj 590 253 smoother 20;
#X obj 296 33 r \$0-hipsnd;
#X connect 0 0 22 0;
#X connect 0 0 24 0;
#X connect 2 0 3 0;
#X connect 4 0 23 0;
#X connect 4 0 25 0;
#X connect 6 0 15 0;
#X connect 7 0 12 0;
#X connect 8 0 9 0;
#X connect 9 0 11 0;
#X connect 10 0 14 0;
#X connect 12 0 11 0;
#X connect 13 0 16 0;
#X connect 13 0 28 0;
#X connect 14 2 21 0;
#X connect 14 2 23 1;
#X connect 14 2 22 1;
#X connect 16 0 11 0;
#X connect 17 0 18 0;
#X connect 18 0 11 0;
#X connect 19 0 20 0;
#X connect 20 0 11 0;
#X connect 22 0 27 0;
#X connect 23 0 26 0;
#X connect 24 0 14 0;
#X connect 25 0 14 1;
#X connect 26 0 5 0;
#X connect 27 0 1 0;
#X connect 28 0 29 0;
#X connect 29 0 30 0;
#X connect 30 0 26 1;
#X connect 30 0 27 1;
#X connect 31 0 25 1;
#X connect 31 0 24 1;
#X restore 161 110 pd compressor;
#X obj 307 106 == 0;
#X connect 0 0 7 0;
#X connect 0 0 5 0;
#X connect 1 0 7 1;
#X connect 1 0 6 0;
#X connect 4 0 7 2;
#X connect 4 0 8 0;
#X connect 5 0 2 0;
#X connect 6 0 3 0;
#X connect 7 0 2 0;
#X connect 7 1 3 0;
#X connect 8 0 5 1;
#X connect 8 0 6 1;
#X restore 570 484 pd comp;
#X obj 176 15 tgl 15 1 \$0-compswitchsnd \$0-compswitchrcv Comp 17
7 0 10 -261234 -262144 -1 0 1;
#X obj 176 35 vsl 15 100 -40 0 0 1 \$0-thresholdsnd \$0-thresholdrcv
thr 1 20 0 8 -261676 -258892 -1 9900 1;
#X obj 193 35 vsl 15 100 1 20 1 1 \$0-ratiosnd \$0-ratiorcv ?:1 1 20
0 8 -260963 -258892 -1 0 1;
#X obj 210 35 vsl 15 100 5 400 1 1 \$0-attacksnd \$0-attackrcv atk
1 20 0 8 -260651 -258892 -1 0 1;
#X obj 244 35 vsl 15 100 0 30 0 1 \$0-makeupsnd \$0-makeuprcv mkp 1
20 0 8 -261344 -258892 -1 0 1;
#X obj 12 373 sel 49 50 51 52;
#X obj 182 355 spigot;
#X obj 260 355 spigot;
#X obj 227 35 vsl 15 100 10 1000 1 1 \$0-releasesnd \$0-releasercv
rel 1 20 0 8 -260287 -258892 -1 0 1;
#X obj 285 35 vu 15 80 \$0-compvu gr 2 20 0 8 -202772 -1 0 0;
#X obj 412 31 r~ \$0-compvu;
#X obj 412 75 - 110;
#X obj 412 53 env~ 128;
#X obj 261 35 vsl 15 100 20 1000 1 1 \$0-hipsnd \$0-hiprcv hip 1 20
0 8 -260767 -258892 -1 0 1;
#X obj 412 97 spigot;
#X obj 412 119 s \$0-compvu;
#X obj 140 14 tgl 15 0 \$0-switchsnd \$0-switchrcv empty 17 7 0 10
-253461 -258576 -1 1 1;
#N canvas 0 50 450 300 switch 0;
#X obj 130 73 r \$0-switchsnd;
#X msg 130 108 set \$1;
#X obj 130 130 s \$0-switchrcv;
#X obj 204 240 outlet;
#X connect 0 0 1 0;
#X connect 0 0 3 0;
#X connect 1 0 2 0;
#X restore 636 52 pd switch;
#X obj 300 14 tgl 15 0 \$0-switchsnd \$0-switchrcv empty 17 7 0 10
-253461 -258576 -1 1 1;
#X obj 636 73 switch~;
#X text 18 510 ^ key control \; numbers 1-4 control channels 1-4;
#N canvas 159 125 753 313 \$0-dyncatches 0;
#X obj 105 29 bng 15 250 50 0 empty empty empty 17 7 0 10 -262144 -1
-1;
#X obj 105 29 bng 15 250 50 0 empty empty empty 17 7 0 10 -262144 -1
-1;
#X obj 77 171 dyncatch~;
#X obj 127 135 dyncatch~;
#X obj 178 189 dyncatch~;
#X obj 227 162 dyncatch~;
#X obj 77 242 outlet~;
#X obj 127 242 outlet~;
#X obj 177 242 outlet~;
#X obj 227 242 outlet~;
#X obj 287 187 dyncatch~;
#X obj 337 138 dyncatch~;
#X obj 386 198 dyncatch~;
#X obj 437 174 dyncatch~;
#X obj 287 242 outlet~;
#X obj 337 242 outlet~;
#X obj 387 242 outlet~;
#X obj 437 242 outlet~;
#X obj 80 65 makefilename %s-bus1L;
#X obj 90 85 makefilename %s-bus1R;
#X obj 220 65 makefilename %s-bus2L;
#X obj 230 85 makefilename %s-bus2R;
#X obj 42 15 loadbang;
#X obj 361 65 makefilename %s-bus3L;
#X obj 370 85 makefilename %s-bus3R;
#X obj 500 65 makefilename %s-bus4L;
#X obj 510 85 makefilename %s-bus4R;
#X obj 149 20 canvasdollarzero 2;
#X connect 0 0 27 0;
#X connect 2 0 6 0;
#X connect 3 0 7 0;
#X connect 4 0 8 0;
#X connect 5 0 9 0;
#X connect 10 0 14 0;
#X connect 11 0 15 0;
#X connect 12 0 16 0;
#X connect 13 0 17 0;
#X connect 18 0 2 0;
#X connect 19 0 3 0;
#X connect 20 0 4 0;
#X connect 21 0 5 0;
#X connect 22 0 27 0;
#X connect 23 0 10 0;
#X connect 24 0 11 0;
#X connect 25 0 12 0;
#X connect 26 0 13 0;
#X connect 27 0 18 0;
#X connect 27 0 19 0;
#X connect 27 0 20 0;
#X connect 27 0 21 0;
#X connect 27 0 23 0;
#X connect 27 0 24 0;
#X connect 27 0 25 0;
#X connect 27 0 26 0;
#X restore 552 138 pd \$0-dyncatches;
#X obj 374 202 inlet~ pan1;
#X obj 504 202 inlet~ pan2;
#X obj 614 202 inlet~ pan3;
#X obj 724 202 inlet~ pan4;
#X obj 510 321 adapan;
#X obj 607 317 adapan;
#X obj 687 317 adapan;
#X obj 451 294 smoother 40;
#X obj 541 291 smoother 40;
#X obj 631 291 smoother 40;
#X obj 741 291 smoother 40;
#X obj 350 274 r allguis;
#X obj 338 250 loadbang;
#X obj 317 300 value allguistgl;
#X obj 484 78 value allguistgl;
#X obj 506 29 loadbang;
#X obj 531 54 r allguis;
#N canvas 177 50 729 332 indivouts 0;
#X obj 43 24 inlet~;
#X obj 93 24 inlet~;
#X obj 149 24 inlet~;
#X obj 199 24 inlet~;
#X obj 253 24 inlet~;
#X obj 303 24 inlet~;
#X obj 353 24 inlet~;
#X obj 403 24 inlet~;
#X obj 470 29 inlet switch;
#X obj 470 51 switch~, f 29;
#X obj 209 217 dac~ 5 6 7 8 9 10 11 12;
#X connect 0 0 10 0;
#X connect 1 0 10 1;
#X connect 2 0 10 2;
#X connect 3 0 10 3;
#X connect 4 0 10 4;
#X connect 5 0 10 5;
#X connect 6 0 10 6;
#X connect 7 0 10 7;
#X connect 8 0 9 0;
#X restore 739 506 pd indivouts;
#X obj 176 141 tgl 15 1 \$0-outputswitchsnd \$0-outputswitchrcv main/indiv_out
17 7 0 8 -261548 -262144 -1 1 1;
#X obj 918 450 r \$0-outputswitchsnd;
#X obj 557 530 *~ 1;
#X obj 623 528 *~ 1;
#X obj 926 531 == 0;
#X obj 158 224 canvasargs;
#X connect 6 0 25 0;
#X connect 6 0 38 0;
#X connect 7 0 26 0;
#X connect 7 0 39 0;
#X connect 10 0 25 1;
#X connect 10 0 40 0;
#X connect 11 0 26 1;
#X connect 11 0 41 0;
#X connect 12 0 25 2;
#X connect 12 0 42 0;
#X connect 13 0 26 2;
#X connect 13 0 43 0;
#X connect 14 0 25 3;
#X connect 14 0 44 0;
#X connect 15 0 26 3;
#X connect 15 0 45 0;
#X connect 20 0 6 0;
#X connect 20 1 7 0;
#X connect 25 0 23 0;
#X connect 26 0 24 0;
#X connect 28 0 30 0;
#X connect 29 0 31 0;
#X connect 30 0 32 0;
#X connect 31 0 33 0;
#X connect 32 0 98 0;
#X connect 33 0 99 0;
#X connect 38 0 91 0;
#X connect 38 0 131 0;
#X connect 39 0 91 1;
#X connect 39 0 131 1;
#X connect 40 0 91 0;
#X connect 40 0 131 2;
#X connect 41 0 91 1;
#X connect 41 0 131 3;
#X connect 42 0 91 0;
#X connect 42 0 131 4;
#X connect 43 0 91 1;
#X connect 43 0 131 5;
#X connect 44 0 91 0;
#X connect 44 0 131 6;
#X connect 45 0 91 1;
#X connect 45 0 131 7;
#X connect 46 0 38 1;
#X connect 46 0 39 1;
#X connect 47 0 42 1;
#X connect 47 0 43 1;
#X connect 48 0 44 1;
#X connect 48 0 45 1;
#X connect 49 0 40 1;
#X connect 49 0 41 1;
#X connect 50 0 6 1;
#X connect 50 0 7 1;
#X connect 51 0 12 1;
#X connect 51 0 13 1;
#X connect 52 0 14 1;
#X connect 52 0 15 1;
#X connect 53 0 10 1;
#X connect 53 0 11 1;
#X connect 54 0 52 0;
#X connect 55 0 51 0;
#X connect 56 0 53 0;
#X connect 57 0 50 0;
#X connect 58 0 63 0;
#X connect 63 0 97 0;
#X connect 64 0 63 1;
#X connect 67 0 66 0;
#X connect 68 0 69 0;
#X connect 69 0 67 0;
#X connect 70 0 137 0;
#X connect 72 0 54 0;
#X connect 73 0 55 0;
#X connect 74 0 56 0;
#X connect 75 0 57 0;
#X connect 76 0 124 0;
#X connect 77 0 123 0;
#X connect 78 0 122 0;
#X connect 79 0 121 0;
#X connect 80 0 46 0;
#X connect 81 0 49 0;
#X connect 82 0 47 0;
#X connect 83 0 48 0;
#X connect 84 0 25 0;
#X connect 84 0 26 0;
#X connect 91 0 134 0;
#X connect 91 1 135 0;
#X connect 97 0 59 0;
#X connect 97 1 60 0;
#X connect 97 2 61 0;
#X connect 97 3 62 0;
#X connect 98 0 85 0;
#X connect 99 0 86 0;
#X connect 102 0 104 0;
#X connect 103 0 106 0;
#X connect 104 0 103 0;
#X connect 106 0 107 0;
#X connect 109 0 111 0;
#X connect 113 0 20 0;
#X connect 113 1 20 2;
#X connect 113 2 118 0;
#X connect 113 3 118 2;
#X connect 113 4 119 0;
#X connect 113 5 119 2;
#X connect 113 6 120 0;
#X connect 113 7 120 2;
#X connect 114 0 20 1;
#X connect 115 0 118 1;
#X connect 116 0 119 1;
#X connect 117 0 120 1;
#X connect 118 0 10 0;
#X connect 118 1 11 0;
#X connect 119 0 12 0;
#X connect 119 1 13 0;
#X connect 120 0 14 0;
#X connect 120 1 15 0;
#X connect 121 0 20 1;
#X connect 122 0 118 1;
#X connect 123 0 119 1;
#X connect 124 0 120 1;
#X connect 125 0 127 0;
#X connect 126 0 127 0;
#X connect 127 0 99 1;
#X connect 127 0 98 1;
#X connect 128 0 106 1;
#X connect 129 0 128 0;
#X connect 130 0 128 0;
#X connect 133 0 131 8;
#X connect 133 0 136 0;
#X connect 134 0 8 0;
#X connect 135 0 9 0;
#X connect 136 0 135 1;
#X connect 136 0 134 1;
#X coords 0 -1 1 1 150 150 2 10 10;
