#N canvas 433 189 877 396 10;
#X obj 175 73 oeiseq 0 106493 29 131 38 100;
#X obj 175 48 metro 250;
#X obj 175 18 tgl 25 0 empty empty <-_Click_to_start 30 7 0 10 -262144
-1 -1 1 1;
#N canvas 1 53 450 300 sound 0;
#X obj 153 23 inlet;
#X obj 194 266 dac~;
#X obj 202 107 phasor~;
#X obj 202 129 *~ 2;
#X obj 202 151 -~ 1;
#X obj 202 173 *~ 0.1;
#X obj 203 217 *~;
#X obj 237 51 unpack f f;
#X floatatom 301 98 5 0 0 0 - - -, f 5;
#X obj 308 201 / 127;
#X obj 308 223 lop~ 1000;
#X obj 205 85 mtof;
#X connect 0 0 7 0;
#X connect 2 0 3 0;
#X connect 3 0 4 0;
#X connect 4 0 5 0;
#X connect 5 0 6 0;
#X connect 6 0 1 1;
#X connect 6 0 1 0;
#X connect 7 0 11 0;
#X connect 7 1 8 0;
#X connect 7 1 9 0;
#X connect 9 0 10 0;
#X connect 10 0 6 1;
#X connect 11 0 2 0;
#X restore 175 206 pd sound;
#X floatatom 128 181 5 0 0 0 midi_note - -, f 5;
#X floatatom 346 180 5 0 0 0 numbers_(modulo) - -, f 5;
#X floatatom 344 160 15 0 0 0 numbers_(raw) - -, f 15;
#X floatatom 266 34 5 5 1000 0 - - -, f 5;
#X floatatom 131 201 5 0 0 0 midi_velocity - -, f 5;
#X obj 125 147 unpack f f;
#X text 332 84 offset - midi note for value "0";
#X text 332 101 modulo - wraps numbers around at this value;
#X text 334 119 mult - multipies numbers after mod by this percentile
(allows for microtones);
#X text 21 102 duration of midi note;
#X text 16 83 oeis - oeis sequence #;
#X msg 79 45 \; pd dsp 1;
#X text 304 228 check the post window for information about the currently
playing OEIS sequence!;
#X text 103 284 some cool ones to check out - #40 (prime numbers);
#X text 578 337 madam data 2017;
#X text 314 302 #324;
#X text 316 321 #141;
#X text 315 338 #166, f 5;
#X text 480 158 ??? - select random sequence;
#X connect 0 0 3 0;
#X connect 0 0 9 0;
#X connect 0 1 5 0;
#X connect 0 2 6 0;
#X connect 1 0 0 0;
#X connect 2 0 1 0;
#X connect 2 0 15 0;
#X connect 7 0 1 1;
#X connect 9 0 4 0;
#X connect 9 1 8 0;
