#N struct midinote float x float y float vel float dur float p1 float
p2 float p3;
#N struct container float x float y;
#N canvas 219 99 1013 616 10;
#N canvas 184 154 1030 548 \$0-data 0;
#X scalar midinote 305.5 107 0 73 0 0 0 \;;
#X obj 14 19 bng 24 250 50 0 \$0-orbitsnd \$0-orbitrcv orbit 36 6 0
10 -262144 -1 -1;
#X obj 103 21 nbx 4 17 1 300 0 0 \$0-timesnd \$0-timercv time 66 6
0 12 -262144 -1 -1 1 256 0;
#X obj 212 19 nbx 3 17 -96 96 0 0 \$0-offsetsnd \$0-offsetrcv offset
57 8 0 12 -262144 -1 -1 0 256 0;
#X text 420 19 Orrery of the Fixed Stars;
#X scalar midinote 52.5 186.5 0 52.5 0 0 0 \;;
#X scalar midinote 159.5 205.5 0 111.5 0 0 0 \;;
#X scalar midinote 54 210.5 0 68 0 0 0 \;;
#X scalar midinote 307.5 92.5 0 52.5 0 0 0 \;;
#X scalar midinote 312 179 0 107.5 0 0 0 \;;
#X scalar midinote 55.5 174.5 0 68 0 0 0 \;;
#X scalar midinote 162.5 151.5 0 55 0 0 0 \;;
#X scalar midinote 248.5 218.5 0 71.5 0 0 0 \;;
#X scalar midinote 307.5 124 0 28.5 0 0 0 \;;
#X scalar midinote 54.5 226 0 107.5 0 0 0 \;;
#X scalar midinote 161.5 188.5 0 111.5 0 0 0 \;;
#X scalar midinote 162 172 0 111.5 0 0 0 \;;
#X scalar midinote 307.5 142 0 52.5 0 0 0 \;;
#X scalar midinote 60 100 0 107.5 0 0 0 \;;
#X scalar midinote 407.5 125 0 55 0 0 0 \;;
#X scalar midinote 404 157 0 55 0 0 0 \;;
#X scalar midinote 312 160.5 0 55 0 0 0 \;;
#X scalar midinote 295.5 235.5 0 55 0 0 0 \;;
#X scalar midinote 406 140.5 0 27 0 0 0 \;;
#X scalar midinote 452 65 0 55 0 0 0 \;;
#X scalar midinote 449 97.5 0 55 0 0 0 \;;
#X scalar midinote 450 83.5 0 27 0 0 0 \;;
#X coords 0 274 0.5 273.5 0 0 0;
#X restore 731 292 pd \$0-data;
#N canvas 374 326 760 389 guiseq-template 0;
#X obj 110 71 initbang;
#X obj 86 27 struct container float x float y;
#X obj 108 127 draw rect 300 150 0 0;
#X msg 110 93 fill grey \, fill-opacity 0.5 \, mousedown 1;
#X obj 108 195 route mousedown;
#X obj 107 217 s \$0-newnote;
#X connect 0 0 3 0;
#X connect 2 0 4 0;
#X connect 3 0 2 0;
#X connect 4 0 5 0;
#X restore 658 139 pd guiseq-template;
#N canvas 587 186 450 300 midinote-template 0;
#X obj 52 30 struct midinote float x float y float vel float dur float
p1 float p2 float p3;
#X msg 63 75 fill 158 20 158;
#X obj 134 186 draw rect dur(0:1000)(5:1005) 8 0 2;
#X obj 45 118 drawpolygon 0 1 dur 0 dur(0:1000)(5:1005) 0 dur(0:1000)(5:1005)
2 dur 2 dur 0;
#X connect 1 0 2 0;
#X restore 657 160 pd midinote-template;
#X obj 284 200 s pd-\$0-data;
#X obj 285 75 r \$0-newnote;
#X obj 284 146 pack f f;
#X msg 284 178 obj \$1 \$2 midinote;
#X obj 285 105 unpack p f f;
#X obj 345 126 expr 250 - $f1;
#X obj 436 202 f \$0;
#X obj 436 270 pointer;
#X msg 436 224 traverse pd-\$1-data \, next;
#X msg 462 246 next;
#X obj 438 294 get midinote x y vel dur;
#X obj 563 139 route bang;
#X msg 563 161 0;
#X obj 510 190 spigot;
#X obj 477 189 bang;
#X obj 446 128 t b b b;
#X msg 535 160 1;
#X obj 428 417 polydel;
#X text 487 24 orrery of the fixed stars;
#X obj 16 19 bng 15 250 50 0 \$0-openclipsnd \$0-opencliprcv gaze 17
7 0 10 -262144 -1 -1;
#X obj 191 129 r \$0-openclipsnd;
#X msg 191 154 vis 1;
#X obj 16 37 bng 15 250 50 0 \$0-orbitsnd \$0-orbitrcv orbit 17 6 0
10 -262144 -1 -1;
#X obj 445 98 r \$0-orbitsnd;
#X obj 65 19 nbx 3 14 1 300 0 0 \$0-timesnd \$0-timercv time 38 5 0
10 -262144 -1 -1 1 256 0;
#X obj 637 349 r \$0-timesnd;
#X msg 519 398 tempo \$1;
#X obj 374 497 outlet;
#X obj 460 531 outlet~;
#X obj 546 533 outlet~;
#X obj 425 444 makenote;
#X obj 425 466 pack f f;
#X obj 427 377 pack f f 127 f, f 25;
#X obj 65 38 nbx 3 14 -96 96 0 0 \$0-offsetsnd \$0-offsetrcv offset
38 5 0 10 -262144 -1 -1 44 256 0;
#X obj 476 355 + 0;
#X obj 642 269 r \$0-offsetsnd;
#X obj 478 329 / 8;
#X obj 406 51 inlet trig;
#X obj 406 73 s \$0-orbitrcv;
#X obj 826 156 inlet~ speed;
#X obj 637 371 / 20;
#X connect 4 0 7 0;
#X connect 5 0 6 0;
#X connect 6 0 3 0;
#X connect 7 1 5 0;
#X connect 7 2 8 0;
#X connect 8 0 5 1;
#X connect 9 0 11 0;
#X connect 10 0 13 0;
#X connect 10 1 14 0;
#X connect 11 0 10 0;
#X connect 12 0 10 0;
#X connect 13 0 35 0;
#X connect 13 1 39 0;
#X connect 13 3 35 3;
#X connect 14 0 15 0;
#X connect 15 0 16 1;
#X connect 16 0 12 0;
#X connect 16 0 17 0;
#X connect 17 0 16 0;
#X connect 18 0 17 0;
#X connect 18 1 9 0;
#X connect 18 2 19 0;
#X connect 19 0 16 1;
#X connect 20 0 33 0;
#X connect 23 0 24 0;
#X connect 24 0 3 0;
#X connect 26 0 18 0;
#X connect 28 0 43 0;
#X connect 29 0 20 1;
#X connect 33 0 34 0;
#X connect 33 1 34 1;
#X connect 34 0 30 0;
#X connect 35 0 20 0;
#X connect 37 0 35 1;
#X connect 38 0 37 1;
#X connect 39 0 37 0;
#X connect 40 0 41 0;
#X connect 42 0 20 2;
#X connect 43 0 29 0;
#X coords 0 -1 1 1 150 50 2 10 10;
