#N canvas 310 251 618 386 10;
#X obj 32 30 cnv 15 71 41 empty empty empty 20 12 0 14 -216304 -66577
0;
#X obj 56 32 nbx 5 12 35 20000 1 0 \$0-freqsnd \$0-freqrcv freq -24
5 0 8 -1 -212212 -1 44.85 256 0;
#X obj 56 58 nbx 3 12 0 200 0 0 \$0-bwsnd \$0-bwrcv bw -20 5 0 8 -104026
-241245 -1 34 256 0;
#X obj 56 45 nbx 4 12 -100 100 0 0 \$0-gainsnd \$0-gainrcv gain -23
5 0 8 -62351 -203814 -1 20 256 0;
#X obj 292 43 inlet~ R;
#X obj 212 43 inlet~ L;
#X obj 204 293 outlet~ L;
#X obj 300 291 outlet~ R;
#X obj 90 60 tgl 10 0 \$0-monosnd \$0-monorcv s 2 3 0 10 -87252 -87252
-262144 1 1;
#X obj 79 97 r \$0-monosnd;
#X obj 79 119 sel 0 1;
#X msg 38 150 label m;
#X msg 93 150 label s;
#X obj 50 176 s \$0-monorcv;
#N canvas 456 232 450 300 leftchannel 0;
#X obj 70 101 inlet~;
#X obj 71 156 biquad~;
#X obj 68 206 outlet~;
#X obj 208 76 bondo 3;
#X obj 208 98 pack f f f;
#X obj 208 120 equalizer;
#X obj 187 21 r \$0-freqsnd;
#X obj 266 21 r \$0-gainsnd;
#X obj 347 21 r \$0-bwsnd;
#X connect 0 0 1 0;
#X connect 1 0 2 0;
#X connect 3 0 4 0;
#X connect 3 1 4 1;
#X connect 3 2 4 2;
#X connect 4 0 5 0;
#X connect 5 0 1 0;
#X connect 6 0 3 0;
#X connect 7 0 3 1;
#X connect 8 0 3 2;
#X restore 209 161 pd leftchannel;
#N canvas 457 256 450 300 rightchannel 0;
#X obj 190 56 inlet~;
#X obj 191 111 biquad~;
#X obj 188 161 outlet~;
#X obj 82 175 r \$0-monosnd;
#X obj 82 197 switch~;
#X obj 270 87 bondo 3;
#X obj 270 109 pack f f f;
#X obj 270 131 equalizer;
#X obj 249 32 r \$0-freqsnd;
#X obj 328 32 r \$0-gainsnd;
#X obj 409 32 r \$0-bwsnd;
#X connect 0 0 1 0;
#X connect 1 0 2 0;
#X connect 3 0 4 0;
#X connect 5 0 6 0;
#X connect 5 1 6 1;
#X connect 5 2 6 2;
#X connect 6 0 7 0;
#X connect 7 0 1 0;
#X connect 8 0 5 0;
#X connect 9 0 5 1;
#X connect 10 0 5 2;
#X restore 304 161 pd rightchannel;
#N canvas 459 304 696 382 state_saving 0;
#X obj 28 72 pdlua;
#X msg 28 50 load savestate.pd_lua;
#X obj 142 226 outlet;
#X obj 263 75 t b b;
#X obj 28 24 inlet;
#X obj 142 177 savestate \$0-index \$0-freq \$0-gain \$0-bw \$0-mono
;
#X obj 255 120 pack \$1 \$2 \$3 \$4 \$5;
#X connect 1 0 0 0;
#X connect 3 0 6 0;
#X connect 4 0 1 0;
#X connect 4 0 3 0;
#X connect 5 0 2 0;
#X connect 6 0 5 0;
#X restore 456 153 pd state_saving;
#X obj 456 175 canvasargs;
#X obj 456 131 initbang;
#X obj 301 227 tanh~;
#X obj 205 223 tanh~;
#X floatatom 66 222 5 0 0 0 index #0-indexrcv #0-indexsnd, f 5;
#X connect 4 0 15 0;
#X connect 5 0 14 0;
#X connect 9 0 10 0;
#X connect 10 0 11 0;
#X connect 10 1 12 0;
#X connect 11 0 13 0;
#X connect 12 0 13 0;
#X connect 14 0 20 0;
#X connect 15 0 19 0;
#X connect 16 0 17 0;
#X connect 18 0 16 0;
#X connect 19 0 7 0;
#X connect 20 0 6 0;
#X coords 0 -1 1 1 75 45 2 30 28;
