#N canvas 399 234 947 481 10;
#X obj 12 12 cnv 15 146 61 empty empty empty 20 12 0 14 -232576 -66577
0;
#X obj 180 224 ps2unit;
#X floatatom 39 23 4 5 1500 0 del #0-maxdelayrcv #0-maxdelaysnd, f
4;
#X obj 560 143 r \$0-maxdelaysnd;
#X obj 252 96 inlet~;
#X floatatom 34 40 3 -48 48 0 - #0-unit1pitchrcv #0-unit1pitchsnd,
f 3;
#X obj 17 39 tgl 15 0 \$0-unit1tglsnd \$0-unit1tglrcv empty 17 7 0
10 -259584 -1 -1 1 1;
#X floatatom 34 57 3 -48 48 0 - #0-unit4pitchrcv #0-unit4pitchsnd,
f 3;
#X obj 17 56 tgl 15 0 \$0-unit4tglsnd \$0-unit4tglrcv empty 17 7 0
10 -259584 -1 -1 1 1;
#X floatatom 79 40 3 -48 48 0 - #0-unit2pitchrcv #0-unit2pitchsnd,
f 3;
#X obj 62 39 tgl 15 0 \$0-unit2tglsnd \$0-unit2tglrcv empty 17 7 0
10 -259584 -1 -1 1 1;
#X floatatom 79 57 3 -48 48 0 - #0-unit5pitchrcv #0-unit5pitchsnd,
f 3;
#X obj 62 56 tgl 15 0 \$0-unit5tglsnd \$0-unit5tglrcv empty 17 7 0
10 -259584 -1 -1 1 1;
#X floatatom 124 40 3 -48 48 0 - #0-unit3pitchrcv #0-unit3pitchsnd
, f 3;
#X obj 107 39 tgl 15 0 \$0-unit3tglsnd \$0-unit3tglrcv empty 17 7 0
10 -259584 -1 -1 1 1;
#X floatatom 124 57 3 -48 48 0 - #0-unit6pitchrcv #0-unit6pitchsnd
, f 3;
#X obj 107 56 tgl 15 0 \$0-unit6tglsnd \$0-unit6tglrcv empty 17 7 0
10 -259584 -1 -1 1 1;
#X obj 130 22 tgl 15 0 \$0-bypasssnd \$0-bypassrcv bp 17 8 0 10 -259584
-1 -1 1 1;
#N canvas 1 53 450 300 pitchrcv 0;
#X obj 38 37 r \$0-unit1pitchsnd;
#X obj 48 57 r \$0-unit2pitchsnd;
#X obj 180 33 r \$0-unit3pitchsnd;
#X obj 188 57 r \$0-unit4pitchsnd;
#X obj 326 30 r \$0-unit5pitchsnd;
#X obj 324 55 r \$0-unit6pitchsnd;
#X obj 29 119 outlet;
#X obj 87 119 outlet;
#X obj 146 120 outlet;
#X obj 204 120 outlet;
#X obj 261 122 outlet;
#X obj 320 123 outlet;
#X connect 0 0 6 0;
#X connect 1 0 7 0;
#X connect 2 0 8 0;
#X connect 3 0 9 0;
#X connect 4 0 10 0;
#X connect 5 0 11 0;
#X restore 358 65 pd pitchrcv;
#N canvas 1 53 450 300 tglrcv 0;
#X obj 50 72 r \$0-unit1tglsnd;
#X obj 56 98 r \$0-unit2tglsnd;
#X obj 170 72 r \$0-unit3tglsnd;
#X obj 180 92 r \$0-unit4tglsnd;
#X obj 289 70 r \$0-unit5tglsnd;
#X obj 299 90 r \$0-unit6tglsnd;
#X obj 52 175 outlet;
#X obj 101 176 outlet;
#X obj 153 175 outlet;
#X obj 203 175 outlet;
#X obj 256 174 outlet;
#X obj 306 174 outlet;
#X connect 0 0 6 0;
#X connect 1 0 7 0;
#X connect 2 0 8 0;
#X connect 3 0 9 0;
#X connect 4 0 10 0;
#X connect 5 0 11 0;
#X restore 456 62 pd tglrcv;
#X obj 37 255 *~;
#X obj 88 231 smoother 10;
#X obj 101 152 r \$0-bypasssnd;
#X obj 307 391 outlet~;
#X obj 411 393 outlet~;
#N canvas 25 166 900 418 statesaving 0;
#X msg 54 89 load savestate.pd_lua;
#X obj 54 111 pdlua;
#X obj 175 297 outlet;
#X obj 72 60 t b b;
#X obj 157 181 savestate \$0-index \$0-unit1tgl \$0-unit2tgl \$0-unit3tgl
\$0-unit4tgl \$0-unit5tgl \$0-unit6tgl \$0-unit1pitch \$0-unit2pitch
\$0-unit3pitch \$0-unit4pitch \$0-unit5pitch \$0-unit6pitch \$0-bypass
\$0-maxdelay \$0-spread;
#X obj 162 136 pack \$1 \$2 \$3 \$4 \$5 \$6 \$7 \$8 \$9 \$10 \$11 \$12
\$13 \$14 \$15 \$16;
#X obj 54 32 initbang;
#X connect 0 0 1 0;
#X connect 3 0 5 0;
#X connect 3 1 0 0;
#X connect 4 0 2 0;
#X connect 5 0 4 0;
#X connect 6 0 3 0;
#X restore 104 345 pd statesaving;
#X floatatom 57 410 5 0 0 0 index #0-indexrcv #0-indexsnd, f 5;
#X obj 114 375 canvasargs;
#X obj 591 73 inlet midi;
#N canvas 397 254 450 300 midi 0;
#X obj 10 210 s \$0-unit1pitchrcv;
#X obj 161 15 inlet;
#X obj 160 109 poly 6 1;
#X obj 168 133 pack 0 0;
#X obj 154 157 route 1 2 3 4 5 6;
#X obj 28 234 s \$0-unit2pitchrcv;
#X obj 149 211 s \$0-unit3pitchrcv;
#X obj 168 235 s \$0-unit4pitchrcv;
#X obj 292 210 s \$0-unit5pitchrcv;
#X obj 311 234 s \$0-unit6pitchrcv;
#X obj 161 37 unpack f f;
#X obj 161 59 - 64;
#X obj 161 81 pack f f;
#X connect 1 0 10 0;
#X connect 2 0 3 0;
#X connect 2 1 3 1;
#X connect 3 0 4 0;
#X connect 4 0 0 0;
#X connect 4 1 5 0;
#X connect 4 2 6 0;
#X connect 4 3 7 0;
#X connect 4 4 8 0;
#X connect 4 5 9 0;
#X connect 10 0 11 0;
#X connect 10 1 12 1;
#X connect 11 0 12 0;
#X connect 12 0 2 0;
#X restore 591 95 pd midi;
#X obj 240 223 ps2unit;
#X obj 297 219 ps2unit;
#X obj 355 221 ps2unit;
#X obj 418 221 ps2unit;
#X obj 481 221 ps2unit;
#X obj 714 72 inlet control;
#X obj 45 12 cnv 8 50 8 empty empty kv 32 2 0 8 -231417 -66577 0;
#X obj 93 12 cnv 8 65 8 empty empty ctrl 46 2 0 8 -231417 -66577 0
;
#X obj 189 300 *~ 0.5;
#N canvas 368 244 450 300 control 0;
#X obj 81 84 unpack f f f f f f;
#X obj 260 94 unpack f f f f f f;
#X obj 81 30 inlet notes;
#X obj 273 39 inlet voices;
#X obj 67 155 s \$0-unit1pitchrcv;
#X obj 77 175 s \$0-unit2pitchrcv;
#X obj 87 195 s \$0-unit3pitchrcv;
#X obj 97 215 s \$0-unit4pitchrcv;
#X obj 107 235 s \$0-unit5pitchrcv;
#X obj 117 255 s \$0-unit6pitchrcv;
#X obj 257 143 s \$0-unit1tglrcv;
#X obj 267 163 s \$0-unit2tglrcv;
#X obj 277 183 s \$0-unit3tglrcv;
#X obj 287 203 s \$0-unit4tglrcv;
#X obj 297 223 s \$0-unit5tglrcv;
#X obj 307 243 s \$0-unit6tglrcv;
#X connect 0 0 4 0;
#X connect 0 1 5 0;
#X connect 0 2 6 0;
#X connect 0 3 7 0;
#X connect 0 4 8 0;
#X connect 0 5 9 0;
#X connect 1 0 10 0;
#X connect 1 1 11 0;
#X connect 1 2 12 0;
#X connect 1 3 13 0;
#X connect 1 4 14 0;
#X connect 1 5 15 0;
#X connect 2 0 0 0;
#X connect 3 0 1 0;
#X restore 697 194 pd control;
#X obj 297 357 hip~ 55;
#X floatatom 98 23 3 0 100 0 sprd #0-spreadrcv #0-spreadsnd, f 3;
#X obj 253 282 adamonopan;
#X obj 273 302 adamonopan;
#X obj 333 282 adamonopan;
#X obj 353 302 adamonopan;
#X obj 413 282 adamonopan;
#X obj 433 302 adamonopan;
#X obj 437 361 hip~ 55;
#N canvas 1 53 450 300 spread 0;
#X obj 61 35 r \$0-spreadsnd;
#X obj 61 57 / 100;
#X obj 76 227 outlet;
#X obj 126 227 outlet;
#X obj 176 227 outlet;
#X obj 226 227 outlet;
#X obj 276 227 outlet;
#X obj 326 227 outlet;
#X obj 24 104 * 1;
#X obj 66 104 * 0.66;
#X obj 125 105 * 0.33;
#X obj 184 106 * -0.33;
#X obj 244 108 * -0.66;
#X obj 296 106 * -1;
#X connect 0 0 1 0;
#X connect 1 0 8 0;
#X connect 1 0 9 0;
#X connect 1 0 10 0;
#X connect 1 0 11 0;
#X connect 1 0 12 0;
#X connect 1 0 13 0;
#X connect 8 0 2 0;
#X connect 9 0 3 0;
#X connect 10 0 4 0;
#X connect 11 0 5 0;
#X connect 12 0 6 0;
#X connect 13 0 7 0;
#X restore 529 240 pd spread;
#N canvas 46 107 450 300 pitchctrl 0;
#X obj 173 43 unpack f f;
#X obj 76 15 inlet;
#X obj 173 102 makefilename \$0-unit%dpitchrcv;
#X obj 157 182 s;
#X obj 300 143 symbol;
#X obj 76 37 t a a;
#X obj 63 85 unpack f f;
#X obj 173 65 + 1;
#X connect 0 0 7 0;
#X connect 1 0 5 0;
#X connect 2 0 4 0;
#X connect 4 0 3 1;
#X connect 5 0 6 0;
#X connect 5 1 0 0;
#X connect 6 1 3 0;
#X connect 7 0 2 0;
#X restore 639 328 pd pitchctrl;
#X obj 697 147 route notes voices list delay;
#X obj 822 233 s \$0-maxdelayrcv;
#X obj 12 12 cnv 8 50 8 empty empty ~ 1 3 0 10 -231417 -184906 0;
#X connect 1 0 42 0;
#X connect 3 0 1 2;
#X connect 3 0 30 2;
#X connect 3 0 31 2;
#X connect 3 0 32 2;
#X connect 3 0 33 2;
#X connect 3 0 34 2;
#X connect 4 0 1 0;
#X connect 4 0 20 0;
#X connect 4 0 30 0;
#X connect 4 0 31 0;
#X connect 4 0 32 0;
#X connect 4 0 33 0;
#X connect 4 0 34 0;
#X connect 18 0 1 1;
#X connect 18 1 30 1;
#X connect 18 2 31 1;
#X connect 18 3 32 1;
#X connect 18 4 33 1;
#X connect 18 5 34 1;
#X connect 19 0 1 3;
#X connect 19 1 30 3;
#X connect 19 2 31 3;
#X connect 19 3 32 3;
#X connect 19 4 33 3;
#X connect 19 5 34 3;
#X connect 20 0 38 0;
#X connect 21 0 20 1;
#X connect 22 0 21 0;
#X connect 25 0 27 0;
#X connect 28 0 29 0;
#X connect 30 0 43 0;
#X connect 31 0 44 0;
#X connect 32 0 45 0;
#X connect 33 0 46 0;
#X connect 34 0 47 0;
#X connect 35 0 51 0;
#X connect 38 0 40 0;
#X connect 38 0 48 0;
#X connect 40 0 23 0;
#X connect 42 0 40 0;
#X connect 42 1 48 0;
#X connect 43 0 40 0;
#X connect 43 1 48 0;
#X connect 44 0 40 0;
#X connect 44 1 48 0;
#X connect 45 0 40 0;
#X connect 45 1 48 0;
#X connect 46 0 40 0;
#X connect 46 1 48 0;
#X connect 47 0 40 0;
#X connect 47 1 48 0;
#X connect 48 0 24 0;
#X connect 49 0 42 1;
#X connect 49 1 43 1;
#X connect 49 2 44 1;
#X connect 49 3 45 1;
#X connect 49 4 46 1;
#X connect 49 5 47 1;
#X connect 51 0 39 0;
#X connect 51 1 39 1;
#X connect 51 2 50 0;
#X connect 51 3 52 0;
#X coords 0 -1 1 1 150 65 2 10 10;
