#N canvas 1 53 764 370 10;
#X obj 96 189 simplelooper;
#X obj 249 62 tgl 15 0 empty empty empty 17 7 0 10 -262144 -1 -1 0
1;
#X msg 237 110 rec;
#X obj 249 82 sel 1 0;
#X msg 287 109 stoprec;
#X obj 380 58 tgl 15 0 empty empty empty 17 7 0 10 -262144 -1 -1 0
1;
#X obj 380 78 sel 1 0;
#X msg 380 100 overdub;
#X msg 412 121 stopoverdub;
#X obj 504 58 tgl 15 0 empty empty empty 17 7 0 10 -262144 -1 -1 0
1;
#X obj 504 78 sel 1 0;
#X msg 504 100 play;
#X msg 527 124 stop;
#X obj 95 73 inlet~;
#X obj 97 286 outlet~;
#X obj 177 41 inlet controls;
#X connect 0 0 14 0;
#X connect 1 0 3 0;
#X connect 2 0 0 1;
#X connect 3 0 2 0;
#X connect 3 1 4 0;
#X connect 4 0 0 1;
#X connect 5 0 6 0;
#X connect 6 0 7 0;
#X connect 6 1 8 0;
#X connect 7 0 0 1;
#X connect 8 0 0 1;
#X connect 9 0 10 0;
#X connect 10 0 11 0;
#X connect 10 1 12 0;
#X connect 11 0 0 1;
#X connect 12 0 0 1;
#X connect 13 0 0 0;
#X connect 15 0 0 1;
