#N canvas 619 87 740 414 10;
#N canvas 227 181 450 300 keys 0;
#X obj 135 44 key;
#X obj 77 207 s \$0-tgl1rcv;
#X obj 122 235 s \$0-tgl2rcv;
#X obj 227 215 s \$0-tgl3rcv;
#X obj 266 246 s \$0-tgl4rcv;
#X obj 144 132 sel 106 107 120 98;
#X connect 0 0 5 0;
#X connect 5 0 1 0;
#X connect 5 1 2 0;
#X connect 5 2 3 0;
#X connect 5 3 4 0;
#X restore 453 134 pd keys;
#X obj 221 16 inlet~ L;
#X obj 69 349 outlet~;
#X obj 182 351 outlet~;
#X obj 285 348 outlet~;
#X obj 394 354 outlet~;
#X obj 13 16 tgl 15 0 \$0-tgl1snd \$0-tgl1rcv empty 17 7 0 10 -262144
-1 -1 1 1;
#X obj 51 16 tgl 15 0 \$0-tgl2snd \$0-tgl2rcv empty 17 7 0 10 -262144
-1 -1 0 1;
#X obj 89 16 tgl 15 0 \$0-tgl3snd \$0-tgl3rcv empty 17 7 0 10 -262144
-1 -1 0 1;
#X obj 126 16 tgl 15 0 \$0-tgl4snd \$0-tgl4rcv empty 17 7 0 10 -262144
-1 -1 0 1;
#X obj 70 275 *~;
#X obj 181 276 *~;
#X obj 295 275 *~;
#X obj 396 271 *~;
#X obj 342 218 smoother 20;
#X obj 431 217 smoother 20;
#X obj 518 218 smoother 20;
#X obj 607 217 smoother 20;
#X obj 337 166 r \$0-tgl1snd;
#X obj 428 168 r \$0-tgl2snd;
#X obj 522 169 r \$0-tgl3snd;
#X obj 612 169 r \$0-tgl4snd;
#X text 14 16 C;
#X text 53 16 V;
#X text 89 16 B;
#X text 127 16 N;
#X obj 30 16 tgl 15 0 \$0-loop1recsnd \$0-loop1recrcv r 4 7 0 10 -261234
-1 -1 0 1;
#X obj 30 33 tgl 15 0 \$0-loop1overdubsnd \$0-loop1overdubrcv o 4 7
0 12 -262130 -1 -1 0 1;
#X obj 13 33 tgl 15 0 \$0-loop1playsnd \$0-loop1playrcv > 5 7 0 10
-232576 -1 -1 1 1;
#N canvas 1 53 931 624 loopcontrols 0;
#X msg 56 131 rec;
#X obj 68 103 sel 1 0;
#X msg 106 130 stoprec;
#X obj 136 82 sel 1 0;
#X msg 136 104 overdub;
#X msg 168 125 stopoverdub;
#X obj 241 84 sel 1 0;
#X msg 241 106 play;
#X msg 264 130 stop;
#X obj 75 245 outlet loop1;
#X obj 56 26 r \$0-loop1recsnd;
#X obj 81 47 r \$0-loop1overdubsnd;
#X obj 194 67 r \$0-loop1playsnd;
#X obj 173 155 r \$0-loop1clearsnd;
#X msg 170 179 clear;
#X msg 316 141 rec;
#X obj 328 113 sel 1 0;
#X msg 366 140 stoprec;
#X obj 396 92 sel 1 0;
#X msg 396 114 overdub;
#X msg 428 135 stopoverdub;
#X obj 501 94 sel 1 0;
#X msg 501 116 play;
#X msg 524 140 stop;
#X msg 430 189 clear;
#X msg 116 381 rec;
#X obj 128 353 sel 1 0;
#X msg 166 380 stoprec;
#X obj 196 332 sel 1 0;
#X msg 196 354 overdub;
#X msg 228 375 stopoverdub;
#X obj 301 334 sel 1 0;
#X msg 301 356 play;
#X msg 324 380 stop;
#X msg 230 429 clear;
#X msg 436 381 rec;
#X obj 448 353 sel 1 0;
#X msg 486 380 stoprec;
#X obj 516 332 sel 1 0;
#X msg 516 354 overdub;
#X msg 548 375 stopoverdub;
#X obj 621 334 sel 1 0;
#X msg 621 356 play;
#X msg 644 380 stop;
#X msg 550 429 clear;
#X obj 145 491 outlet loop2;
#X obj 455 495 outlet loop4;
#X obj 335 255 outlet loop3;
#X obj 116 276 r \$0-loop2recsnd;
#X obj 141 297 r \$0-loop2overdubsnd;
#X obj 256 317 r \$0-loop2playsnd;
#X obj 233 405 r \$0-loop2clearsnd;
#X obj 316 36 r \$0-loop3recsnd;
#X obj 341 57 r \$0-loop3overdubsnd;
#X obj 453 77 r \$0-loop3playsnd;
#X obj 433 165 r \$0-loop3clearsnd;
#X obj 436 276 r \$0-loop4recsnd;
#X obj 461 297 r \$0-loop4overdubsnd;
#X obj 574 317 r \$0-loop4playsnd;
#X obj 550 404 r \$0-loop4clearsnd;
#X connect 0 0 9 0;
#X connect 1 0 0 0;
#X connect 1 1 2 0;
#X connect 2 0 9 0;
#X connect 3 0 4 0;
#X connect 3 1 5 0;
#X connect 4 0 9 0;
#X connect 5 0 9 0;
#X connect 6 0 7 0;
#X connect 6 1 8 0;
#X connect 7 0 9 0;
#X connect 8 0 9 0;
#X connect 10 0 1 0;
#X connect 11 0 3 0;
#X connect 12 0 6 0;
#X connect 13 0 14 0;
#X connect 14 0 9 0;
#X connect 15 0 47 0;
#X connect 16 0 15 0;
#X connect 16 1 17 0;
#X connect 17 0 47 0;
#X connect 18 0 19 0;
#X connect 18 1 20 0;
#X connect 19 0 47 0;
#X connect 20 0 47 0;
#X connect 21 0 22 0;
#X connect 21 1 23 0;
#X connect 22 0 47 0;
#X connect 23 0 47 0;
#X connect 24 0 47 0;
#X connect 25 0 45 0;
#X connect 26 0 25 0;
#X connect 26 1 27 0;
#X connect 27 0 45 0;
#X connect 28 0 29 0;
#X connect 28 1 30 0;
#X connect 29 0 45 0;
#X connect 30 0 45 0;
#X connect 31 0 32 0;
#X connect 31 1 33 0;
#X connect 32 0 45 0;
#X connect 33 0 45 0;
#X connect 34 0 45 0;
#X connect 35 0 46 0;
#X connect 36 0 35 0;
#X connect 36 1 37 0;
#X connect 37 0 46 0;
#X connect 38 0 39 0;
#X connect 38 1 40 0;
#X connect 39 0 46 0;
#X connect 40 0 46 0;
#X connect 41 0 42 0;
#X connect 41 1 43 0;
#X connect 42 0 46 0;
#X connect 43 0 46 0;
#X connect 44 0 46 0;
#X connect 48 0 26 0;
#X connect 49 0 28 0;
#X connect 50 0 31 0;
#X connect 51 0 34 0;
#X connect 52 0 16 0;
#X connect 53 0 18 0;
#X connect 54 0 21 0;
#X connect 55 0 24 0;
#X connect 56 0 36 0;
#X connect 57 0 38 0;
#X connect 58 0 41 0;
#X connect 59 0 44 0;
#X restore 292 94 pd loopcontrols;
#X obj 13 50 bng 15 250 50 0 \$0-loop1clearsnd \$0-loop1clearrcv clr
17 7 0 10 -128832 -1 -1;
#X obj 68 16 tgl 15 0 \$0-loop2recsnd \$0-loop2recrcv r 4 7 0 10 -261234
-1 -1 0 1;
#X obj 68 33 tgl 15 0 \$0-loop2overdubsnd \$0-loop2overdubrcv o 4 7
0 12 -262130 -1 -1 0 1;
#X obj 51 33 tgl 15 0 \$0-loop2playsnd \$0-loop2playrcv > 5 7 0 10
-232576 -1 -1 0 1;
#X obj 51 50 bng 15 250 50 0 \$0-loop2clearsnd \$0-loop2clearrcv clr
17 7 0 10 -128832 -1 -1;
#X obj 106 16 tgl 15 0 \$0-loop3recsnd \$0-loop3recrcv r 4 7 0 10 -261234
-1 -1 0 1;
#X obj 106 33 tgl 15 0 \$0-loop3overdubsnd \$0-loop3overdubrcv o 4
7 0 12 -262130 -1 -1 0 1;
#X obj 89 33 tgl 15 0 \$0-loop3playsnd \$0-loop3playrcv > 5 7 0 10
-232576 -1 -1 0 1;
#X obj 89 50 bng 15 250 50 0 \$0-loop3clearsnd \$0-loop3clearrcv clr
17 7 0 10 -128832 -1 -1;
#X obj 143 16 tgl 15 0 \$0-loop4recsnd \$0-loop4recrcv r 4 7 0 10 -261234
-1 -1 0 1;
#X obj 143 33 tgl 15 0 \$0-loop4overdubsnd \$0-loop4overdubrcv o 4
7 0 12 -262130 -1 -1 0 1;
#X obj 126 33 tgl 15 0 \$0-loop4playsnd \$0-loop4playrcv > 5 7 0 10
-232576 -1 -1 0 1;
#X obj 126 50 bng 15 250 50 0 \$0-loop4clearsnd \$0-loop4clearrcv clr
17 7 0 10 -128832 -1 -1;
#X obj 284 312 simplelooper;
#X obj 181 313 simplelooper;
#X obj 394 314 simplelooper;
#X obj 69 309 simplelooper;
#X connect 1 0 11 0;
#X connect 1 0 12 0;
#X connect 1 0 13 0;
#X connect 1 0 10 0;
#X connect 10 0 46 0;
#X connect 11 0 44 0;
#X connect 12 0 43 0;
#X connect 13 0 45 0;
#X connect 14 0 10 1;
#X connect 15 0 11 1;
#X connect 16 0 12 1;
#X connect 17 0 13 1;
#X connect 18 0 14 0;
#X connect 19 0 15 0;
#X connect 20 0 16 0;
#X connect 21 0 17 0;
#X connect 29 0 46 1;
#X connect 29 1 44 1;
#X connect 29 2 43 1;
#X connect 29 3 45 1;
#X connect 43 0 4 0;
#X connect 44 0 3 0;
#X connect 45 0 5 0;
#X connect 46 0 2 0;
#X coords 0 -1 1 1 150 60 2 10 10;
