#N canvas 37 69 1345 685 10;
#X obj 1067 522 output;
#X obj 1067 367 mixer4 0.320345 1 0.320345 0.274285 0 0 0 0 0 1 0 0
0 0 0 0 0 0 0 1 0;
#X obj 882 83 keyb;
#X obj 925 218 midiwrangler 0 1 0 0 3 0 7 0 9 1 14 0 -20 53 83 113
1 0;
#X obj 419 175 r ctrlbus2;
#X msg 766 489 event i -1 0 0;
#X floatatom 731 394 5 0 0 0 - - -, f 5;
#X obj 597 187 pluck1;
#X obj 578 448 bus 1;
#X obj 590 357 filterpanel 0 2281.51 2.0202 20.5556 0.40303;
#X obj 759 215 adsrpanel 0 527.638 1.77613 0 /home/ada/Documents/Pd/ecl/eclobjects/wavetables/decay1.txt
;
#X obj 1136 31 lfopanel 0 0.924766 0.440909 0;
#X obj 456 10 clock 0 102 0 4 9 4;
#X msg 523 127 3;
#X obj 871 445 sampler3 0 60 178 136 1 1 /home/ada/Documents/soundlibrary/glitchLoops/sextantbeeps.wav
;
#X obj 1087 161 velociraptor 0 80 20 24;
#X obj 1121 210 scaler;
#X obj 668 91 trigdelay 0 1 12 0;
#X obj 668 120 trigdelay 0 2 72 0;
#X obj 1233 217 max~;
#X obj 322 416 sampler3 0 113 0 150 0 1 /home/ada/Documents/soundlibrary/Untitld_drum_kit/Cripsy_kicks/airbender.wav
;
#X obj 317 504 bus 2;
#X obj 122 316 sampler3 0 74 31 62 0 1 /home/ada/Documents/soundlibrary/kagwe/snares+claps/snare.milk.wav
;
#X obj 125 555 bus 2;
#X obj 1172 282 attenuvert 0 10 1;
#X obj 828 649 bus 3;
#X obj 871 510 distortion 0 2 14000;
#X obj 404 306 bus 4;
#X obj 1230 38 lfopanel 0 0.583404 0.440909 0;
#X obj 1230 120 lfopanel 0 0.34085 0.695455 0;
#X obj 534 543 rev3gui 0 95.0226 2164 5.92593 5593.44 1;
#X obj 704 411 lfopanel 0 6.30413 0.513636 0;
#X obj 121 382 delaypanel 0 0 147.059 0.314478 6193.09 0.537313 1.01701
1 0.947761 0.164179;
#X obj 266 63 adsrpanel 0 791.19 1 0 /home/ada/Documents/Pd/ecl/eclobjects/wavetables/decay1.txt
;
#X msg 532 176 tap bang;
#X obj 90 152 seq162 0 2056 128 0 0 0 0 0 0 0 1;
#X obj 122 255 seq162 0 0 0 0 0 0 0 0 0 0 1;
#X obj 668 31 seq162 0 30454 15903 65535 19047 39496 0 0 0 0 0;
#X obj 867 373 seq162 0 32896 0 0 0 0 0 0 0 0 0;
#X obj 318 344 seq162 0 35240 39296 0 0 0 0 0 0 1 1;
#X obj 424 223 wavefiddle2 7;
#X connect 1 0 0 0;
#X connect 1 1 0 1;
#X connect 2 1 3 2;
#X connect 7 0 9 0;
#X connect 7 1 9 1;
#X connect 9 0 8 0;
#X connect 9 1 8 1;
#X connect 10 1 9 2;
#X connect 10 1 15 1;
#X connect 11 0 19 0;
#X connect 12 0 35 0;
#X connect 12 0 36 0;
#X connect 12 0 37 0;
#X connect 12 0 39 0;
#X connect 12 1 38 0;
#X connect 14 0 26 0;
#X connect 14 1 26 2;
#X connect 15 0 3 2;
#X connect 16 0 3 2;
#X connect 17 0 18 0;
#X connect 18 0 15 0;
#X connect 19 0 24 0;
#X connect 19 0 9 2;
#X connect 20 0 21 0;
#X connect 20 1 21 1;
#X connect 22 0 32 0;
#X connect 22 0 30 0;
#X connect 22 1 32 1;
#X connect 22 1 30 1;
#X connect 24 0 14 1;
#X connect 26 0 30 0;
#X connect 26 1 30 1;
#X connect 28 0 29 0;
#X connect 29 1 19 1;
#X connect 30 0 25 0;
#X connect 30 1 25 1;
#X connect 31 0 30 2;
#X connect 32 0 23 0;
#X connect 32 1 23 1;
#X connect 33 0 32 5;
#X connect 33 1 30 2;
#X connect 34 0 32 6;
#X connect 35 0 33 0;
#X connect 36 0 22 0;
#X connect 37 0 13 0;
#X connect 37 0 17 0;
#X connect 37 0 34 0;
#X connect 38 0 14 0;
#X connect 39 0 20 0;
