#N canvas 177 167 1035 549 10;
#X obj 643 187 pack f f f f f f f f f;
#X obj 643 209 list prepend i;
#X obj 643 231 list prepend event;
#X obj 643 253 list trim;
#X obj 38 87 nbx 4 14 0 1000 0 0 \$0-param1snd \$0-param1rcv 1 -7 7
0 10 -262144 -1 -1 189 256;
#X obj 93 87 nbx 4 14 0 1000 0 0 \$0-param2snd \$0-param2rcv 2 -7 7
0 10 -262144 -1 -1 193 256;
#X obj 58 64 hradio 15 1 0 4 \$0-tablesnd \$0-tablercv table -30 8
0 10 -262144 -1 -1 1;
#X obj 614 13 inlet kv;
#X obj 615 97 mtof;
#X obj 631 130 t b f;
#X obj 681 93 / 256;
#X obj 762 43 loadbang;
#X msg 736 90 1, f 4;
#X msg 779 89 0;
#X obj 58 45 hradio 15 1 0 6 \$0-typesnd \$0-typercv type -30 8 0 10
-262144 -1 -1 1;
#X obj 827 107 r \$0-typesnd;
#X obj 862 235 r \$0-tablesnd;
#X obj 846 126 r \$0-param1snd;
#X obj 891 172 r \$0-param2snd;
#X obj 846 148 / 100;
#X obj 891 194 / 100;
#X obj 271 416 outlet~ l;
#X obj 419 421 outlet~ r;
#X obj 643 275 print;
#X obj 808 130 + 1;
#X obj 614 35 stripnote;
#X msg 47 255 event f 1 0 2048 10 1 0.5;
#X msg 81 215 event f 3 0 8192 14 4 0.5 20;
#X obj 124 142 loadbang;
#X obj 124 164 delay 150;
#X floatatom 64 26 7 0 0 0 scrub #0-scrubrcv #0-scrubsnd, f 7;
#X obj 347 18 r \$0-scrubsnd;
#X obj 492 165 pack f f;
#X obj 272 373 csound6~ plucked.csd;
#X floatatom 128 26 3 0 0 0 ? #0-scrubrangercv #0-scrubrangesnd, f
3;
#X obj 466 8 r \$0-scrubrangesnd;
#X obj 481 66 cyclone/scale 0 100 0 88;
#X msg 813 85 0.8;
#X obj 492 187 scaler;
#X obj 481 92 makenote 15 10;
#X connect 0 0 1 0;
#X connect 1 0 2 0;
#X connect 2 0 3 0;
#X connect 3 0 23 0;
#X connect 3 0 33 0;
#X connect 7 0 25 0;
#X connect 8 0 9 0;
#X connect 9 0 0 0;
#X connect 9 1 0 3;
#X connect 10 0 0 4;
#X connect 11 0 13 0;
#X connect 11 0 12 0;
#X connect 11 0 37 0;
#X connect 12 0 0 0;
#X connect 13 0 0 1;
#X connect 15 0 24 0;
#X connect 16 0 0 8;
#X connect 17 0 19 0;
#X connect 18 0 20 0;
#X connect 19 0 0 6;
#X connect 20 0 0 7;
#X connect 24 0 0 5;
#X connect 25 0 8 0;
#X connect 25 1 10 0;
#X connect 26 0 33 0;
#X connect 27 0 33 0;
#X connect 28 0 29 0;
#X connect 29 0 27 0;
#X connect 29 0 26 0;
#X connect 31 0 36 0;
#X connect 32 0 38 0;
#X connect 33 0 21 0;
#X connect 33 1 22 0;
#X connect 35 0 36 3;
#X connect 36 0 39 0;
#X connect 37 0 0 2;
#X connect 38 0 25 0;
#X connect 39 0 32 0;
#X connect 39 1 32 1;
#X coords 0 -1 1 1 150 100 2 10 10;
