#N canvas 701 199 605 305 10;
#X obj 69 54 inlet;
#X obj 67 140 pack 0 0 0;
#X obj 60 271 outlet~;
#X obj 90 81 poly \$1 1;
#X obj 55 227 /~ \$1;
#X obj 90 116 - 1;
#X obj 182 270 outlet~;
#X obj 190 223 /~ \$1;
#X obj 254 32 unpack f f f;
#X obj 266 74 t f b;
#X obj 305 102 random 100;
#X obj 305 124 / 50;
#X obj 305 146 - 1;
#X obj 266 205 pack f f;
#X text 349 185 random pans;
#X obj 304 169 *;
#X obj 190 245 *~ 1.5;
#X obj 55 249 *~ 1.5;
#X msg 181 101 127;
#X obj 181 123 * 1;
#X obj 359 9 inlet ctrl;
#X obj 359 31 route vol panwidth drift;
#X obj 54 201 clone simplevoice \$1;
#X msg 447 71 all \$1;
#X connect 0 0 3 0;
#X connect 1 0 8 0;
#X connect 1 0 22 0;
#X connect 3 0 5 0;
#X connect 3 1 1 1;
#X connect 3 2 18 0;
#X connect 4 0 17 0;
#X connect 5 0 1 0;
#X connect 7 0 16 0;
#X connect 8 0 9 0;
#X connect 9 0 13 0;
#X connect 9 1 10 0;
#X connect 10 0 11 0;
#X connect 11 0 12 0;
#X connect 12 0 15 0;
#X connect 13 0 22 1;
#X connect 15 0 13 1;
#X connect 16 0 6 0;
#X connect 17 0 2 0;
#X connect 18 0 19 0;
#X connect 19 0 1 2;
#X connect 20 0 21 0;
#X connect 21 0 19 1;
#X connect 21 1 15 1;
#X connect 21 2 23 0;
#X connect 22 0 4 0;
#X connect 22 1 7 0;
#X connect 23 0 22 2;
