#N canvas 701 199 450 300 10;
#X obj 69 18 inlet;
#X obj 88 125 pack 0 0 0;
#X obj 73 232 outlet~;
#X obj 75 211 /~ \$1;
#X obj 195 46 inlet ad;
#X msg 211 113 all \$1 \$2;
#X obj 323 51 inlet portamento;
#X msg 323 73 all \$1;
#X obj 192 207 unpack f f f;
#X obj 230 238 pack f f;
#X text 300 215 strips voice #;
#X obj 88 100 - 1;
#X obj 89 46 poly \$1 0;
#X obj 55 176 clone simplevoiceenv \$1;
#X connect 0 0 12 0;
#X connect 1 0 13 0;
#X connect 3 0 2 0;
#X connect 4 0 5 0;
#X connect 5 0 13 1;
#X connect 6 0 7 0;
#X connect 7 0 13 2;
#X connect 8 1 9 0;
#X connect 8 2 9 1;
#X connect 9 0 12 0;
#X connect 11 0 1 0;
#X connect 12 0 11 0;
#X connect 12 1 1 1;
#X connect 12 2 1 2;
#X connect 13 0 3 0;
#X connect 13 1 8 0;
