#N canvas 701 199 450 300 10;
#X obj 69 54 inlet;
#X obj 88 145 pack 0 0 0;
#X obj 73 232 outlet~;
#X obj 72 113 - 1;
#X obj 90 81 poly \$1 1;
#X obj 75 211 /~ \$1;
#X obj 55 176 clone simplevoice \$1;
#X connect 0 0 4 0;
#X connect 1 0 6 0;
#X connect 3 0 1 0;
#X connect 4 0 3 0;
#X connect 4 1 1 1;
#X connect 4 2 1 2;
#X connect 5 0 2 0;
#X connect 6 0 5 0;
