#N canvas 448 63 775 570 10;
#X obj 106 108 bng 15 250 50 0 \$0-savesnd \$0-savercv Save 17 7 0
10 -144464 -257985 -1;
#X symbolatom 373 109 10 0 0 0 - - -, f 10;
#X obj 107 130 bng 15 250 50 0 \$0-loadsnd \$0-loadrcv Load 17 7 0
10 -202659 -1 -1;
#X obj 403 49 loadbang;
#X msg 404 74 set filename;
#X obj 154 108 hradio 15 1 1 8 \$0-banksnd \$0-bankrcv empty 0 -8 0
10 -99344 -261682 -1 2;
#X obj 154 133 bng 15 250 50 0 \$0-storesnd \$0-storercv store 17 7
0 10 -144464 -257985 -1;
#X obj 210 133 bng 15 250 50 0 \$0-recallsnd \$0-recallrcv recall 17
7 0 10 -202659 -1 -1;
#X obj 273 228 r \$0-banksnd;
#X obj 379 229 r \$0-storesnd;
#X obj 348 292 s storebang;
#X obj 301 318 r storeinfo;
#X obj 301 430 print store;
#X obj 520 392 text define presets;
#X obj 301 402 list prepend;
#X obj 383 430 textadd presets;
#X obj 167 414 textgetall presets;
#X obj 520 325 r \$0-savesnd;
#X obj 520 347 savepanel;
#X msg 520 369 write \$1;
#X obj 167 438 s recallpreset;
#X obj 566 248 canvasargs;
#N canvas 0 22 450 300 state_loading 0;
#X obj 113 35 loadbang;
#X obj 114 123 s \$0-loadfilename;
#X obj 228 89 s \$0-bankrcv;
#X obj 113 69 symbol \$2;
#X obj 228 67 f \$1;
#X connect 0 0 3 0;
#X connect 0 0 4 0;
#X connect 3 0 1 0;
#X connect 4 0 2 0;
#X restore 566 202 pd state_loading;
#X obj 600 325 r \$0-loadfilename;
#X obj 652 397 s \$0-savefilename;
#X msg 600 347 read \$1;
#N canvas 0 23 450 300 state_saving 0;
#X obj 173 70 r \$0-savefilename;
#X obj 145 204 outlet;
#X obj 89 66 r \$0-banksnd;
#X obj 113 164 pack f s;
#X obj 173 92 t b s;
#X connect 0 0 4 0;
#X connect 2 0 3 0;
#X connect 3 0 1 0;
#X connect 4 0 3 0;
#X connect 4 1 3 1;
#X restore 566 226 pd state_saving;
#X obj 424 303 textdeleteall presets;
#X obj 417 270 f 0;
#X obj 379 251 t b b;
#X obj 616 270 r \$0-loadsnd;
#X obj 616 292 openpanel;
#N canvas 0 22 450 300 keycontrol 0;
#X obj 58 37 key;
#X obj 60 95 sel 33 64 35 36 37 94 38 42;
#X obj 57 196 s \$0-bankrcv;
#X msg 51 144 0;
#X msg 83 144 1;
#X msg 110 145 2;
#X msg 138 144 3;
#X msg 166 145 4;
#X msg 195 146 5;
#X msg 224 147 6;
#X msg 255 148 7;
#X obj 58 59 spigot;
#X obj 153 37 r keycontrol;
#X connect 0 0 11 0;
#X connect 1 0 3 0;
#X connect 1 1 4 0;
#X connect 1 2 5 0;
#X connect 1 3 6 0;
#X connect 1 4 7 0;
#X connect 1 5 8 0;
#X connect 1 6 9 0;
#X connect 1 7 10 0;
#X connect 3 0 2 0;
#X connect 4 0 2 0;
#X connect 5 0 2 0;
#X connect 6 0 2 0;
#X connect 7 0 2 0;
#X connect 8 0 2 0;
#X connect 9 0 2 0;
#X connect 10 0 2 0;
#X connect 11 0 1 0;
#X connect 12 0 11 1;
#X restore 70 387 pd keycontrol;
#X connect 3 0 4 0;
#X connect 4 0 1 0;
#X connect 8 0 16 0;
#X connect 8 0 28 1;
#X connect 8 0 14 1;
#X connect 9 0 29 0;
#X connect 11 0 14 0;
#X connect 14 0 12 0;
#X connect 14 0 15 0;
#X connect 16 0 20 0;
#X connect 17 0 18 0;
#X connect 18 0 19 0;
#X connect 18 0 24 0;
#X connect 19 0 13 0;
#X connect 23 0 25 0;
#X connect 25 0 13 0;
#X connect 26 0 21 0;
#X connect 28 0 27 0;
#X connect 29 0 10 0;
#X connect 29 1 28 0;
#X connect 30 0 31 0;
#X connect 31 0 25 0;
#X connect 31 0 24 0;
#X coords 0 -1 1 1 180 60 2 100 100;
