#N canvas 288 151 1071 564 10;
#X obj 102 102 cnv 15 71 86 empty empty empty 20 12 0 14 -228901 -66577
0;
#X obj 136 36 inlet~;
#X obj 331 453 outlet~;
#X obj 433 294 *~ 2;
#X obj 433 316 -~ 1;
#X obj 398 272 phasor~ 1;
#X obj 557 314 abs~;
#X obj 331 424 multiplex~ . . . .;
#X obj 397 350 expr~ $v1 < $v2;
#X text 606 316 triangle;
#X obj 495 278 sig~ 0.5;
#X obj 397 372 -~ 0.5;
#X obj 397 394 *~ 2;
#X obj 557 336 *~ 4;
#X obj 557 358 -~ 1;
#X obj 540 247 -~ 0.5;
#X text 411 332 square with pwm;
#X obj 103 169 hradio 17 0 0 4 \$0-typesnd \$0-typercv empty 0 -8 0
10 -188160 -260893 -1 2;
#X obj 371 313 cos~;
#X obj 363 233 *~;
#X obj 467 80 scalearound1;
#X obj 489 311 *~;
#X msg 552 54 0.5;
#X obj 757 36 inlet;
#X text 104 169 sn;
#X text 120 169 sw;
#X text 138 169 pl;
#X text 155 169 tr;
#X msg 754 89 0;
#X obj 519 454 outlet~ pulse;
#X obj 102 102 cnv 8 30 8 empty empty div 0 3 0 8 -136825 -261234 0
;
#X obj 121 102 cnv 8 30 8 empty empty pw 0 3 0 8 -136825 -261234 0
;
#X obj 148 102 cnv 8 25 8 empty empty ctl 11 3 0 8 -136825 -262144
0;
#X obj 821 88 s \$0-typercv;
#X obj 900 156 s \$0-pwmrcv;
#X obj 525 26 initbang;
#X obj 201 201 smoother 50;
#X obj 321 126 midiratio~;
#X obj 130 126 nbx 4 11 1 100 0 0 \$0-divsnd \$0-divrcv div -22 4 0
9 -71981 -229196 -24966 20 256 0;
#X obj 130 139 nbx 4 11 0 100 0 0 \$0-pwmsnd \$0-pwmrcv pwm -22 4 0
9 -71981 -229127 -24966 48 256 0;
#X obj 201 94 r \$0-freqsnd;
#X obj 559 116 r \$0-pwmsnd;
#X obj 574 158 / 100;
#X obj 859 120 s \$0-divrcv;
#X obj 640 22 inlet clock;
#X obj 640 44 t b b;
#X obj 640 66 timer;
#X obj 139 102 cnv 8 15 8 empty empty clk 0 3 0 8 -136825 -262144 0
;
#N canvas 458 280 450 300 state_saving 0;
#X obj 105 53 initbang;
#X msg 132 100 load savestate.pd_lua;
#X obj 132 122 pdlua;
#X obj 105 75 t b b;
#X obj 121 229 outlet;
#X obj 121 207 savestate \$0-index \$0-freq \$0-div \$0-pwm \$0-type
\$0-sync;
#X obj 102 153 pack \$1 \$2 \$3 \$4 \$5 \$6;
#X connect 0 0 3 0;
#X connect 1 0 2 0;
#X connect 3 0 6 0;
#X connect 3 1 1 0;
#X connect 5 0 4 0;
#X connect 6 0 5 0;
#X restore 85 409 pd state_saving;
#X obj 85 431 canvasargs;
#X obj 130 113 nbx 4 11 0.05 100 1 0 \$0-freqsnd \$0-freqrcv freq -25
4 0 9 -71981 -229196 -24966 1 256 0;
#X obj 755 57 route bang float type div pwm freq, f 31;
#X obj 916 200 s \$0-freqrcv;
#X obj 640 88 expr 1000/$f1;
#X obj 640 110 s \$0-freqrcv;
#X obj 130 153 tgl 13 0 \$0-syncsnd \$0-syncrcv sync -26 4 0 9 -232145
-143426 -1 1 1;
#X obj 756 124 r \$0-syncsnd;
#X obj 725 151 spigot;
#X msg 725 173 0;
#X obj 287 151 r \$0-divsnd;
#X obj 291 28 inlet~ pw;
#X obj 287 195 sig~;
#X obj 201 223 *~;
#X obj 287 173 / 8;
#X obj 376 167 round~ 1;
#X obj 321 104 *~ 128;
#X connect 1 0 65 0;
#X connect 3 0 4 0;
#X connect 4 0 7 1;
#X connect 5 0 3 0;
#X connect 5 0 8 0;
#X connect 5 0 15 0;
#X connect 5 0 18 0;
#X connect 6 0 13 0;
#X connect 7 0 2 0;
#X connect 8 0 11 0;
#X connect 10 0 21 0;
#X connect 11 0 12 0;
#X connect 12 0 7 2;
#X connect 12 0 29 0;
#X connect 13 0 14 0;
#X connect 14 0 7 3;
#X connect 15 0 6 0;
#X connect 17 0 7 0;
#X connect 18 0 7 0;
#X connect 19 0 5 0;
#X connect 20 0 21 1;
#X connect 21 0 8 1;
#X connect 22 0 20 1;
#X connect 23 0 51 0;
#X connect 28 0 5 1;
#X connect 35 0 22 0;
#X connect 36 0 62 0;
#X connect 37 0 64 0;
#X connect 40 0 36 0;
#X connect 41 0 42 0;
#X connect 42 0 10 0;
#X connect 44 0 45 0;
#X connect 44 0 57 0;
#X connect 45 0 46 0;
#X connect 45 1 46 1;
#X connect 46 0 53 0;
#X connect 48 0 49 0;
#X connect 51 0 28 0;
#X connect 51 1 5 1;
#X connect 51 2 33 0;
#X connect 51 3 43 0;
#X connect 51 4 34 0;
#X connect 51 5 52 0;
#X connect 53 0 54 0;
#X connect 56 0 57 1;
#X connect 57 0 58 0;
#X connect 58 0 5 1;
#X connect 59 0 63 0;
#X connect 60 0 20 0;
#X connect 61 0 62 1;
#X connect 62 0 19 1;
#X connect 63 0 61 0;
#X connect 64 0 19 0;
#X connect 65 0 37 0;
#X coords 0 -1 1 1 75 90 2 100 100;
