#N canvas 0 24 1360 692 10;
#X obj 557 265 phasor~;
#X obj 625 265 phasor~;
#X obj 692 264 phasor~;
#X obj 760 264 phasor~;
#X obj 819 264 phasor~;
#X obj 575 383 cos~;
#X obj 635 384 cos~;
#X obj 686 384 cos~;
#X obj 764 398 cos~;
#X obj 812 389 cos~;
#X obj 571 322 +~;
#X obj 632 323 +~;
#X obj 689 322 +~;
#X obj 750 323 +~;
#X obj 811 323 +~;
#X obj 108 107 vsl 15 128 0 48 0 0 \$0-pitchspreadsnd \$0-pitchspreadrcv
empty 0 -9 0 10 -262144 -1 -1 0 1;
#X obj 415 32 r \$0-pitchspreadsnd;
#X obj 127 107 vsl 15 128 -127 48 0 0 \$0-pitchsnd \$0-pitchrcv empty
0 -9 0 10 -262144 -1 -1 0 1;
#X obj 604 41 r \$0-pitchsnd;
#X obj 322 206 midiratio;
#X obj 561 124 +;
#X obj 588 124 +;
#X obj 619 124 +;
#X obj 646 124 +;
#X obj 672 123 +;
#X obj 604 63 f;
#X obj 415 54 t b f;
#X floatatom 324 135 5 0 0 0 - - -, f 5;
#X obj 553 183 mtof;
#X obj 591 182 mtof;
#X obj 630 182 mtof;
#X obj 668 181 mtof;
#X obj 710 181 mtof;
#X obj 811 345 wrap~;
#X obj 565 351 wrap~;
#X obj 632 356 wrap~;
#X obj 689 355 wrap~;
#X obj 746 359 wrap~;
#X obj 251 267 bng 15 250 50 0 empty empty empty 17 7 0 10 -262144
-1 -1;
#X obj 251 287 random 100;
#X obj 251 309 / 100;
#X obj 251 331 s \$0-randomphase;
#X obj 793 150 r \$0-randomphase;
#X obj 822 292 +~ 0;
#X obj 762 292 +~ 0;
#X obj 694 292 +~ 0;
#X obj 624 288 +~ 0;
#X obj 557 287 +~ 0;
#X obj 927 246 *~;
#X obj 147 107 vsl 15 128 0 1.5 0 0 \$0-fbsnd \$0-fbrcv empty 0 -9
0 10 -262144 -1 -1 0 1;
#X obj 1009 298 r \$0-fbsnd;
#X obj 1006 338 smoother 15;
#X obj 220 110 bng 15 250 50 0 empty empty empty 17 7 0 10 -262144
-1 -1;
#N canvas 457 256 450 300 randpitch 0;
#X obj 58 164 outlet;
#X obj 109 164 outlet;
#X obj 163 165 outlet;
#X obj 214 165 outlet;
#X obj 264 166 outlet;
#X obj 47 -83 random 1000;
#X obj 94 -35 random 1000;
#X obj 137 14 random 1000;
#X obj 185 64 random 1000;
#X obj 234 106 random 1000;
#X obj 112 -126 inlet;
#X obj 47 -61 maxlib/scale 0 1000 0.05 1100 1;
#X obj 93 -13 maxlib/scale 0 1000 0.05 1100 1;
#X obj 137 36 maxlib/scale 0 1000 0.05 1100 1;
#X obj 185 87 maxlib/scale 0 1000 0.05 1100 1;
#X obj 234 128 maxlib/scale 0 1000 0.05 1100 1;
#X connect 5 0 11 0;
#X connect 6 0 12 0;
#X connect 7 0 13 0;
#X connect 8 0 14 0;
#X connect 9 0 15 0;
#X connect 10 0 5 0;
#X connect 10 0 7 0;
#X connect 10 0 9 0;
#X connect 10 0 8 0;
#X connect 10 0 6 0;
#X connect 11 0 0 0;
#X connect 12 0 1 0;
#X connect 13 0 2 0;
#X connect 14 0 3 0;
#X connect 15 0 4 0;
#X restore 771 52 pd randpitch;
#X obj 347 100 * -0.159;
#X obj 305 99 * -0.43;
#X obj 621 611 stereogain 0 0.564885;
#X obj 924 110 sig~;
#X obj 922 133 vd~ \$0-fb1;
#X floatatom 1143 353 5 0 0 0 - - -, f 5;
#X obj 621 648 outlet~;
#X obj 922 177 tanh~;
#X obj 341 530 block~ 1;
#X obj 627 500 *~ 0.2;
#X obj 921 159 *~ 1;
#X obj 168 107 vsl 15 128 5 2005 1 0 \$0-delsnd \$0-delrcv empty 0
-9 0 10 -262144 -1 -1 0 1;
#X obj 1022 20 r \$0-delsnd;
#X obj 1023 87 / 100;
#X obj 1022 42 - 5;
#X obj 786 187 min 20000;
#X obj 522 231 smoother 6;
#X obj 607 232 smoother 6;
#X obj 684 231 smoother 6;
#X obj 760 231 smoother 6;
#X obj 833 230 smoother 6;
#X obj 627 522 hip~ 10;
#X obj 913 203 lop~ 4000;
#X obj 808 598 delwrite~ \$0-fb1 2000;
#X obj 189 106 vsl 15 128 200 10000 1 0 \$0-modfiltsnd \$0-modfiltrcv
empty 0 -9 0 10 -262144 -1 -1 0 1;
#X obj 996 166 r \$0-modfiltsnd;
#X floatatom 996 188 5 0 0 0 - - -, f 5;
#X text 106 241 spread fb modfilt;
#X text 120 255 pitch delay;
#X obj 619 568 lop~ 13000;
#X obj 607 422 *~ 0.2;
#X obj 693 415 *~ 0.1;
#X obj 800 429 *~ 0.05;
#X obj 918 448 env~;
#X floatatom 918 470 5 0 0 0 - - -, f 5;
#X obj 943 381 hip~ 50;
#X obj 943 359 lop~ 70;
#X obj 931 526 bang;
#X obj 976 565 outlet bangs;
#X obj 876 559 bng 15 250 50 0 empty empty empty 17 7 0 10 -262144
-1 -1;
#X obj 918 491 moses 66;
#X obj 408 100 * 0;
#X obj 451 98 * 0.12;
#X obj 508 98 * 0.34;
#X connect 0 0 47 0;
#X connect 1 0 46 0;
#X connect 2 0 45 0;
#X connect 3 0 44 0;
#X connect 4 0 43 0;
#X connect 5 0 63 0;
#X connect 5 0 84 0;
#X connect 6 0 77 0;
#X connect 6 0 63 0;
#X connect 7 0 85 0;
#X connect 8 0 63 0;
#X connect 8 0 86 0;
#X connect 9 0 63 0;
#X connect 10 0 34 0;
#X connect 11 0 35 0;
#X connect 12 0 36 0;
#X connect 13 0 37 0;
#X connect 14 0 33 0;
#X connect 16 0 26 0;
#X connect 18 0 25 0;
#X connect 20 0 28 0;
#X connect 21 0 29 0;
#X connect 22 0 30 0;
#X connect 23 0 31 0;
#X connect 24 0 32 0;
#X connect 25 0 20 0;
#X connect 25 0 21 0;
#X connect 25 0 22 0;
#X connect 25 0 23 0;
#X connect 25 0 24 0;
#X connect 26 0 25 0;
#X connect 26 1 54 0;
#X connect 26 1 55 0;
#X connect 26 1 95 0;
#X connect 26 1 96 0;
#X connect 26 1 97 0;
#X connect 28 0 70 0;
#X connect 29 0 71 0;
#X connect 30 0 72 0;
#X connect 31 0 73 0;
#X connect 32 0 69 0;
#X connect 32 0 74 0;
#X connect 33 0 9 0;
#X connect 34 0 5 0;
#X connect 35 0 6 0;
#X connect 36 0 7 0;
#X connect 37 0 8 0;
#X connect 38 0 39 0;
#X connect 39 0 40 0;
#X connect 40 0 41 0;
#X connect 42 0 43 1;
#X connect 42 0 44 1;
#X connect 42 0 45 1;
#X connect 42 0 46 1;
#X connect 42 0 47 1;
#X connect 43 0 14 0;
#X connect 44 0 13 0;
#X connect 45 0 12 0;
#X connect 46 0 11 0;
#X connect 47 0 10 0;
#X connect 48 0 14 1;
#X connect 48 0 13 1;
#X connect 48 0 12 1;
#X connect 48 0 11 1;
#X connect 48 0 10 1;
#X connect 48 0 90 0;
#X connect 50 0 51 0;
#X connect 50 0 59 0;
#X connect 51 0 48 1;
#X connect 52 0 53 0;
#X connect 53 0 70 0;
#X connect 53 1 71 0;
#X connect 53 2 72 0;
#X connect 53 3 73 0;
#X connect 53 4 74 0;
#X connect 54 0 21 1;
#X connect 55 0 20 1;
#X connect 55 0 27 0;
#X connect 56 0 60 0;
#X connect 57 0 58 0;
#X connect 58 0 64 0;
#X connect 61 0 76 0;
#X connect 63 0 75 0;
#X connect 64 0 61 0;
#X connect 66 0 68 0;
#X connect 67 0 57 0;
#X connect 68 0 67 0;
#X connect 70 0 0 0;
#X connect 71 0 1 0;
#X connect 72 0 2 0;
#X connect 73 0 3 0;
#X connect 74 0 4 0;
#X connect 75 0 83 0;
#X connect 76 0 48 0;
#X connect 79 0 76 1;
#X connect 79 0 80 0;
#X connect 83 0 56 0;
#X connect 83 0 56 1;
#X connect 84 0 77 0;
#X connect 85 0 63 0;
#X connect 86 0 77 0;
#X connect 87 0 88 0;
#X connect 88 0 94 0;
#X connect 89 0 87 0;
#X connect 90 0 89 0;
#X connect 91 0 92 0;
#X connect 91 0 93 0;
#X connect 94 1 91 0;
#X connect 95 0 22 1;
#X connect 96 0 23 1;
#X connect 97 0 24 1;
#X coords 0 -1 1 1 150 175 2 100 100;
