#N canvas 0 24 1360 692 10;
#X obj 371 68 inlet~;
#X obj 425 67 inlet~;
#X obj 726 70 inlet;
#X obj 766 70 inlet;
#X obj 805 71 inlet;
#X obj 845 71 inlet;
#X obj 886 71 inlet;
#X obj 926 71 inlet;
#X obj 908 204 noise~;
#X floatatom 207 208 5 0 500 0 fb1 #0-fb1rcv #0-fb1snd, f 5;
#X obj 762 227 r \$0-fb1snd;
#X obj 750 280 smoother 30;
#X obj 659 296 *~;
#X obj 762 249 / 100;
#N canvas 457 256 450 300 delwrite 0;
#X obj 162 107 inlet~;
#X obj 169 215 outlet~;
#X obj 175 181 delwrite~ \$0-fb1delay 2000;
#X connect 0 0 2 0;
#X restore 603 198 pd delwrite;
#N canvas 457 256 450 300 delread 0;
#X obj 145 108 inlet~;
#X obj 135 180 delread4~ \$0-fb1delay;
#X obj 135 202 outlet~;
#X obj 317 134 inlet~ deltime;
#X connect 1 0 2 0;
#X connect 3 0 1 0;
#X restore 603 220 pd delread;
#X obj 669 257 s~ \$0-fb1delfb;
#X obj 682 100 r~ \$0-fb1delfb;
#X floatatom 207 232 5 0 0 0 cutoff #0-cutoffrcv #0-cutoffsnd, f 5
;
#X floatatom 211 261 5 0 100 0 delfb #0-delfbrcv #0-delfbsnd, f 5
;
#X obj 688 141 *~;
#X obj 795 123 r \$0-delfbsnd;
#X obj 795 145 / 100;
#X obj 865 311 r \$0-cutoffsnd;
#X msg 777 324 2;
#X floatatom 213 297 5 0 1000 0 deltime #0-deltimercv #0-deltimesnd
, f 5;
#X obj 231 358 adascope;
#X obj 783 423 fold~;
#X obj 908 248 samphold~;
#X obj 720 184 r \$0-deltimesnd;
#X obj 720 206 smoother 25;
#X obj 966 307 +~ 1;
#X obj 743 427 +~;
#X obj 685 467 lop~ 17000;
#X obj 803 516 lop~ 17000;
#X obj 935 392 *~;
#X floatatom 293 214 5 0 100 0 noise #0-noisercv #0-noisesnd, f 5
;
#X obj 1041 324 r \$0-noisesnd;
#X obj 1041 346 / 100;
#X obj 1041 368 smoother 5;
#X obj 1001 408 samphold~;
#X floatatom 297 239 5 10 5000 0 res #0-resrcv #0-ressnd, f 5;
#X obj 712 279 r \$0-ressnd;
#X obj 712 301 / 100;
#X obj 966 329 *~ 450;
#X obj 716 578 outlet~;
#X obj 850 534 hip~ 30;
#X obj 993 202 phasor~ 4;
#X obj 908 270 *~ 0.1;
#X obj 551 392 <~ 0;
#X obj 598 162 *~;
#X obj 541 301 midiratio~;
#X obj 276 294 tgl 15 0 \$0-modsnd \$0-modrcv mod 17 7 0 10 -262144
-1 -1 0 1;
#X obj 486 110 r \$0-modsnd;
#X obj 486 132 sel 0 1;
#X msg 485 159 0 1;
#X msg 514 159 1 0;
#X obj 485 181 unpack f f;
#X obj 579 140 *~ 1;
#X obj 607 141 *~ 0;
#X obj 283 504 ps2unit;
#X obj 543 335 *~ 3;
#X obj 110 159 vsl 15 128 30 15000 1 0 \$0-cutoffsnd \$0-cutoffrcv
cutoff 0 -9 0 10 -262144 -1 -1 10550 1;
#X obj 802 492 tanh~;
#X obj 817 599 outlet~ fb1;
#X obj 592 108 inlet~ fb1;
#X obj 853 558 *~ 0.4;
#X obj 659 375 bob~;
#X obj 1060 117 r initbang;
#X msg 1060 139 saturation 0.9;
#X obj 712 323 smoother 5;
#X obj 540 280 *~ 36;
#X obj 555 370 osc~ 2;
#X obj 794 471 *~ 0.45;
#X obj 813 381 sig~;
#X obj 820 352 f;
#X obj 842 223 metro 150;
#X msg 1013 136 1;
#X obj 1118 265 - 0.001;
#X obj 615 38 f;
#X obj 615 60 sig~;
#X obj 666 10 metro 119;
#X obj 672 442 hip~ 20;
#X obj 1100 224 maxlib/scale 0 100 0.001 0.3 1;
#X obj 1029 251 snapshot~;
#X obj 1029 282 maxlib/scale 1 4 95 280;
#X connect 8 0 28 0;
#X connect 10 0 13 0;
#X connect 11 0 12 1;
#X connect 12 0 67 0;
#X connect 13 0 11 0;
#X connect 14 0 15 0;
#X connect 15 0 12 0;
#X connect 15 0 16 0;
#X connect 17 0 20 0;
#X connect 20 0 14 0;
#X connect 20 0 27 1;
#X connect 21 0 22 0;
#X connect 22 0 79 1;
#X connect 23 0 75 1;
#X connect 24 0 67 2;
#X connect 27 0 32 1;
#X connect 28 0 31 0;
#X connect 28 0 48 0;
#X connect 29 0 30 0;
#X connect 30 0 15 1;
#X connect 31 0 44 0;
#X connect 32 0 82 0;
#X connect 33 0 64 0;
#X connect 33 0 73 0;
#X connect 34 0 46 0;
#X connect 35 0 15 1;
#X connect 37 0 38 0;
#X connect 37 0 83 0;
#X connect 38 0 39 0;
#X connect 39 0 40 0;
#X connect 40 0 35 1;
#X connect 42 0 43 0;
#X connect 43 0 70 0;
#X connect 44 0 35 0;
#X connect 46 0 66 0;
#X connect 47 0 28 1;
#X connect 47 0 40 1;
#X connect 47 0 84 0;
#X connect 48 0 49 1;
#X connect 48 0 27 1;
#X connect 48 0 67 0;
#X connect 48 0 71 0;
#X connect 49 0 50 1;
#X connect 50 0 14 0;
#X connect 51 0 61 0;
#X connect 53 0 54 0;
#X connect 54 0 55 0;
#X connect 54 1 56 0;
#X connect 55 0 57 0;
#X connect 56 0 57 0;
#X connect 57 0 58 1;
#X connect 57 1 59 1;
#X connect 58 0 14 0;
#X connect 59 0 50 0;
#X connect 61 0 72 0;
#X connect 63 0 26 0;
#X connect 63 0 34 0;
#X connect 65 0 58 0;
#X connect 65 0 59 0;
#X connect 66 0 45 0;
#X connect 67 0 32 0;
#X connect 67 0 27 0;
#X connect 68 0 69 0;
#X connect 68 0 77 0;
#X connect 69 0 67 0;
#X connect 70 0 67 2;
#X connect 71 0 51 0;
#X connect 72 0 49 0;
#X connect 73 0 63 0;
#X connect 74 0 67 1;
#X connect 75 0 74 0;
#X connect 76 0 75 0;
#X connect 76 0 84 0;
#X connect 77 0 76 0;
#X connect 77 0 81 0;
#X connect 78 0 48 1;
#X connect 79 0 80 0;
#X connect 80 0 20 1;
#X connect 81 0 79 0;
#X connect 82 0 33 0;
#X connect 83 0 78 0;
#X connect 84 0 85 0;
#X connect 85 0 76 1;
#X coords 0 -1 1 1 300 300 2 41 44;
