#N canvas 170 52 1142 663 10;
#X obj 21 21 cnv 15 296 246 empty empty reflector\ synth 74 223 0 14
-178924 -66577 0;
#X obj 29 51 vsl 20 128 0.1 200 1 0 \$0-osc1pitchsnd \$0-osc1pitchrcv
1 0 -9 0 10 -262144 -1 -1 723 1;
#X obj 57 52 vsl 20 128 0.1 18000 1 0 \$0-osc2pitchsnd \$0-osc2pitchrcv
2 0 -9 0 10 -262144 -1 -1 2357 1;
#X obj 86 52 vsl 20 128 0.1 14000 1 0 \$0-osc3pitchsnd \$0-osc3pitchrcv
3 0 -9 0 10 -262144 -1 -1 450 1;
#X obj 228 225 tgl 15 0 \$0-onoffsnd \$0-onoffrcv ON/OFF 17 7 0 10
-250182 -241476 -1 1 1;
#X obj 202 52 vsl 20 128 40 18000 1 0 \$0-vcfcutoffsnd \$0-vcfcutoffrcv
cut 0 -9 0 10 -262144 -1 -1 5400 1;
#X obj 227 52 vsl 20 128 2 30 0 0 \$0-vcfqsnd \$0-vcfqrcv res 0 -9
0 10 -262144 -1 -1 2800 1;
#X obj 253 52 vsl 20 128 0 1.8 0 0 \$0-volsnd \$0-volrcv vol 0 -9 0
10 -262144 -1 -1 2800 1;
#X obj 214 200 hradio 20 0 0 4 \$0-overlapsnd \$0-overlaprcv overlap
0 -8 0 10 -207294 -237178 -1 0;
#X obj 29 190 tgl 20 0 \$0-osc1snsnd \$0-osc1snrcv empty 17 7 0 10
-262144 -1 -1 1 1;
#X obj 57 190 tgl 20 0 \$0-osc2snsnd \$0-osc2snrcv empty 17 7 0 10
-262144 -1 -1 1 1;
#X obj 86 190 tgl 20 0 \$0-osc3snsnd \$0-osc3snrcv empty 17 7 0 10
-262144 -1 -1 1 1;
#X obj 130 52 vsl 20 128 0 150 0 0 \$0-fb1snd \$0-fb1rcv fb1 0 -9 0
10 -262144 -1 -1 11700 1;
#X obj 158 52 vsl 20 128 0 150 0 0 \$0-fb2snd \$0-fb2rcv fb2 0 -9 0
10 -262144 -1 -1 4400 1;
#N canvas 244 341 567 333 state_saving 0;
#X obj 134 35 initbang;
#X obj 134 57 t b b;
#X msg 179 92 load savestate.pd_lua;
#X obj 179 114 pdlua;
#X obj 134 277 outlet;
#X obj 134 216 savestate \$0-index \$0-osc1pitch \$0-osc2pitch \$0-osc3pitch
\$0-fb1 \$0-fb2 \$0-vcfcutoff \$0-vcfq \$0-vol \$0-overlap \$0-onoff
\$0-osc1sq \$0-osc1sn \$0-osc2sq \$0-osc2sn \$0-osc3sq \$0-osc3sn \$0-limit
\$0-noise;
#X obj 134 171 pack \$1 \$2 \$3 \$4 \$5 \$6 \$7 \$8 \$9 \$10 \$11 \$12
\$13 \$14 \$15 \$16 \$17 \$18 \$19;
#X connect 0 0 1 0;
#X connect 1 0 6 0;
#X connect 1 1 2 0;
#X connect 2 0 3 0;
#X connect 5 0 4 0;
#X connect 6 0 5 0;
#X restore 176 389 pd state_saving;
#X obj 176 411 canvasargs;
#X obj 279 52 vsl 20 128 100 15 0 0 \$0-limitsnd \$0-limitrcv lim 0
-9 0 10 -262144 -1 -1 400 1;
#X obj 29 217 tgl 20 0 \$0-osc1sqsnd \$0-osc1sqrcv empty 17 7 0 10
-262144 -1 -1 1 1;
#X obj 57 217 tgl 20 0 \$0-osc2sqsnd \$0-osc2sqrcv empty 17 7 0 10
-262144 -1 -1 0 1;
#X obj 86 217 tgl 20 0 \$0-osc3sqsnd \$0-osc3sqrcv empty 17 7 0 10
-262144 -1 -1 1 1;
#X obj 402 7 inlet~ osc1pitch;
#X obj 521 7 inlet~ osc2pitch;
#X obj 667 7 inlet~ osc3pitch;
#X obj 812 3 inlet~ cutoff;
#N canvas 0 24 1360 692 upsampled 0;
#X obj 340 125 fold~;
#X obj 519 38 *~;
#X obj 487 -51 / 100;
#X obj 210 -76 *~;
#X obj 253 -134 / 100;
#X obj 190 83 fold~;
#X obj 389 -135 r \$0-osc1pitchsnd;
#X obj 358 -61 smoother 50;
#X obj 89 -12 smoother 50;
#X obj 94 -125 r \$0-osc2pitchsnd;
#X obj 582 -114 r \$0-osc3pitchsnd;
#X obj 389 -114 - 0.1;
#X obj 574 -89 - 0.1;
#X obj 87 -87 - 0.1;
#X obj 512 54 *~ 1.5;
#X obj 187 65 *~ 0.69;
#X obj 298 116 vcf~;
#X obj 414 79 r \$0-vcfcutoffsnd;
#X obj 437 103 - 0.1;
#X obj 339 156 vcf~, f 5;
#X obj 396 50 r \$0-vcfqsnd;
#X obj 701 110 r \$0-overlapsnd;
#N canvas 859 329 450 323 osc1 0;
#X obj 134 75 inlet~;
#X obj 134 209 outlet~;
#X obj 176 129 >~ 0;
#X obj 134 97 osc~ \$1;
#X obj 199 164 *~ 1;
#X obj 137 171 *~ 0;
#X obj 296 89 inlet sq;
#X obj 238 88 inlet sn;
#X connect 0 0 3 0;
#X connect 2 0 4 0;
#X connect 3 0 2 0;
#X connect 3 0 5 0;
#X connect 4 0 1 0;
#X connect 5 0 1 0;
#X connect 6 0 4 1;
#X connect 7 0 5 1;
#X restore 336 50 pd osc1;
#X obj 487 -29 smoother 5;
#X obj 254 -71 smoother 10;
#N canvas 858 305 450 323 osc2 0;
#X obj 134 75 inlet~;
#X obj 134 209 outlet~;
#X obj 176 129 >~ 0;
#X obj 134 97 osc~ \$1;
#X obj 199 164 *~ 1;
#X obj 137 171 *~ 0;
#X obj 267 62 inlet sq;
#X obj 200 69 inlet sn;
#X connect 0 0 3 0;
#X connect 2 0 4 0;
#X connect 3 0 2 0;
#X connect 3 0 5 0;
#X connect 4 0 1 0;
#X connect 5 0 1 0;
#X connect 6 0 4 1;
#X connect 7 0 5 1;
#X restore 153 37 pd osc2;
#X obj 374 -42 r \$0-osc1typesnd;
#X obj 277 5 *~;
#X obj 166 -54 *~ 24;
#X obj 166 -32 midiratio~;
#X obj 226 -175 r \$0-fb1snd;
#X obj 505 -129 r \$0-fb2snd;
#N canvas 860 353 450 323 osc3 0;
#X obj 134 75 inlet~;
#X obj 149 286 outlet~;
#X obj 199 164 *~ 1;
#X obj 137 171 *~ 0;
#X obj 267 62 inlet sn;
#X obj 346 72 inlet sq;
#X obj 176 129 >~ 0.5;
#X obj 134 97 phasor~ \$1;
#X obj 134 119 *~ 2;
#X obj 134 141 -~ 1;
#X obj 121 202 lop~ 200;
#X obj 158 242 clip~ -1 1;
#X connect 0 0 7 0;
#X connect 2 0 11 0;
#X connect 3 0 10 0;
#X connect 4 0 3 1;
#X connect 5 0 2 1;
#X connect 6 0 2 0;
#X connect 7 0 6 0;
#X connect 7 0 8 0;
#X connect 8 0 9 0;
#X connect 9 0 3 0;
#X connect 10 0 11 0;
#X connect 11 0 1 0;
#X restore 511 9 pd osc3;
#X obj 445 162 r \$0-onoffsnd;
#X obj 255 -26 r \$0-osc2sqsnd;
#X obj 248 -49 r \$0-osc2snsnd;
#X obj 334 307 outlet~;
#X obj 353 -19 r \$0-osc1snsnd;
#X obj 353 7 r \$0-osc1sqsnd;
#X obj 579 -15 r \$0-osc3snsnd;
#X obj 637 13 r \$0-osc3sqsnd;
#X obj 314 -176 noise~;
#X obj 664 163 sel 0 1 2 3;
#X msg 537 211 set 64 1 1;
#X msg 691 211 set 1024 1 4;
#X msg 612 216 set 128 1 2;
#X obj 455 200 switch~;
#X obj 359 221 lop~ 15000;
#X obj 359 243 lop~ 20000;
#X msg 802 218 set 1024 1 16;
#X obj 689 -195 inlet;
#X obj 443 123 *;
#X obj 567 -65 * 1;
#X obj 471 -195 inlet;
#X obj 439 144 smoother 20;
#X obj 257 -213 inlet;
#X obj 137 -217 inlet;
#X obj 375 -89 *;
#X obj 90 -40 *;
#X obj 450 290 s~ \$0-fb1;
#X obj 207 -124 r~ \$0-fb1;
#X obj 570 -40 smoother 15;
#X obj 367 -158 lop~ 800;
#X obj 288 -130 hip~ 13500;
#X obj 317 20 r \$0-noisesnd;
#X obj 282 56 *~;
#X obj 282 78 *~;
#X obj 316 -91 *~ 0.18;
#X obj 556 315 outlet~ osc1;
#X obj 685 309 outlet~ osc2;
#X obj 822 309 outlet~ osc3;
#X connect 0 0 19 0;
#X connect 1 0 14 0;
#X connect 2 0 23 0;
#X connect 3 0 0 1;
#X connect 3 0 5 1;
#X connect 3 0 28 0;
#X connect 4 0 24 0;
#X connect 5 0 16 0;
#X connect 6 0 11 0;
#X connect 7 0 27 0;
#X connect 8 0 25 0;
#X connect 9 0 13 0;
#X connect 10 0 12 0;
#X connect 11 0 57 1;
#X connect 12 0 52 1;
#X connect 13 0 58 1;
#X connect 14 0 0 1;
#X connect 15 0 5 0;
#X connect 16 0 0 0;
#X connect 17 0 18 0;
#X connect 18 0 51 1;
#X connect 19 0 59 0;
#X connect 19 1 47 0;
#X connect 20 0 19 2;
#X connect 20 0 16 2;
#X connect 21 0 42 0;
#X connect 22 0 0 0;
#X connect 22 0 66 1;
#X connect 22 0 68 0;
#X connect 23 0 1 1;
#X connect 24 0 3 1;
#X connect 25 0 15 0;
#X connect 25 0 69 0;
#X connect 27 0 22 0;
#X connect 28 0 29 0;
#X connect 29 0 27 1;
#X connect 29 0 25 0;
#X connect 30 0 4 0;
#X connect 31 0 2 0;
#X connect 32 0 1 0;
#X connect 32 0 70 0;
#X connect 33 0 46 0;
#X connect 34 0 25 2;
#X connect 35 0 25 1;
#X connect 37 0 22 1;
#X connect 38 0 22 2;
#X connect 39 0 32 1;
#X connect 40 0 32 2;
#X connect 41 0 62 0;
#X connect 41 0 63 0;
#X connect 42 0 43 0;
#X connect 42 1 45 0;
#X connect 42 2 44 0;
#X connect 42 3 49 0;
#X connect 43 0 46 0;
#X connect 44 0 46 0;
#X connect 45 0 46 0;
#X connect 47 0 48 0;
#X connect 48 0 36 0;
#X connect 49 0 46 0;
#X connect 50 0 51 0;
#X connect 51 0 54 0;
#X connect 52 0 61 0;
#X connect 53 0 52 0;
#X connect 54 0 19 1;
#X connect 54 0 16 1;
#X connect 55 0 58 0;
#X connect 56 0 57 0;
#X connect 57 0 7 0;
#X connect 58 0 8 0;
#X connect 60 0 3 0;
#X connect 61 0 32 0;
#X connect 62 0 67 0;
#X connect 63 0 67 0;
#X connect 64 0 65 0;
#X connect 65 0 66 0;
#X connect 66 0 16 0;
#X connect 67 0 65 1;
#X restore 580 174 pd upsampled;
#X obj 878 223 r \$0-volsnd;
#X obj 606 306 *~;
#X obj 878 245 smoother 10;
#X obj 606 383 outlet~;
#X obj 584 229 hip~ 25;
#X obj 662 81 snapshot~;
#X obj 751 50 bang~;
#X obj 800 94 snapshot~;
#X obj 800 116 * 48;
#X obj 800 138 midiratio;
#X obj 662 103 * 48;
#X obj 662 125 midiratio;
#X obj 557 69 snapshot~;
#X obj 557 91 * 48;
#X obj 557 113 midiratio;
#X obj 447 70 snapshot~;
#X obj 447 92 * 48;
#X obj 447 114 midiratio;
#X obj 158 190 tgl 20 0 \$0-noisesnd \$0-noisercv noise -6 24 0 10
-262144 -1 -1 0 1;
#X text 110 218 <-square;
#X text 110 192 <-sine;
#N canvas 1 296 600 359 limiter2 0;
#X obj 7 14 inlet~;
#X obj 116 63 env~ 1024;
#X obj 116 85 moses;
#X obj 320 46 inlet thresh;
#X obj 226 32 initbang;
#X obj 154 128 expr (($f1 - $f3) / $f2) - $f1 + $f3;
#X obj 154 150 expr 100 + $f1;
#X obj 154 172 dbtorms;
#X msg 117 131 1;
#X obj 116 107 bang;
#X obj 31 233 *~;
#X obj 93 229 line~;
#X obj 36 302 outlet~;
#X msg 318 83 10;
#X floatatom 75 86 5 0 0 0 - - -, f 5;
#X obj 423 87 dbtorms, f 15;
#X obj 423 109 expr 1/$f1;
#X floatatom 427 178 5 0 0 0 - - -, f 5;
#X obj 31 255 *~;
#X msg 244 59 6;
#X obj 2 117 z~ 1024;
#X obj 448 129 pow 0.85;
#X obj 423 153 smoother 10;
#X msg 113 202 \$1 5;
#X msg 104 176 \$1 25;
#X floatatom 154 194 5 0 0 0 - - -, f 5;
#X obj 289 244 s \$0-limdisp;
#X connect 0 0 1 0;
#X connect 0 0 20 0;
#X connect 1 0 2 0;
#X connect 1 0 14 0;
#X connect 2 0 9 0;
#X connect 2 1 5 0;
#X connect 3 0 5 2;
#X connect 3 0 2 1;
#X connect 3 0 15 0;
#X connect 4 0 19 0;
#X connect 5 0 6 0;
#X connect 6 0 7 0;
#X connect 7 0 23 0;
#X connect 7 0 25 0;
#X connect 7 0 26 0;
#X connect 8 0 24 0;
#X connect 8 0 26 0;
#X connect 9 0 8 0;
#X connect 10 0 18 0;
#X connect 11 0 10 1;
#X connect 13 0 5 2;
#X connect 13 0 2 1;
#X connect 15 0 16 0;
#X connect 16 0 21 0;
#X connect 18 0 12 0;
#X connect 19 0 5 1;
#X connect 20 0 10 0;
#X connect 21 0 17 0;
#X connect 21 0 22 0;
#X connect 22 0 18 1;
#X connect 23 0 11 0;
#X connect 24 0 11 0;
#X restore 583 281 pd limiter2;
#X obj 667 223 r \$0-limitsnd;
#X obj 733 337 outlet~ osc1;
#X obj 842 335 outlet~ osc2;
#X obj 934 347 outlet~ osc3;
#X obj 301 52 vsl 8 128 0 1 0 0 \$0-foo \$0-limdisp empty 0 -9 0 10
-262144 -1 -1 12700 1;
#X obj 606 328 clip~ -1 1;
#X obj 585 257 *~ 3;
#X connect 14 0 15 0;
#X connect 20 0 40 0;
#X connect 21 0 37 0;
#X connect 22 0 30 0;
#X connect 23 0 32 0;
#X connect 24 0 29 0;
#X connect 24 1 48 0;
#X connect 24 2 49 0;
#X connect 24 3 50 0;
#X connect 25 0 27 0;
#X connect 26 0 52 0;
#X connect 27 0 26 1;
#X connect 29 0 53 0;
#X connect 30 0 35 0;
#X connect 31 0 30 0;
#X connect 31 0 32 0;
#X connect 31 0 37 0;
#X connect 31 0 40 0;
#X connect 32 0 33 0;
#X connect 33 0 34 0;
#X connect 34 0 24 3;
#X connect 35 0 36 0;
#X connect 36 0 24 2;
#X connect 37 0 38 0;
#X connect 38 0 39 0;
#X connect 39 0 24 1;
#X connect 40 0 41 0;
#X connect 41 0 42 0;
#X connect 42 0 24 0;
#X connect 46 0 26 0;
#X connect 47 0 46 1;
#X connect 52 0 28 0;
#X connect 53 0 46 0;
#X coords 0 -1 1 1 300 250 2 19 19;
