#N canvas 1 53 1280 646 10;
#X obj 102 102 cnv 15 146 106 empty empty empty 20 12 0 14 -261047
-66577 0;
#X obj 344 605 outlet~;
#X obj 508 612 outlet~;
#X obj 298 124 inlet~;
#X obj 398 125 inlet~;
#X obj 108 117 hsl 136 15 65 100 1 1 \$0-livenesssnd \$0-livenessrcv
liveness 5 7 0 10 -233473 -1 -261234 10400 1;
#X obj 108 135 hsl 136 15 50 10000 1 1 \$0-crossoversnd \$0-crossoverrcv
crossover 5 7 0 10 -212993 -66577 -261234 10700 1;
#X obj 108 153 hsl 136 15 0 100 0 1 \$0-dampingsnd \$0-dampingrcv damping
5 7 0 10 -167937 -112348 -261234 3500 1;
#X obj 593 119 loadbang;
#X obj 108 171 hsl 136 15 50 8500 1 1 \$0-filtsnd \$0-filtrcv filt
5 7 0 10 -131073 -195568 -261234 9600 1;
#X obj 263 372 smoother 50;
#X obj 394 405 rev3~, f 29;
#X msg 533 239 100;
#X obj 459 435 vcf~ 2;
#X obj 394 435 vcf~ 2;
#X obj 393 491 *~ 2;
#X obj 460 491 *~ 2;
#X obj 394 465 vcf~ 3;
#X obj 459 465 vcf~ 3;
#N canvas 640 61 669 374 state_saving 0;
#X obj 240 243 outlet;
#X obj 328 47 loadbang;
#X msg 328 69 load savestate.pd_lua;
#X obj 328 91 pdlua;
#X obj 240 196 savestate \$0-index \$0-liveness \$0-crossover \$0-damping
\$0-filt \$0-drywet;
#X obj 254 142 pack \$1 \$2 \$3 \$4 \$5 \$6;
#X connect 1 0 2 0;
#X connect 1 0 5 0;
#X connect 2 0 3 0;
#X connect 4 0 0 0;
#X connect 5 0 4 0;
#X restore 652 283 pd state_saving;
#X obj 652 308 canvasargs;
#X obj 108 189 hsl 136 15 1 0 0 1 \$0-drywetsnd \$0-drywetrcv dry/wet
5 7 0 10 -94209 -228856 -261234 3700 1;
#X obj 660 452 r \$0-drywetsnd;
#X obj 660 474 smoother 50;
#X obj 369 550 adapanlinear;
#X obj 479 555 adapanlinear;
#X obj 102 102 cnv 8 45 10 empty empty L 1 5 0 8 -230625 -261234 0
;
#X obj 144 102 cnv 8 50 10 empty empty R 1 5 0 8 -230625 -261234 0
;
#X obj 177 102 cnv 8 50 10 empty empty dry/wet 1 5 0 8 -230625 -261234
0;
#X obj 791 160 inlet~ dry/wet;
#X obj 660 496 +~;
#X obj 791 182 *~ 0.5;
#X obj 660 518 clip~ 0 1;
#X obj 919 180 inlet control;
#X obj 223 102 cnv 8 25 10 empty empty ctrl 5 5 0 8 -230625 -262144
0;
#X obj 919 202 route liveness crossover damping filt drywet;
#X obj 935 269 s \$0-crossoverrcv;
#X obj 935 247 s \$0-livenessrcv;
#X obj 935 291 s \$0-dampingrcv;
#X obj 935 313 s \$0-filtrcv;
#X obj 935 335 s \$0-drywetrcv;
#X floatatom 901 470 5 0 0 0 index #0-indexrcv #0-indexsnd, f 5;
#X connect 3 0 11 0;
#X connect 3 0 24 2;
#X connect 4 0 11 1;
#X connect 4 0 25 2;
#X connect 5 0 11 3;
#X connect 6 0 11 4;
#X connect 7 0 11 5;
#X connect 8 0 12 0;
#X connect 9 0 10 0;
#X connect 10 0 13 1;
#X connect 10 0 14 1;
#X connect 10 0 17 1;
#X connect 10 0 18 1;
#X connect 11 0 14 0;
#X connect 11 1 13 0;
#X connect 12 0 11 2;
#X connect 13 0 18 0;
#X connect 14 0 17 0;
#X connect 15 0 24 0;
#X connect 16 0 25 0;
#X connect 17 0 15 0;
#X connect 18 0 16 0;
#X connect 19 0 20 0;
#X connect 22 0 23 0;
#X connect 23 0 30 0;
#X connect 24 0 1 0;
#X connect 24 1 1 0;
#X connect 25 0 2 0;
#X connect 25 1 2 0;
#X connect 29 0 31 0;
#X connect 30 0 32 0;
#X connect 31 0 30 1;
#X connect 32 0 25 1;
#X connect 32 0 24 1;
#X connect 33 0 35 0;
#X connect 35 0 37 0;
#X connect 35 1 36 0;
#X connect 35 2 38 0;
#X connect 35 3 39 0;
#X connect 35 4 40 0;
#X coords 0 -1 1 1 150 110 2 100 100;
