#N canvas 310 84 792 682 10;
#X obj 102 102 cnv 15 146 146 empty empty empty 20 12 0 14 -260468
-66577 0;
#N canvas 0 22 450 278 (subpatch) 0;
#X array \$0-samp1L 156497 float 2;
#X coords 0 1 156497 -1 100 50 1 0 0;
#X restore 102 114 graph;
#X obj 488 233 phasor~;
#X obj 489 277 *~ 88200;
#X obj 489 299 +~ 1;
#X obj 488 208 smoother 50;
#X floatatom 208 126 5 0 0 2 rate - -, f 5;
#X obj 487 321 +~;
#X obj 485 499 outlet~;
#X obj 545 499 outlet~;
#X obj 422 110 inlet~;
#X obj 103 214 bng 30 250 50 0 empty empty load 4 24 0 10 -260846 -211840
-1;
#X obj 539 157 expr ($f1/100)/($f2/88200);
#X obj 425 129 cyclone/scale~ -1 1 0.2 1.8;
#X obj 488 255 *~;
#X obj 60 571 inlet~ audioL;
#X obj 150 571 inlet~ audioR;
#X obj 60 599 tabwrite~ \$0-samp1L;
#X obj 487 350 tabread4~ \$0-samp1L;
#X obj 541 371 tabread4~ \$0-samp1R;
#X obj 150 622 tabwrite~ \$0-samp1R;
#N canvas 0 22 450 278 (subpatch) 0;
#X array \$0-samp1R 156497 float 2;
#X coords 0 1 156497 -1 100 50 1 0 0;
#X restore 102 114 graph;
#X obj 631 90 r \$0-sampsize;
#N canvas 0 22 450 300 load_sample 0;
#X obj 160 263 soundfiler;
#X obj 122 51 openpanel;
#X msg 160 206 read -resize /Users/adamadhiyatma/Music/SuperCollider Recordings/Sample Library/Durmfills/2-drum-fill-11.wav
1368-samp1L 1368-samp1R;
#X obj 178 86 f \$0;
#X obj 122 73 t b b s;
#X msg 138 175 set read -resize \$1;
#X msg 198 131 add2 \$1-samp1L;
#X obj 178 108 t f f;
#X msg 201 151 add2 \$1-samp1R;
#X obj 161 294 s \$0-sampsize;
#X obj 123 16 inlet;
#X connect 0 0 9 0;
#X connect 1 0 4 0;
#X connect 2 0 0 0;
#X connect 3 0 7 0;
#X connect 4 0 2 0;
#X connect 4 1 3 0;
#X connect 4 2 5 0;
#X connect 5 0 2 0;
#X connect 6 0 2 0;
#X connect 7 0 8 0;
#X connect 7 1 6 0;
#X connect 8 0 2 0;
#X connect 10 0 1 0;
#X restore 170 266 pd load_sample;
#X obj 111 329 timer;
#X obj 103 180 tgl 30 0 \$0-recsnd \$0-recrcv rec 8 25 0 10 -257024
-213060 -1 0 1;
#X obj 88 277 sel 1 0;
#X obj 84 305 t b b;
#X obj 111 400 s \$0-sampsize;
#X obj 269 394 s \$0-samp1L;
#X obj 269 416 s \$0-samp1R;
#X msg 269 362 resize \$1;
#X obj 154 352 samplerate~;
#X obj 154 329 r pd-dsp-started;
#X obj 151 301 loadbang;
#X obj 111 352 / 1000;
#X obj 111 375 *;
#X msg 269 335 resize 441000;
#X obj 485 434 hip~ 28;
#X obj 545 434 hip~ 28;
#X obj 137 180 tgl 30 0 \$0-overdubsnd \$0-overdubrcv overdub 0 25
0 8 -261361 -213060 -1 0 1;
#X obj 142 462 sel 1 0;
#X obj 226 541 *~;
#X obj 260 565 *~;
#X obj 241 495 smoother 15;
#X obj 142 438 r \$0-overdubsnd;
#X obj 252 471 snapshot~;
#X msg 151 523 start \$1;
#X msg 104 524 stop;
#X obj 409 342 snapshot~;
#X obj 400 300 metro 25;
#X obj 397 277 tgl 15 0 empty empty empty 17 7 0 10 -262144 -1 -1 0
1;
#X obj 105 168 hsl 95 8 0 100 0 0 \$0-positionsnd \$0-positionrcv empty
-2 -8 0 10 -190656 -241472 -1 0 1;
#X obj 393 380 expr $f1 * (100/$f2);
#X obj 631 112 t b f;
#X obj 375 109 inlet~;
#X obj 379 204 *~ 0;
#X obj 479 107 inlet reset;
#X obj 375 131 +~ 1;
#X obj 397 178 / 16;
#X obj 375 153 *~ 8;
#X obj 171 181 tgl 15 0 empty empty pos_Mod 0 20 0 10 -187904 -1 -1
0 1;
#X obj 400 245 *~;
#X connect 2 0 14 0;
#X connect 3 0 4 0;
#X connect 4 0 7 0;
#X connect 5 0 2 0;
#X connect 6 0 12 0;
#X connect 7 0 18 0;
#X connect 7 0 19 0;
#X connect 7 0 46 0;
#X connect 7 0 49 0;
#X connect 10 0 13 0;
#X connect 11 0 23 0;
#X connect 12 0 5 0;
#X connect 13 0 14 1;
#X connect 14 0 3 0;
#X connect 15 0 17 0;
#X connect 16 0 20 0;
#X connect 18 0 38 0;
#X connect 19 0 39 0;
#X connect 22 0 54 0;
#X connect 22 0 59 0;
#X connect 24 0 35 0;
#X connect 25 0 26 0;
#X connect 26 0 27 0;
#X connect 26 1 24 1;
#X connect 27 0 17 0;
#X connect 27 0 20 0;
#X connect 27 1 24 0;
#X connect 27 1 37 0;
#X connect 31 0 29 0;
#X connect 31 0 30 0;
#X connect 32 0 36 1;
#X connect 33 0 32 0;
#X connect 34 0 32 0;
#X connect 35 0 36 0;
#X connect 36 0 31 0;
#X connect 36 0 28 0;
#X connect 37 0 29 0;
#X connect 37 0 30 0;
#X connect 38 0 8 0;
#X connect 38 0 42 0;
#X connect 39 0 9 0;
#X connect 39 0 43 0;
#X connect 41 0 46 0;
#X connect 41 1 48 0;
#X connect 42 0 17 0;
#X connect 43 0 20 0;
#X connect 44 0 42 1;
#X connect 44 0 43 1;
#X connect 45 0 41 0;
#X connect 45 0 44 0;
#X connect 46 0 47 0;
#X connect 47 0 20 0;
#X connect 47 0 17 0;
#X connect 48 0 17 0;
#X connect 48 0 20 0;
#X connect 49 0 53 0;
#X connect 50 0 49 0;
#X connect 51 0 50 0;
#X connect 53 0 52 0;
#X connect 54 0 12 0;
#X connect 54 1 12 1;
#X connect 54 1 3 1;
#X connect 54 1 53 1;
#X connect 55 0 58 0;
#X connect 56 0 62 0;
#X connect 57 0 2 1;
#X connect 58 0 60 0;
#X connect 59 0 56 1;
#X connect 60 0 56 0;
#X connect 61 0 62 1;
#X connect 62 0 7 1;
#X coords 0 -1 1 1 150 150 2 100 100;
