#N canvas 204 203 1155 512 12;
#X obj 12 12 cnv 15 146 56 empty \$0-canvasrcv empty 0 0 0 8 -248037
-262144 0;
#X obj 238 8 inlet bangkv;
#X obj 627 65 inlet~ start;
#X obj 429 370 outlet~ L;
#X obj 527 370 outlet~ R;
#X text 18 80 samples L and R;
#X obj 14 48 bng 15 250 50 0 \$0-loadsnd \$0-loadrcv load 17 7 1 10
-232890 -1 -1;
#X obj 250 199 soundfiler;
#N canvas 385 121 847 300 loadsample 0;
#X obj 46 23 r \$0-loadsnd;
#X obj 53 128 pack s s s;
#X obj 98 89 symbol \$0-sampleL;
#X obj 152 111 symbol \$0-sampleR;
#X obj 46 68 t a b b;
#X obj 67 202 outlet;
#X obj 477 224 s \$0-filenamedisplay;
#X msg 349 28 load adabasedir.pd_lua;
#X obj 349 51 pdlua;
#X obj 349 3 loadbang;
#X obj 380 197 adabasedir;
#X obj 212 218 s \$0-filepathsnd;
#X obj 176 36 r \$0-filepathrcv;
#X msg 66 154 read -maxsize 4e+07 -resize \$1 \$2 \$3;
#X obj 46 46 adaopenpanel;
#X connect 0 0 14 0;
#X connect 1 0 13 0;
#X connect 2 0 1 1;
#X connect 3 0 1 2;
#X connect 4 0 1 0;
#X connect 4 0 10 0;
#X connect 4 0 11 0;
#X connect 4 1 2 0;
#X connect 4 2 3 0;
#X connect 7 0 8 0;
#X connect 9 0 7 0;
#X connect 10 1 6 0;
#X connect 12 0 4 0;
#X connect 13 0 5 0;
#X connect 14 0 4 0;
#X restore 250 173 pd loadsample;
#N canvas 549 332 709 324 numberofsamples 0;
#X obj 119 60 inlet;
#X obj -1 101 s \$0-numsamples;
#X obj 119 242 s \$0-unityspeed;
#X obj 340 62 inlet;
#X obj 331 132 s \$0-filesamplerate;
#X obj 531 130 s \$0-filenumchannels;
#X obj 119 186 /;
#X obj 119 214 expr 1/$f1;
#X obj 149 117 t b f;
#X obj 117 151 f;
#X obj 340 84 unpack f f f f s;
#X obj 305 242 s \$0-unityspeedonce;
#X text 169 180 calculate phasor~ and line~ speed for playback speed
of 1;
#X obj 267 206 * 1000;
#X floatatom 64 257 5 0 0 0 - - -, f 5;
#X obj 233 90 initbang;
#X obj 233 115 samplerate~;
#X connect 0 0 1 0;
#X connect 0 0 9 0;
#X connect 3 0 8 0;
#X connect 3 0 10 0;
#X connect 6 0 7 0;
#X connect 6 0 13 0;
#X connect 7 0 2 0;
#X connect 7 0 14 0;
#X connect 8 0 9 0;
#X connect 8 1 6 1;
#X connect 9 0 6 0;
#X connect 10 0 4 0;
#X connect 10 2 5 0;
#X connect 13 0 11 0;
#X connect 15 0 16 0;
#X connect 16 0 6 1;
#X restore 250 256 pd numberofsamples;
#N canvas 326 77 1033 638 phase 0;
#X obj 215 436 r \$0-numsamples;
#X obj 165 556 *~;
#X obj 167 206 r \$0-unityspeed;
#X obj 167 276 *;
#X obj 164 599 outlet~;
#X obj 167 253 f;
#X obj 167 229 t b f;
#X obj 104 185 r \$0-playbackspeedsnd;
#X obj 104 207 / 100;
#X obj 165 418 phasor~ 1;
#X obj 80 16 inlet bangkv;
#X obj 106 54 route bang list;
#X obj 540 5 inlet~ starttimemod;
#X obj 519 161 r \$0-starttimesnd;
#X obj 519 183 / 1000;
#X obj 379 164 f;
#X obj 379 189 + 0;
#X obj 379 104 t b b;
#X obj 437 131 snapshot~;
#X obj 437 153 * 0.5;
#X text 579 111 scale to 0-1 and add to start time control;
#X obj 379 217 max 0;
#X obj 321 13 inlet~ pitchlog;
#X obj 305 40 *~ 60;
#X obj 165 368 *~;
#X obj 288 71 midiratio~;
#X msg 338 371 0;
#X obj 338 396 spigot;
#X obj 478 432 tgl 15 0 empty empty empty 17 7 0 10 -262144 -1 -1 0
1;
#X msg 276 305 1;
#X msg 564 329 0;
#X obj 440 377 s \$0-declickbang;
#X obj 339 346 t b b;
#X obj 165 393 *~ 1;
#X obj 339 322 threshold~ 0.99 10 -1 10;
#X obj 576 465 r \$0-loopsnd;
#X obj 576 489 == 0;
#X obj 48 264 r \$0-midipitch;
#X obj 167 301 * 1;
#X obj 48 316 midiratio;
#X obj 48 289 - 64;
#X obj 48 341 t b f;
#X obj 165 342 smoother 4;
#X connect 0 0 1 1;
#X connect 1 0 4 0;
#X connect 2 0 6 0;
#X connect 3 0 38 0;
#X connect 5 0 3 0;
#X connect 6 0 5 0;
#X connect 6 1 3 1;
#X connect 7 0 8 0;
#X connect 8 0 5 0;
#X connect 9 0 1 0;
#X connect 9 0 34 0;
#X connect 10 0 11 0;
#X connect 11 0 17 0;
#X connect 12 0 18 0;
#X connect 13 0 14 0;
#X connect 14 0 15 1;
#X connect 15 0 16 0;
#X connect 16 0 21 0;
#X connect 17 0 15 0;
#X connect 17 1 18 0;
#X connect 17 1 30 0;
#X connect 17 1 29 0;
#X connect 18 0 19 0;
#X connect 19 0 16 1;
#X connect 21 0 9 1;
#X connect 22 0 23 0;
#X connect 23 0 25 0;
#X connect 24 0 33 0;
#X connect 25 0 24 1;
#X connect 26 0 27 0;
#X connect 27 0 33 1;
#X connect 28 0 27 1;
#X connect 29 0 33 1;
#X connect 30 0 34 1;
#X connect 32 0 26 0;
#X connect 32 1 31 0;
#X connect 33 0 9 0;
#X connect 34 0 32 0;
#X connect 35 0 36 0;
#X connect 36 0 27 1;
#X connect 37 0 40 0;
#X connect 38 0 42 0;
#X connect 39 0 41 0;
#X connect 40 0 39 0;
#X connect 41 0 5 0;
#X connect 41 1 38 1;
#X connect 42 0 24 0;
#X restore 429 175 pd phase;
#X floatatom 43 22 5 0 0 0 - #0-playbackspeedrcv #0-playbackspeedsnd
, f 5;
#X obj 528 230 tabread4~ \$0-sampleR;
#N canvas 0 50 450 300 declick 0;
#X obj 170 120 adadeclick;
#X obj 285 120 adadeclick;
#X obj 144 40 inlet~;
#X obj 289 40 inlet~;
#X obj 157 219 outlet~;
#X obj 299 222 outlet~;
#X obj 375 70 r \$0-declickbang;
#X connect 0 0 4 0;
#X connect 1 0 5 0;
#X connect 2 0 0 0;
#X connect 3 0 1 0;
#X connect 6 0 1 1;
#X connect 6 0 0 1;
#X restore 430 255 pd declick;
#X obj 314 131 s \$0-declickbang;
#X obj 121 23 bng 15 250 50 0 \$0-manualtrigsnd \$0-manualtrigrcv tr
3 7 0 8 -248037 -241088 -262144;
#X symbolatom 54 48 10 0 0 0 - #0-filenamedisplay -, f 10;
#X obj 348 93 r \$0-manualtrigsnd;
#X floatatom 87 22 3 0 1000 0 - #0-starttimercv #0-starttimesnd, f
3;
#X obj 430 209 tabread4~ \$0-sampleL;
#N canvas 409 149 737 331 state_saving 0;
#X obj 14 56 pdlua;
#X msg 14 34 load savestate.pd_lua;
#X msg 128 137 symbol dumpvalues;
#X obj 128 210 outlet;
#X obj 249 59 t b b;
#X obj 240 104 pack \$1 \$2 \$3 \$4 \$5 \$6 s;
#X obj 129 161 savestate \$0-index \$0-playbackspeed \$0-starttime
\$0-volume \$0-loop \$0-onoff \$0-filepath;
#X obj 401 78 symbol \$7;
#X obj 14 8 inlet;
#X connect 1 0 0 0;
#X connect 2 0 6 0;
#X connect 4 0 5 0;
#X connect 4 1 7 0;
#X connect 5 0 6 0;
#X connect 6 0 3 0;
#X connect 7 0 5 6;
#X connect 8 0 1 0;
#X connect 8 0 4 0;
#X restore 175 321 pd state_saving;
#X obj 178 350 canvasargs;
#X floatatom 96 296 5 0 0 0 index #0-indexrcv #0-indexsnd, f 5;
#X obj 468 65 inlet~ pitchlog;
#X floatatom 13 22 3 0 150 0 - #0-volumercv #0-volumesnd, f 3;
#X obj 428 343 *~;
#X obj 527 344 *~;
#X obj 750 235 r \$0-volumesnd;
#X obj 554 316 smoother 10;
#X obj 750 257 / 100;
#X obj 12 12 cnv 8 35 8 empty empty !/kv 1 3 0 10 -151559 -262144 0
;
#X obj 46 12 cnv 8 50 8 empty empty pitch 2 3 0 11 -151559 -257150
0;
#X obj 798 68 inlet control;
#X obj 124 12 cnv 8 35 8 empty empty ctrl 11 3 0 10 -151559 -262144
0;
#X obj 13 38 cnv 8 35 8 empty empty vol 2 3 0 11 -248037 -262144 0
;
#X obj 86 38 cnv 8 35 8 empty empty start 2 3 0 11 -248037 -262144
0;
#X obj 141 50 tgl 15 0 \$0-loopsnd \$0-looprcv L 4 8 0 10 -261682 -1
-1 0 1;
#X obj 141 23 tgl 15 0 \$0-onoffsnd \$0-onoffrcv empty 17 7 0 10 -260757
-261682 -1 1 1;
#N canvas 1252 182 450 300 onoff 0;
#X obj 286 122 outlet;
#X obj 41 17 r \$0-onoffsnd;
#X msg 46 115 195 205 214;
#X obj 46 137 rgb, f 8;
#X obj 46 162 pack f \$0;
#X obj 41 45 sel 1 0;
#X msg 45 190 \; \$2-canvasrcv color \$1;
#X msg 70 80 240 140 144;
#X connect 1 0 5 0;
#X connect 1 0 0 0;
#X connect 2 0 3 0;
#X connect 3 0 4 0;
#X connect 4 0 6 0;
#X connect 5 0 7 0;
#X connect 5 1 2 0;
#X connect 7 0 3 0;
#X restore 920 377 pd onoff;
#X obj 941 421 switch~;
#N canvas 442 294 450 300 control 0;
#X obj 157 44 inlet;
#X obj 157 69 route vol pitch start loop onoff;
#X obj 101 136 s \$0-volumercv;
#X obj 135 168 s \$0-playbackspeedrcv;
#X obj 178 198 s \$0-starttimercv;
#X obj 206 229 s \$0-looprcv;
#X obj 254 258 s \$0-onoffrcv;
#X connect 0 0 1 0;
#X connect 1 0 2 0;
#X connect 1 1 3 0;
#X connect 1 2 4 0;
#X connect 1 3 5 0;
#X connect 1 4 6 0;
#X restore 798 103 pd control;
#X obj 43 38 cnv 8 35 8 empty empty pitch 2 3 0 11 -248037 -262144
0;
#X obj 92 12 cnv 8 40 8 empty empty start 2 3 0 11 -151559 -257150
0;
#X obj 175 295 initbang;
#X obj 238 33 route bang list;
#X obj 441 38 t b f;
#X obj 523 14 s \$0-midipitch;
#N canvas 456 232 281 351 samples 0;
#N canvas 0 50 450 250 (subpatch) 0;
#X array \$0-sampleL 98654 float 2 black black;
#X coords 0 250 98654 249 200 140 1;
#X restore 32 168 graph;
#N canvas 0 50 687 386 (subpatch) 0;
#X array \$0-sampleR 98654 float 2 black black;
#X coords 0 386 98654 385 200 140 1;
#X restore 33 20 graph;
#X restore 24 121 pd samples;
#X obj 441 13 stripnote;
#X connect 1 0 44 0;
#X connect 2 0 10 2;
#X connect 7 0 9 0;
#X connect 8 0 7 0;
#X connect 10 0 12 0;
#X connect 10 0 19 0;
#X connect 12 0 13 1;
#X connect 13 0 25 0;
#X connect 13 1 26 0;
#X connect 17 0 14 0;
#X connect 17 0 10 0;
#X connect 19 0 13 0;
#X connect 20 0 21 0;
#X connect 23 0 10 1;
#X connect 25 0 3 0;
#X connect 26 0 4 0;
#X connect 27 0 29 0;
#X connect 28 0 26 1;
#X connect 28 0 25 1;
#X connect 29 0 28 0;
#X connect 32 0 40 0;
#X connect 38 0 39 0;
#X connect 43 0 20 0;
#X connect 44 0 14 0;
#X connect 44 0 10 0;
#X connect 44 1 48 0;
#X connect 45 0 14 0;
#X connect 45 0 10 0;
#X connect 45 1 46 0;
#X connect 48 0 45 0;
#X coords 0 -1 1 1 150 60 2 10 10;
