#N canvas 3 204 1345 489 10;
#X obj 12 12 cnv 15 146 56 empty \$0-canvasrcv empty 0 0 0 8 -236414
-262144 0;
#X obj 266 63 inlet bangkv;
#X obj 627 65 inlet~ start;
#X obj 417 436 outlet~ L;
#X obj 515 436 outlet~ R;
#N canvas 0 50 450 250 (subpatch) 0;
#X array \$0-sampleL 470072 float 2 black black;
#X coords 0 250 470072 249 200 140 0;
#X restore 16 144 graph;
#N canvas 0 50 687 386 (subpatch) 0;
#X array \$0-sampleR 470072 float 2 black black;
#X coords 0 386 470072 385 200 140 0;
#X restore 19 121 graph;
#X text 18 80 samples L and R;
#X obj 14 48 bng 15 250 50 0 \$0-loadsnd \$0-loadrcv load 17 7 1 10
-232890 -1 -1;
#X obj 134 193 soundfiler;
#N canvas 612 50 847 300 loadsample 0;
#X obj 46 23 r \$0-loadsnd;
#X obj 46 46 openpanel;
#X obj 53 128 pack s s s;
#X obj 98 89 symbol \$0-sampleL;
#X obj 152 111 symbol \$0-sampleR;
#X obj 46 68 t a b b;
#X obj 67 202 outlet;
#X obj 477 224 s \$0-filenamedisplay;
#X msg 349 28 load adabasedir.pd_lua;
#X obj 349 51 pdlua;
#X obj 349 3 loadbang;
#X obj 380 197 adabasedir;
#X obj 212 218 s \$0-filepathsnd;
#X obj 176 36 r \$0-filepathrcv;
#X msg 66 154 read -maxsize 4e+07 -resize \$1 \$2 \$3;
#X connect 0 0 1 0;
#X connect 1 0 5 0;
#X connect 2 0 14 0;
#X connect 3 0 2 1;
#X connect 4 0 2 2;
#X connect 5 0 2 0;
#X connect 5 0 11 0;
#X connect 5 0 12 0;
#X connect 5 1 3 0;
#X connect 5 2 4 0;
#X connect 8 0 9 0;
#X connect 10 0 8 0;
#X connect 11 1 7 0;
#X connect 13 0 5 0;
#X connect 14 0 6 0;
#X restore 134 164 pd loadsample;
#X floatatom 51 22 3 0 0 0 - #0-playbackspeedrcv #0-playbackspeedsnd
, f 3;
#X obj 314 131 s \$0-declickbang;
#X obj 122 23 bng 15 250 50 0 \$0-manualtrigsnd \$0-manualtrigrcv tr
3 7 0 8 -248037 -241088 -262144;
#X symbolatom 54 49 10 0 0 0 - #0-filenamedisplay -, f 10;
#X obj 348 93 r \$0-manualtrigsnd;
#X floatatom 87 22 3 0 1000 0 - #0-starttimercv #0-starttimesnd, f
3;
#N canvas 854 436 737 331 state_saving 0;
#X obj 14 56 pdlua;
#X msg 14 34 load savestate.pd_lua;
#X obj 14 10 loadbang;
#X msg 128 137 symbol dumpvalues;
#X obj 128 210 outlet;
#X obj 328 19 t b b;
#X obj 299 8 bng 15 250 50 0 empty empty empty 17 7 0 10 -262144 -1
-1;
#X obj 319 64 pack \$1 \$2 \$3 \$4 \$5 \$6 s;
#X obj 439 255 r \$0-filepathrcv;
#X obj 439 279 print filepathrcv;
#X obj 129 161 savestate \$0-index \$0-playbackspeed \$0-starttime
\$0-volume \$0-loop \$0-onoff \$0-filepath;
#X obj 562 31 symbol \$7;
#X connect 1 0 0 0;
#X connect 2 0 1 0;
#X connect 2 0 5 0;
#X connect 3 0 10 0;
#X connect 5 0 7 0;
#X connect 5 1 11 0;
#X connect 6 0 5 0;
#X connect 7 0 10 0;
#X connect 8 0 9 0;
#X connect 10 0 4 0;
#X connect 11 0 7 6;
#X restore 175 321 pd state_saving;
#X obj 175 343 canvasargs;
#X floatatom 96 296 5 0 0 0 index #0-indexrcv #0-indexsnd, f 5;
#X obj 468 65 inlet~ pitchlog;
#X floatatom 13 22 3 0 150 0 - #0-volumercv #0-volumesnd, f 3;
#X obj 416 409 *~;
#X obj 515 410 *~;
#X obj 596 332 r \$0-volumesnd;
#X obj 542 382 smoother 10;
#X obj 596 354 / 100;
#X obj 12 12 cnv 8 35 8 empty empty kv 2 3 0 11 -151559 -262144 0;
#X obj 46 12 cnv 8 50 8 empty empty pitch 2 3 0 11 -151559 -257150
0;
#X obj 94 12 cnv 8 50 8 empty empty start 2 3 0 11 -151559 -257150
0;
#X obj 798 68 inlet control;
#X obj 123 12 cnv 8 35 8 empty empty ctrl 15 3 0 11 -151559 -262144
0;
#X obj 13 38 cnv 8 35 8 empty empty vol 2 3 0 11 -248037 -262144 0
;
#X obj 48 38 cnv 8 35 8 empty empty pitch 2 3 0 11 -248037 -262144
0;
#X obj 86 38 cnv 8 35 8 empty empty start 2 3 0 11 -248037 -262144
0;
#X obj 139 49 tgl 15 0 \$0-loopsnd \$0-looprcv L 4 8 0 10 -261682 -1
-1 0 1;
#X obj 145 23 tgl 12 0 \$0-onoffsnd \$0-onoffrcv empty 17 7 0 10 -260757
-261682 -1 1 1;
#N canvas 909 182 450 300 onoff 0;
#X obj 286 122 outlet;
#X obj 41 17 r \$0-onoffsnd;
#X msg 46 115 195 205 214;
#X obj 46 137 rgb, f 8;
#X obj 46 162 pack f \$0;
#X obj 41 45 sel 1 0;
#X msg 45 190 \; \$2-canvasrcv color \$1;
#X msg 70 80 230 180 244;
#X connect 1 0 5 0;
#X connect 1 0 0 0;
#X connect 2 0 3 0;
#X connect 3 0 4 0;
#X connect 4 0 6 0;
#X connect 5 0 7 0;
#X connect 5 1 2 0;
#X connect 7 0 3 0;
#X restore 920 377 pd onoff;
#X obj 941 421 switch~;
#X obj 706 167 pack f f f;
#X obj 706 146 - 1;
#X obj 706 124 poly 6 1, f 10;
#X msg 559 193 vis 0 1;
#X obj 863 152 r \$0-starttimesnd;
#X obj 927 176 r \$0-playbackspeedsnd;
#X obj 1002 211 r \$0-numsamples;
#X msg 864 211 all \$1;
#X msg 932 211 all \$1;
#X msg 1007 238 all \$1;
#X obj 1082 245 r \$0-unityspeed;
#X msg 1082 269 all \$1;
#X msg 1182 311 all \$1;
#X obj 1182 287 r \$0-loopsnd;
#X obj 455 281 clone sampler4-voice 6 \$0-sampleL;
#N canvas 549 332 709 324 numberofsamples 1;
#X obj 119 60 inlet;
#X obj -1 101 s \$0-numsamples;
#X obj 119 242 s \$0-unityspeed;
#X obj 340 62 inlet;
#X obj 331 132 s \$0-filesamplerate;
#X obj 531 130 s \$0-filenumchannels;
#X obj 119 186 /;
#X obj 119 214 expr 1/$f1;
#X obj 149 117 t b f;
#X obj 117 151 f;
#X obj 340 84 unpack f f f f s;
#X obj 305 242 s \$0-unityspeedonce;
#X text 169 180 calculate phasor~ and line~ speed for playback speed
of 1;
#X obj 267 206 * 1000;
#X floatatom 64 257 5 0 0 0 - - -, f 5;
#X obj 233 90 initbang;
#X obj 233 115 samplerate~;
#X connect 0 0 1 0;
#X connect 0 0 9 0;
#X connect 3 0 8 0;
#X connect 3 0 10 0;
#X connect 6 0 7 0;
#X connect 6 0 13 0;
#X connect 7 0 2 0;
#X connect 7 0 14 0;
#X connect 8 0 9 0;
#X connect 8 1 6 1;
#X connect 9 0 6 0;
#X connect 10 0 4 0;
#X connect 10 2 5 0;
#X connect 13 0 11 0;
#X connect 15 0 16 0;
#X connect 16 0 6 1;
#X restore 148 250 pd numberofsamples;
#X connect 1 0 12 0;
#X connect 1 0 41 0;
#X connect 2 0 53 2;
#X connect 9 0 54 0;
#X connect 10 0 9 0;
#X connect 15 0 12 0;
#X connect 17 0 18 0;
#X connect 20 0 53 1;
#X connect 22 0 3 0;
#X connect 23 0 4 0;
#X connect 24 0 26 0;
#X connect 25 0 23 1;
#X connect 25 0 22 1;
#X connect 26 0 25 0;
#X connect 37 0 38 0;
#X connect 39 0 53 0;
#X connect 40 0 39 0;
#X connect 41 0 40 0;
#X connect 41 1 39 1;
#X connect 41 2 39 2;
#X connect 42 0 53 0;
#X connect 43 0 46 0;
#X connect 44 0 47 0;
#X connect 45 0 48 0;
#X connect 46 0 53 3;
#X connect 47 0 53 4;
#X connect 48 0 53 5;
#X connect 49 0 50 0;
#X connect 50 0 53 6;
#X connect 51 0 53 7;
#X connect 52 0 51 0;
#X connect 53 0 23 0;
#X connect 53 0 22 0;
#X coords 0 -1 1 1 150 60 2 10 10;
