#N canvas 79 23 1153 737 10;
#X obj 172 12 cnv 15 146 146 empty \$0-cnvrcv empty 20 12 0 14 -199926
-66577 0;
#X obj 332 12 cnv 15 146 146 empty \$0-cnvrcv empty 20 12 0 14 -199926
-66577 0;
#X obj 12 12 cnv 15 146 146 empty \$0-cnvrcv empty 20 12 0 14 -199926
-66577 0;
#X obj 529 409 phasor~;
#X obj 529 432 *~ 88200;
#X obj 528 364 smoother 50;
#X floatatom 117 43 5 0 0 2 rate #0-ratercv #0-ratesnd, f 5;
#X obj 538 708 outlet~;
#X obj 588 708 outlet~;
#X obj 14 120 bng 30 250 50 0 empty empty load 3 15 0 10 -260846 -211840
-1;
#X obj 464 240 cyclone/scale~ -1 1 0.2 1.8;
#X obj 142 603 inlet~ audioL;
#X obj 227 603 inlet~ audioR;
#X obj 584 551 tabread4~ \$0-samp1R;
#X obj 667 239 r \$0-sampsize;
#X obj 14 15 tgl 30 0 \$0-recsnd \$0-recrcv rec 6 25 0 10 -257024 -213060
-1 0 1;
#X obj 530 574 hip~ 28;
#X obj 584 574 hip~ 28;
#X obj 14 50 tgl 30 0 \$0-overdubsnd \$0-overdubrcv dub 6 25 0 10 -261361
-213060 -1 0 1;
#X obj 178 103 hsl 130 8 0 100 0 0 \$0-positionsnd \$0-positionrcv
empty -2 -8 0 10 -190656 -241472 -1 7538 1;
#X obj 628 267 t b f;
#X obj 567 216 inlet reset;
#X obj 464 217 inlet~ rate;
#N canvas 0 23 662 500 recording 0;
#X obj 254 95 inlet~ index;
#X obj 55 404 inlet~ audioL;
#X obj 145 404 inlet~ audioR;
#X obj 60 439 tabwrite~ \$0-samp1L;
#X obj 150 462 tabwrite~ \$0-samp1R;
#X obj 111 169 timer;
#X obj 84 119 sel 1 0;
#X obj 84 145 t b b;
#X obj 111 240 s \$0-sampsize;
#X obj 269 234 s \$0-samp1L;
#X obj 269 256 s \$0-samp1R;
#X msg 269 202 resize \$1;
#X obj 154 192 samplerate~;
#X obj 159 163 r pd-dsp-started;
#X obj 151 141 loadbang;
#X obj 111 192 / 1000;
#X obj 111 215 *;
#X msg 269 175 resize 441000;
#X obj 142 302 sel 1 0;
#X obj 226 381 *~;
#X obj 260 405 *~;
#X obj 241 335 smoother 15;
#X obj 142 278 r \$0-overdubsnd;
#X obj 252 311 snapshot~;
#X msg 151 363 start \$1;
#X msg 104 364 stop;
#X text 358 164 resize to 10s while recording, f 17;
#X obj 333 353 inlet~ overdubL;
#X obj 448 354 inlet~ overdubR;
#X obj 79 80 r \$0-recsnd;
#X text 38 191 calculate number of samples, f 11;
#X text 341 198 resize to recording length after recording, f 19;
#X text 315 308 start overdubbing at current play position;
#X connect 0 0 23 0;
#X connect 1 0 3 0;
#X connect 2 0 4 0;
#X connect 5 0 15 0;
#X connect 6 0 7 0;
#X connect 6 1 5 1;
#X connect 7 0 3 0;
#X connect 7 0 4 0;
#X connect 7 1 5 0;
#X connect 7 1 17 0;
#X connect 11 0 9 0;
#X connect 11 0 10 0;
#X connect 12 0 16 1;
#X connect 13 0 12 0;
#X connect 14 0 12 0;
#X connect 15 0 16 0;
#X connect 16 0 11 0;
#X connect 16 0 8 0;
#X connect 17 0 9 0;
#X connect 17 0 10 0;
#X connect 18 0 23 0;
#X connect 18 1 25 0;
#X connect 19 0 3 0;
#X connect 20 0 4 0;
#X connect 21 0 19 1;
#X connect 21 0 20 1;
#X connect 22 0 18 0;
#X connect 22 0 21 0;
#X connect 23 0 24 0;
#X connect 24 0 4 0;
#X connect 24 0 3 0;
#X connect 25 0 3 0;
#X connect 25 0 4 0;
#X connect 27 0 19 0;
#X connect 28 0 20 0;
#X connect 29 0 6 0;
#X restore 415 664 pd recording;
#X obj 528 264 r \$0-ratesnd;
#X text 671 268 rate calculation;
#X text 585 420 scaling;
#X obj 108 139 hradio 15 1 0 3 \$0-tabselectorsnd \$0-tabselectorrcv
empty 0 -8 0 10 -248799 -222740 -1 0;
#X obj 12 201 namecanvas \$0-sampler;
#X obj 268 139 hradio 15 1 0 3 \$0-tabselectorsnd \$0-tabselectorrcv
empty 0 -8 0 10 -248799 -222740 -1 0;
#X obj 428 140 hradio 15 1 0 3 \$0-tabselectorsnd \$0-tabselectorrcv
empty 0 -8 0 10 -248799 -222740 -1 0;
#X obj 48 17 vsl 20 100 0 1.8 0 0 \$0-levelsnd \$0-levelrcv Vol 2 3
0 8 -261302 -260006 -1 4300 1;
#X obj 538 684 *~;
#X obj 588 684 *~;
#X obj 769 632 r \$0-levelsnd;
#X obj 769 654 smoother 50;
#N canvas 0 22 450 300 tabs 0;
#X msg 51 108 0;
#X obj 50 159 pack f f;
#X obj 30 81 t f f b;
#X obj 84 109 sel 0 1 2;
#X msg 84 134 10;
#X obj 50 209 s \$0-sampler;
#X msg 112 134 170;
#X msg 139 134 330;
#X obj 30 58 r \$0-tabselectorsnd;
#X msg 159 83 set \$1;
#X obj 159 105 s \$0-tabselectorrcv;
#X obj 168 38 loadbang;
#X msg 168 60 0;
#X msg 29 109 2;
#X msg 50 183 donecanvasdialog 1 -1 \$1 0 -1 1 1 150 150 \$2 10 \,
dirty 0;
#X connect 0 0 1 0;
#X connect 1 0 14 0;
#X connect 2 0 13 0;
#X connect 2 1 3 0;
#X connect 2 2 0 0;
#X connect 3 0 4 0;
#X connect 3 1 6 0;
#X connect 3 2 7 0;
#X connect 4 0 1 1;
#X connect 6 0 1 1;
#X connect 7 0 1 1;
#X connect 8 0 2 0;
#X connect 8 0 9 0;
#X connect 9 0 10 0;
#X connect 11 0 12 0;
#X connect 12 0 2 0;
#X connect 12 0 9 0;
#X connect 13 0 1 0;
#X connect 14 0 5 0;
#X restore 123 179 pd tabs;
#N canvas 598 97 581 567 fx 0;
#X obj 125 46 inlet~;
#X obj 193 47 inlet~;
#X obj 121 350 outlet~;
#X obj 228 351 outlet~;
#N canvas 638 65 465 452 secondstage 0;
#X obj 102 49 inlet~;
#X obj 207 50 inlet~;
#X obj 102 227 outlet~;
#X obj 215 229 outlet~;
#X obj 290 56 inlet;
#X obj 290 78 switch~;
#X obj 197 87 r \$0-distsnd;
#X obj 188 115 * 2;
#X obj 111 141 stereodist;
#X connect 0 0 8 0;
#X connect 1 0 8 1;
#X connect 4 0 5 0;
#X connect 6 0 7 0;
#X connect 7 0 8 2;
#X connect 8 0 2 0;
#X connect 8 1 3 0;
#X restore 149 244 pd secondstage;
#X obj 279 206 tgl 15 0 empty empty empty 17 7 0 10 -262144 -1 -1 0
1;
#X obj 289 235 expr 1-$f1;
#X obj 217 310 *~ 0;
#X obj 124 306 *~ 0;
#X obj 279 180 r \$0-2stagesnd;
#N canvas 1 23 450 300 firststage 0;
#X obj 125 46 inlet~;
#X obj 193 47 inlet~;
#X obj 195 109 r \$0-distsnd;
#X obj 278 108 r \$0-filtsnd;
#X obj 243 141 smoother 20;
#X obj 115 249 outlet~;
#X obj 215 249 outlet~;
#X obj 137 169 vcf~ 3;
#X obj 217 169 vcf~ 3;
#X obj 137 139 stereodist;
#X connect 0 0 9 0;
#X connect 1 0 9 1;
#X connect 2 0 9 2;
#X connect 3 0 4 0;
#X connect 4 0 7 1;
#X connect 4 0 8 1;
#X connect 7 0 5 0;
#X connect 8 0 6 0;
#X connect 9 0 7 0;
#X connect 9 1 8 0;
#X restore 123 167 pd firststage;
#X connect 0 0 10 0;
#X connect 1 0 10 1;
#X connect 4 0 2 0;
#X connect 4 1 3 0;
#X connect 5 0 4 2;
#X connect 5 0 6 0;
#X connect 6 0 7 1;
#X connect 6 0 8 1;
#X connect 7 0 3 0;
#X connect 8 0 2 0;
#X connect 9 0 5 0;
#X connect 10 0 4 0;
#X connect 10 0 8 0;
#X connect 10 1 4 1;
#X connect 10 1 7 0;
#X restore 541 602 pd fx;
#X obj 70 17 vsl 20 100 1 110 0 0 \$0-distsnd \$0-distrcv Dist 0 3
0 8 -244544 -260006 -1 200 1;
#X obj 92 17 vsl 20 100 40 15000 1 0 \$0-filtsnd \$0-filtrcv Filt 0
3 0 8 -260394 -260006 -1 7600 1;
#X obj 117 83 tgl 15 0 \$0-2stagesnd \$0-2stagercv 2stage 0 21 0 8
-208320 -259412 -1 0 1;
#X obj 139 15 tgl 15 0 \$0-switchsnd \$0-switchrcv empty 17 7 0 10
-259567 -261773 -1 0 1;
#X obj 91 262 switch~;
#X obj 14 227 r \$0-switchsnd;
#X obj 299 15 tgl 15 0 \$0-switchsnd \$0-switchrcv empty 17 7 0 10
-259567 -261773 -1 0 1;
#X obj 459 15 tgl 15 0 \$0-switchsnd \$0-switchrcv empty 17 7 0 10
-259567 -261773 -1 0 1;
#X obj 14 85 bng 30 250 50 0 empty empty save 3 15 0 10 -261549 -211840
-1;
#X symbolatom 48 122 17 0 0 0 - #0-filedisprcv #0-filedispsnd, f 17
;
#N canvas 218 108 934 473 state_loading 1;
#X obj 126 152 s \$0-levelrcv;
#X obj 126 174 s \$0-distrcv;
#X obj 126 196 s \$0-filtrcv;
#X obj 126 238 s \$0-posmodrcv;
#X obj 126 260 s \$0-2stagercv;
#X obj 126 216 s \$0-ratercv;
#X obj 129 25 loadbang;
#X obj 721 74 s \$0-filenamercv;
#X obj 787 19 bng 15 250 50 0 empty empty empty 17 7 0 10 -262144 -1
-1;
#X obj 125 282 s \$0-switchrcv;
#X obj 236 151 s \$0-attackrcv;
#X obj 236 173 s \$0-decayrcv;
#X obj 236 195 s \$0-sustainrcv;
#X obj 236 217 s \$0-releasercv;
#X obj 236 239 s \$0-startrcv;
#X obj 236 261 s \$0-portrcv;
#X obj 236 283 s \$0-looprcv;
#X obj 353 151 s \$0-autoplayrcv;
#X obj 353 173 s \$0-slice1rcv;
#X obj 353 193 s \$0-slice2rcv;
#X obj 353 213 s \$0-slice3rcv;
#X obj 353 233 s \$0-slice4rcv;
#X obj 353 253 s \$0-slice5rcv;
#X obj 353 273 s \$0-slice6rcv;
#X obj 353 293 s \$0-slice7rcv;
#X obj 353 313 s \$0-slice8rcv;
#X obj 353 335 s \$0-pitchslicercv;
#X obj 129 47 pack \$1 \$2 \$3 \$4 \$5 \$6 \$7 \$8 \$9 \$10 \$11 \$12
\$13 \$14 \$15 \$16 \$17 \$18 \$19 \$20 \$21 \$22 \$23 \$24, f 95
;
#X obj 792 57 symbol \$25;
#X obj 129 69 unpack f f f f f f f f f f f f f f f f f f f f f f f
f, f 86;
#X connect 6 0 27 0;
#X connect 6 0 28 0;
#X connect 8 0 28 0;
#X connect 27 0 29 0;
#X connect 28 0 7 0;
#X connect 29 0 0 0;
#X connect 29 1 1 0;
#X connect 29 2 2 0;
#X connect 29 3 5 0;
#X connect 29 4 3 0;
#X connect 29 5 4 0;
#X connect 29 6 9 0;
#X connect 29 7 10 0;
#X connect 29 8 11 0;
#X connect 29 9 12 0;
#X connect 29 10 13 0;
#X connect 29 11 14 0;
#X connect 29 12 15 0;
#X connect 29 13 16 0;
#X connect 29 14 17 0;
#X connect 29 15 18 0;
#X connect 29 16 19 0;
#X connect 29 17 20 0;
#X connect 29 18 21 0;
#X connect 29 19 22 0;
#X connect 29 20 23 0;
#X connect 29 21 24 0;
#X connect 29 22 25 0;
#X connect 29 23 26 0;
#X restore 16 294 pd state_loading;
#N canvas 278 116 902 486 saving_loading 0;
#X obj 328 284 soundfiler;
#X obj 290 72 openpanel;
#X msg 467 249 read -maxsize 1.323e+07 -resize /Users/ada/Documents/soundlibrary/medasinmicrodose/Fillers___Loops/MM_-_FILLER_-_G_-_88.wav
1153-samp1L 1153-samp1R;
#X obj 345 125 f \$0;
#X msg 365 170 add2 \$1-samp1L;
#X obj 345 147 t f f;
#X msg 368 190 add2 \$1-samp1R;
#X obj 329 315 s \$0-sampsize;
#X obj 178 233 moonlib/basedir;
#X obj 179 290 pack s \$0;
#X obj 178 255 unpack s s;
#X obj 70 15 inlet save;
#X obj 254 29 inlet load;
#X obj 79 63 savepanel;
#X obj 79 85 pack s \$0;
#X msg 79 107 write \$1 \$2-samp1L \$2-samp1R;
#X obj 82 133 soundfiler;
#X obj 397 36 r \$0-filenamercv;
#X obj 408 102 s \$0-filenamesnd;
#X obj 29 175 s \$0-filenamesnd;
#X msg 179 312 \; \$2-filedisprcv set \$1;
#X msg 497 168 set;
#X obj 440 78 print;
#X obj 290 94 t b b a b;
#X msg 321 216 set read -maxsize 1.323e+07 -resize \$1;
#X obj 446 314 f \$0;
#X msg 446 336 \; \$1-samp1L normalize \; \$1-samp1R normalize \;;
#X obj 412 295 bang;
#X connect 0 0 7 0;
#X connect 0 0 27 0;
#X connect 1 0 18 0;
#X connect 1 0 23 0;
#X connect 2 0 0 0;
#X connect 3 0 5 0;
#X connect 4 0 2 0;
#X connect 5 0 6 0;
#X connect 5 1 4 0;
#X connect 6 0 2 0;
#X connect 8 0 10 0;
#X connect 9 0 20 0;
#X connect 10 0 9 0;
#X connect 11 0 13 0;
#X connect 12 0 1 0;
#X connect 13 0 14 0;
#X connect 13 0 19 0;
#X connect 14 0 15 0;
#X connect 15 0 16 0;
#X connect 17 0 22 0;
#X connect 17 0 23 0;
#X connect 17 0 18 0;
#X connect 21 0 2 0;
#X connect 23 0 2 0;
#X connect 23 1 3 0;
#X connect 23 2 24 0;
#X connect 23 2 8 0;
#X connect 23 3 21 0;
#X connect 24 0 2 0;
#X connect 25 0 26 0;
#X connect 27 0 25 0;
#X restore 13 179 pd saving_loading;
#N canvas 567 111 669 398 state_saving 1;
#X obj 114 324 outlet;
#X obj 63 27 r \$0-levelsnd;
#X obj 79 47 r \$0-distsnd;
#X obj 95 67 r \$0-filtsnd;
#X obj 115 87 r \$0-ratesnd;
#X obj 128 108 r \$0-posmodsnd;
#X obj 144 131 r \$0-2stagesnd;
#X obj 502 234 r \$0-filenamesnd;
#X obj 502 256 t b s;
#X obj 167 155 r \$0-switchsnd;
#X obj 208 19 r \$0-attacksnd;
#X obj 223 40 r \$0-decaysnd;
#X obj 235 62 r \$0-sustainsnd;
#X obj 246 84 r \$0-releasesnd;
#X obj 254 106 r \$0-startsnd;
#X obj 262 127 r \$0-portsnd;
#X obj 269 147 r \$0-loopsnd;
#X obj 365 22 r \$0-autoplaysnd;
#X obj 377 43 r \$0-slice1snd;
#X obj 386 63 r \$0-slice2snd;
#X obj 397 83 r \$0-slice3snd;
#X obj 407 103 r \$0-slice4snd;
#X obj 418 123 r \$0-slice5snd;
#X obj 427 143 r \$0-slice6snd;
#X obj 437 163 r \$0-slice7snd;
#X obj 447 183 r \$0-slice8snd;
#X obj 459 205 r \$0-pitchslicesnd;
#X obj 113 237 cyclone/bondo 24, f 54;
#X obj 117 302 pack f f f f f f f f f f f f f f f f f f f f f f f f
s;
#X connect 1 0 27 0;
#X connect 2 0 27 1;
#X connect 3 0 27 2;
#X connect 4 0 27 3;
#X connect 5 0 27 4;
#X connect 6 0 27 5;
#X connect 7 0 8 0;
#X connect 8 0 28 0;
#X connect 8 1 28 24;
#X connect 9 0 27 6;
#X connect 10 0 27 7;
#X connect 11 0 27 8;
#X connect 12 0 27 9;
#X connect 13 0 27 10;
#X connect 14 0 27 11;
#X connect 15 0 27 12;
#X connect 16 0 27 13;
#X connect 17 0 27 14;
#X connect 18 0 27 15;
#X connect 19 0 27 16;
#X connect 20 0 27 17;
#X connect 21 0 27 18;
#X connect 22 0 27 19;
#X connect 23 0 27 20;
#X connect 24 0 27 21;
#X connect 25 0 27 22;
#X connect 26 0 27 23;
#X connect 27 0 28 0;
#X connect 27 1 28 1;
#X connect 27 2 28 2;
#X connect 27 3 28 3;
#X connect 27 4 28 4;
#X connect 27 5 28 5;
#X connect 27 6 28 6;
#X connect 27 7 28 7;
#X connect 27 8 28 8;
#X connect 27 9 28 9;
#X connect 27 10 28 10;
#X connect 27 11 28 11;
#X connect 27 12 28 12;
#X connect 27 13 28 13;
#X connect 27 14 28 14;
#X connect 27 15 28 15;
#X connect 27 16 28 16;
#X connect 27 17 28 17;
#X connect 27 18 28 18;
#X connect 27 19 28 19;
#X connect 27 20 28 20;
#X connect 27 21 28 21;
#X connect 27 22 28 22;
#X connect 27 23 28 23;
#X connect 28 0 0 0;
#X restore 16 316 pd state_saving;
#X obj 16 338 canvasargs;
#X text 731 39 Note: Spaces in file names are still very badly handled!
recommend not having any.;
#X obj 338 16 bng 15 250 50 0 \$0-viewsamplessnd empty view 17 7 0
10 -259992 -261750 -1;
#X obj 555 47 r \$0-viewsamplessnd;
#N canvas 0 23 350 510 \$0-samples 0;
#X obj 7 9 cnv 15 330 465 empty empty empty 20 12 0 14 -155129 -66577
0;
#X obj 23 32 hsl 295 320 0 100 0 0 \$0-positionsnd \$0-positionrcv
empty -2 -8 0 10 -190656 -241472 -1 17179 1;
#N canvas 0 22 450 278 (subpatch) 0;
#X array \$0-samp1L 86980 float 2;
#X coords 0 1 86980 -1 300 150 1 0 0;
#X restore 20 32 graph;
#N canvas 0 22 450 278 (subpatch) 0;
#X array \$0-samp1R 86980 float 2;
#X coords 0 1 86980 -1 300 150 1 0 0;
#X restore 20 202 graph;
#X obj 24 359 hsl 295 10 0 1 0 0 \$0-startsnd \$0-startrcv start 15
4 0 10 -101504 -256853 -1 9116 1;
#X obj 24 375 hsl 295 9 0 1 0 0 \$0-slice1snd \$0-slice1rcv slice_1
15 4 0 7 -210742 -253394 -262144 4191 1;
#X obj 24 386 hsl 295 9 0 1 0 0 \$0-slice2snd \$0-slice2rcv slice_2
15 4 0 7 -210742 -253394 -1 13902 1;
#X obj 24 397 hsl 295 9 0 1 0 0 \$0-slice3snd \$0-slice3rcv slice_3
15 4 0 7 -210742 -253394 -1 20740 1;
#X obj 24 408 hsl 295 9 0 1 0 0 \$0-slice4snd \$0-slice4rcv slice_4
15 4 0 7 -210742 -253394 -1 15726 1;
#X obj 24 419 hsl 295 9 0 1 0 0 \$0-slice5snd \$0-slice5rcv slice_5
15 4 0 7 -210742 -253394 -1 5926 1;
#X obj 24 430 hsl 295 9 0 1 0 0 \$0-slice6snd \$0-slice6rcv slice_6
15 4 0 7 -210742 -253394 -1 8888 1;
#X obj 24 441 hsl 295 9 0 1 0 0 \$0-slice7snd \$0-slice7rcv slice_7
15 4 0 7 -210742 -253394 -1 22563 1;
#X obj 24 452 hsl 295 9 0 1 0 0 \$0-slice8snd \$0-slice8rcv slice_8
15 4 0 7 -210742 -253394 -1 19144 1;
#X restore 555 127 pd \$0-samples;
#X obj 555 69 f \$0;
#X msg 555 91 \; pd-\$1-samples vis 1;
#X obj 48 139 bng 15 250 50 0 \$0-viewsamplessnd empty view 17 7 0
10 -259992 -261750 -1;
#X text 554 29 view samples;
#X obj 528 385 *~;
#X obj 528 301 expr ($f1/100)/($f2/$f3);
#X obj 530 500 *~ 1;
#X obj 117 60 bng 20 250 50 0 \$0-trigsnd empty tr 4 9 0 10 -136640
-260331 -1;
#X obj 207 193 r \$0-trigsnd;
#X msg 582 468 0;
#X msg 686 420 0;
#X msg 499 381 1;
#X msg 437 382 0.310078;
#X obj 530 530 tabread4~ \$0-samp1L;
#X obj 582 488 spigot;
#X obj 175 139 tgl 15 1 \$0-loopsnd \$0-looprcv loop 17 7 0 10 -89664
-261963 -1 0 1;
#X obj 635 475 r \$0-loopsnd;
#X obj 635 497 == 0;
#X obj 450 266 r \$0-loopsnd;
#X obj 450 288 sel 1;
#X obj 639 369 r \$0-loopsnd;
#X obj 639 391 sel 0;
#X obj 785 266 samplerate~;
#X obj 785 244 loadbang;
#X text 734 452 looping on/off;
#X obj 175 26 vsl 13 70 0.01 2000 1 1 \$0-attacksnd \$0-attackrcv a
3 -9 0 12 -253376 -259674 -1 900 1;
#X obj 887 349 r \$0-attacksnd;
#X obj 190 26 vsl 13 70 5 2000 1 1 \$0-decaysnd \$0-decayrcv d 3 -9
0 12 -182784 -259674 -1 2800 1;
#X obj 205 26 vsl 13 70 0 1 0 1 \$0-sustainsnd \$0-sustainrcv s 3 -9
0 12 -260787 -259674 -1 0 1;
#X obj 220 26 vsl 13 70 2 2000 1 1 \$0-releasesnd \$0-releasercv r
3 -9 0 12 -174976 -259674 -1 1500 1;
#X obj 916 371 r \$0-decaysnd;
#X obj 945 396 r \$0-sustainsnd;
#X obj 974 416 r \$0-releasesnd;
#X obj 887 455 cyclone/bondo 4;
#X obj 887 477 pack f f f f, f 15;
#X obj 207 236 makenote 127 80;
#X msg 207 214 64;
#X obj 582 447 threshold~ 0.999 10 -1 10;
#X obj 342 345 stripnote;
#X obj 207 258 pack f f;
#X obj 464 355 t b b;
#X obj 287 371 unpack f f;
#X obj 534 630 adsr 1;
#X obj 580 629 adsr 1;
#N canvas 0 22 450 300 playhead_display 0;
#X obj 145 167 snapshot~;
#X obj 145 143 metro 25;
#X obj 145 190 expr $f1 * (100/$f2);
#X obj 145 99 loadbang;
#X msg 145 121 1;
#X obj 145 212 s \$0-positionrcv;
#X text 81 116 display playback position, f 9;
#X obj 247 63 inlet~;
#X obj 277 121 r \$0-sampsize;
#X connect 0 0 2 0;
#X connect 1 0 0 0;
#X connect 2 0 5 0;
#X connect 3 0 4 0;
#X connect 4 0 1 0;
#X connect 7 0 0 0;
#X connect 8 0 2 1;
#X restore 344 544 pd playhead_display;
#X obj 317 205 inlet midinote;
#X obj 528 323 * 1;
#X obj 287 418 midiratio;
#X obj 287 440 t b f;
#X obj 287 393 - 64;
#X obj 190 350 s \$0-deloop;
#X obj 190 328 bang;
#X obj 685 400 r \$0-deloop;
#X obj 178 113 hsl 130 10 0 1 0 1 \$0-startsnd \$0-startrcv start 15
6 0 8 -101504 -256853 -1 4000 1;
#X obj 420 309 r \$0-startsnd;
#X obj 221 139 tgl 15 1 \$0-autoplaysnd \$0-autoplayrcv auto 17 7 0
10 -261234 -260118 -1 0 1;
#X obj 726 609 r \$0-autoplaysnd;
#X msg 823 116 set \$1;
#X obj 823 94 r \$0-startsnd;
#X obj 823 138 s \$0-startrcv;
#X obj 529 454 +~ 1;
#X msg 420 331 set \$1;
#N canvas 0 22 450 300 switch 0;
#X msg 125 92 set \$1;
#X obj 125 114 s \$0-switchrcv;
#X msg 37 152 195 205 214;
#X obj 37 174 rgb, f 8;
#X obj 37 199 pack f \$0;
#X msg 37 221 \; \$2-cnvrcv color \$1;
#X msg 43 123 239 151 208;
#X obj 32 82 sel 1 0;
#X obj 53 24 inlet;
#X connect 0 0 1 0;
#X connect 2 0 3 0;
#X connect 3 0 4 0;
#X connect 4 0 5 0;
#X connect 6 0 3 0;
#X connect 7 0 6 0;
#X connect 7 1 2 0;
#X connect 8 0 7 0;
#X connect 8 0 0 0;
#X restore 14 262 pd switch;
#X obj 178 125 hsl 130 10 0 500 0 1 \$0-portsnd \$0-portrcv portamento
15 6 0 8 -162560 -256853 -1 5000 1;
#X obj 598 337 r \$0-portsnd;
#X obj 538 661 adamux~, f 9;
#X obj 340 40 hsl 130 9 0 1 0 0 \$0-slice1snd \$0-slice1rcv slice_1
15 4 0 7 -210742 -253394 -262144 1839 1;
#X obj 340 51 hsl 130 9 0 1 0 0 \$0-slice2snd \$0-slice2rcv slice_2
15 4 0 7 -210742 -253394 -1 6100 1;
#X obj 340 62 hsl 130 9 0 1 0 0 \$0-slice3snd \$0-slice3rcv slice_3
15 4 0 7 -210742 -253394 -1 9100 1;
#X obj 340 73 hsl 130 9 0 1 0 0 \$0-slice4snd \$0-slice4rcv slice_4
15 4 0 7 -210742 -253394 -1 6900 1;
#X obj 340 84 hsl 130 9 0 1 0 0 \$0-slice5snd \$0-slice5rcv slice_5
15 4 0 7 -210742 -253394 -1 2600 1;
#X obj 340 95 hsl 130 9 0 1 0 0 \$0-slice6snd \$0-slice6rcv slice_6
15 4 0 7 -210742 -253394 -1 3900 1;
#X obj 340 106 hsl 130 9 0 1 0 0 \$0-slice7snd \$0-slice7rcv slice_7
15 4 0 7 -210742 -253394 -1 9900 1;
#X obj 340 117 hsl 130 9 0 1 0 0 \$0-slice8snd \$0-slice8rcv slice_8
15 4 0 7 -210742 -253394 -1 8400 1;
#X obj 887 399 - 0.01;
#X obj 218 286 thru notevelpair;
#X obj 337 131 tgl 15 1 \$0-pitchslicesnd \$0-pitchslicercv pitch/slice
17 7 0 8 -260470 -225152 -1 1 1;
#X obj 243 310 adademux;
#X obj 339 225 r \$0-pitchslicesnd;
#N canvas 684 23 446 379 slices 0;
#X obj 72 12 inlet;
#X obj 205 97 r \$0-slice1snd;
#X obj 215 117 r \$0-slice2snd;
#X obj 225 137 r \$0-slice3snd;
#X obj 235 157 r \$0-slice4snd;
#X obj 305 97 r \$0-slice5snd;
#X obj 315 117 r \$0-slice6snd;
#X obj 325 137 r \$0-slice7snd;
#X obj 335 157 r \$0-slice8snd;
#X obj 86 240 f 0;
#X obj 115 240 f 0;
#X obj 145 240 f 0;
#X obj 175 240 f 0;
#X obj 205 240 f 0;
#X obj 235 240 f 0;
#X obj 265 240 f 0;
#X obj 295 240 f 0;
#X obj 122 289 outlet slice;
#X obj 72 79 unpack f f;
#X obj 72 101 - 64;
#X obj 72 124 mod 8;
#X obj 72 146 sel 0 1 2 3 4 5 6 7;
#X obj 264 343 outlet deloop;
#X msg 264 311 1;
#X obj 72 34 stripnote;
#X obj 72 56 pack f f;
#N canvas 100 171 697 307 blink 0;
#X obj 139 8 inlet;
#X obj 283 144 rgb, f 4;
#X msg 353 121 204 112 215;
#X obj 118 133 makefilename \$0-slice%drcv;
#X obj 466 147 rgb;
#X obj 139 59 t f b b;
#X obj 274 200 pack s f f;
#X msg 277 240 \; \$1 color \$2 \$3;
#X obj 139 30 + 1;
#X obj 298 63 t f b b;
#X msg 530 120 244 221 68;
#X obj 298 41 pipe 75;
#X msg 464 121 222 21 68;
#X msg 273 119 255 59 244;
#X connect 0 0 8 0;
#X connect 1 0 6 1;
#X connect 2 0 1 0;
#X connect 3 0 6 0;
#X connect 4 0 6 2;
#X connect 5 0 3 0;
#X connect 5 1 13 0;
#X connect 5 2 12 0;
#X connect 6 0 7 0;
#X connect 8 0 5 0;
#X connect 8 0 11 0;
#X connect 9 0 3 0;
#X connect 9 1 2 0;
#X connect 9 2 10 0;
#X connect 10 0 4 0;
#X connect 11 0 9 0;
#X connect 12 0 4 0;
#X connect 13 0 1 0;
#X restore 345 227 pd blink;
#X connect 0 0 24 0;
#X connect 1 0 9 1;
#X connect 2 0 10 1;
#X connect 3 0 11 1;
#X connect 4 0 12 1;
#X connect 5 0 13 1;
#X connect 6 0 14 1;
#X connect 7 0 15 1;
#X connect 8 0 16 1;
#X connect 9 0 17 0;
#X connect 10 0 17 0;
#X connect 11 0 17 0;
#X connect 12 0 17 0;
#X connect 13 0 17 0;
#X connect 14 0 17 0;
#X connect 15 0 17 0;
#X connect 16 0 17 0;
#X connect 18 0 19 0;
#X connect 19 0 20 0;
#X connect 20 0 21 0;
#X connect 20 0 26 0;
#X connect 21 0 9 0;
#X connect 21 1 10 0;
#X connect 21 2 11 0;
#X connect 21 3 12 0;
#X connect 21 4 13 0;
#X connect 21 5 14 0;
#X connect 21 6 15 0;
#X connect 21 7 16 0;
#X connect 23 0 22 0;
#X connect 24 0 25 0;
#X connect 24 1 25 1;
#X connect 24 1 23 0;
#X connect 25 0 18 0;
#X restore 346 314 pd slices;
#X text 178 385 notedowns reset phase \, notedowns AND noteups go to
adsr, f 16;
#N canvas 0 22 450 300 synchronise_slices 0;
#X obj 122 27 r \$0-slice1snd;
#X obj 132 47 r \$0-slice2snd;
#X obj 142 67 r \$0-slice3snd;
#X obj 152 87 r \$0-slice4snd;
#X obj 229 27 r \$0-slice5snd;
#X obj 239 47 r \$0-slice6snd;
#X obj 249 67 r \$0-slice7snd;
#X obj 259 87 r \$0-slice8snd;
#X obj 122 218 s \$0-slice1rcv;
#X obj 132 238 s \$0-slice2rcv;
#X obj 142 258 s \$0-slice3rcv;
#X obj 152 278 s \$0-slice4rcv;
#X obj 229 218 s \$0-slice5rcv;
#X obj 239 238 s \$0-slice6rcv;
#X obj 249 258 s \$0-slice7rcv;
#X obj 259 278 s \$0-slice8rcv;
#X msg 122 128 set \$1;
#X msg 132 148 set \$1;
#X msg 142 168 set \$1;
#X msg 152 188 set \$1;
#X msg 229 128 set \$1;
#X msg 239 148 set \$1;
#X msg 249 168 set \$1;
#X msg 259 188 set \$1;
#X connect 0 0 16 0;
#X connect 1 0 17 0;
#X connect 2 0 18 0;
#X connect 3 0 19 0;
#X connect 4 0 20 0;
#X connect 5 0 21 0;
#X connect 6 0 22 0;
#X connect 7 0 23 0;
#X connect 16 0 8 0;
#X connect 17 0 9 0;
#X connect 18 0 10 0;
#X connect 19 0 11 0;
#X connect 20 0 12 0;
#X connect 21 0 13 0;
#X connect 22 0 14 0;
#X connect 23 0 15 0;
#X restore 960 98 pd synchronise_slices;
#N canvas 0 22 450 300 setto64 0;
#X obj 140 82 inlet;
#X obj 140 104 unpack f f;
#X obj 140 181 pack 64 f;
#X obj 166 137 t b f;
#X obj 140 203 outlet;
#X connect 0 0 1 0;
#X connect 1 1 3 0;
#X connect 2 0 4 0;
#X connect 3 0 2 0;
#X connect 3 1 2 1;
#X restore 280 343 pd setto64;
#X obj 342 257 striptease;
#X connect 3 0 4 0;
#X connect 3 0 93 0;
#X connect 4 0 116 0;
#X connect 5 0 60 0;
#X connect 9 0 49 1;
#X connect 10 0 60 1;
#X connect 11 0 23 0;
#X connect 12 0 23 1;
#X connect 13 0 17 0;
#X connect 14 0 20 0;
#X connect 16 0 23 3;
#X connect 16 0 37 0;
#X connect 17 0 23 4;
#X connect 17 0 37 1;
#X connect 20 0 61 0;
#X connect 20 1 4 1;
#X connect 20 1 61 1;
#X connect 21 0 3 1;
#X connect 22 0 10 0;
#X connect 24 0 61 0;
#X connect 32 0 7 0;
#X connect 33 0 8 0;
#X connect 34 0 35 0;
#X connect 35 0 33 1;
#X connect 35 0 32 1;
#X connect 37 0 98 0;
#X connect 37 0 121 2;
#X connect 37 1 99 0;
#X connect 37 1 121 3;
#X connect 43 0 42 0;
#X connect 43 0 118 0;
#X connect 46 0 49 0;
#X connect 50 0 51 0;
#X connect 54 0 56 0;
#X connect 56 0 57 0;
#X connect 60 0 3 0;
#X connect 61 0 102 0;
#X connect 62 0 13 0;
#X connect 62 0 69 0;
#X connect 62 0 100 0;
#X connect 62 0 23 2;
#X connect 64 0 92 0;
#X connect 65 0 70 0;
#X connect 66 0 93 1;
#X connect 67 0 62 1;
#X connect 68 0 3 1;
#X connect 69 0 16 0;
#X connect 70 0 62 1;
#X connect 72 0 73 0;
#X connect 73 0 70 1;
#X connect 74 0 75 0;
#X connect 75 0 67 0;
#X connect 76 0 77 0;
#X connect 77 0 66 0;
#X connect 78 0 61 2;
#X connect 79 0 78 0;
#X connect 82 0 130 0;
#X connect 86 0 89 1;
#X connect 87 0 89 2;
#X connect 88 0 89 3;
#X connect 89 0 90 0;
#X connect 89 1 90 1;
#X connect 89 2 90 2;
#X connect 89 3 90 3;
#X connect 90 0 98 2;
#X connect 90 0 99 2;
#X connect 91 0 95 0;
#X connect 91 1 95 1;
#X connect 92 0 91 0;
#X connect 93 0 65 0;
#X connect 94 1 96 0;
#X connect 95 0 131 0;
#X connect 96 0 68 0;
#X connect 96 1 67 0;
#X connect 97 0 105 0;
#X connect 97 1 98 1;
#X connect 97 1 99 1;
#X connect 98 0 121 0;
#X connect 99 0 121 1;
#X connect 101 0 139 0;
#X connect 102 0 5 0;
#X connect 103 0 104 0;
#X connect 104 0 61 0;
#X connect 104 1 102 1;
#X connect 105 0 103 0;
#X connect 107 0 106 0;
#X connect 108 0 66 0;
#X connect 110 0 117 0;
#X connect 112 0 121 4;
#X connect 113 0 115 0;
#X connect 114 0 113 0;
#X connect 116 0 62 0;
#X connect 117 0 68 0;
#X connect 120 0 5 1;
#X connect 121 0 32 0;
#X connect 121 1 33 0;
#X connect 130 0 89 0;
#X connect 131 0 107 0;
#X connect 131 0 133 0;
#X connect 133 0 94 0;
#X connect 133 0 97 0;
#X connect 133 1 135 0;
#X connect 133 1 138 0;
#X connect 134 0 133 1;
#X connect 135 0 3 1;
#X connect 135 1 62 1;
#X connect 138 0 97 0;
#X connect 139 0 131 0;
#X coords 0 -1 1 1 150 150 2 10 10;
