#N canvas 655 316 1130 341 12;
#X obj 27 59 inlet kv;
#X obj 126 61 inlet~ pitchmod;
#X obj 276 64 inlet~ startmod;
#X obj 346 304 outlet~;
#N canvas 572 118 1033 638 phase 0;
#X obj 215 436 r \$0-numsamples;
#X obj 165 556 *~;
#X obj 167 206 r \$0-unityspeed;
#X obj 167 270 *;
#X obj 164 599 outlet~;
#X obj 167 250 f;
#X obj 167 229 t b f;
#X obj 104 185 r \$0-playbackspeedsnd;
#X obj 104 207 / 100;
#X obj 165 418 phasor~ 1;
#X obj 573 17 inlet~ starttimemod;
#X obj 508 206 r \$0-starttimesnd;
#X obj 508 228 / 1000;
#X obj 368 209 f;
#X obj 368 234 + 0;
#X obj 368 149 t b b;
#X obj 426 176 snapshot~;
#X obj 426 198 * 0.5;
#X text 579 111 scale to 0-1 and add to start time control;
#X obj 368 262 max 0;
#X obj 415 15 inlet~ pitchlog;
#X obj 305 40 *~ 60;
#X obj 168 345 *~;
#X obj 288 71 midiratio~;
#X msg 338 371 0;
#X obj 338 396 spigot;
#X msg 295 371 1;
#X msg 543 293 0;
#X obj 440 377 s \$0-declickbang;
#X obj 339 346 t b b;
#X obj 167 370 *~ 1;
#X obj 339 322 threshold~ 0.99 10 -1 10;
#X obj 576 465 r \$0-loopsnd;
#X obj 576 489 == 0;
#X obj 183 148 midiratio;
#X obj 181 97 - 64;
#X obj 168 319 smoother 10;
#X obj 168 299 *;
#X obj 181 118 t f b;
#X text 429 247 sample start time modifier and apply to phase of phasor
;
#X floatatom 266 276 5 0 0 0 - - -, f 5;
#X obj 363 513 numscope;
#X obj 750 17 inlet starttimecontrol;
#X obj 774 34 inlet playbackspeedcontrol;
#X obj 805 54 inlet numsamples;
#X obj 829 76 inlet unityspeed;
#X obj 848 99 inlet loopcontrol;
#X obj 43 12 inlet keyfromkv;
#X connect 0 0 1 1;
#X connect 1 0 4 0;
#X connect 2 0 6 0;
#X connect 3 0 37 1;
#X connect 5 0 3 0;
#X connect 6 0 5 0;
#X connect 6 1 3 1;
#X connect 7 0 8 0;
#X connect 8 0 5 0;
#X connect 9 0 1 0;
#X connect 9 0 31 0;
#X connect 10 0 16 0;
#X connect 11 0 12 0;
#X connect 12 0 13 1;
#X connect 13 0 14 0;
#X connect 14 0 19 0;
#X connect 15 0 13 0;
#X connect 15 1 16 0;
#X connect 15 1 27 0;
#X connect 15 1 26 0;
#X connect 16 0 17 0;
#X connect 17 0 14 1;
#X connect 19 0 9 1;
#X connect 20 0 21 0;
#X connect 21 0 23 0;
#X connect 22 0 30 0;
#X connect 23 0 22 1;
#X connect 24 0 25 0;
#X connect 25 0 30 1;
#X connect 26 0 30 1;
#X connect 27 0 31 1;
#X connect 29 0 24 0;
#X connect 29 1 28 0;
#X connect 30 0 9 0;
#X connect 31 0 29 0;
#X connect 32 0 33 0;
#X connect 33 0 25 1;
#X connect 34 0 37 0;
#X connect 35 0 38 0;
#X connect 36 0 22 0;
#X connect 37 0 36 0;
#X connect 37 0 40 0;
#X connect 38 0 34 0;
#X connect 38 1 15 0;
#X connect 42 0 12 0;
#X connect 43 0 8 0;
#X connect 44 0 1 1;
#X connect 45 0 6 0;
#X connect 46 0 33 0;
#X connect 47 0 35 0;
#X restore 305 161 pd phase;
#X obj 347 221 tabread4~ \$2;
#X obj 428 61 inlet starttimecontrol;
#X obj 438 82 inlet playbackspeedcontrol;
#X obj 460 104 inlet numsamples;
#X obj 475 126 inlet unityspeed;
#X obj 485 146 inlet loopcontrol;
#X obj 398 275 adsr;
#X obj 636 213 loadbang;
#X msg 636 234 5 10 1 10;
#X obj 301 104 stripnote;
#X obj 112 151 unpack f f;
#X connect 0 0 14 0;
#X connect 0 0 15 0;
#X connect 1 0 4 1;
#X connect 2 0 4 2;
#X connect 4 0 5 0;
#X connect 5 0 11 0;
#X connect 6 0 4 3;
#X connect 7 0 4 4;
#X connect 8 0 4 5;
#X connect 9 0 4 6;
#X connect 10 0 4 7;
#X connect 11 0 3 0;
#X connect 12 0 13 0;
#X connect 13 0 11 2;
#X connect 14 0 4 0;
#X connect 15 1 11 1;
