#N canvas 62 196 799 464 10;
#X obj 12 12 cnv 15 146 41 empty empty empty 20 12 0 14 -42553 -66577
0;
#X obj 224 100 lop~ 5000;
#X obj 273 268 mtof;
#X obj 248 292 osc~;
#X obj 285 389 *~;
#X obj 455 100 dbtorms;
#X obj 222 26 inlet~;
#X obj 266 422 outlet~;
#X obj 224 78 hip~ 50;
#X obj 442 145 max 0;
#X obj 435 221 *~ 0.8;
#X obj 237 318 *~ 0.5;
#X obj 442 123 - 0.15;
#X obj 207 244 + 0;
#X obj 232 220 * 12;
#X obj 192 144 t f b;
#X obj 290 137 random;
#X obj 337 108 r \$0-randomsnd;
#X obj 267 201 +;
#X obj 435 192 smoother 5;
#X obj 348 78 fiddle~ 4096 1 50;
#X obj 296 291 cyclone/saw~;
#X obj 402 249 cyclone/rampsmooth~ 0 40000;
#X obj 606 188 * 44.1;
#X obj 612 135 r \$0-decaytimesnd;
#X obj 495 27 loadbang;
#X obj 337 8 inlet kv;
#X obj 337 30 striptease;
#X obj 337 52 unpack f f;
#X obj 498 52 / 127;
#X obj 498 74 smoother 5;
#X obj 532 149 >= 0.2;
#X obj 370 316 >~ 0;
#X obj 370 338 *~ 2;
#X obj 370 360 -~ 1;
#X floatatom 52 180 5 0 0 0 index #0-indexrcv #0-indexsnd, f 5;
#N canvas 384 217 549 320 state_saving 0;
#X obj 97 53 loadbang;
#X msg 97 75 load savestate.pd_lua;
#X obj 97 97 pdlua;
#X obj 104 223 outlet;
#X obj 277 109 pack \$1 \$2 \$3 \$4 \$5;
#X obj 86 164 savestate \$0-index \$0-octave \$0-decaytime \$0-random
\$0-detune;
#X connect 0 0 1 0;
#X connect 0 0 4 0;
#X connect 1 0 2 0;
#X connect 4 0 5 0;
#X connect 5 0 3 0;
#X restore 42 267 pd state_saving;
#X obj 42 289 canvasargs;
#X obj 404 292 osc~;
#X obj 452 291 cyclone/saw~;
#X obj 342 256 + 0.01;
#X obj 313 176 r \$0-octavesnd;
#X obj 433 396 *~;
#X obj 433 418 outlet~;
#X obj 356 231 / 1000;
#X obj 357 207 r \$0-detunesnd;
#X obj 404 314 *~ 0.5;
#X obj 278 178 int;
#X obj 278 156 cyclone/scale 0 100 0 4 2;
#X obj 42 22 nbx 3 14 -1e+37 1e+37 0 0 \$0-octavesnd \$0-octavercv
oct -20 6 0 10 -158784 -110899 -150972 -2 256;
#X obj 108 22 nbx 3 14 -1e+37 1e+37 0 0 \$0-decaytimesnd \$0-decaytimercv
dec -20 6 0 10 -198528 -123547 -232384 36 256;
#X obj 42 38 nbx 3 14 -1e+37 1e+37 0 0 \$0-randomsnd \$0-randomrcv
rand -26 6 0 10 -124666 -229247 -260532 78 256;
#X obj 108 38 nbx 3 14 -1e+37 1e+37 0 0 \$0-detunesnd \$0-detunercv
det -20 6 0 10 -261247 -172693 -223298 66 256;
#X obj 13 12 cnv 8 70 8 empty empty ~ 2 5 0 10 -122425 -258113 0;
#X obj 74 12 cnv 8 50 8 empty empty k/v 2 5 0 8 -122425 -1 0;
#X obj 108 12 cnv 8 50 8 empty empty ctrl 30 5 0 8 -122425 -1 0;
#X obj 618 30 inlet ctrl;
#N canvas 330 164 224 166 ctrl 0;
#X obj 17 42 route oct dec rand det;
#X obj 17 17 inlet;
#X obj 17 64 s \$0-octavercv;
#X obj 17 86 s \$0-decaytimercv;
#X obj 17 108 s \$0-randomrcv;
#X obj 17 130 s \$0-detunercv;
#X connect 0 0 2 0;
#X connect 0 1 3 0;
#X connect 0 2 4 0;
#X connect 0 3 5 0;
#X connect 1 0 0 0;
#X restore 618 52 pd ctrl;
#X connect 1 0 20 0;
#X connect 2 0 3 0;
#X connect 2 0 21 0;
#X connect 2 0 40 0;
#X connect 3 0 11 0;
#X connect 4 0 7 0;
#X connect 5 0 12 0;
#X connect 6 0 8 0;
#X connect 8 0 1 0;
#X connect 9 0 31 0;
#X connect 9 0 19 0;
#X connect 10 0 22 0;
#X connect 11 0 4 0;
#X connect 12 0 9 0;
#X connect 13 0 2 0;
#X connect 14 0 13 1;
#X connect 15 0 13 0;
#X connect 15 1 16 0;
#X connect 16 0 48 0;
#X connect 17 0 16 1;
#X connect 18 0 14 0;
#X connect 19 0 10 0;
#X connect 20 0 15 0;
#X connect 20 3 5 0;
#X connect 21 0 32 0;
#X connect 22 0 4 1;
#X connect 22 0 42 1;
#X connect 23 0 22 2;
#X connect 24 0 23 0;
#X connect 26 0 27 0;
#X connect 27 0 28 0;
#X connect 28 0 2 0;
#X connect 28 1 29 0;
#X connect 29 0 30 0;
#X connect 30 0 10 0;
#X connect 32 0 33 0;
#X connect 33 0 34 0;
#X connect 34 0 4 0;
#X connect 36 0 37 0;
#X connect 38 0 46 0;
#X connect 39 0 42 0;
#X connect 40 0 38 0;
#X connect 40 0 39 0;
#X connect 41 0 18 1;
#X connect 42 0 43 0;
#X connect 44 0 40 1;
#X connect 45 0 44 0;
#X connect 46 0 42 0;
#X connect 47 0 18 0;
#X connect 48 0 47 0;
#X connect 56 0 57 0;
#X coords 0 -1 1 1 150 45 2 10 10;
