#N canvas 62 196 799 464 10;
#X obj 224 100 lop~ 5000;
#X obj 273 268 mtof;
#X obj 248 292 osc~;
#X obj 285 389 *~;
#X obj 455 100 dbtorms;
#X obj 222 26 inlet~;
#X obj 266 422 outlet~;
#X obj 224 78 hip~ 50;
#X obj 442 145 max 0;
#X obj 435 221 *~ 0.8;
#X obj 237 318 *~ 0.5;
#X obj 442 123 - 0.15;
#X floatatom 44 19 5 -2 2 0 oct #0-octavercv #0-octavesnd, f 5;
#X obj 207 244 + 0;
#X obj 232 220 * 12;
#X obj 192 144 t f b;
#X floatatom 45 40 5 0 1000 0 rand #0-randomrcv #0-randomsnd, f 5
;
#X obj 290 137 random;
#X obj 337 108 r \$0-randomsnd;
#X obj 267 201 +;
#X obj 435 192 smoother 5;
#X obj 348 78 fiddle~ 4096 1 50;
#X obj 296 291 cyclone/saw~;
#X obj 402 249 cyclone/rampsmooth~ 0 40000;
#X floatatom 110 20 5 0 1500 0 dec #0-decaytimercv #0-decaytimesnd
, f 5;
#X obj 606 188 * 44.1;
#X obj 612 135 r \$0-decaytimesnd;
#X obj 495 27 loadbang;
#X obj 337 8 inlet kv;
#X obj 337 30 striptease;
#X obj 337 52 unpack f f;
#X obj 498 52 / 127;
#X obj 498 74 smoother 5;
#X obj 532 149 >= 0.2;
#X obj 370 316 >~ 0;
#X obj 370 338 *~ 2;
#X obj 370 360 -~ 1;
#X floatatom 52 180 5 0 0 0 index #0-indexrcv #0-indexsnd, f 5;
#N canvas 384 217 549 320 state_saving 0;
#X obj 97 53 loadbang;
#X msg 97 75 load savestate.pd_lua;
#X obj 97 97 pdlua;
#X obj 104 223 outlet;
#X obj 277 109 pack \$1 \$2 \$3 \$4 \$5;
#X obj 86 164 savestate \$0-index \$0-octave \$0-decaytime \$0-random
\$0-detune;
#X connect 0 0 1 0;
#X connect 0 0 4 0;
#X connect 1 0 2 0;
#X connect 4 0 5 0;
#X connect 5 0 3 0;
#X restore 42 267 pd state_saving;
#X obj 42 289 canvasargs;
#X obj 404 292 osc~;
#X obj 452 291 cyclone/saw~;
#X obj 342 256 + 0.01;
#X obj 313 176 r \$0-octavesnd;
#X obj 433 396 *~;
#X obj 433 418 outlet~;
#X floatatom 111 41 5 0 0 0 det #0-detunercv #0-detunesnd, f 5;
#X obj 356 231 / 1000;
#X obj 357 207 r \$0-detunesnd;
#X obj 404 314 *~ 0.5;
#X obj 278 178 int;
#X obj 278 156 cyclone/scale 0 100 0 4 2;
#X connect 0 0 21 0;
#X connect 1 0 2 0;
#X connect 1 0 22 0;
#X connect 1 0 42 0;
#X connect 2 0 10 0;
#X connect 3 0 6 0;
#X connect 4 0 11 0;
#X connect 5 0 7 0;
#X connect 7 0 0 0;
#X connect 8 0 33 0;
#X connect 8 0 20 0;
#X connect 9 0 23 0;
#X connect 10 0 3 0;
#X connect 11 0 8 0;
#X connect 13 0 1 0;
#X connect 14 0 13 1;
#X connect 15 0 13 0;
#X connect 15 1 17 0;
#X connect 17 0 51 0;
#X connect 18 0 17 1;
#X connect 19 0 14 0;
#X connect 20 0 9 0;
#X connect 21 0 15 0;
#X connect 21 3 4 0;
#X connect 22 0 34 0;
#X connect 23 0 3 1;
#X connect 23 0 44 1;
#X connect 25 0 23 2;
#X connect 26 0 25 0;
#X connect 28 0 29 0;
#X connect 29 0 30 0;
#X connect 30 0 1 0;
#X connect 30 1 31 0;
#X connect 31 0 32 0;
#X connect 32 0 9 0;
#X connect 34 0 35 0;
#X connect 35 0 36 0;
#X connect 36 0 3 0;
#X connect 38 0 39 0;
#X connect 40 0 49 0;
#X connect 41 0 44 0;
#X connect 42 0 40 0;
#X connect 42 0 41 0;
#X connect 43 0 19 1;
#X connect 44 0 45 0;
#X connect 47 0 42 1;
#X connect 48 0 47 0;
#X connect 49 0 44 0;
#X connect 50 0 19 0;
#X connect 51 0 50 0;
#X coords 0 -1 1 1 150 60 2 10 10;
