#N canvas 400 167 799 464 10;
#X obj 224 100 lop~ 5000;
#X obj 273 268 mtof;
#X obj 248 292 osc~;
#X obj 276 351 *~;
#X obj 425 122 dbtorms;
#X obj 296 313 *~ 0.8;
#X obj 222 26 inlet~;
#X obj 257 384 outlet~;
#X obj 224 78 hip~ 50;
#X obj 412 167 max 0;
#X obj 392 230 *~ 0.8;
#X obj 237 318 *~ 0.5;
#X obj 412 145 - 0.15;
#X floatatom 44 19 5 -2 2 0 oct #0-octavercv #0-octavesnd, f 5;
#X obj 305 188 r \$0-octavesnd;
#X obj 207 244 + 0;
#X obj 232 220 * 12;
#X obj 192 144 t f b;
#X floatatom 45 40 5 1 4 0 rand #0-randomrcv #0-randomsnd, f 5;
#X obj 298 155 random;
#X obj 314 130 r \$0-randomsnd;
#X obj 273 190 +;
#X obj 396 187 smoother 5;
#X obj 325 94 fiddle~ 4096 1 50;
#X obj 296 291 cyclone/saw~;
#X obj 379 265 cyclone/rampsmooth~ 0 40000;
#X floatatom 110 20 5 0 1500 0 dec #0-decaytimercv #0-decaytimesnd
, f 5;
#X obj 606 188 * 44.1;
#X obj 612 135 r \$0-decaytimesnd;
#X obj 495 27 loadbang;
#X connect 0 0 23 0;
#X connect 1 0 2 0;
#X connect 1 0 24 0;
#X connect 2 0 11 0;
#X connect 3 0 7 0;
#X connect 4 0 12 0;
#X connect 5 0 3 0;
#X connect 6 0 8 0;
#X connect 8 0 0 0;
#X connect 9 0 22 0;
#X connect 10 0 25 0;
#X connect 11 0 3 0;
#X connect 12 0 9 0;
#X connect 14 0 21 1;
#X connect 15 0 1 0;
#X connect 16 0 15 1;
#X connect 17 0 15 0;
#X connect 17 1 19 0;
#X connect 19 0 21 0;
#X connect 20 0 19 1;
#X connect 21 0 16 0;
#X connect 22 0 10 0;
#X connect 23 0 17 0;
#X connect 23 3 4 0;
#X connect 24 0 5 0;
#X connect 25 0 3 1;
#X connect 27 0 25 2;
#X connect 28 0 27 0;
#X coords 0 -1 1 1 150 60 2 10 10;
