#N canvas 556 23 688 388 10;
#X obj 59 78 inlet kv;
#X obj 60 271 outlet kv;
#X obj 69 126 unpack f f;
#X obj 66 245 pack f f;
#X msg 481 93 load scalegenerator.pd_lua;
#X obj 481 115 pdlua;
#X msg 494 182 list pent 60;
#X obj 179 81 bng 15 250 50 0 empty empty empty 17 7 0 10 -262144 -1
-1;
#X msg 369 20 const 0;
#X obj 179 101 t b b;
#X msg 196 143 0;
#X obj 494 224 scalegenerator;
#X obj 526 43 loadbang;
#X obj 333 65 array define \$0-pent 127;
#X obj 490 286 array set \$0-pent;
#X obj 63 199 array get \$0-pent 0 1;
#X obj 275 84 inlet key/kv;
#X obj 275 106 route float list;
#X msg 307 200 list pent \$1;
#X obj 317 135 stripnote;
#X connect 0 0 2 0;
#X connect 2 0 15 0;
#X connect 2 1 3 1;
#X connect 3 0 1 0;
#X connect 4 0 5 0;
#X connect 6 0 11 0;
#X connect 7 0 9 0;
#X connect 8 0 13 0;
#X connect 9 0 15 0;
#X connect 9 1 10 0;
#X connect 10 0 15 0;
#X connect 11 0 14 0;
#X connect 12 0 4 0;
#X connect 12 0 6 0;
#X connect 15 0 3 0;
#X connect 16 0 17 0;
#X connect 17 0 18 0;
#X connect 17 1 19 0;
#X connect 18 0 11 0;
#X connect 19 0 18 0;
#X coords 0 388 1 387 75 30 0;
