#N canvas 258 124 1015 342 12;
#X obj 10 15 hradio 30 1 0 8 \$0-scenesnd \$0-scenercv empty 0 -8 0
10 -261298 -259201 -1 0;
#X obj 569 26 r \$0-scenesnd;
#X obj 569 51 s globalscene;
#X obj 193 99 r \$0-scenesnd;
#N canvas 1 53 674 297 state_saving 0;
#X obj 107 54 loadbang;
#X msg 107 79 load savestate.pd_lua;
#X obj 107 104 pdlua;
#X obj 142 156 pack \$1 \$2;
#X obj 142 206 outlet;
#X obj 142 181 savestate \$0-index \$0-scene;
#X text 267 122 let other modules initialize first;
#X obj 189 124 delay 250;
#X connect 0 0 1 0;
#X connect 0 0 7 0;
#X connect 1 0 2 0;
#X connect 3 0 5 0;
#X connect 5 0 4 0;
#X connect 7 0 3 0;
#X restore 597 159 pd state_saving;
#X obj 597 184 canvasargs;
#X obj 193 124 sel 0 1 2 3 4 5 6 7;
#X obj 7 214 s scene1;
#X obj 67 242 s scene2;
#X obj 135 273 s scene3;
#X obj 193 307 s scene4;
#X obj 266 300 s scene5;
#X obj 346 287 s scene6;
#X obj 402 263 s scene7;
#X obj 457 238 s scene8;
#X connect 1 0 2 0;
#X connect 3 0 6 0;
#X connect 4 0 5 0;
#X connect 6 0 7 0;
#X connect 6 1 8 0;
#X connect 6 2 9 0;
#X connect 6 3 10 0;
#X connect 6 4 11 0;
#X connect 6 5 12 0;
#X connect 6 6 13 0;
#X connect 6 7 14 0;
#X coords 0 -1 1 1 240 40 2 10 10;
