#N canvas 96 62 1175 653 10;
#X obj 203 22 inlet;
#X obj 622 93 f 1;
#X obj 652 93 + 1;
#X obj 355 262 f 0;
#X obj 379 262 f 0;
#X obj 403 262 f 0;
#X obj 427 262 f 0;
#X obj 490 380 outlet;
#X obj 422 380 outlet;
#X msg 533 341 1;
#X msg 588 344 0;
#X obj 554 381 outlet;
#X obj 612 67 bang;
#X obj 451 262 f 0;
#X obj 475 262 f 0;
#X obj 499 262 f 0;
#X obj 523 262 f 0;
#X obj 833 31 inlet;
#X obj 756 396 outlet;
#N canvas 341 116 775 402 state_loading 0;
#X obj 200 -1 loadbang;
#X obj 40 160 s \$0-indexrcv;
#X obj 80 252 s \$0-tgl1rcv;
#X obj 80 274 s \$0-tgl2rcv;
#X obj 80 296 s \$0-tgl3rcv;
#X obj 80 318 s \$0-tgl4rcv;
#X obj 180 251 s \$0-tgl5rcv;
#X obj 180 273 s \$0-tgl6rcv;
#X obj 180 295 s \$0-tgl7rcv;
#X obj 180 317 s \$0-tgl8rcv;
#X obj 281 252 s \$0-tgl9rcv;
#X obj 281 274 s \$0-tgl10rcv;
#X obj 281 296 s \$0-tgl11rcv;
#X obj 281 318 s \$0-tgl12rcv;
#X obj 390 276 s \$0-tgl14rcv;
#X obj 390 298 s \$0-tgl15rcv;
#X obj 390 320 s \$0-tgl16rcv;
#X obj 390 254 s \$0-tgl13rcv;
#X obj 128 177 unpack f f f f f f f f f f f f f f f f, f 69;
#X obj 205 143 rebinarizer;
#X obj 205 107 r \$0-sequencerecall;
#X obj 225 59 pack \$2 \$3 \$4 \$5 \$6 \$7 \$8 \$9;
#X obj 150 57 f \$1;
#X obj 357 30 bng 15 250 50 0 empty empty empty 17 7 0 10 -262144 -1
-1;
#X obj 225 81 s \$0-sequenceload;
#X text 277 140 float comes in \, list goes out;
#X obj 442 51 f \$10;
#X obj 234 17 t b b;
#X obj 442 73 s \$0-seqrcv;
#X obj 538 50 f \$11;
#X obj 538 72 s \$0-globalrcv;
#X connect 0 0 22 0;
#X connect 0 0 27 0;
#X connect 18 0 2 0;
#X connect 18 1 3 0;
#X connect 18 2 4 0;
#X connect 18 3 5 0;
#X connect 18 4 6 0;
#X connect 18 5 7 0;
#X connect 18 6 8 0;
#X connect 18 7 9 0;
#X connect 18 8 10 0;
#X connect 18 9 11 0;
#X connect 18 10 12 0;
#X connect 18 11 13 0;
#X connect 18 12 17 0;
#X connect 18 13 14 0;
#X connect 18 14 15 0;
#X connect 18 15 16 0;
#X connect 19 0 18 0;
#X connect 20 0 19 0;
#X connect 21 0 24 0;
#X connect 22 0 1 0;
#X connect 23 0 21 0;
#X connect 26 0 28 0;
#X connect 27 0 26 0;
#X connect 27 0 29 0;
#X connect 27 1 21 0;
#X connect 29 0 30 0;
#X restore 49 210 pd state_loading;
#N canvas 325 53 699 561 state_saving 0;
#X text 103 17 state saving;
#X obj 8 265 r \$0-indexsnd;
#X obj 103 189 debinarizer;
#X obj 101 220 pack f f;
#X obj 101 247 reversepair;
#X obj 128 278 route 0 1 2 3 4 5 6 7;
#X obj 257 495 s \$0-sequences;
#X text 353 474 list of 8 sequences;
#X obj 345 202 unpack f f f f f f f f;
#X text 125 173 converts 16 bits to float;
#X obj 61 515 outlet;
#X obj 224 416 list split 1;
#X obj 188 204 r \$0-currentslot;
#X obj 398 154 r \$0-sequenceload;
#N canvas 1 53 473 345 receive_toggles 0;
#X obj 358 106 r storebang;
#X obj 358 128 t b b b;
#X msg 403 177 1;
#X obj 346 230 spigot;
#X msg 341 179 0;
#X obj 346 276 s storeinfo;
#X obj 346 252 reject0;
#X obj 24 18 r \$0-tgl1snd;
#X obj 39 38 r \$0-tgl2snd;
#X obj 49 60 r \$0-tgl3snd;
#X obj 60 80 r \$0-tgl4snd;
#X obj 132 17 r \$0-tgl5snd;
#X obj 142 37 r \$0-tgl6snd;
#X obj 153 58 r \$0-tgl7snd;
#X obj 162 77 r \$0-tgl8snd;
#X obj 224 18 r \$0-tgl9snd;
#X obj 239 38 r \$0-tgl10snd;
#X obj 249 58 r \$0-tgl11snd;
#X obj 260 80 r \$0-tgl12snd;
#X obj 332 17 r \$0-tgl13snd;
#X obj 343 37 r \$0-tgl14snd;
#X obj 353 58 r \$0-tgl15snd;
#X obj 362 77 r \$0-tgl16snd;
#X obj 38 205 pack f f f f f f f f f f f f f f f f, f 39;
#X obj 38 168 cyclone/bondo 16, f 39;
#X obj 91 257 outlet;
#X connect 0 0 1 0;
#X connect 1 0 4 0;
#X connect 1 1 24 0;
#X connect 1 2 2 0;
#X connect 2 0 3 1;
#X connect 3 0 6 0;
#X connect 4 0 3 1;
#X connect 6 0 5 0;
#X connect 7 0 24 0;
#X connect 8 0 24 1;
#X connect 9 0 24 2;
#X connect 10 0 24 3;
#X connect 11 0 24 4;
#X connect 12 0 24 5;
#X connect 13 0 24 6;
#X connect 14 0 24 7;
#X connect 15 0 24 8;
#X connect 16 0 24 9;
#X connect 17 0 24 10;
#X connect 18 0 24 11;
#X connect 19 0 24 12;
#X connect 20 0 24 13;
#X connect 21 0 24 14;
#X connect 22 0 24 15;
#X connect 23 0 3 0;
#X connect 23 0 25 0;
#X connect 24 0 23 0;
#X connect 24 1 23 1;
#X connect 24 2 23 2;
#X connect 24 3 23 3;
#X connect 24 4 23 4;
#X connect 24 5 23 5;
#X connect 24 6 23 6;
#X connect 24 7 23 7;
#X connect 24 8 23 8;
#X connect 24 9 23 9;
#X connect 24 10 23 10;
#X connect 24 11 23 11;
#X connect 24 12 23 12;
#X connect 24 13 23 13;
#X connect 24 14 23 14;
#X connect 24 15 23 15;
#X restore 104 149 pd receive_toggles;
#X text 516 153 when the patch loads;
#X obj 244 454 list split 8;
#X obj 138 323 cyclone/bondo 11, f 26;
#X obj 138 355 pack f f f f f f f f f f f;
#X obj 424 274 r \$0-globalsnd;
#X connect 1 0 17 0;
#X connect 2 0 3 0;
#X connect 3 0 4 0;
#X connect 4 0 5 0;
#X connect 5 0 17 1;
#X connect 5 1 17 2;
#X connect 5 2 17 3;
#X connect 5 3 17 4;
#X connect 5 4 17 5;
#X connect 5 5 17 6;
#X connect 5 6 17 7;
#X connect 5 7 17 8;
#X connect 8 0 17 1;
#X connect 8 1 17 2;
#X connect 8 2 17 3;
#X connect 8 3 17 4;
#X connect 8 4 17 5;
#X connect 8 5 17 6;
#X connect 8 6 17 7;
#X connect 8 7 17 8;
#X connect 11 1 16 0;
#X connect 12 0 3 1;
#X connect 12 0 17 9;
#X connect 13 0 8 0;
#X connect 14 0 2 0;
#X connect 16 0 6 0;
#X connect 17 0 18 0;
#X connect 17 1 18 1;
#X connect 17 2 18 2;
#X connect 17 3 18 3;
#X connect 17 4 18 4;
#X connect 17 5 18 5;
#X connect 17 6 18 6;
#X connect 17 7 18 7;
#X connect 17 8 18 8;
#X connect 17 9 18 9;
#X connect 17 10 18 10;
#X connect 18 0 11 0;
#X connect 18 0 10 0;
#X connect 19 0 17 10;
#X restore 49 230 pd state_saving;
#X obj 49 251 canvasargs;
#X obj 458 307 sel 1 0;
#X obj 668 32 r allsequencers;
#N canvas 349 50 787 519 offset 0;
#X obj 204 284 f 0;
#X obj 234 284 f 0;
#X obj 264 284 f 0;
#X obj 294 284 f 0;
#X obj 324 284 f 0;
#X obj 354 284 f 0;
#X obj 384 284 f 0;
#X obj 414 284 f 0;
#X msg 52 381 symbol \$1;
#X obj 301 453 send;
#X obj 184 314 f 0;
#X obj 214 314 f 0;
#X obj 244 314 f 0;
#X obj 274 314 f 0;
#X obj 304 314 f 0;
#X obj 334 314 f 0;
#X obj 364 314 f 0;
#X obj 394 314 f 0;
#X obj 49 86 until;
#X msg 103 67 0;
#X obj 49 108 f 0;
#X obj 88 108 + 1;
#X obj 405 231 bang;
#X obj 50 39 t f f b;
#X obj 49 130 t f f;
#X obj 76 193 + 1;
#X obj 76 150 + 1;
#X obj 444 284 f 0;
#X obj 474 284 f 0;
#X obj 504 284 f 0;
#X obj 534 284 f 0;
#X obj 564 284 f 0;
#X obj 594 284 f 0;
#X obj 624 284 f 0;
#X obj 654 284 f 0;
#X obj 424 314 f 0;
#X obj 454 314 f 0;
#X obj 484 314 f 0;
#X obj 514 314 f 0;
#X obj 544 314 f 0;
#X obj 574 314 f 0;
#X obj 604 314 f 0;
#X obj 634 314 f 0;
#X obj 206 149 r \$0-tgl1snd;
#X obj 216 169 r \$0-tgl2snd;
#X obj 226 189 r \$0-tgl3snd;
#X obj 236 209 r \$0-tgl4snd;
#X obj 309 148 r \$0-tgl5snd;
#X obj 319 168 r \$0-tgl6snd;
#X obj 329 189 r \$0-tgl7snd;
#X obj 339 208 r \$0-tgl8snd;
#X obj 406 149 r \$0-tgl9snd;
#X obj 416 169 r \$0-tgl10snd;
#X obj 426 189 r \$0-tgl11snd;
#X obj 435 209 r \$0-tgl12snd;
#X obj 509 149 r \$0-tgl13snd;
#X obj 519 168 r \$0-tgl14snd;
#X obj 529 189 r \$0-tgl15snd;
#X obj 538 209 r \$0-tgl16snd;
#X obj 76 171 mod 16;
#X msg 50 17 16;
#X obj 38 235 sel 0 1 2 3 4 5 6 7 8 9 10 11 12 13 14 15;
#X obj 52 359 makefilename \$0-tgl%drcv;
#X obj 204 33 r \$0-offsetplussnd;
#X obj 340 32 r \$0-offsetminussnd;
#X obj 204 54 t b f;
#X msg 229 84 1;
#X obj 340 53 t b f;
#X msg 370 83 -1;
#X connect 0 0 10 1;
#X connect 1 0 11 1;
#X connect 2 0 12 1;
#X connect 3 0 13 1;
#X connect 4 0 14 1;
#X connect 5 0 15 1;
#X connect 6 0 16 1;
#X connect 7 0 17 1;
#X connect 8 0 9 1;
#X connect 10 0 9 0;
#X connect 11 0 9 0;
#X connect 12 0 9 0;
#X connect 13 0 9 0;
#X connect 14 0 9 0;
#X connect 15 0 9 0;
#X connect 16 0 9 0;
#X connect 17 0 9 0;
#X connect 18 0 20 0;
#X connect 19 0 20 1;
#X connect 20 0 21 0;
#X connect 20 0 24 0;
#X connect 21 0 20 1;
#X connect 22 0 0 0;
#X connect 22 0 1 0;
#X connect 22 0 2 0;
#X connect 22 0 3 0;
#X connect 22 0 4 0;
#X connect 22 0 5 0;
#X connect 22 0 6 0;
#X connect 22 0 7 0;
#X connect 22 0 27 0;
#X connect 22 0 28 0;
#X connect 22 0 29 0;
#X connect 22 0 30 0;
#X connect 22 0 31 0;
#X connect 22 0 32 0;
#X connect 22 0 33 0;
#X connect 22 0 34 0;
#X connect 23 0 18 0;
#X connect 23 1 19 0;
#X connect 23 2 22 0;
#X connect 24 0 61 0;
#X connect 24 1 26 0;
#X connect 25 0 62 0;
#X connect 26 0 59 0;
#X connect 27 0 35 1;
#X connect 28 0 36 1;
#X connect 29 0 37 1;
#X connect 30 0 38 1;
#X connect 31 0 39 1;
#X connect 32 0 40 1;
#X connect 33 0 41 1;
#X connect 34 0 42 1;
#X connect 35 0 9 0;
#X connect 36 0 9 0;
#X connect 37 0 9 0;
#X connect 38 0 9 0;
#X connect 39 0 9 0;
#X connect 40 0 9 0;
#X connect 41 0 9 0;
#X connect 42 0 9 0;
#X connect 43 0 0 1;
#X connect 44 0 1 1;
#X connect 45 0 2 1;
#X connect 46 0 3 1;
#X connect 47 0 4 1;
#X connect 48 0 5 1;
#X connect 49 0 6 1;
#X connect 50 0 7 1;
#X connect 51 0 27 1;
#X connect 52 0 28 1;
#X connect 53 0 29 1;
#X connect 54 0 30 1;
#X connect 55 0 31 1;
#X connect 56 0 32 1;
#X connect 57 0 33 1;
#X connect 58 0 34 1;
#X connect 59 0 25 0;
#X connect 60 0 23 0;
#X connect 61 0 10 0;
#X connect 61 1 11 0;
#X connect 61 2 12 0;
#X connect 61 3 13 0;
#X connect 61 4 14 0;
#X connect 61 5 15 0;
#X connect 61 6 16 0;
#X connect 61 7 17 0;
#X connect 61 8 35 0;
#X connect 61 9 36 0;
#X connect 61 10 37 0;
#X connect 61 11 38 0;
#X connect 61 12 39 0;
#X connect 61 13 40 0;
#X connect 61 14 41 0;
#X connect 61 15 42 0;
#X connect 62 0 8 0;
#X connect 63 0 65 0;
#X connect 64 0 67 0;
#X connect 65 0 60 0;
#X connect 65 1 66 0;
#X connect 66 0 26 1;
#X connect 67 0 60 0;
#X connect 67 1 68 0;
#X connect 68 0 26 1;
#X restore 49 161 pd offset;
#X obj 183 103 bng 15 250 50 0 \$0-offsetplussnd \$0-offsetplusrcv
+ 5 7 0 10 -145664 -184192 -1;
#X obj 895 280 propertybang;
#N canvas 469 151 124 63 \$0-properties 0;
#X floatatom 62 24 5 0 0 0 index #0-indexrcv #0-indexsnd, f 5;
#X restore 896 367 pd \$0-properties;
#X msg 895 329 \; pd-\$1-properties vis 1;
#X obj 895 302 f \$0;
#X obj 53 103 tgl 15 0 \$0-tgl1snd \$0-tgl1rcv empty 17 7 0 10 -117052
-262144 -1 0 1;
#X obj 69 103 tgl 15 0 \$0-tgl2snd \$0-tgl2rcv empty 17 7 0 10 -117052
-262144 -1 0 1;
#X obj 85 103 tgl 15 0 \$0-tgl3snd \$0-tgl3rcv empty 17 7 0 10 -117052
-262144 -1 0 1;
#X obj 101 103 tgl 15 0 \$0-tgl4snd \$0-tgl4rcv empty 17 7 0 10 -117052
-262144 -1 0 1;
#X obj 117 103 tgl 15 0 \$0-tgl5snd \$0-tgl5rcv empty 17 7 0 10 -117052
-262144 -1 0 1;
#X obj 133 103 tgl 15 0 \$0-tgl6snd \$0-tgl6rcv empty 17 7 0 10 -117052
-262144 -1 0 1;
#X obj 149 103 tgl 15 0 \$0-tgl7snd \$0-tgl7rcv empty 17 7 0 10 -117052
-262144 -1 0 1;
#X obj 165 103 tgl 15 0 \$0-tgl8snd \$0-tgl8rcv empty 17 7 0 10 -117052
-262144 -1 0 1;
#X obj 53 120 tgl 15 0 \$0-tgl9snd \$0-tgl9rcv empty 17 7 0 10 -117052
-262144 -1 0 1;
#X obj 69 120 tgl 15 0 \$0-tgl10snd \$0-tgl10rcv empty 17 7 0 10 -117052
-262144 -1 0 1;
#X obj 85 120 tgl 15 0 \$0-tgl11snd \$0-tgl11rcv empty 17 7 0 10 -117052
-262144 -1 0 1;
#X obj 101 120 tgl 15 0 \$0-tgl12snd \$0-tgl12rcv empty 17 7 0 10 -117052
-262144 -1 0 1;
#X obj 117 120 tgl 15 0 \$0-tgl13snd \$0-tgl13rcv empty 17 7 0 10 -117052
-262144 -1 0 1;
#X obj 133 120 tgl 15 0 \$0-tgl14snd \$0-tgl14rcv empty 17 7 0 10 -117052
-262144 -1 0 1;
#X obj 149 120 tgl 15 0 \$0-tgl15snd \$0-tgl15rcv empty 17 7 0 10 -117052
-262144 -1 0 1;
#X obj 165 120 tgl 15 0 \$0-tgl16snd \$0-tgl16rcv empty 17 7 0 10 -117052
-262144 -1 0 1;
#N canvas 0 50 901 306 receives 0;
#X obj 37 51 r \$0-tgl1snd;
#X obj 47 71 r \$0-tgl2snd;
#X obj 57 91 r \$0-tgl3snd;
#X obj 67 111 r \$0-tgl4snd;
#X obj 197 51 r \$0-tgl5snd;
#X obj 207 71 r \$0-tgl6snd;
#X obj 217 91 r \$0-tgl7snd;
#X obj 227 111 r \$0-tgl8snd;
#X obj 367 51 r \$0-tgl9snd;
#X obj 377 71 r \$0-tgl10snd;
#X obj 387 91 r \$0-tgl11snd;
#X obj 397 111 r \$0-tgl12snd;
#X obj 567 51 r \$0-tgl13snd;
#X obj 577 71 r \$0-tgl14snd;
#X obj 587 91 r \$0-tgl15snd;
#X obj 597 111 r \$0-tgl16snd;
#X obj 17 183 outlet;
#X obj 60 183 outlet;
#X obj 103 183 outlet;
#X obj 146 183 outlet;
#X obj 189 183 outlet;
#X obj 232 183 outlet;
#X obj 275 183 outlet;
#X obj 318 183 outlet;
#X obj 361 183 outlet;
#X obj 404 183 outlet;
#X obj 447 183 outlet;
#X obj 490 183 outlet;
#X obj 533 183 outlet;
#X obj 576 183 outlet;
#X obj 619 183 outlet;
#X obj 662 183 outlet, f 54;
#X connect 0 0 16 0;
#X connect 1 0 17 0;
#X connect 2 0 18 0;
#X connect 3 0 19 0;
#X connect 4 0 20 0;
#X connect 5 0 21 0;
#X connect 6 0 22 0;
#X connect 7 0 23 0;
#X connect 8 0 24 0;
#X connect 9 0 25 0;
#X connect 10 0 26 0;
#X connect 11 0 27 0;
#X connect 12 0 28 0;
#X connect 13 0 29 0;
#X connect 14 0 30 0;
#X connect 15 0 31 0;
#X restore 217 166 pd receives;
#X obj 547 262 f 0;
#X obj 571 262 f 0;
#X obj 595 262 f 0;
#X obj 619 262 f 0;
#X obj 643 262 f 0;
#X obj 667 262 f 0;
#X obj 691 262 f 0;
#X obj 715 262 f 0;
#X obj 621 114 mod 16;
#X obj 448 151 route 0 1 2 3 4 5 6 7 8 9 10 11 12 13 14 15;
#X obj 56 123 cnv 4 4 4 empty \$0-cnv empty 0 0 0 14 -61638 -66577
0;
#N canvas 0 50 450 300 blinker 0;
#X obj 213 238 spigot;
#X obj 350 116 r allguis;
#X obj 137 98 expr $f1*16+56;
#X obj 91 70 div 8;
#X obj 133 68 mod 8;
#X obj 90 33 t f f;
#X obj 214 195 pack f f \$0;
#X obj 91 112 + 107;
#X msg 213 281 \; \$3-cnv pos \$2 \$1;
#X obj 91 91 * 16;
#X obj 78 5 inlet stepnumber;
#X obj 328 80 loadbang;
#X obj 329 183 value allguistgl;
#X connect 0 0 8 0;
#X connect 1 0 12 0;
#X connect 2 0 6 1;
#X connect 3 0 9 0;
#X connect 4 0 2 0;
#X connect 5 0 3 0;
#X connect 5 1 4 0;
#X connect 6 0 0 0;
#X connect 7 0 6 0;
#X connect 9 0 7 0;
#X connect 10 0 5 0;
#X connect 11 0 12 0;
#X connect 12 0 0 1;
#X restore 789 332 pd blinker;
#X obj 183 120 bng 15 250 50 0 \$0-offsetminussnd \$0-offsetminusrcv
- 5 7 0 10 -105472 -184192 -1;
#X obj 786 125 unpack f f;
#X obj 787 148 makefilename \$0-tgl%drcv;
#X obj 796 204 send;
#X msg 787 169 symbol \$1;
#X obj 820 91 t a a;
#X obj 873 126 unpack f f;
#X obj 915 428 loadbang;
#X msg 915 450 load rebinarizer.pd_lua;
#X msg 926 475 load debinarizer.pd_lua;
#X obj 915 506 pdlua;
#X obj 53 137 hradio 16 1 0 8 \$0-seqsnd \$0-seqrcv empty 0 -8 0 10
-167424 -259869 -1 0;
#X obj 155 285 r \$0-seqsnd;
#X obj 155 307 t f f;
#X obj 182 347 s \$0-currentslot;
#X obj 126 388 r \$0-sequences;
#N canvas 1 53 672 294 listaccess 0;
#X obj 151 80 unpack f f f f f f f f;
#X obj 151 38 inlet;
#X obj 107 149 f;
#X obj 137 149 f;
#X obj 167 149 f;
#X obj 197 149 f;
#X obj 227 149 f;
#X obj 257 149 f;
#X obj 287 149 f;
#X obj 317 149 f;
#X obj 339 36 inlet which;
#X obj 339 58 sel 0 1 2 3 4 5 6 7;
#X obj 166 227 outlet;
#X connect 0 0 2 1;
#X connect 0 1 3 1;
#X connect 0 2 4 1;
#X connect 0 3 5 1;
#X connect 0 4 6 1;
#X connect 0 5 7 1;
#X connect 0 6 8 1;
#X connect 0 7 9 1;
#X connect 1 0 0 0;
#X connect 2 0 12 0;
#X connect 3 0 12 0;
#X connect 4 0 12 0;
#X connect 5 0 12 0;
#X connect 6 0 12 0;
#X connect 7 0 12 0;
#X connect 8 0 12 0;
#X connect 9 0 12 0;
#X connect 10 0 11 0;
#X connect 11 0 2 0;
#X connect 11 1 3 0;
#X connect 11 2 4 0;
#X connect 11 3 5 0;
#X connect 11 4 6 0;
#X connect 11 5 7 0;
#X connect 11 6 8 0;
#X connect 11 7 9 0;
#X restore 126 416 pd listaccess;
#X obj 180 458 s \$0-sequencerecall;
#X obj 1065 20 inlet kv;
#X obj 1065 42 unpack f f;
#X obj 1006 98 mod 8;
#X obj 968 132 s \$0-seqrcv;
#X obj 799 54 route float list sequence numsteps;
#X obj 977 576 outlet seqnumber;
#X obj 1092 505 r \$0-seqsnd;
#X obj 512 10 r globalclock;
#X obj 48 281 r globalscene;
#X obj 48 303 s \$0-seqrcv;
#X obj 183 137 tgl 15 0 \$0-globalsnd \$0-globalrcv G 2 9 1 15 -131072
-4160 -159808 0 1;
#X obj 512 32 spigot;
#X obj 615 9 r \$0-globalsnd;
#X connect 0 0 12 0;
#X connect 1 0 2 0;
#X connect 1 0 55 0;
#X connect 2 0 1 1;
#X connect 3 0 22 0;
#X connect 4 0 22 0;
#X connect 5 0 22 0;
#X connect 6 0 22 0;
#X connect 9 0 11 0;
#X connect 10 0 11 0;
#X connect 12 0 1 0;
#X connect 13 0 22 0;
#X connect 14 0 22 0;
#X connect 15 0 22 0;
#X connect 16 0 22 0;
#X connect 17 0 81 0;
#X connect 20 0 21 0;
#X connect 22 0 9 0;
#X connect 22 0 8 0;
#X connect 22 1 10 0;
#X connect 22 1 7 0;
#X connect 23 0 1 1;
#X connect 26 0 29 0;
#X connect 29 0 28 0;
#X connect 46 0 3 1;
#X connect 46 1 4 1;
#X connect 46 2 5 1;
#X connect 46 3 6 1;
#X connect 46 4 13 1;
#X connect 46 5 14 1;
#X connect 46 6 15 1;
#X connect 46 7 16 1;
#X connect 46 8 47 1;
#X connect 46 9 48 1;
#X connect 46 10 49 1;
#X connect 46 11 50 1;
#X connect 46 12 51 1;
#X connect 46 13 52 1;
#X connect 46 14 53 1;
#X connect 46 15 54 1;
#X connect 47 0 22 0;
#X connect 48 0 22 0;
#X connect 49 0 22 0;
#X connect 50 0 22 0;
#X connect 51 0 22 0;
#X connect 52 0 22 0;
#X connect 53 0 22 0;
#X connect 54 0 22 0;
#X connect 55 0 18 0;
#X connect 55 0 56 0;
#X connect 55 0 58 0;
#X connect 56 0 3 0;
#X connect 56 1 4 0;
#X connect 56 2 5 0;
#X connect 56 3 6 0;
#X connect 56 4 13 0;
#X connect 56 5 14 0;
#X connect 56 6 15 0;
#X connect 56 7 16 0;
#X connect 56 8 47 0;
#X connect 56 9 48 0;
#X connect 56 10 49 0;
#X connect 56 11 50 0;
#X connect 56 12 51 0;
#X connect 56 13 52 0;
#X connect 56 14 53 0;
#X connect 56 15 54 0;
#X connect 60 0 61 0;
#X connect 61 0 63 0;
#X connect 63 0 62 1;
#X connect 64 0 65 0;
#X connect 64 1 60 0;
#X connect 65 1 62 0;
#X connect 66 0 67 0;
#X connect 66 0 68 0;
#X connect 67 0 69 0;
#X connect 68 0 69 0;
#X connect 71 0 72 0;
#X connect 72 0 75 1;
#X connect 72 1 73 0;
#X connect 74 0 75 0;
#X connect 75 0 76 0;
#X connect 77 0 78 0;
#X connect 78 0 79 0;
#X connect 79 0 80 0;
#X connect 79 0 82 0;
#X connect 81 0 1 1;
#X connect 81 1 64 0;
#X connect 81 2 80 0;
#X connect 81 3 55 1;
#X connect 83 0 82 0;
#X connect 84 0 88 0;
#X connect 85 0 86 0;
#X connect 88 0 12 0;
#X connect 89 0 88 1;
#X coords 0 -1 1 1 150 55 2 50 100;
