#N canvas 0 137 769 447 10;
#X obj 93 22 inlet;
#X obj 512 93 f 1;
#X obj 542 93 + 1;
#X obj 293 262 f 0;
#X obj 315 262 f 0;
#X obj 337 262 f 0;
#X obj 359 262 f 0;
#X obj 231 204 bng 15 70 10 0 empty empty empty 17 7 0 10 -261682 -260097
-1;
#X obj 138 28 inlet;
#X obj 172 28 inlet;
#X obj 206 28 inlet;
#X obj 240 28 inlet;
#X obj 436 390 outlet;
#X obj 352 384 outlet;
#X msg 463 351 1;
#X msg 518 354 0;
#X obj 493 389 outlet;
#X obj 502 67 bang;
#X obj 391 151 route 0 1 2 3 4 5 6 7;
#X obj 381 262 f 0;
#X obj 403 262 f 0;
#X obj 425 262 f 0;
#X obj 447 262 f 0;
#X obj 430 33 inlet;
#X obj 274 28 inlet;
#X obj 308 28 inlet;
#X obj 342 28 inlet;
#X obj 376 28 inlet;
#X obj 511 114 mod 8;
#X obj 547 388 outlet;
#X obj 103 204 tgl15 68 169;
#X obj 26 289 s \$0-step1snd;
#X obj 36 309 s \$0-step2snd;
#X obj 46 329 s \$0-step3snd;
#X obj 56 349 s \$0-step4snd;
#X obj 129 288 s \$0-step5snd;
#X obj 139 308 s \$0-step6snd;
#X obj 149 329 s \$0-step7snd;
#X obj 159 348 s \$0-step8snd;
#X obj 31 54 r \$0-step1rcv;
#X obj 41 74 r \$0-step2rcv;
#X obj 51 94 r \$0-step3rcv;
#X obj 61 114 r \$0-step4rcv;
#X obj 137 53 r \$0-step5rcv;
#X obj 147 72 r \$0-step6rcv;
#X obj 157 93 r \$0-step7rcv;
#X obj 167 113 r \$0-step8rcv;
#X obj 119 204 tgl15 68 169;
#X obj 135 204 tgl15 68 169;
#X obj 151 204 tgl15 68 169;
#X obj 167 204 tgl15 68 169;
#X obj 183 204 tgl15 68 169;
#X obj 199 204 tgl15 68 169;
#X obj 215 204 tgl15 68 169;
#X obj 573 196 + 0.5;
#X obj 573 218 s \$0-statusrcv;
#X obj 138 207 cnv 4 4 4 empty \$0-cnv empty 0 0 0 14 -61638 -66577
0;
#X obj 574 274 pack f \$0;
#X msg 574 296 \; \$2-cnv pos \$1 207;
#X obj 546 238 expr $f1*16+106;
#N canvas 0 22 450 300 state_loading 0;
#X obj 57 157 s \$0-step1rcv;
#X obj 67 177 s \$0-step2rcv;
#X obj 77 197 s \$0-step3rcv;
#X obj 87 217 s \$0-step4rcv;
#X obj 163 156 s \$0-step5rcv;
#X obj 173 175 s \$0-step6rcv;
#X obj 183 196 s \$0-step7rcv;
#X obj 193 216 s \$0-step8rcv;
#X text 118 239 state loading;
#X obj 92 34 loadbang;
#X obj 92 56 pack \$1 \$2 \$3 \$4 \$5 \$6 \$7 \$8 \$9;
#X obj 92 78 unpack f f f f f f f f f;
#X connect 9 0 10 0;
#X connect 10 0 11 0;
#X connect 11 1 0 0;
#X connect 11 2 1 0;
#X connect 11 3 2 0;
#X connect 11 4 3 0;
#X connect 11 5 4 0;
#X connect 11 6 5 0;
#X connect 11 7 6 0;
#X connect 11 8 7 0;
#X restore 616 76 pd state_loading;
#N canvas 0 22 450 300 state_saving 0;
#X obj 76 39 r \$0-step1snd;
#X obj 86 59 r \$0-step2snd;
#X obj 96 79 r \$0-step3snd;
#X obj 106 99 r \$0-step4snd;
#X obj 179 38 r \$0-step5snd;
#X obj 189 58 r \$0-step6snd;
#X obj 199 79 r \$0-step7snd;
#X obj 209 98 r \$0-step8snd;
#X obj 76 122 t b f;
#X obj 86 142 t b f;
#X obj 96 162 t b f;
#X obj 106 182 t b f;
#X obj 179 125 t b f;
#X obj 189 145 t b f;
#X obj 199 165 t b f;
#X obj 209 185 t b f;
#X obj 86 231 pack \$1 f f f f f f f f;
#X text 103 17 state saving;
#X obj 86 253 outlet;
#X connect 0 0 8 0;
#X connect 1 0 9 0;
#X connect 2 0 10 0;
#X connect 3 0 11 0;
#X connect 4 0 12 0;
#X connect 5 0 13 0;
#X connect 6 0 14 0;
#X connect 7 0 15 0;
#X connect 8 0 16 0;
#X connect 8 1 16 1;
#X connect 9 0 16 0;
#X connect 9 1 16 2;
#X connect 10 0 16 0;
#X connect 10 1 16 3;
#X connect 11 0 16 0;
#X connect 11 1 16 4;
#X connect 12 0 16 0;
#X connect 12 1 16 5;
#X connect 13 0 16 0;
#X connect 13 1 16 6;
#X connect 14 0 16 0;
#X connect 14 1 16 7;
#X connect 15 0 16 0;
#X connect 15 1 16 8;
#X connect 16 0 18 0;
#X restore 616 96 pd state_saving;
#X obj 616 117 canvasargs;
#X obj 388 317 sel 1 0;
#X obj 281 147 loadbang;
#X msg 281 169 flashtime 10 70;
#X connect 0 0 7 0;
#X connect 0 0 17 0;
#X connect 1 0 2 0;
#X connect 1 0 28 0;
#X connect 2 0 1 1;
#X connect 3 0 63 0;
#X connect 4 0 63 0;
#X connect 5 0 63 0;
#X connect 6 0 63 0;
#X connect 8 0 30 0;
#X connect 9 0 47 0;
#X connect 10 0 48 0;
#X connect 11 0 49 0;
#X connect 14 0 16 0;
#X connect 15 0 16 0;
#X connect 17 0 1 0;
#X connect 18 0 3 0;
#X connect 18 1 4 0;
#X connect 18 2 5 0;
#X connect 18 3 6 0;
#X connect 18 4 19 0;
#X connect 18 5 20 0;
#X connect 18 6 21 0;
#X connect 18 7 22 0;
#X connect 19 0 63 0;
#X connect 20 0 63 0;
#X connect 21 0 63 0;
#X connect 22 0 63 0;
#X connect 23 0 1 1;
#X connect 24 0 50 0;
#X connect 25 0 51 0;
#X connect 26 0 51 1;
#X connect 27 0 53 0;
#X connect 28 0 18 0;
#X connect 28 0 29 0;
#X connect 28 0 54 0;
#X connect 28 0 59 0;
#X connect 30 0 3 1;
#X connect 30 0 31 0;
#X connect 39 0 30 0;
#X connect 40 0 47 0;
#X connect 41 0 48 0;
#X connect 42 0 49 0;
#X connect 43 0 50 0;
#X connect 44 0 51 0;
#X connect 45 0 52 0;
#X connect 46 0 53 0;
#X connect 47 0 4 1;
#X connect 47 0 32 0;
#X connect 48 0 5 1;
#X connect 48 0 33 0;
#X connect 49 0 6 1;
#X connect 49 0 34 0;
#X connect 50 0 19 1;
#X connect 50 0 35 0;
#X connect 51 0 20 1;
#X connect 51 0 36 0;
#X connect 52 0 21 1;
#X connect 52 0 37 0;
#X connect 53 0 22 1;
#X connect 53 0 38 0;
#X connect 54 0 55 0;
#X connect 57 0 58 0;
#X connect 59 0 57 0;
#X connect 61 0 62 0;
#X connect 63 0 14 0;
#X connect 63 0 13 0;
#X connect 63 1 15 0;
#X connect 63 1 12 0;
#X connect 64 0 65 0;
#X connect 65 0 7 0;
#X coords 0 -1 1 1 150 23 2 100 200;
