#N canvas 0 23 1015 570 10;
#X obj 93 22 inlet;
#X obj 512 93 f 1;
#X obj 542 93 + 1;
#X obj 293 262 f 0;
#X obj 315 262 f 0;
#X obj 337 262 f 0;
#X obj 359 262 f 0;
#X obj 231 204 bng 15 250 50 0 empty empty empty 17 7 0 10 -261682
-260097 -1;
#X obj 138 28 inlet;
#X obj 172 28 inlet;
#X obj 206 28 inlet;
#X obj 240 28 inlet;
#X obj 436 390 outlet;
#X obj 352 384 outlet;
#X obj 388 317 route 1 0;
#X msg 370 356 1;
#X msg 425 359 0;
#X obj 493 389 outlet;
#X obj 502 67 bang;
#X obj 391 151 route 0 1 2 3 4 5 6 7;
#X obj 381 262 f 0;
#X obj 403 262 f 0;
#X obj 425 262 f 0;
#X obj 447 262 f 0;
#X obj 430 33 inlet;
#X obj 274 28 inlet;
#X obj 308 28 inlet;
#X obj 342 28 inlet;
#X obj 376 28 inlet;
#X msg 562 60 0;
#X obj 511 114 mod 8;
#X obj 547 388 outlet;
#X obj 103 204 tgl15 68 169;
#X obj 26 289 s \$0-step1snd;
#X obj 36 309 s \$0-step2snd;
#X obj 46 329 s \$0-step3snd;
#X obj 56 349 s \$0-step4snd;
#X obj 129 288 s \$0-step5snd;
#X obj 139 308 s \$0-step6snd;
#X obj 149 329 s \$0-step7snd;
#X obj 159 348 s \$0-step8snd;
#X obj 31 54 r \$0-step1rcv;
#X obj 41 74 r \$0-step2rcv;
#X obj 51 94 r \$0-step3rcv;
#X obj 61 114 r \$0-step4rcv;
#X obj 137 53 r \$0-step5rcv;
#X obj 147 72 r \$0-step6rcv;
#X obj 157 93 r \$0-step7rcv;
#X obj 167 113 r \$0-step8rcv;
#X obj 696 289 r \$0-step1snd;
#X obj 706 309 r \$0-step2snd;
#X obj 716 329 r \$0-step3snd;
#X obj 726 349 r \$0-step4snd;
#X obj 799 288 r \$0-step5snd;
#X obj 809 308 r \$0-step6snd;
#X obj 819 329 r \$0-step7snd;
#X obj 829 348 r \$0-step8snd;
#X obj 696 372 t b f;
#X obj 706 392 t b f;
#X obj 716 412 t b f;
#X obj 726 432 t b f;
#X obj 799 375 t b f;
#X obj 809 395 t b f;
#X obj 819 415 t b f;
#X obj 829 435 t b f;
#X obj 706 481 pack \$1 f f f f f f f f;
#X obj 706 503 canvasargs;
#X text 723 267 state saving;
#X obj 667 157 s \$0-step1rcv;
#X obj 677 177 s \$0-step2rcv;
#X obj 687 197 s \$0-step3rcv;
#X obj 697 217 s \$0-step4rcv;
#X obj 773 156 s \$0-step5rcv;
#X obj 783 175 s \$0-step6rcv;
#X obj 793 196 s \$0-step7rcv;
#X obj 803 216 s \$0-step8rcv;
#X text 728 239 state loading;
#X obj 702 34 loadbang;
#X obj 702 56 pack \$1 \$2 \$3 \$4 \$5 \$6 \$7 \$8 \$9;
#X obj 702 78 unpack f f f f f f f f f;
#X obj 119 204 tgl15 68 169;
#X obj 135 204 tgl15 68 169;
#X obj 151 204 tgl15 68 169;
#X obj 167 204 tgl15 68 169;
#X obj 183 204 tgl15 68 169;
#X obj 199 204 tgl15 68 169;
#X obj 215 204 tgl15 68 169;
#X connect 0 0 7 0;
#X connect 0 0 18 0;
#X connect 1 0 2 0;
#X connect 1 0 30 0;
#X connect 2 0 1 1;
#X connect 3 0 14 0;
#X connect 4 0 14 0;
#X connect 5 0 14 0;
#X connect 6 0 14 0;
#X connect 8 0 32 0;
#X connect 9 0 80 0;
#X connect 10 0 81 0;
#X connect 11 0 82 0;
#X connect 14 0 15 0;
#X connect 14 1 16 0;
#X connect 15 0 13 0;
#X connect 15 0 17 0;
#X connect 16 0 12 0;
#X connect 16 0 17 0;
#X connect 18 0 1 0;
#X connect 19 0 3 0;
#X connect 19 1 4 0;
#X connect 19 2 5 0;
#X connect 19 3 6 0;
#X connect 19 4 20 0;
#X connect 19 5 21 0;
#X connect 19 6 22 0;
#X connect 19 7 23 0;
#X connect 20 0 14 0;
#X connect 21 0 14 0;
#X connect 22 0 14 0;
#X connect 23 0 14 0;
#X connect 24 0 29 0;
#X connect 25 0 83 0;
#X connect 26 0 84 0;
#X connect 27 0 84 1;
#X connect 28 0 86 0;
#X connect 29 0 1 1;
#X connect 30 0 19 0;
#X connect 30 0 31 0;
#X connect 32 0 3 1;
#X connect 32 0 33 0;
#X connect 41 0 32 0;
#X connect 42 0 80 0;
#X connect 43 0 81 0;
#X connect 44 0 82 0;
#X connect 45 0 83 0;
#X connect 46 0 84 0;
#X connect 47 0 85 0;
#X connect 48 0 86 0;
#X connect 49 0 57 0;
#X connect 50 0 58 0;
#X connect 51 0 59 0;
#X connect 52 0 60 0;
#X connect 53 0 61 0;
#X connect 54 0 62 0;
#X connect 55 0 63 0;
#X connect 56 0 64 0;
#X connect 57 0 65 0;
#X connect 57 1 65 1;
#X connect 58 0 65 0;
#X connect 58 1 65 2;
#X connect 59 0 65 0;
#X connect 59 1 65 3;
#X connect 60 0 65 0;
#X connect 60 1 65 4;
#X connect 61 0 65 0;
#X connect 61 1 65 5;
#X connect 62 0 65 0;
#X connect 62 1 65 6;
#X connect 63 0 65 0;
#X connect 63 1 65 7;
#X connect 64 0 65 0;
#X connect 64 1 65 8;
#X connect 65 0 66 0;
#X connect 77 0 78 0;
#X connect 78 0 79 0;
#X connect 79 1 68 0;
#X connect 79 2 69 0;
#X connect 79 3 70 0;
#X connect 79 4 71 0;
#X connect 79 5 72 0;
#X connect 79 6 73 0;
#X connect 79 7 74 0;
#X connect 79 8 75 0;
#X connect 80 0 4 1;
#X connect 80 0 34 0;
#X connect 81 0 5 1;
#X connect 81 0 35 0;
#X connect 82 0 6 1;
#X connect 82 0 36 0;
#X connect 83 0 20 1;
#X connect 83 0 37 0;
#X connect 84 0 21 1;
#X connect 84 0 38 0;
#X connect 85 0 22 1;
#X connect 85 0 39 0;
#X connect 86 0 23 1;
#X connect 86 0 40 0;
#X coords 0 -1 1 1 150 22 2 100 200;
