#N canvas 0 24 1360 692 10;
#X obj 597 464 *~;
#X obj 736 338 <~ 0;
#X obj 580 494 *~ 0.4;
#X obj 730 234 osc~ 2;
#X obj 592 209 midiratio~;
#X obj 717 439 samphold~;
#X obj 718 417 noise~;
#X obj 593 186 *~;
#X obj 717 461 +~ 1;
#X obj 60 19 vsl 15 100 0.05 12 0 0 \$0-speedsnd \$0-speedrcv speed
0 -9 0 10 -262144 -1 -1 9900 1;
#X msg 947 199 0;
#X obj 593 141 osc~ 20;
#X obj 860 458 midiratio~;
#X obj 860 385 noise~;
#X obj 861 410 samphold~;
#X obj 884 272 osc~ 0.5;
#X obj 908 535 s~ \$0-fb1;
#X obj 893 248 r~ \$0-fb1;
#X obj 593 163 tanh~;
#X obj 861 434 *~ 22;
#X obj 592 278 osc~ 100;
#X obj 625 440 lop~ 400;
#X obj 147 22 vsl 15 100 0.7 500 1 0 \$0-smoothsnd \$0-smoothrcv smooth
0 -9 0 10 -262144 -1 -1 6600 1;
#X obj 861 491 *~ 15;
#X obj 170 31 vsl 15 100 100 10000 1 0 \$0-pitchsnd \$0-pitchrcv pitch
0 -9 0 10 -262144 -1 -1 4350 1;
#X obj 83 26 vsl 15 100 12 150 1 0 \$0-fmrangesnd \$0-fmrangercv fm\ range
0 -9 0 10 -262144 -1 -1 8800 1;
#X obj 717 483 *~ 29;
#X obj 908 491 lop~ 5;
#X obj 879 161 *~;
#X obj 545 401 adapan;
#X obj 502 351 osc~ 100;
#X obj 108 34 vsl 15 100 18 36 1 0 \$0-amountsnd \$0-amountrcv amount
0 -9 0 10 -262144 -1 -1 600 1;
#X obj 957 430 >~ 0.5;
#X obj 879 183 *~ -1;
#X obj 879 205 +~ 1;
#X obj 876 117 phasor~ -4.5;
#X floatatom 819 184 5 0 0 0 - - -, f 5;
#X obj 812 140 * -4;
#X obj 876 139 pow~ 2;
#X obj 839 233 lop~ 250;
#X obj 929 459 r \$0-fmrangesnd;
#X obj 696 120 r \$0-speedsnd;
#X obj 752 461 r \$0-amountsnd;
#X obj 653 376 r \$0-smoothsnd;
#X obj 469 188 r \$0-pitchsnd;
#X obj 60 136 bng 20 250 50 0 \$0-resetsnd \$0-resetrcv reset 32 7
0 10 -262144 -1 -1;
#X obj 995 149 r \$0-resetsnd;
#X obj 884 294 *~ 1.5;
#X obj 884 316 tanh~;
#X obj 907 514 *~ 0.6;
#X obj 881 345 >~ 0.9;
#X obj 573 533 outlet~;
#X obj 634 535 outlet~;
#X obj 388 -5 inlet clk;
#X obj 388 27 t b b;
#X obj 388 49 timer;
#X obj 388 71 / 1000;
#X obj 388 93 expr 1/$f1;
#X obj 490 -7 inlet~ pitch;
#X obj 490 25 *~ 48;
#X obj 490 47 midiratio~;
#X obj 490 69 s~ \$0-pitchmod;
#X obj 338 268 r~ \$0-pitchmod;
#X obj 469 210 smoother 5;
#X obj 467 266 *~;
#X obj 592 246 *~;
#X obj 388 115 s \$0-speedrcv;
#X obj 98 299 r allsequencers;
#X obj 98 321 s \$0-resetrcv;
#X connect 0 0 2 0;
#X connect 1 0 5 1;
#X connect 1 0 14 1;
#X connect 1 0 21 0;
#X connect 2 0 51 0;
#X connect 2 0 52 0;
#X connect 3 0 1 0;
#X connect 4 0 65 0;
#X connect 5 0 8 0;
#X connect 6 0 5 0;
#X connect 7 0 4 0;
#X connect 8 0 26 0;
#X connect 10 0 3 1;
#X connect 10 0 15 1;
#X connect 11 0 18 0;
#X connect 12 0 23 0;
#X connect 12 0 27 0;
#X connect 13 0 14 0;
#X connect 14 0 19 0;
#X connect 14 0 32 0;
#X connect 15 0 47 0;
#X connect 17 0 15 0;
#X connect 18 0 7 0;
#X connect 19 0 12 0;
#X connect 20 0 29 2;
#X connect 21 0 0 1;
#X connect 23 0 11 0;
#X connect 26 0 7 1;
#X connect 27 0 49 0;
#X connect 28 0 33 0;
#X connect 29 0 0 0;
#X connect 29 1 0 0;
#X connect 30 0 29 0;
#X connect 32 0 28 1;
#X connect 33 0 34 0;
#X connect 34 0 39 0;
#X connect 35 0 38 0;
#X connect 37 0 35 0;
#X connect 37 0 36 0;
#X connect 38 0 28 0;
#X connect 39 0 29 1;
#X connect 40 0 23 1;
#X connect 41 0 3 0;
#X connect 41 0 37 0;
#X connect 42 0 26 1;
#X connect 43 0 21 1;
#X connect 44 0 63 0;
#X connect 46 0 10 0;
#X connect 47 0 48 0;
#X connect 48 0 1 1;
#X connect 48 0 50 0;
#X connect 49 0 16 0;
#X connect 50 0 1 1;
#X connect 53 0 54 0;
#X connect 54 0 55 0;
#X connect 54 1 55 1;
#X connect 55 0 56 0;
#X connect 56 0 57 0;
#X connect 57 0 66 0;
#X connect 58 0 59 0;
#X connect 59 0 60 0;
#X connect 60 0 61 0;
#X connect 62 0 64 1;
#X connect 63 0 64 0;
#X connect 64 0 30 0;
#X connect 64 0 65 1;
#X connect 65 0 20 0;
#X connect 67 0 68 0;
#X coords 0 -1 1 1 150 160 2 53 0;
