#N canvas 610 109 638 410 10;
#X obj 193 138 osc~;
#X obj 77 23 inlet kv;
#X obj 82 53 unpack f f;
#X obj 97 84 t b f;
#X obj 138 253 outlet~;
#X obj 120 112 mtof;
#X obj 259 252 outlet~;
#X obj 193 195 adamonopan;
#X obj 331 97 inlet pan;
#X obj 195 165 *~;
#X obj 191 55 / 127;
#X obj 223 82 smoother 10;
#X obj 364 282 +~ 1;
#X obj 120 134 *~;
#X obj 419 51 loadbang;
#X msg 419 73 1;
#X obj 507 102 inlet drift;
#X obj 507 124 t b f;
#X obj 404 113 metro 10000;
#X obj 364 238 smoother 10000;
#X obj 364 209 * 0;
#X obj 397 138 random 10000;
#X obj 397 160 / 5000;
#X obj 397 182 - 1;
#X connect 0 0 9 0;
#X connect 1 0 2 0;
#X connect 2 0 3 0;
#X connect 2 1 10 0;
#X connect 3 1 5 0;
#X connect 5 0 13 0;
#X connect 7 0 4 0;
#X connect 7 1 6 0;
#X connect 8 0 7 1;
#X connect 9 0 7 0;
#X connect 10 0 11 0;
#X connect 11 0 9 1;
#X connect 12 0 13 1;
#X connect 13 0 0 0;
#X connect 14 0 15 0;
#X connect 15 0 18 0;
#X connect 16 0 17 0;
#X connect 17 1 20 1;
#X connect 18 0 21 0;
#X connect 19 0 12 0;
#X connect 20 0 19 0;
#X connect 21 0 22 0;
#X connect 22 0 23 0;
#X connect 23 0 20 0;
