#N canvas 196 74 997 538 10;
#X obj 290 71 inlet~;
#X obj 404 70 inlet~;
#X obj 294 288 outlet~;
#X obj 415 286 outlet~;
#X obj 544 268 pdlua;
#X msg 548 226 load hipper.pd_lua;
#X obj 121 221 hipper;
#X obj 121 242 list trim;
#X msg 508 173 \; pd-hip connect 6 0 4 1;
#X msg 121 200 4;
#X obj 120 291 s pd-\$0-hipL;
#X obj 140 312 s pd-\$0-hipR;
#N canvas 0 23 450 300 \$0-hips 0;
#X obj 102 29 inlet~;
#X obj 223 30 inlet~;
#X obj 99 235 outlet~;
#X obj 237 236 outlet~;
#N canvas 0 23 676 567 \$0-hipL 0;
#X obj 10 10 inlet~;
#X obj 10 40 hip~;
#X obj 10 65 hip~;
#X obj 10 90 hip~;
#X obj 10 115 hip~;
#X obj 10 140 outlet~;
#X obj 60 10 inlet;
#X connect 0 0 1 0;
#X connect 1 0 2 0;
#X connect 2 0 3 0;
#X connect 3 0 4 0;
#X connect 4 0 5 0;
#X connect 6 0 1 1;
#X connect 6 0 2 1;
#X connect 6 0 3 1;
#X connect 6 0 4 1;
#X restore 112 115 pd \$0-hipL;
#N canvas 0 23 450 300 \$0-hipR 0;
#X obj 10 10 inlet~;
#X obj 10 40 hip~;
#X obj 10 65 hip~;
#X obj 10 90 hip~;
#X obj 10 115 hip~;
#X obj 10 140 outlet~;
#X obj 60 10 inlet;
#X connect 0 0 1 0;
#X connect 1 0 2 0;
#X connect 2 0 3 0;
#X connect 3 0 4 0;
#X connect 4 0 5 0;
#X connect 6 0 1 1;
#X connect 6 0 2 1;
#X connect 6 0 3 1;
#X connect 6 0 4 1;
#X restore 221 116 pd \$0-hipR;
#X obj 332 30 inlet control;
#X connect 0 0 4 0;
#X connect 1 0 5 0;
#X connect 4 0 2 0;
#X connect 5 0 3 0;
#X connect 6 0 4 1;
#X connect 6 0 5 1;
#X restore 307 188 pd \$0-hips;
#X obj 503 109 s pd-\$0-hips;
#X msg 498 62 connect 0 0 4 0 \, connect 4 0 2 0 \, connect 1 0 5 0
\, connect 5 0 3 0 \, connect 6 0 4 1 \, connect 6 0 5 1;
#X obj 420 131 r \$0-cutoff;
#X obj 109 109 hsl 135 15 10 9000 1 0 \$0-cutoffsnd \$0-cutoffrcv cutoff
20 7 0 10 -261923 -260527 -1 0 1;
#X obj 109 126 hsl 135 10 1 10 0 0 \$0-numsnd \$0-numrcv num_3 20 4
0 10 -260991 -230784 -1 3400 1;
#X obj 748 231 r \$0-numsnd;
#X obj 747 319 s \$0-numrcv;
#X msg 743 279 label num_\$1;
#X obj 748 252 int;
#X connect 0 0 12 0;
#X connect 1 0 12 1;
#X connect 5 0 4 0;
#X connect 6 0 7 0;
#X connect 7 0 10 0;
#X connect 7 0 11 0;
#X connect 9 0 6 0;
#X connect 12 0 2 0;
#X connect 12 1 3 0;
#X connect 14 0 13 0;
#X connect 15 0 12 2;
#X connect 18 0 21 0;
#X connect 20 0 19 0;
#X connect 21 0 20 0;
#X coords 0 -1 1 1 150 40 1 100 100;
