#N canvas 380 104 956 592 16;
#X floatatom 18 26 4 1 1000 0 - #0-atkrcv #0-atksnd, f 4;
#X floatatom 64 26 4 5 1500 0 - #0-decrcv #0-decsnd, f 4;
#X obj 490 23 inlet~ atk;
#X obj 205 25 inlet bang;
#X obj 733 24 inlet~ mod;
#X obj 364 457 outlet~ uni;
#X obj 312 24 inlet~ L;
#X obj 403 24 inlet~ R;
#X obj 295 201 ad 10 300;
#X obj 507 92 snapshot~;
#X obj 507 114 * 0.5;
#X obj 507 136 + 0.5;
#X obj 507 158 * 1000;
#X obj 227 287 *~;
#X obj 280 287 *~;
#X obj 94 457 outlet~ sigL;
#X obj 226 455 outlet~ sigR;
#X obj 732 144 +~ 1;
#X obj 363 239 *~;
#N canvas 265 112 967 337 controls 0;
#X obj 596 56 r \$0-atksnd;
#X obj 716 59 r \$0-decsnd;
#X obj 660 111 pack f f;
#X obj 716 81 t b f;
#X obj 682 190 outlet ad;
#X obj 85 211 outlet curve;
#X obj 51 49 r \$0-curvesnd;
#X obj 51 71 / 10;
#X obj 275 67 inlet~ curve;
#X obj 191 48 inlet trig;
#X obj 274 104 snapshot~;
#X obj 274 128 + 1.01;
#X obj 74 176 *;
#X connect 0 0 2 0;
#X connect 1 0 3 0;
#X connect 2 0 4 0;
#X connect 3 0 2 0;
#X connect 3 1 2 1;
#X connect 6 0 7 0;
#X connect 7 0 12 1;
#X connect 8 0 10 0;
#X connect 9 0 10 0;
#X connect 10 0 11 0;
#X connect 11 0 12 0;
#X connect 12 0 5 0;
#X restore 334 130 pd controls;
#N canvas 0 50 450 300 declick 0;
#X obj 89 43 inlet~;
#X obj 224 41 inlet~;
#X obj 89 240 outlet~;
#X obj 222 234 outlet~;
#X obj 350 77 inlet trig;
#X obj 123 137 adadeclick;
#X obj 242 138 adadeclick;
#X connect 0 0 5 0;
#X connect 1 0 6 0;
#X connect 4 0 5 1;
#X connect 4 0 6 1;
#X connect 5 0 2 0;
#X connect 6 0 3 0;
#X restore 223 364 pd declick;
#X obj 727 74 lop~ 500;
#X floatatom 111 26 4 10 300 0 - #0-curvercv #0-curvesnd, f 4;
#X obj 600 23 inlet~ curve;
#X obj 205 55 t b b b b;
#X obj 489 457 outlet~ justad;
#X obj 589 373 *~ 2;
#X obj 640 457 outlet~ justadbipolar;
#X obj 589 395 -~ 1;
#N canvas 783 61 556 318 state_saving 0;
#X obj 42 25 loadbang;
#X msg 42 47 load savestate.pd_lua;
#X obj 42 69 pdlua;
#X obj 296 43 pack \$1 \$2 \$3 \$4;
#X obj 167 126 savestate \$0-index \$0-atk \$0-dec \$0-curve;
#X obj 167 148 outlet;
#X connect 0 0 1 0;
#X connect 0 0 3 0;
#X connect 1 0 2 0;
#X connect 3 0 4 0;
#X connect 4 0 5 0;
#X restore 85 192 pd state_saving;
#X obj 85 214 canvasargs;
#X floatatom 70 289 5 0 0 0 index #0-indexrcv #0-indexsnd, f 5;
#X connect 2 0 9 0;
#X connect 3 0 24 0;
#X connect 4 0 21 0;
#X connect 6 0 13 0;
#X connect 7 0 14 0;
#X connect 8 0 18 0;
#X connect 8 0 25 0;
#X connect 8 0 26 0;
#X connect 9 0 10 0;
#X connect 10 0 11 0;
#X connect 11 0 12 0;
#X connect 13 0 20 0;
#X connect 14 0 20 1;
#X connect 17 0 18 1;
#X connect 18 0 13 1;
#X connect 18 0 14 1;
#X connect 18 0 5 0;
#X connect 19 0 8 1;
#X connect 19 1 8 2;
#X connect 20 0 15 0;
#X connect 20 1 16 0;
#X connect 21 0 17 0;
#X connect 23 0 19 1;
#X connect 24 1 20 2;
#X connect 24 2 8 0;
#X connect 24 3 19 0;
#X connect 26 0 28 0;
#X connect 28 0 27 0;
#X connect 29 0 30 0;
#X coords 0 -1 1 1 150 40 2 10 10;
