#N canvas 794 142 494 390 10;
#X obj 156 210 osc~;
#X obj 130 21 inlet kv;
#X obj 142 351 outlet~;
#X obj 172 151 mtof;
#X obj 314 145 loadbang;
#X msg 314 167 1000 1000;
#X obj 149 254 *~;
#X obj 321 68 inlet ad;
#X obj 268 210 adreset;
#X obj 149 274 adadeclick;
#X obj 192 183 smoother 100;
#X obj 415 69 inlet portamento;
#X obj 265 351 outlet autonoteoff;
#X obj 149 123 t b f f;
#X obj 123 59 stripnote;
#X connect 0 0 6 0;
#X connect 1 0 14 0;
#X connect 3 0 10 0;
#X connect 4 0 5 0;
#X connect 5 0 8 2;
#X connect 6 0 9 0;
#X connect 7 0 8 2;
#X connect 8 0 6 1;
#X connect 8 1 12 0;
#X connect 9 0 2 0;
#X connect 10 0 0 0;
#X connect 11 0 10 1;
#X connect 13 0 9 1;
#X connect 13 1 8 0;
#X connect 13 2 3 0;
#X connect 14 0 13 0;
