#N canvas 214 204 1145 510 10;
#X obj 152 32 inlet~;
#X obj 154 484 outlet~;
#X obj 369 42 inlet control;
#X obj 773 24 loadbang;
#X obj 369 66 route rec stoprec overdub stopoverdub play stop clear
;
#X obj 184 270 delwrite~ \$0-loop 30000;
#X obj 350 327 delread4~ \$0-loop;
#X obj 350 349 *~ 1;
#X obj 177 228 *~, f 4;
#X msg 292 167 1;
#X obj 420 145 t b b b;
#X msg 331 167 0;
#X msg 661 120 clear;
#X obj 509 198 timer;
#X msg 774 73 tempo 1 msec;
#X msg 383 278 30000;
#X obj 464 90 t b b;
#X obj 523 93 t b b;
#X obj 346 91 t b b b b;
#X obj 289 382 *~;
#N canvas 1 53 450 300 momentary_mute 0;
#X obj 214 96 t b b;
#X msg 248 149 0;
#X obj 178 123 delay 10;
#X obj 223 182 smoother 10;
#X msg 186 149 1;
#X obj 174 53 inlet bang;
#X obj 221 251 outlet~ ramp;
#X connect 0 0 2 0;
#X connect 0 1 1 0;
#X connect 1 0 3 0;
#X connect 2 0 4 0;
#X connect 3 0 6 0;
#X connect 4 0 3 0;
#X connect 5 0 0 0;
#X restore 337 376 pd momentary_mute;
#X obj 286 422 *~;
#N canvas 1 53 450 300 playstop 0;
#X obj 121 96 r \$0-playsnd;
#X obj 223 100 r \$0-stopsnd;
#X obj 166 192 smoother 15;
#X msg 219 155 0;
#X msg 138 152 1;
#X obj 171 232 outlet~ ramp;
#X connect 0 0 4 0;
#X connect 1 0 3 0;
#X connect 2 0 5 0;
#X connect 3 0 2 0;
#X connect 4 0 2 0;
#X restore 378 425 pd playstop;
#X obj 577 191 s \$0-playsnd;
#X obj 673 192 s \$0-stopsnd;
#X obj 234 203 smoother 5;
#X connect 0 0 1 0;
#X connect 0 0 8 0;
#X connect 2 0 4 0;
#X connect 3 0 14 0;
#X connect 4 0 18 0;
#X connect 4 1 10 0;
#X connect 4 2 16 0;
#X connect 4 3 17 0;
#X connect 4 4 23 0;
#X connect 4 5 24 0;
#X connect 4 6 12 0;
#X connect 6 0 7 0;
#X connect 6 0 19 0;
#X connect 7 0 5 0;
#X connect 8 0 5 0;
#X connect 9 0 25 0;
#X connect 10 1 13 1;
#X connect 10 2 11 0;
#X connect 11 0 25 0;
#X connect 12 0 5 0;
#X connect 13 0 6 0;
#X connect 14 0 13 0;
#X connect 15 0 6 0;
#X connect 16 1 9 0;
#X connect 17 1 11 0;
#X connect 18 0 15 0;
#X connect 18 1 9 0;
#X connect 18 2 12 0;
#X connect 18 2 13 0;
#X connect 18 3 20 0;
#X connect 19 0 21 0;
#X connect 20 0 19 1;
#X connect 21 0 1 0;
#X connect 22 0 21 1;
#X connect 25 0 8 1;
