#N canvas 230 180 862 441 10;
#X obj 12 12 cnv 15 146 106 empty empty empty 20 12 0 14 -221146 -66577
0;
#X obj 195 43 inlet k/v;
#X obj 251 349 outlet~ L;
#X obj 434 343 outlet~ R;
#X obj 92 43 nbx 3 14 0 100 0 0 \$0-decaysnd \$0-decayrcv decay 0 -6
0 10 -133525 -229360 -259713 82 256 0;
#X obj 195 65 stripnote;
#N canvas 99 85 862 556 delay 0;
#X obj 33 333 inlet~;
#X obj 318 245 delread4~ \$0-string;
#X obj 314 479 outlet~;
#X obj 77 274 *~;
#X obj 96 143 r \$0-decaysnd;
#X obj 96 192 / 100;
#X obj 317 136 mtof;
#X obj 317 157 expr 1000/$f1;
#X obj 163 56 inlet midinote;
#X obj 429 114 block~ 1;
#X obj 79 486 delwrite~ \$0-string 200;
#X obj 202 273 r \$0-cutoffsnd;
#X obj 80 441 bob~;
#X obj 203 357 r \$0-ressnd;
#X obj 204 402 smoother 50;
#X obj 202 295 smoother 50;
#X obj 96 216 smoother 15;
#X obj 80 463 hip~ 35;
#X obj 317 180 smoother 10;
#X obj 532 200 r \$0-slidesnd;
#X obj 317 202 *~;
#X obj 293 63 inlet~ pitchmod;
#X obj 128 95 initbang;
#X obj 432 70 inlet~ cutoffmod;
#X obj 202 317 *~;
#X obj 203 379 / 1000;
#X text 427 158 calculate delay in ms = 1000 / frequency in Hz;
#X obj 577 80 inlet~ decaymod;
#X obj 98 243 +~;
#X obj 709 94 inlet~ slidemod;
#X obj 510 256 snapshot~;
#X obj 532 300 *;
#X obj 265 97 t f b;
#X obj 79 298 clip~ -0.8 0.8;
#X msg 128 114 saturation 0.9;
#X obj 96 168 maxlib/scale 0 100 90 110 0.5;
#X connect 0 0 12 0;
#X connect 1 0 2 0;
#X connect 1 0 3 0;
#X connect 3 0 33 0;
#X connect 4 0 35 0;
#X connect 5 0 16 0;
#X connect 6 0 7 0;
#X connect 7 0 18 0;
#X connect 8 0 32 0;
#X connect 11 0 15 0;
#X connect 12 0 17 0;
#X connect 13 0 25 0;
#X connect 14 0 12 2;
#X connect 15 0 24 0;
#X connect 16 0 28 0;
#X connect 17 0 10 0;
#X connect 18 0 20 0;
#X connect 19 0 31 1;
#X connect 20 0 1 0;
#X connect 21 0 20 1;
#X connect 22 0 34 0;
#X connect 23 0 24 1;
#X connect 24 0 12 1;
#X connect 25 0 14 0;
#X connect 27 0 28 1;
#X connect 28 0 3 1;
#X connect 29 0 30 0;
#X connect 30 0 31 0;
#X connect 31 0 18 1;
#X connect 32 0 6 0;
#X connect 32 1 30 0;
#X connect 33 0 12 0;
#X connect 34 0 12 0;
#X connect 35 0 5 0;
#X restore 354 270 pd delay;
#X obj 92 71 nbx 5 14 100 10000 1 0 \$0-cutoffsnd \$0-cutoffrcv cutoff
0 -6 0 10 -259973 -241664 -35 947.464 256 0;
#X obj 92 99 nbx 5 14 0 100 0 0 \$0-ressnd \$0-resrcv res 0 -6 0 10
-258545 -262136 -2369 13 256 0;
#N canvas 629 98 730 315 noise 1;
#X obj 104 114 noise~;
#X obj 113 207 *~;
#X obj 172 108 line~;
#X obj 172 45 r \$0-strikesnd;
#X obj 113 242 outlet~;
#X obj 283 43 r \$0-midinote;
#X msg 172 82 0.351458 \, 0 26.9382;
#X obj 416 68 t f f;
#X msg 416 189 addcomma \, add2 0 \, add2 \$1;
#X msg 460 146 set \$1;
#X obj 416 46 r \$0-shapemod;
#X obj 460 116 maxlib/scale 0 500 1 0 0.8;
#X obj 416 165 maxlib/scale 0 500 1 35 0.5;
#X connect 0 0 1 0;
#X connect 1 0 4 0;
#X connect 2 0 1 1;
#X connect 3 0 6 0;
#X connect 5 0 6 0;
#X connect 6 0 2 0;
#X connect 7 0 12 0;
#X connect 7 1 11 0;
#X connect 8 0 6 0;
#X connect 9 0 6 0;
#X connect 10 0 7 0;
#X connect 11 0 9 0;
#X connect 12 0 8 0;
#X restore 233 217 pd noise;
#N canvas 291 111 621 300 blip 0;
#X obj 82 94 mtof;
#X obj 92 140 osc~;
#X obj 92 162 *~;
#X obj 244 119 line~;
#X msg 244 97 1 \, 0 0.2;
#X msg 299 71 set 1 \, addcomma \, add2 0 \, add2 \$1;
#X obj 79 30 r \$0-midinote;
#X obj 93 209 outlet~;
#X obj 82 71 + 0;
#X obj 198 31 r \$0-offsetsnd;
#X obj 198 53 * 12;
#X obj 125 90 r \$0-slidesnd;
#X obj 82 116 smoother 20;
#X obj 92 184 *~ 0.3;
#X obj 317 35 / 10;
#X obj 317 12 r \$0-shapemod;
#X connect 0 0 12 0;
#X connect 1 0 2 0;
#X connect 2 0 13 0;
#X connect 3 0 2 1;
#X connect 4 0 3 0;
#X connect 5 0 4 0;
#X connect 6 0 4 0;
#X connect 6 0 8 0;
#X connect 8 0 0 0;
#X connect 9 0 10 0;
#X connect 10 0 8 1;
#X connect 11 0 12 1;
#X connect 12 0 1 0;
#X connect 13 0 7 0;
#X connect 14 0 5 0;
#X connect 15 0 14 0;
#X restore 243 190 pd blip;
#X obj 208 99 s \$0-midinote;
#X obj 21 99 nbx 5 14 2 500 0 0 \$0-shapesnd \$0-shapercv shape 0 -6
0 10 -5980 -147392 -120705 2 256 0;
#X obj 22 71 nbx 5 14 -1 2 0 0 \$0-offsetsnd \$0-offsetrcv offset 0
-6 0 10 -172817 -229366 -103516 2 256 0;
#X obj 22 43 nbx 5 14 0 500 0 0 \$0-slidesnd \$0-slidercv slide 0 -6
0 10 -173093 -216748 -218881 30 256 0;
#X obj 386 42 inlet~ pitch;
#N canvas 1 53 450 300 pitchmod 0;
#X obj 152 55 inlet~;
#X obj 152 77 *~ -48;
#X obj 152 99 midiratio~;
#X obj 152 121 outlet~;
#X connect 0 0 1 0;
#X connect 1 0 2 0;
#X connect 2 0 3 0;
#X restore 387 69 pd pitchmod;
#X obj 483 42 inlet~ cutoff;
#N canvas 1 53 450 300 cutoffmod 0;
#X obj 138 68 inlet~;
#X obj 138 90 *~ 48;
#X obj 138 112 midiratio~;
#X obj 138 134 outlet~;
#X connect 0 0 1 0;
#X connect 1 0 2 0;
#X connect 2 0 3 0;
#X restore 484 66 pd cutoffmod;
#N canvas 560 110 626 302 state_saving 0;
#X obj 129 36 initbang;
#X obj 124 200 outlet;
#X msg 129 58 load savestate.pd_lua;
#X obj 129 80 pdlua;
#X obj 123 150 savestate \$0-index \$0-slide \$0-decay \$0-offset \$0-cutoff
\$0-shape \$0-res;
#X obj 356 104 pack \$1 \$2 \$3 \$4 \$5 \$6 \$7;
#X obj 355 79 delay 100;
#X connect 0 0 2 0;
#X connect 0 0 6 0;
#X connect 2 0 3 0;
#X connect 4 0 1 0;
#X connect 5 0 4 0;
#X connect 6 0 5 0;
#X restore 83 246 pd state_saving;
#X obj 83 268 canvasargs;
#X obj 595 43 inlet~ decay;
#N canvas 491 247 450 300 decaymod 0;
#X obj 178 50 inlet~;
#X obj 178 221 outlet~;
#X obj 179 136 *~ 0.1;
#X connect 0 0 2 0;
#X connect 2 0 1 0;
#X restore 595 65 pd decaymod;
#X obj 698 58 inlet~ slide;
#N canvas 1 53 450 300 slidemod 0;
#X obj 114 56 inlet~;
#X obj 114 78 *~ 60;
#X obj 114 100 midiratio~;
#X obj 114 122 outlet~;
#X connect 0 0 1 0;
#X connect 1 0 2 0;
#X connect 2 0 3 0;
#X restore 698 80 pd slidemod;
#X obj 282 46 inlet~ input;
#X obj 770 112 inlet~ shapemod;
#N canvas 159 180 450 300 shapemod 0;
#X obj 203 80 inlet~;
#X obj 202 155 snapshot~;
#X obj 102 80 r \$0-midinote;
#X obj 102 102 bang;
#X obj 202 177 * 300;
#X obj 334 160 r \$0-shapesnd;
#X obj 202 199 +;
#X obj 202 221 clip 0 500;
#X obj 202 243 s \$0-shapemod;
#X connect 0 0 1 0;
#X connect 1 0 4 0;
#X connect 2 0 3 0;
#X connect 3 0 1 0;
#X connect 4 0 6 0;
#X connect 5 0 6 1;
#X connect 6 0 7 0;
#X connect 7 0 8 0;
#X restore 770 134 pd shapemod;
#X obj 12 20 cnv 8 50 8 empty empty empty 1 6 0 12 -59173 -261234 0
;
#X obj 33 20 cnv 8 50 8 empty empty ~ 1 5 0 12 -59173 -261234 0;
#X obj 70 20 cnv 8 50 8 empty empty cutoff 1 5 0 8 -59173 -261234 0
;
#X obj 108 20 cnv 8 50 8 empty empty slide 13 5 0 8 -59173 -261234
0;
#X obj 12 12 cnv 8 50 8 empty empty k/v 1 5 0 8 -59173 -262144 0;
#X obj 48 12 cnv 8 50 8 empty empty pitch 1 5 0 8 -59173 -261234 0
;
#X obj 94 12 cnv 8 50 8 empty empty decay 1 5 0 8 -59173 -261234 0
;
#X obj 123 12 cnv 8 35 8 empty empty shape 10 5 0 8 -59173 -261234
0;
#X connect 1 0 5 0;
#X connect 5 0 6 1;
#X connect 5 0 11 0;
#X connect 6 0 2 0;
#X connect 6 0 3 0;
#X connect 9 0 6 0;
#X connect 10 0 6 0;
#X connect 15 0 16 0;
#X connect 16 0 6 2;
#X connect 17 0 18 0;
#X connect 18 0 6 3;
#X connect 19 0 20 0;
#X connect 21 0 22 0;
#X connect 22 0 6 4;
#X connect 23 0 24 0;
#X connect 24 0 6 5;
#X connect 25 0 6 0;
#X connect 26 0 27 0;
#X coords 0 -1 1 1 150 110 2 10 10;
