#N canvas 580 148 858 393 10;
#X obj 12 12 cnv 15 146 21 empty empty empty 20 12 0 14 -237537 -66577
0;
#X obj 206 9 inlet bangs;
#X obj 511 13 inlet control;
#X obj 139 16 tgl 15 0 \$0-bypasssnd \$0-bypassrcv bp 2 7 0 10 -248982
-1 -1 0 1;
#X obj 206 322 outlet bangs+delayedbangs;
#X obj 255 238 spigot;
#X floatatom 24 17 4 1 24 0 d #0-delayrcv #0-delaysnd, f 4;
#X obj 277 99 pipe;
#X obj 277 121 bang;
#X obj 521 141 r \$0-delaysnd;
#X obj 422 194 * 1;
#X obj 336 10 inlet clock;
#X obj 336 32 t b b;
#X obj 336 54 timer;
#X obj 602 89 s \$0-delayrcv;
#X floatatom 67 17 6 0 5000 0 t #0-timercv #0-timesnd, f 6;
#X obj 336 76 s \$0-timercv;
#X obj 395 132 r \$0-timesnd;
#X obj 456 161 t b f;
#N canvas 515 123 654 318 state_saving 0;
#X obj 31 21 loadbang;
#X msg 31 43 load savestate.pd_lua;
#X obj 31 65 pdlua;
#X obj 152 259 outlet;
#X obj 143 204 savestate \$0-index \$0-delay \$0-time \$0-onoff \$0-bypass
;
#X obj 252 64 pack \$1 \$2 \$3 \$4 \$5;
#X connect 0 0 1 0;
#X connect 0 0 5 0;
#X connect 1 0 2 0;
#X connect 4 0 3 0;
#X connect 5 0 4 0;
#X restore 66 217 pd state_saving;
#X obj 66 239 canvasargs;
#X floatatom 89 126 5 0 0 0 index #0-indexrcv #0-indexsnd, f 5;
#X obj 515 70 s \$0-onoffrcv;
#X obj 116 16 tgl 15 0 \$0-onoffsnd \$0-onoffrcv on 2 7 0 10 -261156
-143425 -1 0 1;
#X obj 195 239 spigot;
#N canvas 654 101 597 361 bypasslogic 0;
#X obj 45 62 r \$0-onoffsnd;
#X obj 266 55 r \$0-bypasssnd;
#X obj 266 77 t b f;
#X obj 34 183 expr if (($f1==0)&&($f2==0) \, 2 \, if (($f1==1)&&($f2==0)
\, 1 \, if (($f1==0)&&($f2==1) \, 2 \, if (($f1==1)&&($f2==1) \, 3
\, 0))));
#X obj 34 223 sel 1 2 3;
#X msg 35 273 0 1;
#X msg 72 273 1 0;
#X msg 107 273 1 1;
#X obj 35 301 unpack f f;
#X obj 35 323 outlet;
#X obj 104 326 outlet;
#X connect 0 0 3 0;
#X connect 1 0 2 0;
#X connect 2 0 3 0;
#X connect 2 1 3 1;
#X connect 3 0 4 0;
#X connect 4 0 5 0;
#X connect 4 1 6 0;
#X connect 4 2 7 0;
#X connect 5 0 8 0;
#X connect 6 0 8 0;
#X connect 7 0 8 0;
#X connect 8 0 9 0;
#X connect 8 1 10 0;
#X restore 249 184 pd bypasslogic;
#X floatatom 335 284 5 0 0 0 - - -, f 5;
#X floatatom 385 287 5 0 0 0 - - -, f 5;
#X obj 511 35 route float delay bypass;
#X obj 647 123 s \$0-bypassrcv;
#X connect 1 0 24 0;
#X connect 1 0 7 0;
#X connect 2 0 28 0;
#X connect 5 0 4 0;
#X connect 7 0 8 0;
#X connect 8 0 5 0;
#X connect 9 0 18 0;
#X connect 10 0 7 1;
#X connect 11 0 12 0;
#X connect 12 0 13 0;
#X connect 12 1 13 1;
#X connect 13 0 16 0;
#X connect 17 0 10 0;
#X connect 18 0 10 0;
#X connect 18 1 10 1;
#X connect 19 0 20 0;
#X connect 24 0 4 0;
#X connect 25 0 24 1;
#X connect 25 0 26 0;
#X connect 25 1 5 1;
#X connect 25 1 27 0;
#X connect 28 0 22 0;
#X connect 28 1 14 0;
#X connect 28 2 29 0;
#X coords 0 -1 1 1 150 25 2 10 10;
