#N canvas 65 104 858 393 10;
#X obj 206 9 inlet bangs;
#X obj 511 13 inlet control;
#X obj 123 15 tgl 15 0 \$0-onoffsnd \$0-onoffrcv on 17 7 0 10 -262144
-1 -1 0 1;
#X obj 205 259 outlet bangs+delayedbangs;
#X obj 282 115 spigot;
#X floatatom 27 16 5 1 24 0 d #0-delayrcv #0-delaysnd, f 5;
#X obj 392 100 r \$0-onoffsnd;
#X obj 256 181 pipe;
#X obj 256 203 bang;
#X obj 521 141 r \$0-delaysnd;
#X obj 422 194 * 1;
#X obj 336 10 inlet clock;
#X obj 336 32 t b b;
#X obj 336 54 timer;
#X obj 511 35 route float delay;
#X obj 602 89 s \$0-delayrcv;
#X floatatom 80 16 5 0 5000 0 t #0-timercv #0-timesnd, f 5;
#X obj 336 76 s \$0-timercv;
#X obj 395 132 r \$0-timesnd;
#X obj 456 161 t b f;
#N canvas 515 123 450 300 state_saving 0;
#X obj 31 21 loadbang;
#X msg 31 43 load savestate.pd_lua;
#X obj 31 65 pdlua;
#X obj 152 259 outlet;
#X obj 143 204 savestate \$0-index \$0-delay \$0-time \$0-onoff;
#X obj 252 64 pack \$1 \$2 \$3 \$4;
#X connect 0 0 1 0;
#X connect 0 0 5 0;
#X connect 1 0 2 0;
#X connect 4 0 3 0;
#X connect 5 0 4 0;
#X restore 66 217 pd state_saving;
#X obj 66 239 canvasargs;
#X floatatom 89 126 5 0 0 0 index #0-indexrcv #0-indexsnd, f 5;
#X obj 515 70 s \$0-onoffrcv;
#X connect 0 0 4 0;
#X connect 0 0 3 0;
#X connect 1 0 14 0;
#X connect 4 0 7 0;
#X connect 6 0 4 1;
#X connect 7 0 8 0;
#X connect 8 0 3 0;
#X connect 9 0 19 0;
#X connect 10 0 7 1;
#X connect 11 0 12 0;
#X connect 12 0 13 0;
#X connect 12 1 13 1;
#X connect 13 0 17 0;
#X connect 14 0 23 0;
#X connect 14 1 15 0;
#X connect 18 0 10 0;
#X connect 19 0 10 0;
#X connect 19 1 10 1;
#X connect 20 0 21 0;
#X coords 0 -1 1 1 150 25 2 10 10;
