#N canvas 0 24 1360 692 16;
#X obj 12 12 cnv 15 146 41 empty empty empty 20 12 0 14 -53964 -66577
0;
#X obj 128 12 cnv 8 30 8 empty empty ctrl 11 3 0 8 -233017 -12484 0
;
#X obj 205 25 inlet bang;
#X obj 641 23 inlet~ mod;
#X obj 364 457 outlet~ uni;
#X obj 312 24 inlet~ L;
#X obj 403 24 inlet~ R;
#X obj 295 201 ad 10 300;
#X obj 227 287 *~;
#X obj 280 287 *~;
#X obj 94 457 outlet~ sigL;
#X obj 226 455 outlet~ sigR;
#X obj 640 143 +~ 1;
#X obj 363 239 *~;
#N canvas 265 112 967 337 controls 0;
#X obj 596 56 r \$0-atksnd;
#X obj 716 59 r \$0-decsnd;
#X obj 660 111 pack f f;
#X obj 716 81 t b f;
#X obj 682 190 outlet ad;
#X obj 85 211 outlet curve;
#X obj 51 49 r \$0-curvesnd;
#X obj 51 71 / 10;
#X obj 275 67 inlet~ curve;
#X obj 191 48 inlet trig;
#X obj 274 104 snapshot~;
#X obj 274 128 + 1.01;
#X obj 74 176 *;
#X connect 0 0 2 0;
#X connect 1 0 3 0;
#X connect 2 0 4 0;
#X connect 3 0 2 0;
#X connect 3 1 2 1;
#X connect 6 0 7 0;
#X connect 7 0 12 1;
#X connect 8 0 10 0;
#X connect 9 0 10 0;
#X connect 10 0 11 0;
#X connect 11 0 12 0;
#X connect 12 0 5 0;
#X restore 334 130 pd controls;
#N canvas 0 50 450 300 declick 0;
#X obj 89 43 inlet~;
#X obj 224 41 inlet~;
#X obj 89 240 outlet~;
#X obj 222 234 outlet~;
#X obj 350 77 inlet trig;
#X obj 123 137 adadeclick;
#X obj 242 138 adadeclick;
#X connect 0 0 5 0;
#X connect 1 0 6 0;
#X connect 4 0 5 1;
#X connect 4 0 6 1;
#X connect 5 0 2 0;
#X connect 6 0 3 0;
#X restore 223 364 pd declick;
#X obj 635 73 lop~ 500;
#X obj 506 25 inlet~ curve;
#X obj 205 55 t b b b b;
#X obj 489 457 outlet~ justad;
#X obj 589 373 *~ 2;
#X obj 640 457 outlet~ justadbipolar;
#X obj 589 395 -~ 1;
#N canvas 784 85 556 318 state_saving 0;
#X msg 42 85 load savestate.pd_lua;
#X obj 42 120 pdlua;
#X obj 296 43 pack \$1 \$2 \$3 \$4;
#X obj 167 126 savestate \$0-index \$0-atk \$0-dec \$0-curve;
#X obj 167 148 outlet;
#X obj 42 14 initbang;
#X obj 42 41 t b b;
#X connect 0 0 1 0;
#X connect 2 0 3 0;
#X connect 3 0 4 0;
#X connect 5 0 6 0;
#X connect 6 0 2 0;
#X connect 6 1 0 0;
#X restore 85 192 pd state_saving;
#X obj 85 214 canvasargs;
#X floatatom 70 289 5 0 0 0 index #0-indexrcv #0-indexsnd, f 5;
#X obj 17 29 nbx 5 12 0 1e+37 0 0 \$0-atksnd \$0-atkrcv atk -1 -5 0
8 -83221 -216048 -249661 334 256 0;
#X obj 63 29 nbx 5 12 0 1e+37 0 0 \$0-decsnd \$0-decrcv dec -1 -5 0
8 -116314 -249531 -249661 4 256 0;
#X obj 109 29 nbx 5 12 0 1e+37 0 0 \$0-curvesnd \$0-curvercv curve
-1 -5 0 8 -37320 -241010 -249661 82 256 0;
#X obj 12 12 cnv 8 40 8 empty empty ! 2 3 0 8 -233017 -66577 0;
#X obj 39 12 cnv 8 40 8 empty empty L 1 3 0 8 -233017 -173008 0;
#X obj 67 12 cnv 8 30 8 empty empty R 2 3 0 8 -233017 -173008 0;
#X obj 77 12 cnv 8 30 8 empty empty crv 13 3 0 8 -233017 -173008 0
;
#X obj 760 25 inlet ctrl;
#X obj 108 12 cnv 8 30 8 empty empty mod 10 3 0 8 -233017 -173008 0
;
#X obj 12 45 cnv 8 40 8 empty empty L 1 3 0 8 -233017 -173008 0;
#X obj 43 45 cnv 8 35 8 empty empty R 2 3 0 8 -233017 -173008 0;
#X obj 104 45 cnv 8 30 8 empty empty ad 12 3 0 8 -233017 -173008 0
;
#X obj 128 45 cnv 8 30 8 empty empty ad+- 11 3 0 8 -233017 -173008
0;
#X obj 78 45 cnv 8 30 8 empty empty amp 0 3 0 8 -233017 -173008 0;
#X connect 2 0 18 0;
#X connect 3 0 16 0;
#X connect 5 0 8 0;
#X connect 6 0 9 0;
#X connect 7 0 13 0;
#X connect 7 0 19 0;
#X connect 7 0 20 0;
#X connect 8 0 15 0;
#X connect 9 0 15 1;
#X connect 12 0 13 1;
#X connect 13 0 8 1;
#X connect 13 0 9 1;
#X connect 13 0 4 0;
#X connect 14 0 7 1;
#X connect 14 1 7 2;
#X connect 15 0 10 0;
#X connect 15 1 11 0;
#X connect 16 0 12 0;
#X connect 17 0 14 1;
#X connect 18 1 15 2;
#X connect 18 2 7 0;
#X connect 18 3 14 0;
#X connect 20 0 22 0;
#X connect 22 0 21 0;
#X connect 23 0 24 0;
#X coords 0 -1 1 1 150 45 2 10 10;
