#N canvas 466 100 654 479 10;
#X obj 22 22 cnv 15 71 36 empty empty empty 20 12 0 14 -145833 -245376
0;
#X obj 353 40 inlet~ cv-vel;
#X obj 119 63 route bang list;
#X obj 119 41 inlet bangs/kvs;
#X obj 102 226 f \$1;
#X floatatom 72 29 3 0 126 0 - #0-minrcv #0-minsnd, f 3;
#X obj 365 147 r \$0-minsnd;
#X obj 123 199 r \$0-notesnd;
#X obj 178 321 outlet kvs;
#X obj 301 134 snapshot~;
#X obj 301 155 + 1;
#X obj 301 178 * 63;
#X obj 301 200 max 50;
#X obj 178 289 pack f f;
#X obj 257 43 inlet~ note;
#X obj 257 81 snapshot~;
#X obj 102 93 t b b b;
#X obj 102 253 +;
#X obj 158 156 * 12;
#X text 13 101 nt;
#X text 71 105 mn;
#X floatatom 47 29 3 0 150 0 - #0-scalercv #0-scalesnd, f 3;
#X text 39 94 scl;
#X obj 167 134 r \$0-scalesnd;
#X obj 157 176 int;
#N canvas 0 22 450 300 state_saving 0;
#X obj 119 51 r \$0-notesnd;
#X obj 142 79 r \$0-scalesnd;
#X obj 177 109 r \$0-minsnd;
#X obj 97 164 pack \$1 f f f;
#X obj 30 74 r \$0-indexsnd;
#X obj 97 186 outlet;
#X obj 96 137 cyclone/bondo 4;
#X connect 0 0 6 1;
#X connect 1 0 6 2;
#X connect 2 0 6 3;
#X connect 3 0 5 0;
#X connect 4 0 6 0;
#X connect 6 0 3 0;
#X connect 6 1 3 1;
#X connect 6 2 3 2;
#X connect 6 3 3 3;
#X restore 34 292 pd state_saving;
#X obj 34 314 canvasargs;
#N canvas 0 22 450 300 state_loading 0;
#X obj 114 42 loadbang;
#X obj 114 64 pack \$1 \$2 \$3 \$4;
#X obj 114 86 unpack f f f f;
#X obj 110 137 s \$0-notercv;
#X obj 110 159 s \$0-scalercv;
#X obj 110 181 s \$0-minrcv;
#X connect 0 0 1 0;
#X connect 1 0 2 0;
#X connect 2 1 3 0;
#X connect 2 2 4 0;
#X connect 2 3 5 0;
#X restore 34 349 pd state_loading;
#X obj 22 51 cnv 7 15 7 empty empty kv 2 4 0 7 -233017 -1 0;
#X obj 297 283 pack f f;
#X obj 283 256 unpack f f;
#X obj 203 98 t a b;
#X text 363 269 kv inputs -> replace velocity with new velocity;
#X obj 48 43 cnv 7 20 7 empty empty pmod 0 4 0 7 -145833 -262144 0
;
#X floatatom 23 29 3 0 127 0 - #0-notercv #0-notesnd, f 3;
#X obj 23 43 cnv 7 20 7 empty empty note 0 4 0 7 -145833 -262144 0
;
#X obj 22 22 cnv 7 30 7 empty empty !/kv 1 4 0 7 -233017 -99411 0;
#X obj 72 43 cnv 7 20 7 empty empty min 1 4 0 7 -145833 -262144 0;
#X obj 40 22 cnv 7 30 7 empty empty pitch 2 4 0 7 -233017 -223329 0
;
#X obj 62 22 cnv 7 15 7 empty empty vel 4 4 0 7 -233017 -223329 0;
#X obj 78 22 cnv 7 15 7 empty empty ctrl 2 4 0 7 -233017 -33289 0;
#X obj 473 47 inlet control;
#X obj 473 69 route note pmod min;
#X obj 465 111 s \$0-notercv;
#X obj 465 133 s \$0-scalercv;
#X obj 465 155 s \$0-minrcv;
#X connect 1 0 9 0;
#X connect 2 0 16 0;
#X connect 2 1 31 0;
#X connect 3 0 2 0;
#X connect 4 0 17 0;
#X connect 6 0 12 1;
#X connect 7 0 4 1;
#X connect 9 0 10 0;
#X connect 10 0 11 0;
#X connect 11 0 12 0;
#X connect 12 0 13 1;
#X connect 12 0 29 1;
#X connect 13 0 8 0;
#X connect 14 0 15 0;
#X connect 15 0 18 0;
#X connect 16 0 4 0;
#X connect 16 1 9 0;
#X connect 16 2 15 0;
#X connect 17 0 13 0;
#X connect 18 0 24 0;
#X connect 23 0 18 1;
#X connect 24 0 17 1;
#X connect 25 0 26 0;
#X connect 29 0 8 0;
#X connect 30 0 29 0;
#X connect 31 0 30 0;
#X connect 31 1 9 0;
#X connect 41 0 42 0;
#X connect 42 0 43 0;
#X connect 42 1 44 0;
#X connect 42 2 45 0;
#X coords 0 -1 1 1 75 40 2 20 20;
