#N canvas 354 120 908 490 10;
#X obj 56 141 lop~ 5000;
#X obj 81 309 pack 0 100;
#X obj 55 161 fiddle~ 2048 1 50;
#X obj 55 185 t f b;
#X obj 99 215 random 3;
#X obj 99 259 * 12;
#X obj 81 284 +;
#X obj 42 10 inlet~;
#X obj 82 421 outlet~;
#X obj 206 112 loadbang;
#X obj 56 119 hip~ 80;
#X msg 353 178 npartial 5;
#X obj 387 28 inlet;
#X obj 99 237 + 1;
#X obj 80 373 lop~ 5000;
#X obj 81 343 polysineenv \$1;
#X obj 387 51 route sensitivity octaves shift ad portamento;
#X obj 164 46 stripnote;
#X obj 164 68 pack f f;
#X obj 166 23 inlet kv;
#X obj 52 66 *~ 1;
#X msg 206 134 amp-range 60 100;
#X connect 0 0 2 0;
#X connect 1 0 15 0;
#X connect 2 0 3 0;
#X connect 3 0 6 0;
#X connect 3 1 4 0;
#X connect 4 0 13 0;
#X connect 5 0 6 1;
#X connect 6 0 1 0;
#X connect 7 0 20 0;
#X connect 9 0 21 0;
#X connect 9 0 11 0;
#X connect 10 0 0 0;
#X connect 11 0 2 0;
#X connect 12 0 16 0;
#X connect 13 0 5 0;
#X connect 14 0 8 0;
#X connect 15 0 14 0;
#X connect 16 0 20 1;
#X connect 16 1 4 1;
#X connect 16 2 13 1;
#X connect 16 3 15 1;
#X connect 16 4 15 2;
#X connect 17 0 18 0;
#X connect 17 1 18 1;
#X connect 18 0 15 0;
#X connect 19 0 17 0;
#X connect 20 0 10 0;
#X connect 21 0 2 0;
