#N canvas 370 191 908 490 10;
#X obj 56 141 lop~ 5000;
#X obj 81 309 pack 0 100;
#X obj 55 161 fiddle~ 2048 1 50;
#X obj 55 185 t f b;
#X obj 99 215 random 3;
#X obj 99 259 * 12;
#X obj 81 284 +;
#X obj 42 10 inlet~;
#X obj 82 421 outlet~;
#X obj 81 343 polysine \$1;
#X obj 206 112 loadbang;
#X obj 56 119 hip~ 80;
#X msg 353 178 npartial 5;
#X msg 206 134 amp-range 80 100;
#X obj 387 28 inlet;
#X obj 52 66 *~ \$1;
#X obj 489 119 bng 15 250 50 0 empty empty empty 17 7 0 10 -262144
-1 -1;
#X obj 387 51 route sensitivity octaves shift;
#X obj 99 237 + 1;
#X obj 80 373 lop~ 5000;
#X connect 0 0 2 0;
#X connect 1 0 9 0;
#X connect 2 0 3 0;
#X connect 3 0 6 0;
#X connect 3 1 4 0;
#X connect 4 0 18 0;
#X connect 5 0 6 1;
#X connect 6 0 1 0;
#X connect 7 0 15 0;
#X connect 9 0 19 0;
#X connect 10 0 13 0;
#X connect 10 0 12 0;
#X connect 11 0 0 0;
#X connect 12 0 2 0;
#X connect 13 0 2 0;
#X connect 14 0 17 0;
#X connect 15 0 11 0;
#X connect 17 0 15 1;
#X connect 17 0 16 0;
#X connect 17 1 4 1;
#X connect 17 2 18 1;
#X connect 18 0 5 0;
#X connect 19 0 8 0;
