#N canvas 604 86 584 495 10;
#X obj 97 209 +~ 1;
#X obj 110 279 *~;
#X obj 187 279 *~;
#X obj 102 232 tabread4~ \$1;
#X obj 181 232 tabread4~ \$2;
#X obj 77 18 inlet;
#X obj 131 410 outlet~;
#X obj 132 317 *~ 0.5;
#X text 118 22 freq;
#X obj 285 143 expr~ 1-$v1;
#X obj 201 125 clip~ 0 1;
#X obj 219 341 tabread4~ \$3;
#X obj 132 378 *~;
#X obj 257 278 line~;
#X msg 266 240 0 0;
#X msg 314 281 200;
#X obj 289 201 t b b b;
#X obj 67 40 unpack f f;
#X obj 67 62 swap;
#X obj 67 84 pack f f;
#X msg 454 229 200 0;
#X msg 389 272 259;
#X msg 424 275 259 1206.5;
#X obj 374 205 t b b b;
#X obj 318 344 tabread4~ \$4;
#X obj 321 32 inlet;
#X text 319 15 env rate;
#X msg 417 80 set 259 \$1;
#X obj 418 52 / 4;
#X obj 113 131 reverse;
#X obj 92 166 phasor~ 400;
#X obj 67 106 route 0;
#X msg 308 241 200 4826;
#X msg 339 80 set 200 \$1;
#X text 495 15 phasor index;
#X obj 97 186 *~;
#X obj 496 33 inlet~;
#X connect 0 0 3 0;
#X connect 0 0 4 0;
#X connect 1 0 7 0;
#X connect 2 0 7 0;
#X connect 3 0 1 0;
#X connect 4 0 2 0;
#X connect 5 0 17 0;
#X connect 7 0 12 0;
#X connect 9 0 2 1;
#X connect 10 0 9 0;
#X connect 10 0 1 1;
#X connect 11 0 12 1;
#X connect 12 0 6 0;
#X connect 13 0 11 0;
#X connect 13 0 24 0;
#X connect 14 0 13 0;
#X connect 16 0 32 0;
#X connect 16 1 15 0;
#X connect 16 2 14 0;
#X connect 17 0 18 0;
#X connect 17 1 18 1;
#X connect 18 0 19 0;
#X connect 18 1 19 1;
#X connect 19 0 31 0;
#X connect 22 0 13 0;
#X connect 23 0 22 0;
#X connect 23 1 20 0;
#X connect 23 2 21 0;
#X connect 24 0 10 0;
#X connect 25 0 33 0;
#X connect 25 0 28 0;
#X connect 27 0 22 0;
#X connect 28 0 27 0;
#X connect 29 0 16 0;
#X connect 29 0 30 0;
#X connect 30 0 35 0;
#X connect 31 0 23 0;
#X connect 31 1 29 0;
#X connect 32 0 13 0;
#X connect 33 0 32 0;
#X connect 35 0 0 0;
#X connect 36 0 35 1;
