#N canvas 433 88 840 576 10;
#X obj 97 262 +~ 1;
#X obj 97 312 *~;
#X obj 176 312 *~;
#X obj 77 18 inlet;
#X obj 131 440 outlet~;
#X text 118 22 freq;
#X obj 191 262 expr~ 1-$v1;
#X obj 187 166 clip~ 0 1;
#X obj 132 408 *~;
#X obj 257 278 line~;
#X msg 352 243 0 0;
#X obj 276 203 t b b b;
#X obj 67 40 unpack f f;
#X obj 67 62 swap;
#X obj 67 84 pack f f;
#X obj 383 203 t b b b;
#X obj 272 83 inlet;
#X obj 345 114 / 4;
#X obj 106 138 reverse;
#X obj 97 165 phasor~ 400;
#X obj 67 106 route 0;
#X msg 275 243 200 390.321;
#X msg 272 113 set 200 \$1;
#X text 154 59 phasor index;
#X obj 97 186 *~;
#X obj 158 78 inlet~;
#X obj 176 334 sqrt~;
#X obj 97 334 sqrt~;
#X obj 97 209 *~;
#X msg 383 243 256 97.5802;
#X msg 345 140 set 256 \$1;
#X obj 97 288 tabread4~ \$2;
#X obj 176 288 tabread4~ \$3;
#X obj 219 341 tabread4~ \$4;
#X obj 305 317 tabread4~ \$5;
#X obj 298 363 lop~ 50;
#X obj 483 115 inlet;
#X msg 572 235 0 0;
#X obj 496 195 t b b b;
#X obj 573 193 t b b b;
#X obj 554 145 / 4;
#X msg 495 235 200 283.778;
#X msg 483 145 set 200 \$1;
#X msg 574 214 256 70.9444;
#X msg 554 168 set 256 \$1;
#X obj 493 258 line~;
#X text 270 66 amp env rate;
#X text 482 96 blend env rate;
#X text 615 93 blend env -> index;
#X obj 647 116 inlet~;
#X obj 137 190 expr~ 1-$v1;
#X obj 137 212 *~;
#X obj 137 234 expr~ 1-$v1;
#X text 328 381 select whether amp or blend env controls index;
#X obj 706 181 inlet;
#X text 710 158 a/b->e selector;
#X obj 266 410 mux~;
#X obj 233 368 lop~ 50;
#X connect 0 0 31 0;
#X connect 0 0 32 0;
#X connect 1 0 27 0;
#X connect 2 0 26 0;
#X connect 3 0 12 0;
#X connect 6 0 2 1;
#X connect 7 0 6 0;
#X connect 7 0 1 1;
#X connect 7 0 50 0;
#X connect 8 0 4 0;
#X connect 9 0 33 0;
#X connect 10 0 9 0;
#X connect 11 0 21 0;
#X connect 11 2 10 0;
#X connect 12 0 13 0;
#X connect 12 1 13 1;
#X connect 13 0 14 0;
#X connect 13 1 14 1;
#X connect 14 0 20 0;
#X connect 15 0 29 0;
#X connect 16 0 22 0;
#X connect 16 0 17 0;
#X connect 17 0 30 0;
#X connect 18 0 11 0;
#X connect 18 0 19 0;
#X connect 18 0 38 0;
#X connect 19 0 24 0;
#X connect 20 0 15 0;
#X connect 20 0 39 0;
#X connect 20 1 18 0;
#X connect 21 0 9 0;
#X connect 22 0 21 0;
#X connect 24 0 28 0;
#X connect 25 0 24 1;
#X connect 26 0 8 0;
#X connect 27 0 8 0;
#X connect 28 0 0 0;
#X connect 29 0 9 0;
#X connect 30 0 29 0;
#X connect 31 0 1 0;
#X connect 32 0 2 0;
#X connect 33 0 8 1;
#X connect 33 0 57 0;
#X connect 34 0 35 0;
#X connect 35 0 56 1;
#X connect 36 0 42 0;
#X connect 36 0 40 0;
#X connect 37 0 45 0;
#X connect 38 0 41 0;
#X connect 38 2 37 0;
#X connect 39 0 43 0;
#X connect 40 0 44 0;
#X connect 41 0 45 0;
#X connect 42 0 41 0;
#X connect 43 0 45 0;
#X connect 44 0 43 0;
#X connect 45 0 34 0;
#X connect 49 0 51 1;
#X connect 50 0 51 0;
#X connect 51 0 52 0;
#X connect 52 0 28 1;
#X connect 54 0 56 0;
#X connect 56 0 7 0;
#X connect 57 0 56 0;
