#N canvas 377 192 748 523 10;
#X obj 84 227 adapan;
#X obj 102 102 hsl 143 23 0 1 0 0 \$0-xfadesnd \$0-xfadercv stereo\ xfade
38 10 0 10 -255253 -261234 -262144 6900 1;
#X obj 171 173 smoother 100;
#X obj 45 22 inlet~ L1;
#X obj 106 23 inlet~ R1;
#X obj 197 24 inlet~ L2;
#X obj 257 24 inlet~ R2;
#X obj 84 299 outlet~;
#X obj 272 229 adapan;
#X obj 272 301 outlet~;
#X obj 343 36 inlet~ control;
#X obj 171 195 +~;
#X obj 171 217 clip~ 0 1;
#X obj 345 114 r \$0-xfadesnd;
#X obj 102 126 hsl 143 10 0.5 2.5 0 0 \$0-curvesnd \$0-curvercv curve_2.06338
43 4 0 9 -252587 -12289 -217609 11100 1;
#X obj 365 180 r \$0-curvesnd;
#N canvas 456 232 696 382 state_saving 0;
#X obj 28 72 pdlua;
#X msg 28 50 load savestate.pd_lua;
#X obj 142 226 outlet;
#X obj 263 75 t b b;
#X obj 28 24 inlet;
#X obj 143 177 savestate \$0-index \$0-xfade \$0-curve;
#X obj 254 120 pack \$1 \$2 \$3;
#X connect 1 0 0 0;
#X connect 3 0 6 0;
#X connect 4 0 1 0;
#X connect 4 0 3 0;
#X connect 5 0 2 0;
#X connect 6 0 5 0;
#X restore 389 257 pd state_saving;
#X obj 389 279 canvasargs;
#X obj 389 235 initbang;
#X floatatom 388 78 5 0 0 0 index #0-indexrcv #0-indexsnd, f 5;
#X msg 551 198 label curve_\$1;
#X obj 551 238 s \$0-curvercv;
#X connect 0 0 7 0;
#X connect 0 1 7 0;
#X connect 2 0 11 0;
#X connect 3 0 0 0;
#X connect 4 0 8 0;
#X connect 5 0 0 2;
#X connect 6 0 8 2;
#X connect 8 0 9 0;
#X connect 8 1 9 0;
#X connect 10 0 11 1;
#X connect 11 0 12 0;
#X connect 12 0 0 1;
#X connect 12 0 8 1;
#X connect 13 0 2 0;
#X connect 15 0 8 3;
#X connect 15 0 0 3;
#X connect 15 0 20 0;
#X connect 16 0 17 0;
#X connect 18 0 16 0;
#X connect 20 0 21 0;
#X coords 0 -1 1 1 150 40 2 101 100;
