#N canvas 0 22 931 591 10;
#X obj 299 301 mixer4 0 0.417112 0 0 0 0.565657 0.545455 0.414141 0.494949
1 0 0 0 0 0 0 0 0 0 0 1;
#X obj 299 456 output;
#X obj 202 26 clock 0 120 1 2 3 4;
#X obj 475 132 sampler 0 0.872727 1 2080.08 80 0 1 1 0.0170012 998.486
0.608696 2.21059 0 0 0 0 0 0.162791 0.0310078 0.55814 0.736434 0.302326
0.844961 0.224806 1 0 /Users/ada/Documents/soundlibrary/glitchLoops/AMBlip7.wav
;
#X obj 318 89 seq8 0 0 0 0 0 0 0 0 0;
#X obj 473 328 bus 1;
#X obj 560 6 keyb;
#X obj 113 105 cvseq8 0 0.101449 -0.681159 0.231884 -0.57971 0.376812
-0.115942 0.0869565 -0.521739 0 0 0 0 0 0 0 0 106.754 69.942 55.2174
40.4928 55.2174 51.5362 18.4058 49.6957 50 64 68 1 102.039;
#X text 86 269 this sequencer is sending midi key/velocity pairs (k/v)
to the sampler.;
#X text 727 13 the leftmost outlet of keyb sends midi k/v pairs as
well, f 19;
#X text 632 139 sampler can be triggered in 2 ways \; with key/velocity
pairs (basically midi notes) or with bangs.;
#X text 638 258 click 'load' to load your own soundfile.;
#X obj 355 211 *~ 0;
#X obj 383 144 tgl 15 0 empty empty empty 17 7 0 10 -262144 -1 -1 1
1;
#X connect 0 0 1 0;
#X connect 0 1 1 1;
#X connect 2 0 4 0;
#X connect 2 0 7 0;
#X connect 3 0 5 0;
#X connect 3 1 5 1;
#X connect 4 0 3 3;
#X connect 6 0 3 2;
#X connect 7 0 3 2;
#X connect 7 2 12 0;
#X connect 12 0 3 4;
#X connect 13 0 12 1;
