#N canvas 15 23 450 300 10;
#X msg 125 151 set \$1;
#X obj 110 97 makefilename bus%dL;
#X obj 125 115 makefilename bus%dR;
#X obj 229 185 throw~;
#X obj 299 185 throw~;
#X obj 104 63 f \$1;
#X obj 96 32 loadbang;
#X msg 182 151 set \$1;
#X obj 232 78 inlet~;
#X obj 300 78 inlet~;
#X connect 0 0 3 0;
#X connect 1 0 0 0;
#X connect 2 0 7 0;
#X connect 5 0 1 0;
#X connect 5 0 2 0;
#X connect 6 0 5 0;
#X connect 7 0 4 0;
#X connect 8 0 3 0;
#X connect 9 0 4 0;
