#N canvas 446 44 439 431 10;
#X obj 104 71 key;
#X obj 157 71 keyup;
#X obj 93 104 sel \$1;
#X obj 182 113 sel \$1;
#X obj 260 96 loadbang;
#X obj 93 126 t b b;
#X msg 127 155 stop;
#X msg 174 214 0;
#X obj 95 249 change;
#X msg 94 215 1;
#X obj 174 192 del 10;
#X obj 99 334 outlet;
#X obj 147 283 sel 1 0;
#X obj 184 331 outlet;
#X connect 0 0 2 0;
#X connect 1 0 3 0;
#X connect 2 0 5 0;
#X connect 3 0 10 0;
#X connect 5 0 9 0;
#X connect 5 1 6 0;
#X connect 6 0 10 0;
#X connect 7 0 8 0;
#X connect 8 0 12 0;
#X connect 9 0 8 0;
#X connect 10 0 7 0;
#X connect 12 0 11 0;
#X connect 12 1 13 0;
