#N canvas 0 22 450 300 10;
#X obj 118 38 inlet~;
#X obj 250 38 inlet~;
#X obj 116 322 outlet~;
#X obj 247 321 outlet~;
#X obj 116 165 clip~ -1 1;
#X obj 247 165 clip~ -1 1;
#X obj 247 142 *~;
#X obj 116 141 *~;
#X obj 247 187 *~;
#X obj 116 187 *~;
#X obj 325 41 inlet;
#X obj 320 100 smoother 50;
#X obj 322 144 smoother 50;
#X obj 323 121 expr 1/$f1+0.06;
#X connect 0 0 7 0;
#X connect 1 0 6 0;
#X connect 4 0 9 0;
#X connect 5 0 8 0;
#X connect 6 0 5 0;
#X connect 7 0 4 0;
#X connect 8 0 3 0;
#X connect 9 0 2 0;
#X connect 10 0 11 0;
#X connect 10 0 13 0;
#X connect 11 0 6 1;
#X connect 11 0 7 1;
#X connect 12 0 8 1;
#X connect 12 0 9 1;
#X connect 13 0 12 0;
