#N canvas 444 66 469 437 10;
#X obj 82 208 text get \$1;
#X obj 85 31 inlet;
#X obj 233 105 text size \$1;
#X obj 232 148 until;
#X obj 232 170 f 0;
#X msg 176 79 0;
#X obj 264 170 + 1;
#X obj 82 310 outlet;
#X obj 82 230 route;
#X obj 106 60 t b b f;
#X connect 0 0 8 0;
#X connect 1 0 9 0;
#X connect 2 0 3 0;
#X connect 3 0 4 0;
#X connect 4 0 6 0;
#X connect 4 0 0 0;
#X connect 5 0 4 1;
#X connect 6 0 4 1;
#X connect 8 0 7 0;
#X connect 9 0 2 0;
#X connect 9 1 5 0;
#X connect 9 2 8 1;
